# Blender 4.2.3 LTS
# www.blender.org
mtllib Gas.mtl
o Gas
v 0.325600 0.000000 0.294606
v 0.325600 0.000000 -0.294606
v 0.325600 0.004000 0.294606
v 0.325600 0.004000 -0.294606
v -0.325600 0.000000 -0.077539
v -0.325600 0.000000 0.077539
v -0.325600 0.004000 -0.077539
v -0.325600 0.004000 0.077539
v 0.405600 0.000000 -0.405600
v 0.405600 0.000000 0.405600
v -0.405600 0.000000 0.135200
v 0.405600 0.004000 -0.405600
v -0.405600 0.004000 -0.135200
v -0.405600 0.000000 -0.135200
v 0.405600 0.004000 0.405600
v -0.405600 0.004000 0.135200
vn -0.3162 -0.0000 -0.9487
vn -0.3162 -0.0000 0.9487
vn -1.0000 -0.0000 -0.0000
vn 1.0000 -0.0000 -0.0000
vn 0.3162 -0.0000 -0.9487
vn -0.0000 -1.0000 -0.0000
vn -0.0000 1.0000 -0.0000
vn 0.3162 -0.0000 0.9487
vt 0.995093 -0.000000
vt 0.997547 -0.000000
vt 0.997547 0.524460
vt 0.995093 0.524460
vt 1.000000 0.000000
vt 1.000000 0.524460
vt 0.997547 0.524460
vt 0.997547 0.000000
vt 0.012267 0.663396
vt 0.009814 0.663396
vt 0.009814 0.497547
vt 0.012267 0.497547
vt 0.002453 0.497547
vt 0.002453 0.995093
vt 0.000000 0.995093
vt 0.000000 0.497547
vt 0.014720 0.497547
vt 0.014720 0.592664
vt 0.012267 0.592664
vt 0.012267 0.497547
vt 0.004907 0.497547
vt 0.004907 0.918563
vt 0.002453 0.918563
vt 0.002453 0.497547
vt 0.429469 0.049068
vt 0.068078 0.049068
vt 0.000000 0.000000
vt 0.497547 0.000000
vt 0.296332 0.448479
vt 0.331698 0.497547
vt 0.698761 0.049068
vt 0.565624 0.448479
vt 0.497547 0.497547
vt 0.663395 0.000000
vt 0.201215 0.448479
vt 0.165849 0.497547
vt 0.927015 0.448479
vt 0.793878 0.049068
vt 0.829244 0.000000
vt 0.995093 0.497547
vt 0.007360 0.497547
vt 0.007360 0.918563
vt 0.004907 0.918563
vt 0.004907 0.497547
vt 0.009814 0.497547
vt 0.009814 0.858938
vt 0.007360 0.858938
vt 0.007360 0.497547
s 0
usemtl Текстура_домов
f 12/1/1 9/2/1 14/3/1 13/4/1
f 11/5/2 10/6/2 15/7/2 16/8/2
f 11/9/3 16/10/3 13/11/3 14/12/3
f 10/13/4 9/14/4 12/15/4 15/16/4
f 6/17/4 5/18/4 7/19/4 8/20/4
f 1/21/5 6/22/5 8/23/5 3/24/5
f 1/25/6 2/26/6 9/27/6 10/28/6
f 6/29/6 1/25/6 10/28/6 11/30/6
f 7/31/7 4/32/7 12/33/7 13/34/7
f 2/26/6 5/35/6 14/36/6 9/27/6
f 5/35/6 6/29/6 11/30/6 14/36/6
f 3/37/7 8/38/7 16/39/7 15/40/7
f 8/38/7 7/31/7 13/34/7 16/39/7
f 4/32/7 3/37/7 15/40/7 12/33/7
f 5/41/8 2/42/8 4/43/8 7/44/8
f 2/45/3 1/46/3 3/47/3 4/48/3
