# Blender 4.2.3 LTS
# www.blender.org
mtllib Oil.mtl
o Oil
v 0.405600 0.000000 0.405600
v 0.405600 0.000000 -0.405600
v 0.405600 0.004000 0.405600
v 0.405600 0.004000 -0.405600
v -0.405600 0.000000 -0.135200
v -0.405600 0.000000 0.135200
v -0.405600 0.004000 -0.135200
v -0.405600 0.004000 0.135200
vn -0.3162 -0.0000 -0.9487
vn -0.3162 -0.0000 0.9487
vn -1.0000 -0.0000 -0.0000
vn 1.0000 -0.0000 -0.0000
vn -0.0000 -1.0000 -0.0000
vn -0.0000 1.0000 -0.0000
vt 0.995093 -0.000000
vt 0.997547 -0.000000
vt 0.997547 0.524460
vt 0.995093 0.524460
vt 1.000000 0.000000
vt 1.000000 0.524460
vt 0.997547 0.524460
vt 0.997547 0.000000
vt 0.004907 0.663396
vt 0.002453 0.663396
vt 0.002453 0.497547
vt 0.004907 0.497547
vt 0.002453 0.497547
vt 0.002453 0.995093
vt 0.000000 0.995093
vt 0.000000 0.497547
vt 0.497547 0.000000
vt 0.331698 0.497547
vt 0.165849 0.497547
vt 0.000000 0.000000
vt 0.663395 0.000000
vt 0.829244 0.000000
vt 0.995093 0.497547
vt 0.497547 0.497547
s 0
usemtl Текстура_домов
f 4/1/1 2/2/1 5/3/1 7/4/1
f 6/5/2 1/6/2 3/7/2 8/8/2
f 6/9/3 8/10/3 7/11/3 5/12/3
f 1/13/4 2/14/4 4/15/4 3/16/4
f 1/17/5 6/18/5 5/19/5 2/20/5
f 7/21/6 8/22/6 3/23/6 4/24/6
