# Blender 4.2.3 LTS
# www.blender.org
mtllib Uranium.mtl
o Uranium
v -0.000000 0.000000 0.554399
v 0.277200 0.000000 0.480124
v 0.480124 0.000000 0.277199
v 0.554400 0.000000 -0.000001
v 0.480124 0.000000 -0.277201
v 0.277200 0.000000 -0.480125
v -0.000000 0.000000 -0.554401
v -0.277200 0.000000 -0.480125
v -0.480125 0.000000 -0.277201
v -0.554400 0.000000 -0.000001
v -0.480125 0.000000 0.277199
v -0.277200 0.000000 0.480124
v -0.000001 0.000000 0.498959
v 0.249479 0.000000 0.432111
v 0.432112 0.000000 0.249479
v 0.498960 0.000000 -0.000001
v 0.432112 0.000000 -0.249481
v 0.249480 0.000000 -0.432113
v -0.000000 0.000000 -0.498961
v -0.249480 0.000000 -0.432113
v -0.432112 0.000000 -0.249481
v -0.498960 0.000000 -0.000001
v -0.432113 0.000000 0.249479
v -0.249481 0.000000 0.432111
v -0.000001 0.000000 -0.000000
v -0.277200 0.004000 -0.480125
v -0.000000 0.004000 -0.554401
v 0.277200 0.004000 -0.480125
v 0.480124 0.004000 -0.277201
v 0.554400 0.004000 -0.000001
v 0.480124 0.004000 0.277199
v 0.277200 0.004000 0.480124
v -0.000000 0.004000 0.554399
v -0.480125 0.004000 -0.277201
v -0.554400 0.004000 -0.000001
v -0.480125 0.004000 0.277199
v -0.277200 0.004000 0.480124
v -0.000001 0.004000 0.498959
v 0.249479 0.004000 0.432111
v 0.432112 0.004000 0.249479
v 0.498960 0.004000 -0.000001
v 0.432112 0.004000 -0.249481
v 0.249480 0.004000 -0.432113
v -0.000000 0.004000 -0.498961
v -0.249480 0.004000 -0.432113
v -0.432112 0.004000 -0.249481
v -0.498960 0.004000 -0.000001
v -0.432113 0.004000 0.249479
v -0.249481 0.004000 0.432111
v -0.000001 0.004000 -0.000000
vn -0.0000 -1.0000 -0.0000
vn -0.0000 1.0000 -0.0000
vn -0.2588 -0.0000 -0.9659
vn -1.0000 -0.0000 -0.0000
vn -0.9659 -0.0000 -0.2588
vn -0.7071 -0.0000 -0.7071
vn 0.7071 -0.0000 -0.7071
vn 0.2588 -0.0000 0.9659
vn 0.5000 -0.0000 0.8660
vn -0.9659 -0.0000 0.2588
vn 0.2588 -0.0000 -0.9659
vn 0.7071 -0.0000 0.7071
vn 0.9659 -0.0000 0.2588
vn -0.7071 -0.0000 0.7071
vn 0.5000 -0.0000 -0.8660
vn 0.9659 -0.0000 -0.2588
vn -0.2588 -0.0000 0.9659
vt 0.183013 0.500000
vt 0.316987 0.500000
vt 0.310289 0.525000
vt 0.189711 0.525000
vt 0.500000 0.683013
vt 0.500000 0.816987
vt 0.475000 0.810289
vt 0.475000 0.689711
vt 0.066987 0.933013
vt 0.000000 0.816987
vt 0.025000 0.810288
vt 0.085289 0.914711
vt 0.316987 1.000000
vt 0.183013 1.000000
vt 0.189711 0.975000
vt 0.310289 0.975000
vt 0.066987 0.566987
vt 0.085289 0.585289
vt 0.433013 0.566987
vt 0.414711 0.585289
vt 0.433013 0.933013
vt 0.414711 0.914711
vt 0.000000 0.683013
vt 0.025000 0.689711
vt 0.250000 0.750000
vt 0.316987 0.000000
vt 0.310289 0.025000
vt 0.189712 0.025000
vt 0.183013 0.000000
vt 0.000000 0.183013
vt 0.025000 0.189711
vt 0.025000 0.310289
vt 0.000000 0.316987
vt 0.433013 0.433013
vt 0.414711 0.414711
vt 0.475000 0.310289
vt 0.500000 0.316987
vt 0.183013 0.500000
vt 0.189711 0.475000
vt 0.310289 0.475000
vt 0.316987 0.500000
vt 0.433013 0.066987
vt 0.414712 0.085289
vt 0.066987 0.066987
vt 0.085289 0.085289
vt 0.066987 0.433013
vt 0.085289 0.414711
vt 0.500000 0.183013
vt 0.475000 0.189711
vt 0.250000 0.250000
vt 0.503735 0.599849
vt 0.501867 0.599849
vt 0.501867 0.465874
vt 0.503735 0.465874
vt 0.501867 0.465874
vt 0.500000 0.465874
vt 0.500000 0.232937
vt 0.501867 0.232937
vt 0.507470 0.991412
vt 0.505602 0.991412
vt 0.505602 0.870835
vt 0.507470 0.870835
vt 0.505602 0.267949
vt 0.503735 0.267949
vt 0.503735 0.133975
vt 0.505602 0.133975
vt 0.507470 0.629681
vt 0.505602 0.629681
vt 0.505602 0.509103
vt 0.507470 0.509103
vt 0.503735 0.733823
vt 0.501867 0.733823
vt 0.501867 0.599849
vt 0.501867 0.698811
vt 0.500000 0.698811
vt 0.500000 0.465874
vt 0.501867 0.465874
vt 0.505602 0.750258
vt 0.507470 0.750258
vt 0.507470 0.267949
vt 0.505602 0.267949
vt 0.507470 0.133975
vt 0.507470 0.388526
vt 0.505602 0.388526
vt 0.507470 0.267949
vt 0.505602 0.401924
vt 0.503735 0.401924
vt 0.503735 0.267949
vt 0.505602 0.267949
vt 0.505602 0.535898
vt 0.503735 0.535898
vt 0.503735 0.401924
vt 0.505602 0.401924
vt 0.505602 0.669873
vt 0.503735 0.669873
vt 0.503735 0.535898
vt 0.505602 0.535898
vt 0.500000 0.000000
vt 0.501867 0.000000
vt 0.505602 0.803848
vt 0.503735 0.803848
vt 0.503735 0.669873
vt 0.503735 0.465874
vt 0.501867 0.465874
vt 0.501867 0.232937
vt 0.503735 0.232937
vt 0.505602 0.937822
vt 0.503735 0.937822
vt 0.503735 0.803848
vt 0.505602 0.803848
vt 0.501867 0.931748
vt 0.500000 0.931748
vt 0.507470 0.509104
vt 0.505602 0.509104
vt 0.505602 0.388526
vt 0.507470 0.388526
vt 0.503735 0.867798
vt 0.501867 0.867798
vt 0.501867 0.733823
vt 0.503735 0.733823
vt 0.505602 -0.000000
vt 0.507470 -0.000000
vt 0.505602 0.629681
vt 0.507470 0.629681
vt 0.503735 -0.000000
vt 0.505602 -0.000000
vt 0.501868 0.000000
vt 0.503735 0.000000
s 0
usemtl Текстура_домов
f 9/1/1 8/2/1 20/3/1 21/4/1
f 6/5/1 5/6/1 17/7/1 18/8/1
f 1/9/1 12/10/1 24/11/1 13/12/1
f 3/13/1 2/14/1 14/15/1 15/16/1
f 10/17/1 9/1/1 21/4/1 22/18/1
f 7/19/1 6/5/1 18/8/1 19/20/1
f 4/21/1 3/13/1 15/16/1 16/22/1
f 11/23/1 10/17/1 22/18/1 23/24/1
f 8/2/1 7/19/1 19/20/1 20/3/1
f 5/6/1 4/21/1 16/22/1 17/7/1
f 12/10/1 11/23/1 23/24/1 24/11/1
f 2/14/1 1/9/1 13/12/1 14/15/1
f 23/24/1 22/18/1 25/25/1
f 22/18/1 21/4/1 25/25/1
f 19/20/1 18/8/1 25/25/1
f 18/8/1 17/7/1 25/25/1
f 15/16/1 14/15/1 25/25/1
f 14/15/1 13/12/1 25/25/1
f 34/26/2 46/27/2 45/28/2 26/29/2
f 28/30/2 43/31/2 42/32/2 29/33/2
f 33/34/2 38/35/2 49/36/2 37/37/2
f 31/38/2 40/39/2 39/40/2 32/41/2
f 35/42/2 47/43/2 46/27/2 34/26/2
f 27/44/2 44/45/2 43/31/2 28/30/2
f 30/46/2 41/47/2 40/39/2 31/38/2
f 36/48/2 48/49/2 47/43/2 35/42/2
f 26/29/2 45/28/2 44/45/2 27/44/2
f 29/33/2 42/32/2 41/47/2 30/46/2
f 37/37/2 49/36/2 48/49/2 36/48/2
f 32/41/2 39/40/2 38/35/2 33/34/2
f 48/49/2 50/50/2 47/43/2
f 47/43/2 50/50/2 46/27/2
f 44/45/2 50/50/2 43/31/2
f 43/31/2 50/50/2 42/32/2
f 40/39/2 50/50/2 39/40/2
f 39/40/2 50/50/2 38/35/2
f 8/51/3 26/52/3 27/53/3 7/54/3
f 13/55/4 38/56/4 50/57/4 25/58/4
f 15/59/5 40/60/5 41/61/5 16/62/5
f 9/63/6 34/64/6 26/65/6 8/66/6
f 23/67/7 48/68/7 49/69/7 24/70/7
f 2/71/8 32/72/8 33/73/8 1/51/8
f 25/74/9 50/75/9 48/76/9 23/77/9
f 16/62/10 41/61/10 42/78/10 17/79/10
f 10/80/5 35/81/5 34/66/5 9/82/5
f 24/83/11 49/84/11 38/63/11 13/85/11
f 3/86/12 31/87/12 32/88/12 2/89/12
f 11/90/10 36/91/10 35/92/10 10/93/10
f 4/94/13 30/95/13 31/96/13 3/97/13
f 25/58/4 50/57/4 44/98/4 19/99/4
f 12/100/14 37/101/14 36/102/14 11/94/14
f 21/103/15 46/104/15 50/105/15 25/106/15
f 5/107/16 29/108/16 30/109/16 4/110/16
f 17/111/9 42/112/9 50/75/9 25/74/9
f 19/113/8 44/114/8 45/115/8 20/116/8
f 1/117/17 33/118/17 37/119/17 12/120/17
f 6/82/7 28/66/7 29/121/7 5/122/7
f 20/79/12 45/78/12 46/123/12 21/124/12
f 7/66/11 27/65/11 28/125/11 6/126/11
f 25/106/15 50/105/15 40/127/15 15/128/15
