# Blender 4.2.3 LTS
# www.blender.org
mtllib Steal_factory.mtl
o Steal_factory
v -0.500000 0.000000 -0.100000
v -0.500000 0.000000 -0.500000
v 0.050000 0.000000 -0.100000
v 0.050000 0.000000 -0.500000
v -0.066667 0.000000 -0.500000
v -0.383334 0.000000 -0.500000
v -0.383334 0.000000 -0.100000
v -0.066667 0.000000 -0.100000
v -0.383334 0.000000 0.500000
v -0.066667 0.000000 0.500000
v -0.500000 0.300000 -0.500000
v -0.500000 0.300000 -0.100000
v -0.383334 0.300000 -0.500000
v 0.050000 0.300000 -0.100000
v 0.050000 0.300000 -0.500000
v -0.066667 0.300000 -0.100000
v -0.066667 0.300000 -0.500000
v -0.383334 0.300000 -0.100000
v -0.383334 0.300000 0.500000
v -0.066667 0.300000 0.500000
v -0.476505 0.608544 -0.475000
v -0.476505 0.608544 -0.125000
v -0.383334 0.600000 -0.500000
v 0.026505 0.608544 -0.125000
v 0.026505 0.608544 -0.475000
v -0.087805 0.613350 -0.075000
v -0.066667 0.600000 -0.500000
v -0.362197 0.613350 -0.075000
v -0.362197 0.613350 0.475000
v -0.087805 0.613350 0.475000
v -0.225001 0.700000 -0.075000
v -0.225001 0.700000 -0.475000
v -0.225001 0.700000 0.500000
v -0.066667 0.600000 -0.100000
v -0.066667 0.600000 0.500000
v -0.383334 0.600000 0.500000
v -0.383334 0.600000 -0.100000
v -0.225001 0.700000 -0.125000
v -0.225001 0.700000 0.475000
v -0.500000 0.600000 -0.500000
v -0.500000 0.600000 -0.100000
v 0.050000 0.600000 -0.100000
v 0.050000 0.600000 -0.500000
v -0.225001 0.700000 -0.500000
v -0.225001 0.700000 -0.100000
v -0.066667 0.620000 -0.100000
v -0.066667 0.620000 0.500000
v -0.383334 0.620000 0.500000
v -0.383334 0.620000 -0.100000
v -0.225001 0.720000 -0.100000
v -0.225001 0.720000 0.500000
v -0.087805 0.633350 -0.075000
v -0.087805 0.633350 0.475000
v -0.362197 0.633350 0.475000
v -0.362197 0.633350 -0.075000
v -0.225001 0.720000 -0.075000
v -0.225001 0.720000 0.475000
v -0.500000 0.620000 -0.500000
v -0.500000 0.620000 -0.100000
v 0.050000 0.620000 -0.100000
v 0.050000 0.620000 -0.500000
v -0.225001 0.720000 -0.500000
v -0.225001 0.720000 -0.100000
v -0.476505 0.628544 -0.475000
v -0.476505 0.628544 -0.125000
v 0.026505 0.628544 -0.125000
v 0.026505 0.628544 -0.475000
v -0.225001 0.720000 -0.475000
v -0.225001 0.720000 -0.125000
v 0.300000 0.000000 0.500000
v 0.500000 0.000000 0.500000
v 0.300000 0.000000 -0.500000
v 0.500000 0.000000 -0.500000
v 0.342539 0.200000 0.207460
v 0.457459 0.200000 0.207460
v 0.344190 0.200000 -0.305811
v 0.455812 0.200000 -0.305811
v 0.300000 0.000000 -0.250000
v 0.300000 0.000000 0.000000
v 0.300000 0.000000 0.250000
v 0.500000 0.000000 0.250000
v 0.500000 0.000000 0.000000
v 0.500000 0.000000 -0.250000
v 0.321072 0.200000 -0.250000
v 0.342539 0.200000 0.092540
v 0.318738 0.200000 0.150000
v 0.481260 0.200000 0.150000
v 0.457459 0.200000 0.092540
v 0.478930 0.200000 -0.250000
v 0.400000 0.000000 0.500000
v 0.400000 0.000000 -0.500000
v 0.399999 0.200000 0.231261
v 0.400001 0.200000 -0.328929
v 0.399999 0.200000 0.068739
v 0.400000 0.000000 0.250000
v 0.400000 0.000000 0.000000
v 0.400000 0.000000 -0.250000
v 0.300000 0.200000 0.250000
v 0.300000 0.200000 0.500000
v 0.400000 0.200000 0.500000
v 0.500000 0.200000 0.500000
v 0.344190 0.200000 -0.194189
v 0.500000 0.200000 0.250000
v 0.455812 0.200000 -0.194189
v 0.400001 0.200000 -0.171071
v 0.500000 0.200000 -0.250000
v 0.500000 0.200000 -0.500000
v 0.400000 0.200000 -0.500000
v 0.300000 0.200000 -0.500000
v 0.300000 0.200000 -0.250000
v 0.300000 0.200000 0.000000
v 0.500000 0.200000 0.000000
v 0.400000 0.200000 0.000000
v 0.360987 1.000000 -0.250000
v 0.455252 1.000000 -0.250000
v 0.400001 1.000000 -0.210985
v 0.400001 1.000000 -0.305250
v 0.427589 1.000000 -0.277588
v 0.372414 1.000000 -0.277588
v 0.372414 1.000000 -0.222413
v 0.427589 1.000000 -0.222413
v 0.334990 0.800000 0.150000
v 0.465008 0.800000 0.150000
v 0.399999 0.800000 0.084991
v 0.399999 0.800000 0.198773
v 0.365511 0.800000 0.184488
v 0.434486 0.800000 0.184488
v 0.365511 0.800000 0.115512
v 0.434486 0.800000 0.115512
v 0.439016 1.000000 -0.250000
v 0.439069 1.000000 -0.289068
v 0.400001 1.000000 -0.289015
v 0.360933 1.000000 -0.289068
v 0.344751 1.000000 -0.250000
v 0.360933 1.000000 -0.210932
v 0.439069 1.000000 -0.210932
v 0.400001 1.000000 -0.194750
v 0.351226 0.800000 0.150000
v 0.354030 0.800000 0.195968
v 0.399999 0.800000 0.215009
v 0.445967 0.800000 0.195968
v 0.354030 0.800000 0.104032
v 0.448772 0.800000 0.150000
v 0.445967 0.800000 0.104032
v 0.399999 0.800000 0.101227
v 0.400001 0.584098 -0.250000
v 0.360987 0.584098 -0.250000
v 0.439016 0.584098 -0.250000
v 0.400001 0.584098 -0.210985
v 0.400001 0.584098 -0.289015
v 0.399999 0.384098 0.150000
v 0.351226 0.384098 0.150000
v 0.448772 0.384098 0.150000
v 0.399999 0.384098 0.101227
v 0.399999 0.384098 0.198773
v 0.427589 0.584098 -0.277588
v 0.372414 0.584098 -0.277588
v 0.372414 0.584098 -0.222413
v 0.427589 0.584098 -0.222413
v 0.365511 0.384098 0.184488
v 0.434486 0.384098 0.184488
v 0.365511 0.384098 0.115512
v 0.434486 0.384098 0.115512
v -0.070000 0.250000 0.100000
v -0.070000 0.350000 0.100000
v -0.070000 0.250000 -0.000000
v -0.070000 0.350000 -0.000000
v 0.300000 0.050000 0.100000
v 0.300000 0.150000 0.100000
v 0.300000 0.050000 -0.000000
v 0.300000 0.150000 -0.000000
v -0.070000 0.250000 0.400000
v -0.070000 0.350000 0.400000
v -0.070000 0.250000 0.300000
v -0.070000 0.350000 0.300000
v 0.300000 0.050000 0.400000
v 0.300000 0.150000 0.400000
v 0.300000 0.050000 0.300000
v 0.300000 0.150000 0.300000
vn -0.0000 -1.0000 -0.0000
vn -0.0000 -0.0000 1.0000
vn 1.0000 -0.0000 -0.0000
vn -1.0000 -0.0000 -0.0000
vn -0.0000 -0.0000 -1.0000
vn -0.3417 0.9398 -0.0000
vn 0.3417 0.9398 -0.0000
vn 0.5340 0.8455 -0.0000
vn -0.5340 0.8455 -0.0000
vn -0.3825 0.0273 -0.9235
vn -0.9236 0.0250 -0.3826
vn 0.9236 0.0250 -0.3826
vn -0.9235 0.0273 0.3825
vn -0.3825 0.0273 0.9235
vn -0.3826 0.0250 0.9236
vn 0.3826 0.0250 0.9236
vn 0.3825 0.0273 0.9235
vn -0.0000 1.0000 -0.0000
vn 0.9239 -0.0000 0.3827
vn -0.3827 -0.0000 -0.9239
vn 0.3827 -0.0000 0.9239
vn 0.3825 0.0273 -0.9235
vn 0.9235 0.0273 0.3825
vn -0.9235 0.0273 -0.3825
vn 0.9235 0.0273 -0.3825
vn 0.9239 -0.0000 -0.3827
vn -0.3827 -0.0000 0.9239
vn -0.9239 -0.0000 0.3827
vn -0.9236 0.0250 0.3826
vn 0.3826 0.0250 -0.9236
vn -0.3826 0.0250 -0.9236
vn 0.9236 0.0250 0.3826
vn -0.9239 -0.0000 -0.3827
vn 0.3827 -0.0000 -0.9239
vn -0.4755 -0.8797 -0.0000
vn 0.4755 0.8797 -0.0000
vt 0.070748 0.325285
vt 0.045959 0.325285
vt 0.045959 0.240294
vt 0.070748 0.240294
vt 0.162821 0.325285
vt 0.138033 0.325285
vt 0.138033 0.240294
vt 0.162821 0.240294
vt 0.070748 0.112808
vt 0.138033 0.112808
vt 0.346813 0.132247
vt 0.346813 0.068504
vt 0.371602 0.068504
vt 0.371602 0.132247
vt 0.033425 0.483803
vt 0.033425 0.420060
vt 0.118416 0.420060
vt 0.118416 0.483803
vt 0.467697 0.104203
vt 0.467697 0.040460
vt 0.595184 0.040460
vt 0.595184 0.104203
vt 0.279528 0.408777
vt 0.279528 0.345033
vt 0.346812 0.345033
vt 0.346812 0.408777
vt 0.467697 0.403298
vt 0.467697 0.339555
vt 0.595184 0.339555
vt 0.595184 0.403298
vt 0.254739 0.472520
vt 0.254739 0.408777
vt 0.279528 0.472520
vt 0.346812 0.472520
vt 0.467697 0.167946
vt 0.595184 0.167946
vt 0.033425 0.547546
vt 0.118416 0.547546
vt 0.346813 0.195990
vt 0.371602 0.195990
vt 0.254739 0.195990
vt 0.254739 0.132247
vt 0.279528 0.132247
vt 0.279528 0.195990
vt 0.595862 0.659752
vt 0.595862 0.596008
vt 0.663146 0.596008
vt 0.663146 0.659752
vt 0.450985 0.638650
vt 0.450985 0.574907
vt 0.535976 0.574907
vt 0.535976 0.638650
vt 0.371602 0.408777
vt 0.371602 0.472520
vt 0.496785 0.809670
vt 0.439923 0.809670
vt 0.439923 0.735303
vt 0.496785 0.735303
vt 0.231143 0.727711
vt 0.288006 0.727711
vt 0.288006 0.802078
vt 0.231143 0.802078
vt 0.313170 0.323786
vt 0.371602 0.345033
vt 0.810720 0.634339
vt 0.845199 0.634339
vt 0.845199 0.751202
vt 0.810720 0.751202
vt 0.254739 0.068504
vt 0.279528 0.068504
vt 0.595862 0.532265
vt 0.663146 0.532265
vt 0.450985 0.511164
vt 0.535976 0.511164
vt 0.467697 0.275812
vt 0.595184 0.275812
vt 0.254739 0.345033
vt 0.833901 0.823622
vt 0.833901 0.890906
vt 0.812653 0.857264
vt 0.313171 0.047256
vt 0.810720 0.425559
vt 0.845199 0.425559
vt 0.845199 0.542422
vt 0.810720 0.542422
vt 0.629504 0.511017
vt 0.629504 0.506768
vt 0.663146 0.528016
vt 0.808404 0.857264
vt 0.829651 0.823622
vt 0.221942 0.883405
vt 0.217692 0.883405
vt 0.236103 0.854254
vt 0.240353 0.854254
vt 0.240353 0.912556
vt 0.236103 0.912556
vt 0.595862 0.528016
vt 0.467697 0.036210
vt 0.595184 0.036210
vt 0.793949 0.862814
vt 0.789699 0.862814
vt 0.789699 0.788447
vt 0.793949 0.788447
vt 0.033425 0.415810
vt 0.118416 0.415810
vt 0.165403 0.475072
vt 0.161154 0.475072
vt 0.180586 0.421633
vt 0.184836 0.421633
vt 0.924865 0.331445
vt 0.920615 0.331445
vt 0.920615 0.257078
vt 0.924865 0.257078
vt 0.313170 0.319536
vt 0.371602 0.340784
vt 0.552143 0.854967
vt 0.547894 0.854967
vt 0.528461 0.801528
vt 0.532711 0.801528
vt 0.128214 0.787264
vt 0.122903 0.792576
vt 0.122903 0.665089
vt 0.128214 0.670401
vt 0.373808 0.602073
vt 0.379120 0.596761
vt 0.379120 0.724248
vt 0.373808 0.718936
vt 0.339330 0.602073
vt 0.339330 0.596761
vt 0.339330 0.724248
vt 0.339330 0.718936
vt 0.162693 0.787264
vt 0.162693 0.792576
vt 0.162693 0.665089
vt 0.162693 0.670401
vt 0.280837 0.912556
vt 0.276588 0.912556
vt 0.258177 0.883405
vt 0.262426 0.883405
vt 0.829651 0.890906
vt 0.695528 0.633526
vt 0.691279 0.633526
vt 0.691279 0.516663
vt 0.695528 0.516663
vt 0.467697 0.271562
vt 0.595184 0.271562
vt 0.276588 0.854254
vt 0.280837 0.854254
vt 0.567378 0.868878
vt 0.563128 0.868878
vt 0.563128 0.752015
vt 0.567378 0.752015
vt 0.088072 0.653689
vt 0.093384 0.648377
vt 0.093384 0.733368
vt 0.088072 0.728056
vt 0.231786 0.659728
vt 0.226474 0.665040
vt 0.226474 0.580049
vt 0.231786 0.585361
vt 0.288649 0.580049
vt 0.288649 0.585361
vt 0.031209 0.733368
vt 0.031209 0.728056
vt 0.031209 0.653689
vt 0.031209 0.648377
vt 0.288649 0.659728
vt 0.288649 0.665040
vt 0.547894 0.748089
vt 0.552143 0.748089
vt 0.313171 0.043006
vt 0.371602 0.064254
vt 0.184836 0.528511
vt 0.180586 0.528511
vt 0.450985 0.506914
vt 0.535976 0.506914
vt 0.254739 0.064254
vt 0.254739 0.340784
vt 0.759201 0.622520
vt 0.759201 0.675639
vt 0.737953 0.675639
vt 0.737953 0.622520
vt 0.200048 0.851872
vt 0.187213 0.851872
vt 0.189138 0.681827
vt 0.198123 0.681827
vt 0.704528 0.242920
vt 0.704528 0.296039
vt 0.662033 0.296039
vt 0.662033 0.242920
vt 0.780448 0.242920
vt 0.780448 0.296039
vt 0.737953 0.296039
vt 0.737953 0.242920
vt 0.037960 0.826000
vt 0.016712 0.826000
vt 0.016712 0.783505
vt 0.037960 0.783505
vt 0.352985 0.833592
vt 0.331738 0.833592
vt 0.331738 0.791097
vt 0.352985 0.791097
vt 0.780448 0.083561
vt 0.780448 0.136681
vt 0.737953 0.136681
vt 0.737953 0.083561
vt 0.780448 0.189800
vt 0.737953 0.189800
vt 0.704528 0.083561
vt 0.704528 0.136681
vt 0.662033 0.136681
vt 0.662033 0.083561
vt 0.704528 0.189800
vt 0.662033 0.189800
vt 0.945965 0.557279
vt 0.932750 0.557279
vt 0.934071 0.429753
vt 0.944643 0.429753
vt 0.969574 0.557279
vt 0.956359 0.557279
vt 0.957680 0.429753
vt 0.968252 0.429753
vt 0.716193 0.616520
vt 0.703357 0.616520
vt 0.705282 0.446475
vt 0.714267 0.446475
vt 0.759201 0.463162
vt 0.759201 0.516281
vt 0.737953 0.516281
vt 0.737953 0.463162
vt 0.759201 0.569401
vt 0.737953 0.569401
vt 0.780449 0.569401
vt 0.780449 0.622520
vt 0.780449 0.516281
vt 0.780449 0.463162
vt 0.913896 0.236920
vt 0.901060 0.236920
vt 0.902986 0.066874
vt 0.911971 0.066874
vt 0.972133 0.861073
vt 0.958918 0.861073
vt 0.960239 0.733547
vt 0.970811 0.733547
vt 0.948524 0.861073
vt 0.935309 0.861073
vt 0.936630 0.733547
vt 0.947202 0.733547
vt 0.374233 0.833592
vt 0.374233 0.791097
vt 0.059208 0.826000
vt 0.059208 0.783505
vt 0.876642 0.616520
vt 0.863806 0.616520
vt 0.865731 0.446475
vt 0.874716 0.446475
vt 0.780449 0.675639
vt 0.822912 0.149898
vt 0.817855 0.162107
vt 0.813873 0.140859
vt 0.813873 0.087740
vt 0.847330 0.149898
vt 0.835121 0.144841
vt 0.835121 0.087740
vt 0.856369 0.087740
vt 0.822912 0.174316
vt 0.813873 0.193978
vt 0.852387 0.162107
vt 0.856369 0.140859
vt 0.847330 0.174316
vt 0.856369 0.193978
vt 0.835121 0.179373
vt 0.835121 0.193978
vt 0.846980 0.258956
vt 0.851892 0.247098
vt 0.856369 0.247098
vt 0.856369 0.300217
vt 0.823262 0.258956
vt 0.835121 0.263868
vt 0.835121 0.300217
vt 0.813873 0.300217
vt 0.818350 0.247098
vt 0.813873 0.247098
vt 0.823262 0.235239
vt 0.846980 0.235239
vt 0.835121 0.230327
vt 0.977890 0.414354
vt 0.985822 0.414354
vt 0.985822 0.502724
vt 0.977890 0.502724
vt 0.991160 0.876024
vt 0.997505 0.876024
vt 0.997505 0.964394
vt 0.991160 0.964394
vt 0.431731 0.873670
vt 0.439662 0.873670
vt 0.439662 0.962040
vt 0.431731 0.962040
vt 0.496571 0.873670
vt 0.502916 0.873670
vt 0.502916 0.962040
vt 0.496571 0.962040
vt 0.408829 0.783544
vt 0.395993 0.783544
vt 0.397919 0.613499
vt 0.406904 0.613499
vt 0.922505 0.616520
vt 0.909669 0.616520
vt 0.911594 0.446475
vt 0.920579 0.446475
vt 0.890965 0.236920
vt 0.878129 0.236920
vt 0.880054 0.066874
vt 0.889039 0.066874
vt 0.899573 0.616520
vt 0.886737 0.616520
vt 0.888663 0.446475
vt 0.897648 0.446475
vt 0.292868 0.866078
vt 0.300800 0.866078
vt 0.300800 0.954448
vt 0.292868 0.954448
vt 0.197268 0.414354
vt 0.205200 0.414354
vt 0.205200 0.502724
vt 0.197268 0.502724
vt 0.473901 0.873670
vt 0.480246 0.873670
vt 0.480246 0.962040
vt 0.473901 0.962040
vt 0.462566 0.873670
vt 0.468911 0.873670
vt 0.468911 0.962040
vt 0.462566 0.962040
vt 0.984574 0.177679
vt 0.971359 0.177679
vt 0.972681 0.050153
vt 0.983253 0.050153
vt 0.937356 0.177679
vt 0.924141 0.177679
vt 0.925463 0.050153
vt 0.936035 0.050153
vt 0.094332 0.944472
vt 0.081117 0.944472
vt 0.082439 0.816945
vt 0.093010 0.816945
vt 0.960965 0.177679
vt 0.947750 0.177679
vt 0.949072 0.050153
vt 0.959644 0.050153
vt 0.174389 0.597579
vt 0.178875 0.593092
vt 0.182063 0.594412
vt 0.175709 0.600766
vt 0.163558 0.593092
vt 0.168044 0.597579
vt 0.166724 0.600766
vt 0.160371 0.594412
vt 0.163558 0.586748
vt 0.160371 0.585427
vt 0.168044 0.582261
vt 0.166724 0.579074
vt 0.178875 0.586748
vt 0.182063 0.585427
vt 0.174389 0.582261
vt 0.175709 0.579074
vt 0.662670 0.396950
vt 0.659635 0.404278
vt 0.656185 0.404278
vt 0.660231 0.394511
vt 0.677326 0.396950
vt 0.669998 0.393915
vt 0.669998 0.390465
vt 0.679765 0.394511
vt 0.662670 0.411606
vt 0.660231 0.414045
vt 0.680361 0.404278
vt 0.683811 0.404278
vt 0.677326 0.411606
vt 0.679765 0.414045
vt 0.669998 0.414641
vt 0.669998 0.418091
vt 0.707558 0.697077
vt 0.715217 0.700249
vt 0.710730 0.704736
vt 0.704386 0.704736
vt 0.710730 0.689418
vt 0.715217 0.693905
vt 0.704386 0.689418
vt 0.699899 0.693905
vt 0.699899 0.700249
vt 0.336096 0.857835
vt 0.341705 0.863444
vt 0.341705 0.871376
vt 0.332130 0.867410
vt 0.336096 0.876984
vt 0.328164 0.876984
vt 0.322556 0.863444
vt 0.322556 0.871376
vt 0.328164 0.857835
vt 0.102024 0.801546
vt 0.108369 0.801546
vt 0.108369 0.889916
vt 0.102024 0.889916
vt 0.845832 0.831914
vt 0.853764 0.831914
vt 0.853764 0.920284
vt 0.845832 0.920284
vt 0.510308 0.873670
vt 0.516653 0.873670
vt 0.516653 0.962040
vt 0.510308 0.962040
vt 0.980449 0.718148
vt 0.988381 0.718148
vt 0.988381 0.806517
vt 0.980449 0.806517
vt 0.485236 0.873670
vt 0.491581 0.873670
vt 0.491581 0.962040
vt 0.485236 0.962040
vt 0.449020 0.873670
vt 0.456952 0.873670
vt 0.456952 0.962040
vt 0.449020 0.962040
vt 0.979825 0.876024
vt 0.986170 0.876024
vt 0.986170 0.964394
vt 0.979825 0.964394
vt 0.423799 0.873670
vt 0.431731 0.873670
vt 0.431731 0.962040
vt 0.423799 0.962040
vt 0.067564 0.872317
vt 0.046316 0.872317
vt 0.046316 0.851069
vt 0.067564 0.851069
vt 0.904069 0.732617
vt 0.922761 0.722513
vt 0.922761 0.811880
vt 0.904069 0.821984
vt 0.674925 0.458559
vt 0.653677 0.458559
vt 0.653677 0.437311
vt 0.674925 0.437311
vt 0.747283 0.897790
vt 0.728592 0.887687
vt 0.728592 0.798320
vt 0.747283 0.808423
vt 0.888362 0.718540
vt 0.888362 0.807907
vt 0.867114 0.807907
vt 0.867114 0.718540
vt 0.653677 0.868529
vt 0.653677 0.779162
vt 0.674925 0.779162
vt 0.674925 0.868529
vt 0.140681 0.872317
vt 0.119434 0.872317
vt 0.119434 0.851069
vt 0.140681 0.851069
vt 0.761985 0.808423
vt 0.780677 0.798320
vt 0.780677 0.887687
vt 0.761985 0.897790
vt 0.029604 0.872317
vt 0.008356 0.872317
vt 0.008356 0.851069
vt 0.029604 0.851069
vt 0.709323 0.882606
vt 0.690632 0.872503
vt 0.690632 0.783136
vt 0.709323 0.793239
vt 0.599004 0.779162
vt 0.599004 0.868529
vt 0.577757 0.868529
vt 0.577757 0.779162
vt 0.615717 0.868529
vt 0.615717 0.779162
vt 0.636964 0.779162
vt 0.636964 0.868529
s 0
usemtl Материал_сталелитейня
f 5/1/1 4/2/1 3/3/1 8/4/1
f 2/5/1 6/6/1 7/7/1 1/8/1
f 6/6/1 5/1/1 8/4/1 7/7/1
f 7/7/1 8/4/1 10/9/1 9/10/1
f 18/11/2 37/12/2 41/13/2 12/14/2
f 15/15/3 43/16/3 42/17/3 14/18/3
f 19/19/4 36/20/4 37/21/4 18/22/4
f 13/23/5 23/24/5 27/25/5 17/26/5
f 8/27/3 16/28/3 20/29/3 10/30/3
f 2/31/5 11/32/5 13/23/5 6/33/5
f 6/33/5 13/23/5 17/26/5 5/34/5
f 9/35/4 19/19/4 18/22/4 7/36/4
f 4/37/3 15/15/3 14/18/3 3/38/3
f 7/39/2 18/11/2 12/14/2 1/40/2
f 3/41/2 14/42/2 16/43/2 8/44/2
f 10/45/2 20/46/2 19/47/2 9/48/2
f 1/49/4 12/50/4 11/51/4 2/52/4
f 5/34/5 17/26/5 15/53/5 4/54/5
f 22/55/6 38/56/6 32/57/6 21/58/6
f 25/59/7 32/60/7 38/61/7 24/62/7
f 27/25/5 44/63/5 43/64/5
f 26/65/8 31/66/8 39/67/8 30/68/8
f 14/42/2 42/69/2 34/70/2 16/43/2
f 20/46/2 35/71/2 36/72/2 19/47/2
f 12/50/4 41/73/4 40/74/4 11/51/4
f 17/26/5 27/25/5 43/64/5 15/53/5
f 16/28/3 34/75/3 35/76/3 20/29/3
f 11/32/5 40/77/5 23/24/5 13/23/5
f 34/78/5 37/79/5 45/80/5
f 23/24/5 44/63/5 27/25/5
f 42/69/2 45/81/2 34/70/2
f 40/77/5 44/63/5 23/24/5
f 37/12/2 45/81/2 41/13/2
f 29/82/9 39/83/9 31/84/9 28/85/9
f 35/71/2 33/86/2 36/72/2
f 33/86/2 51/87/2 48/88/2 36/72/2
f 45/80/5 50/89/5 46/90/5 34/78/5
f 31/91/2 56/92/2 55/93/2 28/94/2
f 26/95/2 52/96/2 56/92/2 31/91/2
f 35/71/2 47/97/2 51/87/2 33/86/2
f 36/20/4 48/98/4 49/99/4 37/21/4
f 24/100/4 66/101/4 67/102/4 25/103/4
f 43/16/3 61/104/3 60/105/3 42/17/3
f 32/106/2 68/107/2 64/108/2 21/109/2
f 21/110/3 64/111/3 65/112/3 22/113/3
f 44/63/5 62/114/5 61/115/5 43/64/5
f 22/116/5 65/117/5 69/118/5 38/119/5
f 53/120/8 47/121/8 46/122/8 52/123/8
f 55/124/9 49/125/9 48/126/9 54/127/9
f 56/128/9 50/129/9 49/125/9 55/124/9
f 54/127/9 48/126/9 51/130/9 57/131/9
f 57/132/8 51/133/8 47/121/8 53/120/8
f 52/123/8 46/122/8 50/134/8 56/135/8
f 29/136/5 54/137/5 57/138/5 39/139/5
f 37/79/5 49/140/5 50/89/5 45/80/5
f 30/141/4 53/142/4 52/143/4 26/144/4
f 34/75/3 46/145/3 47/146/3 35/76/3
f 39/139/5 57/138/5 53/147/5 30/148/5
f 28/149/3 55/150/3 54/151/3 29/152/3
f 64/153/6 58/154/6 59/155/6 65/156/6
f 66/157/7 60/158/7 61/159/7 67/160/7
f 67/160/7 61/159/7 62/161/7 68/162/7
f 65/156/6 59/155/6 63/163/6 69/164/6
f 68/165/6 62/166/6 58/154/6 64/153/6
f 69/167/7 63/168/7 60/158/7 66/157/7
f 38/119/5 69/118/5 66/169/5 24/170/5
f 45/81/2 63/171/2 59/172/2 41/13/2
f 25/173/2 67/174/2 68/107/2 32/106/2
f 41/73/4 59/175/4 58/176/4 40/74/4
f 42/69/2 60/177/2 63/171/2 45/81/2
f 40/77/5 58/178/5 62/114/5 44/63/5
f 97/179/1 91/180/1 73/181/1 83/182/1
f 93/183/10 76/184/10 133/185/10 117/186/10
f 83/187/3 73/188/3 107/189/3 106/190/3
f 80/191/4 70/192/4 99/193/4 98/194/4
f 91/195/5 72/196/5 109/197/5 108/198/5
f 90/199/2 71/200/2 101/201/2 100/202/2
f 72/203/4 78/204/4 110/205/4 109/206/4
f 78/204/4 79/207/4 111/208/4 110/205/4
f 79/207/4 80/191/4 98/194/4 111/208/4
f 71/209/3 81/210/3 103/211/3 101/212/3
f 81/210/3 82/213/3 112/214/3 103/211/3
f 82/213/3 83/187/3 106/190/3 112/214/3
f 85/215/11 86/216/11 122/217/11 142/218/11
f 87/219/12 88/220/12 144/221/12 123/222/12
f 84/223/13 102/224/13 135/225/13 134/226/13
f 90/227/1 95/228/1 81/229/1 71/230/1
f 95/228/1 96/231/1 82/232/1 81/229/1
f 96/231/1 97/179/1 83/182/1 82/232/1
f 79/233/1 78/234/1 97/179/1 96/231/1
f 80/235/1 79/233/1 96/231/1 95/228/1
f 70/236/1 80/235/1 95/228/1 90/227/1
f 102/237/14 105/238/14 137/239/14 135/240/14
f 74/241/15 92/242/15 140/243/15 139/244/15
f 92/245/16 75/246/16 141/247/16 140/248/16
f 70/249/2 90/199/2 100/202/2 99/250/2
f 73/251/5 91/195/5 108/198/5 107/252/5
f 105/253/17 104/254/17 136/255/17 137/256/17
f 78/234/1 72/257/1 91/180/1 97/179/1
f 74/258/18 86/259/18 98/260/18 99/261/18
f 75/262/18 92/263/18 100/264/18 101/265/18
f 86/259/18 85/266/18 111/267/18 98/260/18
f 87/268/18 75/262/18 101/265/18 103/269/18
f 88/270/18 87/268/18 103/269/18 112/271/18
f 85/266/18 94/272/18 113/273/18 111/267/18
f 92/263/18 74/258/18 99/261/18 100/264/18
f 94/272/18 88/270/18 112/271/18 113/273/18
f 77/274/18 89/275/18 106/276/18 107/277/18
f 76/278/18 93/279/18 108/280/18 109/281/18
f 84/282/18 76/278/18 109/281/18 110/283/18
f 102/284/18 84/282/18 110/283/18 111/267/18
f 89/275/18 104/285/18 112/271/18 106/276/18
f 105/286/18 102/284/18 111/267/18 113/273/18
f 93/279/18 77/274/18 107/277/18 108/280/18
f 104/285/18 105/286/18 113/273/18 112/271/18
f 128/287/19 138/288/19 152/289/19 162/290/19
f 119/291/19 114/292/19 147/293/19 157/294/19
f 125/295/20 127/296/20 161/297/20 155/298/20
f 132/299/21 119/300/21 157/301/21 150/302/21
f 77/303/22 93/304/22 117/305/22 131/306/22
f 104/307/23 89/308/23 115/309/23 136/310/23
f 76/311/24 84/312/24 134/313/24 133/314/24
f 89/315/25 77/316/25 131/317/25 115/318/25
f 138/319/26 126/320/26 160/321/26 152/322/26
f 129/323/27 145/324/27 154/325/27 163/326/27
f 130/327/28 118/328/28 156/329/28 148/330/28
f 116/331/20 121/332/20 159/333/20 149/334/20
f 86/335/29 74/336/29 139/337/29 122/338/29
f 88/339/30 94/340/30 124/341/30 144/342/30
f 94/343/31 85/344/31 142/345/31 124/346/31
f 75/347/32 87/348/32 123/349/32 141/350/32
f 118/351/18 130/352/18 115/353/18 131/354/18
f 119/355/18 132/356/18 117/357/18 133/358/18
f 114/359/18 119/355/18 133/358/18 134/360/18
f 120/361/18 114/359/18 134/360/18 135/362/18
f 130/352/18 121/363/18 136/364/18 115/353/18
f 116/365/18 120/361/18 135/362/18 137/366/18
f 132/356/18 118/351/18 131/354/18 117/357/18
f 121/363/18 116/365/18 137/366/18 136/364/18
f 126/367/18 138/368/18 122/369/18 139/370/18
f 127/371/18 125/372/18 140/373/18 141/374/18
f 138/368/18 128/375/18 142/376/18 122/369/18
f 143/377/18 127/371/18 141/374/18 123/378/18
f 129/379/18 143/377/18 123/378/18 144/380/18
f 128/375/18 145/381/18 124/382/18 142/376/18
f 125/372/18 126/367/18 139/370/18 140/373/18
f 145/381/18 129/379/18 144/380/18 124/382/18
f 146/383/18 148/384/18 156/385/18 150/386/18
f 149/387/18 159/388/18 148/384/18 146/383/18
f 158/389/18 149/387/18 146/383/18 147/390/18
f 147/390/18 146/383/18 150/386/18 157/391/18
f 155/392/18 161/393/18 153/394/18 151/395/18
f 151/395/18 153/394/18 163/396/18 154/397/18
f 152/398/18 151/395/18 154/397/18 162/399/18
f 160/400/18 155/392/18 151/395/18 152/398/18
f 114/401/26 120/402/26 158/403/26 147/404/26
f 127/405/33 143/406/33 153/407/33 161/408/33
f 121/409/33 130/410/33 148/411/33 159/412/33
f 143/413/28 129/414/28 163/415/28 153/416/28
f 120/417/34 116/418/34 149/419/34 158/420/34
f 145/421/21 128/422/21 162/423/21 154/424/21
f 118/425/27 132/426/27 150/427/27 156/428/27
f 126/429/34 125/430/34 155/431/34 160/432/34
f 164/433/4 165/434/4 167/435/4 166/436/4
f 166/437/5 167/438/5 171/439/5 170/440/5
f 170/441/3 171/442/3 169/443/3 168/444/3
f 168/445/2 169/446/2 165/447/2 164/448/2
f 166/449/35 170/450/35 168/451/35 164/452/35
f 171/453/36 167/454/36 165/455/36 169/456/36
f 172/457/4 173/458/4 175/459/4 174/460/4
f 174/461/5 175/462/5 179/463/5 178/464/5
f 178/465/3 179/466/3 177/467/3 176/468/3
f 176/469/2 177/470/2 173/471/2 172/472/2
f 174/473/35 178/474/35 176/475/35 172/476/35
f 179/477/36 175/478/36 173/479/36 177/480/36
