# Blender 4.2.3 LTS
# www.blender.org
mtllib Aluminium_U.mtl
o Aluminum
v -0.245807 0.000000 0.015299
v -0.245807 0.000000 -0.015299
v 0.015299 0.000000 0.245807
v -0.015299 0.000000 0.245807
v -0.015299 0.000000 -0.245807
v 0.015299 0.000000 -0.245807
v 0.245807 0.000000 -0.015299
v 0.245807 0.000000 0.015299
v -0.506913 0.000000 -0.245807
v -0.506913 0.000000 -0.276405
v -0.245807 0.000000 -0.015299
v -0.276405 0.000000 -0.015299
v -0.276405 0.000000 -0.506913
v -0.245807 0.000000 -0.506913
v -0.015299 0.000000 -0.276405
v -0.015299 0.000000 -0.245807
v 0.015299 0.000000 0.276405
v 0.015299 0.000000 0.245807
v 0.276405 0.000000 0.506913
v 0.245807 0.000000 0.506913
v 0.245807 0.000000 0.015299
v 0.276405 0.000000 0.015299
v 0.506913 0.000000 0.245807
v 0.506913 0.000000 0.276405
v 0.015299 0.000000 -0.245807
v 0.015299 0.000000 -0.276405
v 0.276405 0.000000 -0.015299
v 0.245807 0.000000 -0.015299
v 0.245807 0.000000 -0.506913
v 0.276405 0.000000 -0.506913
v 0.506913 0.000000 -0.276405
v 0.506913 0.000000 -0.245807
v -0.506912 0.000000 0.276405
v -0.506912 0.000000 0.245807
v -0.245807 0.000000 0.506913
v -0.276405 0.000000 0.506913
v -0.276405 0.000000 0.015299
v -0.245807 0.000000 0.015299
v -0.015299 0.000000 0.245807
v -0.015299 0.000000 0.276405
v -0.015299 0.025000 -0.202095
v 0.015299 0.025000 -0.202095
v 0.000000 0.025000 -0.239030
v -0.202095 0.025000 0.015299
v -0.202095 0.025000 -0.015299
v -0.239030 0.025000 0.000000
v 0.015299 0.025000 0.202095
v -0.015299 0.025000 0.202095
v 0.000000 0.025000 0.239030
v 0.202095 0.025000 -0.015299
v 0.202095 0.025000 0.015299
v 0.239030 0.025000 -0.000000
v -0.463201 0.025000 -0.245807
v -0.463201 0.025000 -0.276405
v -0.500136 0.025000 -0.261106
v -0.276405 0.025000 -0.463201
v -0.245807 0.025000 -0.463201
v -0.261106 0.025000 -0.500136
v -0.245807 0.025000 -0.059011
v -0.276405 0.025000 -0.059011
v -0.261106 0.025000 -0.022076
v -0.059011 0.025000 -0.276405
v -0.059011 0.025000 -0.245807
v -0.022076 0.025000 -0.261106
v 0.059011 0.025000 0.276405
v 0.059011 0.025000 0.245807
v 0.022076 0.025000 0.261106
v 0.245807 0.025000 0.059011
v 0.276405 0.025000 0.059011
v 0.261106 0.025000 0.022076
v 0.276405 0.025000 0.463201
v 0.245807 0.025000 0.463201
v 0.261106 0.025000 0.500136
v 0.463201 0.025000 0.245807
v 0.463201 0.025000 0.276405
v 0.500136 0.025000 0.261106
v 0.059011 0.025000 -0.245807
v 0.059011 0.025000 -0.276405
v 0.022076 0.025000 -0.261106
v 0.245807 0.025000 -0.463201
v 0.276405 0.025000 -0.463201
v 0.261106 0.025000 -0.500136
v 0.276405 0.025000 -0.059011
v 0.245807 0.025000 -0.059011
v 0.261106 0.025000 -0.022076
v 0.463201 0.025000 -0.276405
v 0.463201 0.025000 -0.245807
v 0.500136 0.025000 -0.261106
v -0.463201 0.025000 0.276405
v -0.463201 0.025000 0.245807
v -0.500136 0.025000 0.261106
v -0.276405 0.025000 0.059011
v -0.245807 0.025000 0.059011
v -0.261106 0.025000 0.022076
v -0.245807 0.025000 0.463201
v -0.276405 0.025000 0.463201
v -0.261106 0.025000 0.500136
v -0.059011 0.025000 0.245807
v -0.059011 0.025000 0.276405
v -0.022076 0.025000 0.261106
v 0.015299 0.025000 -0.245807
v -0.015299 0.025000 -0.245807
v 0.000000 0.025000 -0.239470
v -0.245807 0.025000 -0.015299
v -0.245807 0.025000 0.015299
v -0.239470 0.025000 0.000000
v -0.015299 0.025000 0.245807
v 0.015299 0.025000 0.245807
v 0.000000 0.025000 0.239470
v 0.245807 0.025000 0.015299
v 0.245807 0.025000 -0.015299
v 0.239470 0.025000 -0.000000
v -0.506913 0.025000 -0.276405
v -0.506913 0.025000 -0.245807
v -0.500575 0.025000 -0.261106
v -0.245807 0.025000 -0.506913
v -0.276405 0.025000 -0.506913
v -0.261106 0.025000 -0.500575
v -0.276405 0.025000 -0.015299
v -0.245807 0.025000 -0.015299
v -0.261106 0.025000 -0.021636
v -0.015299 0.025000 -0.245807
v -0.015299 0.025000 -0.276405
v -0.021636 0.025000 -0.261106
v 0.015299 0.025000 0.245807
v 0.015299 0.025000 0.276405
v 0.021636 0.025000 0.261106
v 0.276405 0.025000 0.015299
v 0.245807 0.025000 0.015299
v 0.261106 0.025000 0.021636
v 0.245807 0.025000 0.506913
v 0.276405 0.025000 0.506913
v 0.261106 0.025000 0.500575
v 0.506913 0.025000 0.276405
v 0.506913 0.025000 0.245807
v 0.500576 0.025000 0.261106
v 0.015299 0.025000 -0.276405
v 0.015299 0.025000 -0.245807
v 0.021636 0.025000 -0.261106
v 0.276405 0.025000 -0.506913
v 0.245807 0.025000 -0.506913
v 0.261106 0.025000 -0.500576
v 0.245807 0.025000 -0.015299
v 0.276405 0.025000 -0.015299
v 0.261106 0.025000 -0.021636
v 0.506913 0.025000 -0.245807
v 0.506913 0.025000 -0.276405
v 0.500575 0.025000 -0.261106
v -0.506912 0.025000 0.245807
v -0.506912 0.025000 0.276405
v -0.500575 0.025000 0.261106
v -0.245807 0.025000 0.015299
v -0.276405 0.025000 0.015299
v -0.261106 0.025000 0.021636
v -0.276405 0.025000 0.506913
v -0.245807 0.025000 0.506913
v -0.261106 0.025000 0.500575
v -0.015299 0.025000 0.276405
v -0.015299 0.025000 0.245807
v -0.021636 0.025000 0.261106
v 0.015299 0.050000 -0.202095
v -0.015299 0.050000 -0.202095
v -0.202095 0.050000 -0.015299
v -0.202095 0.050000 0.015299
v -0.015299 0.050000 0.202095
v 0.015299 0.050000 0.202095
v 0.202095 0.050000 0.015299
v 0.202095 0.050000 -0.015299
v -0.463201 0.050000 -0.276405
v -0.463201 0.050000 -0.245807
v -0.245807 0.050000 -0.463201
v -0.276405 0.050000 -0.463201
v -0.276405 0.050000 -0.059011
v -0.245807 0.050000 -0.059011
v -0.059011 0.050000 -0.245807
v -0.059011 0.050000 -0.276405
v 0.059011 0.050000 0.245807
v 0.059011 0.050000 0.276405
v 0.276405 0.050000 0.059011
v 0.245807 0.050000 0.059011
v 0.245807 0.050000 0.463201
v 0.276405 0.050000 0.463201
v 0.463201 0.050000 0.276405
v 0.463201 0.050000 0.245807
v 0.059011 0.050000 -0.276405
v 0.059011 0.050000 -0.245807
v 0.276405 0.050000 -0.463201
v 0.245807 0.050000 -0.463201
v 0.245807 0.050000 -0.059011
v 0.276405 0.050000 -0.059011
v 0.463201 0.050000 -0.245807
v 0.463201 0.050000 -0.276405
v -0.463201 0.050000 0.245807
v -0.463201 0.050000 0.276405
v -0.245807 0.050000 0.059011
v -0.276405 0.050000 0.059011
v -0.276405 0.050000 0.463201
v -0.245807 0.050000 0.463201
v -0.059011 0.050000 0.276405
v -0.059011 0.050000 0.245807
vn -0.7071 -0.0000 0.7071
vn -0.0000 1.0000 -0.0000
vn -0.7071 -0.0000 -0.7071
vn 0.7071 -0.0000 -0.7071
vn -0.0000 -1.0000 -0.0000
vn 0.7071 -0.0000 0.7071
vn 1.0000 -0.0000 -0.0000
vn -0.0000 -0.0000 1.0000
vn -0.0000 -0.0000 -1.0000
vn -1.0000 -0.0000 -0.0000
vt 0.816766 0.158653
vt 0.816766 0.257829
vt 0.809160 0.257829
vt 0.809160 0.158653
vt 0.590100 0.640958
vt 0.590100 0.740134
vt 0.582495 0.740134
vt 0.582495 0.640958
vt 0.817621 0.593941
vt 0.817621 0.693117
vt 0.810016 0.693117
vt 0.810016 0.593941
vt 0.841130 0.019826
vt 0.841130 0.119001
vt 0.833524 0.119001
vt 0.833524 0.019826
vt 0.186536 0.796242
vt 0.186536 0.895418
vt 0.178930 0.895418
vt 0.178930 0.796242
vt 0.727205 0.329687
vt 0.733787 0.336269
vt 0.733787 0.416638
vt 0.727205 0.423221
vt 0.646836 0.423221
vt 0.640253 0.416638
vt 0.640253 0.336269
vt 0.646836 0.329687
vt 0.949396 0.443359
vt 0.949396 0.523728
vt 0.941790 0.523728
vt 0.941790 0.443359
vt 0.350916 0.902157
vt 0.350916 0.982525
vt 0.343310 0.982525
vt 0.343310 0.902157
vt 0.750196 0.026220
vt 0.738959 0.030875
vt 0.658590 0.030875
vt 0.647353 0.026220
vt 0.647259 0.026126
vt 0.649187 0.021471
vt 0.748363 0.021471
vt 0.750290 0.026126
vt 0.939443 0.706908
vt 0.939443 0.787277
vt 0.931838 0.787277
vt 0.931838 0.706908
vt 0.768892 0.593941
vt 0.768892 0.693117
vt 0.761287 0.693117
vt 0.761287 0.593941
vt 0.841130 0.158653
vt 0.841130 0.257829
vt 0.833524 0.257829
vt 0.833524 0.158653
vt 0.210901 0.796242
vt 0.210901 0.895418
vt 0.203295 0.895418
vt 0.203295 0.796242
vt 0.841986 0.593941
vt 0.841986 0.693117
vt 0.834380 0.693117
vt 0.834380 0.593941
vt 0.444378 0.437796
vt 0.437796 0.444379
vt 0.338620 0.444379
vt 0.332038 0.437796
vt 0.332038 0.338620
vt 0.338620 0.332038
vt 0.437796 0.332038
vt 0.444378 0.338620
vt 0.768892 0.869244
vt 0.768892 0.949613
vt 0.761287 0.949613
vt 0.761287 0.869244
vt 0.127230 0.021471
vt 0.133812 0.028054
vt 0.133812 0.127230
vt 0.127230 0.133812
vt 0.028054 0.133812
vt 0.021471 0.127230
vt 0.021471 0.028054
vt 0.028054 0.021471
vt 0.768892 0.732768
vt 0.768892 0.831944
vt 0.761287 0.831944
vt 0.761287 0.732768
vt 0.793257 0.732768
vt 0.793257 0.831944
vt 0.785651 0.831944
vt 0.785651 0.732768
vt 0.817621 0.732768
vt 0.817621 0.831944
vt 0.810015 0.831944
vt 0.810016 0.732768
vt 0.841986 0.732768
vt 0.841986 0.831944
vt 0.834380 0.831944
vt 0.834380 0.732768
vt 0.235265 0.796242
vt 0.235265 0.895418
vt 0.227659 0.895418
vt 0.227659 0.796242
vt 0.593079 0.021471
vt 0.599662 0.028054
vt 0.599662 0.127230
vt 0.593079 0.133812
vt 0.493903 0.133812
vt 0.487321 0.127230
vt 0.487321 0.028054
vt 0.493903 0.021471
vt 0.792401 0.019826
vt 0.792401 0.119002
vt 0.784795 0.119001
vt 0.784795 0.019826
vt 0.289095 0.127230
vt 0.282513 0.133812
vt 0.183337 0.133812
vt 0.176754 0.127230
vt 0.176754 0.028054
vt 0.183337 0.021471
vt 0.282513 0.021471
vt 0.289095 0.028054
vt 0.865494 0.019826
vt 0.865494 0.119001
vt 0.857889 0.119001
vt 0.857889 0.019826
vt 0.127230 0.642604
vt 0.133812 0.649187
vt 0.133812 0.748363
vt 0.127230 0.754945
vt 0.028054 0.754945
vt 0.021471 0.748363
vt 0.021471 0.649187
vt 0.028054 0.642604
vt 0.259629 0.796242
vt 0.259629 0.895418
vt 0.252024 0.895418
vt 0.252024 0.796242
vt 0.865494 0.158653
vt 0.865494 0.257829
vt 0.857889 0.257829
vt 0.857889 0.158653
vt 0.866350 0.593941
vt 0.866350 0.693117
vt 0.858744 0.693117
vt 0.858744 0.593941
vt 0.925031 0.328041
vt 0.925031 0.408410
vt 0.917425 0.408410
vt 0.917425 0.328041
vt 0.026220 0.594913
vt 0.037457 0.590258
vt 0.117826 0.590258
vt 0.129063 0.594913
vt 0.129158 0.595007
vt 0.127230 0.599662
vt 0.028054 0.599662
vt 0.026126 0.595007
vt 0.793257 0.869244
vt 0.793257 0.949613
vt 0.785651 0.949613
vt 0.785651 0.869244
vt 0.129063 0.492070
vt 0.117826 0.496724
vt 0.037457 0.496724
vt 0.026220 0.492070
vt 0.026126 0.491975
vt 0.028054 0.487321
vt 0.127230 0.487321
vt 0.129158 0.491975
vt 0.399645 0.902157
vt 0.399645 0.982525
vt 0.392039 0.982525
vt 0.392039 0.902157
vt 0.817621 0.869244
vt 0.817621 0.949613
vt 0.810015 0.949613
vt 0.810015 0.869244
vt 0.841986 0.869244
vt 0.841986 0.949613
vt 0.834380 0.949613
vt 0.834380 0.869244
vt 0.866350 0.869244
vt 0.866350 0.949613
vt 0.858744 0.949613
vt 0.858744 0.869244
vt 0.900667 0.466868
vt 0.900667 0.547237
vt 0.893061 0.547237
vt 0.893061 0.466868
vt 0.939443 0.822226
vt 0.939443 0.902595
vt 0.931838 0.902595
vt 0.931838 0.822226
vt 0.890715 0.869244
vt 0.890715 0.949613
vt 0.883109 0.949613
vt 0.883109 0.869244
vt 0.026220 0.284346
vt 0.037457 0.279692
vt 0.117826 0.279692
vt 0.129063 0.284346
vt 0.129158 0.284441
vt 0.127230 0.289095
vt 0.028054 0.289095
vt 0.026126 0.284441
vt 0.637118 0.855139
vt 0.637118 0.935508
vt 0.629512 0.935508
vt 0.629512 0.855139
vt 0.925031 0.443359
vt 0.925031 0.523728
vt 0.917426 0.523728
vt 0.917426 0.443359
vt 0.915079 0.845735
vt 0.915079 0.926104
vt 0.907473 0.926104
vt 0.907473 0.845735
vt 0.661482 0.855139
vt 0.661482 0.935508
vt 0.653877 0.935508
vt 0.653877 0.855139
vt 0.962952 0.017475
vt 0.962952 0.097844
vt 0.955346 0.097844
vt 0.955346 0.017475
vt 0.962952 0.132793
vt 0.962952 0.213162
vt 0.955346 0.213162
vt 0.955346 0.132793
vt 0.963808 0.591590
vt 0.963808 0.671959
vt 0.956202 0.671959
vt 0.956202 0.591590
vt 0.750196 0.129063
vt 0.745541 0.117826
vt 0.745541 0.037457
vt 0.754945 0.028054
vt 0.754945 0.127230
vt 0.750290 0.129158
vt 0.640253 0.599818
vt 0.646836 0.593236
vt 0.727205 0.593236
vt 0.733787 0.599818
vt 0.733787 0.680187
vt 0.727205 0.686769
vt 0.646836 0.686769
vt 0.640253 0.680187
vt 0.727204 0.725010
vt 0.733787 0.731593
vt 0.733787 0.811961
vt 0.727204 0.818544
vt 0.646836 0.818544
vt 0.640253 0.811961
vt 0.640253 0.731593
vt 0.646836 0.725010
vt 0.336269 0.733787
vt 0.329687 0.727205
vt 0.329687 0.646836
vt 0.336269 0.640253
vt 0.416638 0.640253
vt 0.423221 0.646836
vt 0.423221 0.727205
vt 0.416638 0.733787
vt 0.772028 0.468044
vt 0.778610 0.461461
vt 0.858979 0.461461
vt 0.865561 0.468044
vt 0.865561 0.548413
vt 0.858979 0.554995
vt 0.778610 0.554995
vt 0.772028 0.548413
vt 0.026220 0.181503
vt 0.030875 0.192740
vt 0.030875 0.273109
vt 0.021471 0.282513
vt 0.021471 0.183337
vt 0.026126 0.181409
vt 0.594913 0.181503
vt 0.583676 0.186158
vt 0.503307 0.186158
vt 0.492070 0.181503
vt 0.491975 0.181409
vt 0.493903 0.176754
vt 0.593079 0.176754
vt 0.595007 0.181409
vt 0.647353 0.129063
vt 0.658590 0.124409
vt 0.738959 0.124409
vt 0.748363 0.133812
vt 0.649187 0.133812
vt 0.647259 0.129158
vt 0.181503 0.181503
vt 0.186158 0.192740
vt 0.186158 0.273109
vt 0.181503 0.284346
vt 0.181409 0.284441
vt 0.176754 0.282513
vt 0.176754 0.183337
vt 0.181409 0.181409
vt 0.594913 0.284346
vt 0.590258 0.273109
vt 0.590258 0.192740
vt 0.599662 0.183337
vt 0.599662 0.282513
vt 0.595007 0.284441
vt 0.284346 0.181503
vt 0.273109 0.186158
vt 0.192740 0.186158
vt 0.183337 0.176754
vt 0.282513 0.176754
vt 0.284441 0.181409
vt 0.492070 0.284346
vt 0.503307 0.279692
vt 0.583676 0.279692
vt 0.593079 0.289095
vt 0.493903 0.289095
vt 0.491975 0.284441
vt 0.284346 0.284346
vt 0.279692 0.273109
vt 0.279692 0.192740
vt 0.289095 0.183337
vt 0.289095 0.282513
vt 0.284441 0.284441
vt 0.496724 0.192740
vt 0.496724 0.273109
vt 0.487321 0.282513
vt 0.487321 0.183337
vt 0.030875 0.503307
vt 0.030875 0.583676
vt 0.021471 0.593079
vt 0.021471 0.493903
vt 0.192740 0.279692
vt 0.273109 0.279692
vt 0.282513 0.289095
vt 0.183337 0.289095
vt 0.129063 0.181503
vt 0.117826 0.186158
vt 0.037457 0.186158
vt 0.028054 0.176754
vt 0.127230 0.176754
vt 0.129158 0.181409
vt 0.124409 0.583676
vt 0.124409 0.503307
vt 0.133812 0.493903
vt 0.133812 0.593079
vt 0.652008 0.037457
vt 0.652008 0.117826
vt 0.642604 0.127230
vt 0.642604 0.028054
vt 0.124409 0.273109
vt 0.124409 0.192740
vt 0.133812 0.183337
vt 0.133812 0.282513
vt 0.938588 0.248538
vt 0.930982 0.248538
vt 0.930982 0.239229
vt 0.938588 0.239229
vt 0.930982 0.265722
vt 0.938588 0.265722
vt 0.938588 0.275031
vt 0.930982 0.275031
vt 0.938588 0.301525
vt 0.930982 0.301525
vt 0.930982 0.292216
vt 0.938588 0.292216
vt 0.931838 0.928662
vt 0.939443 0.928662
vt 0.939443 0.937971
vt 0.931838 0.937971
vt 0.590100 0.943182
vt 0.582495 0.943182
vt 0.582495 0.933873
vt 0.590100 0.933873
vt 0.941790 0.549795
vt 0.949396 0.549795
vt 0.949396 0.559104
vt 0.941790 0.559104
vt 0.448374 0.955570
vt 0.440768 0.955570
vt 0.440768 0.946261
vt 0.448374 0.946261
vt 0.162172 0.933145
vt 0.154566 0.933145
vt 0.154566 0.923835
vt 0.162172 0.923835
vt 0.465132 0.946261
vt 0.472738 0.946261
vt 0.472738 0.955570
vt 0.465132 0.955570
vt 0.768892 0.984989
vt 0.761287 0.984989
vt 0.761287 0.975680
vt 0.768892 0.975680
vt 0.962952 0.301525
vt 0.955346 0.301525
vt 0.955346 0.292216
vt 0.962952 0.292216
vt 0.784795 0.286246
vt 0.792401 0.286246
vt 0.792401 0.295555
vt 0.784795 0.295555
vt 0.497103 0.955570
vt 0.489497 0.955570
vt 0.489497 0.946261
vt 0.497103 0.946261
vt 0.521467 0.955570
vt 0.513861 0.955570
vt 0.513861 0.946261
vt 0.521467 0.946261
vt 0.793257 0.984989
vt 0.785651 0.984989
vt 0.785651 0.975680
vt 0.793257 0.975680
vt 0.521467 0.902583
vt 0.513861 0.902583
vt 0.513861 0.893274
vt 0.521467 0.893274
vt 0.545831 0.955570
vt 0.538226 0.955570
vt 0.538226 0.946261
vt 0.545831 0.946261
vt 0.963808 0.937971
vt 0.956202 0.937971
vt 0.956202 0.928662
vt 0.963808 0.928662
vt 0.817621 0.984989
vt 0.810015 0.984989
vt 0.810015 0.975680
vt 0.817621 0.975680
vt 0.939443 0.964465
vt 0.931838 0.964465
vt 0.931838 0.955156
vt 0.939443 0.955156
vt 0.283994 0.959638
vt 0.276388 0.959638
vt 0.276388 0.950329
vt 0.283994 0.950329
vt 0.178930 0.923835
vt 0.186536 0.923835
vt 0.186536 0.933145
vt 0.178930 0.933145
vt 0.963808 0.964465
vt 0.956202 0.964465
vt 0.956202 0.955156
vt 0.963808 0.955156
vt 0.906618 0.286246
vt 0.914223 0.286246
vt 0.914223 0.295555
vt 0.906618 0.295555
vt 0.590100 0.969675
vt 0.582495 0.969675
vt 0.582495 0.960366
vt 0.590100 0.960366
vt 0.582495 0.907379
vt 0.590100 0.907379
vt 0.590100 0.916688
vt 0.582495 0.916688
vt 0.637118 0.970884
vt 0.629512 0.970884
vt 0.629512 0.961574
vt 0.637118 0.961574
vt 0.661482 0.970884
vt 0.653877 0.970884
vt 0.653877 0.961575
vt 0.661482 0.961575
vt 0.210901 0.933145
vt 0.203295 0.933145
vt 0.203295 0.923835
vt 0.210901 0.923835
vt 0.925031 0.559104
vt 0.917426 0.559104
vt 0.917426 0.549795
vt 0.925031 0.549795
vt 0.008379 0.976822
vt 0.015985 0.976822
vt 0.015985 0.986131
vt 0.008379 0.986131
vt 0.448374 0.929077
vt 0.440768 0.929077
vt 0.440768 0.919768
vt 0.448374 0.919768
vt 0.472738 0.929076
vt 0.465132 0.929076
vt 0.465132 0.919767
vt 0.472738 0.919767
vt 0.678241 0.961574
vt 0.685847 0.961574
vt 0.685847 0.970884
vt 0.678241 0.970884
vt 0.472738 0.902583
vt 0.465132 0.902583
vt 0.465132 0.893274
vt 0.472738 0.893274
vt 0.841130 0.295555
vt 0.833524 0.295555
vt 0.833524 0.286246
vt 0.841130 0.286246
vt 0.497103 0.929076
vt 0.489497 0.929076
vt 0.489497 0.919767
vt 0.497103 0.919767
vt 0.962952 0.248538
vt 0.955346 0.248538
vt 0.955346 0.239229
vt 0.962952 0.239229
vt 0.521467 0.929076
vt 0.513861 0.929076
vt 0.513861 0.919767
vt 0.521467 0.919767
vt 0.865494 0.295555
vt 0.857889 0.295555
vt 0.857889 0.286246
vt 0.865494 0.286246
vt 0.866350 0.732768
vt 0.866350 0.831944
vt 0.858744 0.831944
vt 0.858744 0.732768
s 0
usemtl Материал_алюминия
f 1/1/1 4/2/1 107/3/1 105/4/1
f 9/5/1 12/6/1 119/7/1 114/8/1
f 17/9/1 20/10/1 131/11/1 126/12/1
f 25/13/1 28/14/1 143/15/1 138/16/1
f 33/17/1 36/18/1 155/19/1 150/20/1
f 163/21/2 164/22/2 165/23/2 166/24/2 167/25/2 168/26/2 161/27/2 162/28/2
f 44/29/1 48/30/1 165/31/1 164/32/1
f 80/33/3 78/34/3 185/35/3 188/36/3
f 97/37/2 96/38/2 89/39/2 91/40/2 151/41/2 150/42/2 155/43/2 157/44/2
f 56/45/3 54/46/3 169/47/3 172/48/3
f 23/49/4 22/50/4 128/51/4 135/52/4
f 13/53/3 10/54/3 113/55/3 117/56/3
f 39/57/4 38/58/4 152/59/4 159/60/4
f 29/61/3 26/62/3 137/63/3 141/64/3
f 9/65/5 10/66/5 13/67/5 14/68/5 15/69/5 16/70/5 11/71/5 12/72/5
f 41/73/3 45/74/3 163/75/3 162/76/3
f 25/77/5 26/78/5 29/79/5 30/80/5 31/81/5 32/82/5 27/83/5 28/84/5
f 11/85/6 16/86/6 122/87/6 120/88/6
f 27/89/6 32/90/6 146/91/6 144/92/6
f 15/93/4 14/94/4 116/95/4 123/96/4
f 31/97/4 30/98/4 140/99/4 147/100/4
f 21/101/3 18/102/3 125/103/3 129/104/3
f 1/105/5 2/106/5 5/107/5 6/108/5 7/109/5 8/110/5 3/111/5 4/112/5
f 37/113/3 34/114/3 149/115/3 153/116/3
f 17/117/5 18/118/5 21/119/5 22/120/5 23/121/5 24/122/5 19/123/5 20/124/5
f 3/125/6 8/126/6 110/127/6 108/128/6
f 33/129/5 34/130/5 37/131/5 38/132/5 39/133/5 40/134/5 35/135/5 36/136/5
f 19/137/6 24/138/6 134/139/6 132/140/6
f 7/141/4 6/142/4 101/143/4 111/144/4
f 35/145/6 40/146/6 158/147/6 156/148/6
f 50/149/4 42/150/4 161/151/4 168/152/4
f 52/153/2 51/154/2 47/155/2 49/156/2 109/157/2 108/158/2 110/159/2 112/160/2
f 47/161/6 51/162/6 167/163/6 166/164/6
f 46/165/2 45/166/2 41/167/2 43/168/2 103/169/2 102/170/2 104/171/2 106/172/2
f 53/173/1 60/174/1 173/175/1 170/176/1
f 62/177/4 57/178/4 171/179/4 176/180/4
f 68/181/3 66/182/3 177/183/3 180/184/3
f 59/185/6 63/186/6 175/187/6 174/188/6
f 65/189/1 72/190/1 181/191/1 178/192/1
f 74/193/4 69/194/4 179/195/4 184/196/4
f 71/197/6 75/198/6 183/199/6 182/200/6
f 76/201/2 75/202/2 71/203/2 73/204/2 133/205/2 132/206/2 134/207/2 136/208/2
f 77/209/1 84/210/1 189/211/1 186/212/1
f 86/213/4 81/214/4 187/215/4 192/216/4
f 92/217/3 90/218/3 193/219/3 196/220/3
f 83/221/6 87/222/6 191/223/6 190/224/6
f 89/225/1 96/226/1 197/227/1 194/228/1
f 98/229/4 93/230/4 195/231/4 200/232/4
f 95/233/6 99/234/6 199/235/6 198/236/6
f 100/237/2 99/238/2 95/239/2 97/37/2 157/44/2 156/240/2 158/241/2 160/242/2
f 169/243/2 170/244/2 173/245/2 174/246/2 175/247/2 176/248/2 171/249/2 172/250/2
f 177/251/2 178/252/2 181/253/2 182/254/2 183/255/2 184/256/2 179/257/2 180/258/2
f 185/259/2 186/260/2 189/261/2 190/262/2 191/263/2 192/264/2 187/265/2 188/266/2
f 193/267/2 194/268/2 197/269/2 198/270/2 199/271/2 200/272/2 195/273/2 196/274/2
f 70/275/2 69/276/2 74/277/2 76/201/2 136/208/2 135/278/2 128/279/2 130/280/2
f 55/281/2 54/282/2 56/283/2 58/284/2 118/285/2 117/286/2 113/287/2 115/288/2
f 94/289/2 93/290/2 98/291/2 100/237/2 160/242/2 159/292/2 152/293/2 154/294/2
f 79/295/2 78/296/2 80/297/2 82/298/2 142/299/2 141/300/2 137/301/2 139/302/2
f 61/303/2 60/304/2 53/305/2 55/281/2 115/288/2 114/306/2 119/307/2 121/308/2
f 85/309/2 84/310/2 77/311/2 79/295/2 139/302/2 138/312/2 143/313/2 145/314/2
f 64/315/2 63/316/2 59/317/2 61/303/2 121/308/2 120/318/2 122/319/2 124/320/2
f 88/321/2 87/322/2 83/323/2 85/309/2 145/314/2 144/324/2 146/325/2 148/326/2
f 58/284/2 57/327/2 62/328/2 64/315/2 124/320/2 123/329/2 116/330/2 118/285/2
f 43/168/2 42/331/2 50/332/2 52/153/2 112/160/2 111/333/2 101/334/2 103/169/2
f 82/298/2 81/335/2 86/336/2 88/321/2 148/326/2 147/337/2 140/338/2 142/299/2
f 67/339/2 66/340/2 68/341/2 70/275/2 130/280/2 129/342/2 125/343/2 127/344/2
f 49/156/2 48/345/2 44/346/2 46/165/2 106/172/2 105/347/2 107/348/2 109/157/2
f 91/40/2 90/349/2 92/350/2 94/289/2 154/294/2 153/351/2 149/352/2 151/41/2
f 73/204/2 72/353/2 65/354/2 67/339/2 127/344/2 126/355/2 131/356/2 133/205/2
f 41/167/2 42/331/2 43/168/2
f 44/346/2 45/166/2 46/165/2
f 47/155/2 48/345/2 49/156/2
f 50/332/2 51/154/2 52/153/2
f 53/305/2 54/282/2 55/281/2
f 56/283/2 57/327/2 58/284/2
f 59/317/2 60/304/2 61/303/2
f 62/328/2 63/316/2 64/315/2
f 65/354/2 66/340/2 67/339/2
f 68/341/2 69/276/2 70/275/2
f 71/203/2 72/353/2 73/204/2
f 74/277/2 75/202/2 76/201/2
f 77/311/2 78/296/2 79/295/2
f 80/297/2 81/335/2 82/298/2
f 83/323/2 84/310/2 85/309/2
f 86/336/2 87/322/2 88/321/2
f 89/39/2 90/349/2 91/40/2
f 92/350/2 93/290/2 94/289/2
f 95/239/2 96/38/2 97/37/2
f 98/291/2 99/238/2 100/237/2
f 101/334/2 102/170/2 103/169/2
f 104/171/2 105/347/2 106/172/2
f 107/348/2 108/158/2 109/157/2
f 110/159/2 111/333/2 112/160/2
f 113/287/2 114/306/2 115/288/2
f 116/330/2 117/286/2 118/285/2
f 119/307/2 120/318/2 121/308/2
f 122/319/2 123/329/2 124/320/2
f 125/343/2 126/355/2 127/344/2
f 128/279/2 129/342/2 130/280/2
f 131/356/2 132/206/2 133/205/2
f 134/207/2 135/278/2 136/208/2
f 137/301/2 138/312/2 139/302/2
f 140/338/2 141/300/2 142/299/2
f 143/313/2 144/324/2 145/314/2
f 146/325/2 147/337/2 148/326/2
f 149/352/2 150/42/2 151/41/2
f 152/293/2 153/351/2 154/294/2
f 155/43/2 156/240/2 157/44/2
f 158/241/2 159/292/2 160/242/2
f 23/357/7 135/358/7 134/359/7 24/360/7
f 131/361/8 20/362/8 19/363/8 132/364/8
f 5/365/9 102/366/9 101/367/9 6/368/9
f 110/369/7 8/370/7 7/371/7 111/372/7
f 39/373/7 159/374/7 158/375/7 40/376/7
f 155/377/8 36/378/8 35/379/8 156/380/8
f 21/381/9 129/382/9 128/383/9 22/384/9
f 9/385/10 114/386/10 113/387/10 10/388/10
f 116/389/9 14/390/9 13/391/9 117/392/9
f 37/393/9 153/394/9 152/395/9 38/396/9
f 25/397/10 138/398/10 137/399/10 26/400/10
f 140/401/9 30/402/9 29/403/9 141/404/9
f 11/405/8 120/406/8 119/407/8 12/408/8
f 27/409/8 144/410/8 143/411/8 28/412/8
f 15/413/7 123/414/7 122/415/7 16/416/7
f 31/417/7 147/418/7 146/419/7 32/420/7
f 1/421/10 105/422/10 104/423/10 2/424/10
f 17/425/10 126/426/10 125/427/10 18/428/10
f 3/429/8 108/430/8 107/431/8 4/432/8
f 33/433/10 150/434/10 149/435/10 34/436/10
f 50/437/7 168/438/7 167/439/7 51/440/7
f 165/441/8 48/442/8 47/443/8 166/444/8
f 95/445/8 198/446/8 197/447/8 96/448/8
f 193/449/10 90/450/10 89/451/10 194/452/10
f 74/453/7 184/454/7 183/455/7 75/456/7
f 181/457/8 72/458/8 71/459/8 182/460/8
f 41/461/9 162/462/9 161/463/9 42/464/9
f 98/465/7 200/466/7 199/467/7 99/468/7
f 68/469/9 180/470/9 179/471/9 69/472/9
f 53/473/10 170/474/10 169/475/10 54/476/10
f 171/477/9 57/478/9 56/479/9 172/480/9
f 92/481/9 196/482/9 195/483/9 93/484/9
f 77/485/10 186/486/10 185/487/10 78/488/10
f 187/489/9 81/490/9 80/491/9 188/492/9
f 59/493/8 174/494/8 173/495/8 60/496/8
f 83/497/8 190/498/8 189/499/8 84/500/8
f 62/501/7 176/502/7 175/503/7 63/504/7
f 86/505/7 192/506/7 191/507/7 87/508/7
f 44/509/10 164/510/10 163/511/10 45/512/10
f 65/513/10 178/514/10 177/515/10 66/516/10
f 5/517/3 2/518/3 104/519/3 102/520/3
