# Blender 4.2.3 LTS
# www.blender.org
mtllib Gas_U.mtl
o Gas
v 0.123982 0.000000 -0.355971
v 0.218887 0.000000 -0.338346
v -0.265681 0.000000 -0.221369
v -0.253531 0.000000 -0.266508
v -0.253531 0.000000 0.266508
v -0.265681 0.000000 0.221369
v 0.218887 0.000000 0.338346
v 0.123982 0.000000 0.355971
v 0.506832 0.000000 0.150000
v 0.461764 0.000000 0.221654
v 0.461764 0.000000 -0.221654
v 0.506832 0.000000 -0.150000
v -0.507329 0.000000 0.033764
v -0.507329 0.000000 -0.033765
v -0.015594 0.000000 0.166965
v -0.015594 0.000000 -0.166965
v 0.439799 0.025000 -0.197041
v 0.475135 0.025000 -0.140861
v 0.122016 0.025000 -0.324098
v 0.208957 0.025000 -0.307951
v -0.227608 0.025000 0.242357
v -0.228882 0.025000 0.237624
v 0.208957 0.025000 0.307951
v 0.122016 0.025000 0.324098
v -0.475632 0.025000 0.010374
v -0.475632 0.025000 -0.010374
v 0.083790 0.025000 0.164713
v 0.475135 0.025000 0.140861
v 0.439799 0.025000 0.197041
v -0.228882 0.025000 -0.237624
v -0.227608 0.025000 -0.242357
v 0.083791 0.025000 -0.164713
v 0.461764 0.025000 -0.221654
v 0.506832 0.025000 -0.150000
v 0.123982 0.025000 -0.355971
v 0.218887 0.025000 -0.338346
v -0.253531 0.025000 0.266508
v -0.265681 0.025000 0.221369
v 0.218887 0.025000 0.338346
v 0.123982 0.025000 0.355971
v -0.507329 0.025000 0.033764
v -0.507329 0.025000 -0.033765
v 0.506832 0.025000 0.150000
v 0.461764 0.025000 0.221654
v -0.265681 0.025000 -0.221369
v -0.253531 0.025000 -0.266508
v -0.015594 0.025000 0.166965
v -0.015594 0.025000 -0.166965
v 0.439799 0.050000 -0.197041
v 0.475135 0.050000 -0.140861
v 0.122016 0.050000 -0.324098
v 0.208957 0.050000 -0.307951
v -0.227608 0.050000 0.242357
v -0.228882 0.050000 0.237624
v 0.208957 0.050000 0.307951
v 0.122016 0.050000 0.324098
v -0.475632 0.050000 0.010374
v -0.475632 0.050000 -0.010374
v 0.475135 0.050000 0.140861
v 0.439799 0.050000 0.197041
v -0.228882 0.050000 -0.237624
v -0.227608 0.050000 -0.242357
v 0.083790 0.050000 0.164713
v 0.083791 0.050000 -0.164713
vn 0.4331 -0.0000 -0.9014
vn -0.2126 -0.0000 0.9771
vn -0.2126 -0.0000 -0.9771
vn -0.2615 -0.0000 -0.9652
vn 1.0000 -0.0000 -0.0000
vn -0.0000 -1.0000 -0.0000
vn 0.4331 -0.0000 0.9014
vn -0.2615 -0.0000 0.9652
vn -0.2306 -0.0000 0.9731
vn 0.8465 -0.0000 -0.5324
vn 0.1826 -0.0000 -0.9832
vn -0.9656 -0.0000 0.2599
vn 0.1826 -0.0000 0.9832
vn -1.0000 -0.0000 -0.0000
vn 0.8465 -0.0000 0.5324
vn -0.9656 -0.0000 -0.2599
vn -0.2306 -0.0000 -0.9731
vn -0.0000 1.0000 -0.0000
vn -0.9656 -0.0000 -0.2600
vn -0.2277 -0.0000 -0.9737
vn -0.2660 -0.0000 -0.9640
vn -0.2660 -0.0000 0.9640
vn -0.2271 -0.0000 0.9739
vn -0.9656 -0.0000 0.2600
vn -0.2277 -0.0000 0.9737
vn -0.2271 -0.0000 -0.9739
vt 0.729678 0.953993
vt 0.721869 0.953993
vt 0.721869 0.869827
vt 0.729678 0.869827
vt 0.881450 0.948949
vt 0.873641 0.948949
vt 0.873641 0.869006
vt 0.881450 0.869006
vt 0.994419 0.218708
vt 0.986610 0.218708
vt 0.986610 0.138765
vt 0.994419 0.138765
vt 0.937504 0.912304
vt 0.929695 0.912304
vt 0.929695 0.753173
vt 0.937504 0.753173
vt 0.653793 0.965389
vt 0.645984 0.965389
vt 0.645984 0.871682
vt 0.653793 0.871682
vt 0.267107 0.288903
vt 0.254915 0.316479
vt 0.201954 0.381894
vt 0.176929 0.390430
vt 0.085748 0.368822
vt 0.067216 0.349963
vt 0.049242 0.267739
vt 0.050721 0.237624
vt 0.105104 0.129328
vt 0.119699 0.128886
vt 0.118221 0.208815
vt 0.194124 0.068953
vt 0.214648 0.073817
vt 0.219714 0.232867
vt 0.254263 0.160775
vt 0.267107 0.167719
vt 0.767621 0.953993
vt 0.759812 0.953993
vt 0.759812 0.869827
vt 0.767621 0.869827
vt 0.937504 0.454021
vt 0.929695 0.454021
vt 0.929695 0.294890
vt 0.937504 0.294890
vt 0.956476 0.554389
vt 0.948667 0.554389
vt 0.948667 0.433205
vt 0.956476 0.433205
vt 0.203105 0.944889
vt 0.195296 0.944889
vt 0.195296 0.918448
vt 0.203105 0.918448
vt 0.043524 0.919170
vt 0.051333 0.919170
vt 0.051333 0.949321
vt 0.043524 0.949321
vt 0.354876 0.930747
vt 0.347067 0.930747
vt 0.347067 0.916146
vt 0.354876 0.916146
vt 0.005581 0.919170
vt 0.013390 0.919170
vt 0.013390 0.949321
vt 0.005581 0.949321
vt 0.241047 0.938501
vt 0.233239 0.938501
vt 0.233239 0.917408
vt 0.241047 0.917408
vt 0.157353 0.918449
vt 0.165162 0.918449
vt 0.165162 0.944889
vt 0.157353 0.944889
vt 0.366039 0.916146
vt 0.373848 0.916146
vt 0.373848 0.930748
vt 0.366039 0.930748
vt 0.843507 0.869016
vt 0.843507 0.949011
vt 0.835698 0.949011
vt 0.835698 0.869016
vt 0.918533 0.928466
vt 0.910724 0.928466
vt 0.910724 0.807282
vt 0.918533 0.807282
vt 0.425601 0.374392
vt 0.445221 0.381085
vt 0.444727 0.391378
vt 0.419702 0.382841
vt 0.364094 0.286957
vt 0.375264 0.312219
vt 0.366741 0.317427
vt 0.354548 0.289851
vt 0.511079 0.139894
vt 0.509548 0.139847
vt 0.501957 0.129833
vt 0.516552 0.130275
vt 0.562460 0.267858
vt 0.561105 0.240270
vt 0.570934 0.238572
vt 0.572413 0.268686
vt 0.422706 0.081219
vt 0.416400 0.082713
vt 0.407007 0.074764
vt 0.427532 0.069900
vt 0.530847 0.360794
vt 0.545377 0.346007
vt 0.554440 0.350911
vt 0.535908 0.369770
vt 0.365103 0.174078
vt 0.363756 0.174806
vt 0.354548 0.168667
vt 0.367393 0.161723
vt 0.509909 0.240132
vt 0.503435 0.209763
vt 0.409784 0.263859
vt 0.401941 0.233815
vt 0.842932 0.093055
vt 0.860251 0.171153
vt 0.858979 0.198745
vt 0.809256 0.299272
vt 0.807726 0.299323
vt 0.807784 0.199038
vt 0.721061 0.358213
vt 0.714750 0.356737
vt 0.707588 0.175612
vt 0.663178 0.265528
vt 0.661829 0.264804
vt 0.661829 0.152652
vt 0.672922 0.127357
vt 0.723071 0.065032
vt 0.742671 0.058280
vt 0.828357 0.078313
vt 0.892923 0.900732
vt 0.891392 0.900732
vt 0.891392 0.892923
vt 0.892923 0.892923
vt 0.691736 0.870572
vt 0.691735 0.958569
vt 0.683927 0.958569
vt 0.683927 0.870572
vt 0.975447 0.189762
vt 0.975447 0.301914
vt 0.967638 0.301914
vt 0.967638 0.189762
vt 0.316933 0.917338
vt 0.316933 0.938069
vt 0.309124 0.938069
vt 0.309124 0.917338
vt 0.918533 0.039309
vt 0.918533 0.220576
vt 0.910724 0.220576
vt 0.910724 0.039309
vt 0.918533 0.559079
vt 0.918533 0.740346
vt 0.910724 0.740346
vt 0.910724 0.559079
vt 0.127219 0.918678
vt 0.127219 0.946299
vt 0.119410 0.946299
vt 0.119410 0.918678
vt 0.975447 0.515238
vt 0.975447 0.615523
vt 0.967638 0.615523
vt 0.967638 0.515238
vt 0.892923 0.919703
vt 0.891392 0.919703
vt 0.891392 0.911894
vt 0.892923 0.911894
vt 0.805564 0.869016
vt 0.805564 0.949011
vt 0.797755 0.949011
vt 0.797755 0.869016
vt 0.089276 0.918678
vt 0.089276 0.946299
vt 0.081467 0.946299
vt 0.081467 0.918678
vt 0.956476 0.784322
vt 0.956476 0.896474
vt 0.948667 0.896474
vt 0.948667 0.784322
vt 0.898835 0.862789
vt 0.892354 0.862789
vt 0.892354 0.854980
vt 0.898835 0.854980
vt 0.975447 0.810059
vt 0.975447 0.910344
vt 0.967638 0.910344
vt 0.967638 0.810059
vt 0.278990 0.917338
vt 0.278990 0.938069
vt 0.271181 0.938069
vt 0.271181 0.917338
s 0
usemtl Материал_газа
f 2/1/1 36/2/1 33/3/1 11/4/1
f 16/5/2 48/6/2 45/7/2 3/8/2
f 6/9/3 38/10/3 47/11/3 15/12/3
f 14/13/4 42/14/4 48/15/4 16/16/4
f 12/17/5 34/18/5 43/19/5 9/20/5
f 1/21/6 2/22/6 11/23/6 12/24/6 9/25/6 10/26/6 7/27/6 8/28/6 5/29/6 6/30/6 15/31/6 13/32/6 14/33/6 16/34/6 3/35/6 4/36/6
f 10/37/7 44/38/7 39/39/7 7/40/7
f 15/41/8 47/42/8 41/43/8 13/44/8
f 8/45/9 40/46/9 37/47/9 5/48/9
f 11/49/10 33/50/10 34/51/10 12/52/10
f 36/53/11 2/54/11 1/55/11 35/56/11
f 5/57/12 37/58/12 38/59/12 6/60/12
f 40/61/13 8/62/13 7/63/13 39/64/13
f 13/65/14 41/66/14 42/67/14 14/68/14
f 44/69/15 10/70/15 9/71/15 43/72/15
f 46/73/16 4/74/16 3/75/16 45/76/16
f 23/77/7 29/78/7 60/79/7 55/80/7
f 4/81/17 46/82/17 35/83/17 1/84/17
f 17/85/18 18/86/18 34/87/18 33/88/18
f 19/89/18 20/90/18 36/91/18 35/92/18
f 21/93/18 22/94/18 38/95/18 37/96/18
f 23/97/18 24/98/18 40/99/18 39/100/18
f 25/101/18 26/102/18 42/103/18 41/104/18
f 28/105/18 29/106/18 44/107/18 43/108/18
f 30/109/18 31/110/18 46/111/18 45/112/18
f 31/110/18 19/89/18 35/92/18 46/111/18
f 27/113/18 25/101/18 41/104/18 47/114/18
f 32/115/18 30/109/18 45/112/18 48/116/18
f 20/90/18 17/85/18 33/88/18 36/91/18
f 24/98/18 21/93/18 37/96/18 40/99/18
f 22/94/18 27/113/18 47/114/18 38/95/18
f 29/106/18 23/97/18 39/100/18 44/107/18
f 18/86/18 28/105/18 43/108/18 34/87/18
f 26/102/18 32/115/18 48/116/18 42/103/18
f 49/117/18 52/118/18 51/119/18 62/120/18 61/121/18 64/122/18 58/123/18 57/124/18 63/125/18 54/126/18 53/127/18 56/128/18 55/129/18 60/130/18 59/131/18 50/132/18
f 31/133/19 30/134/19 61/135/19 62/136/19
f 28/137/5 18/138/5 50/139/5 59/140/5
f 19/141/20 31/142/20 62/143/20 51/144/20
f 18/145/10 17/146/10 49/147/10 50/148/10
f 32/149/21 26/150/21 58/151/21 64/152/21
f 25/153/22 27/154/22 63/155/22 57/156/22
f 20/157/11 19/158/11 51/159/11 52/160/11
f 30/161/23 32/162/23 64/163/23 61/164/23
f 22/165/24 21/166/24 53/167/24 54/168/24
f 17/169/1 20/170/1 52/171/1 49/172/1
f 24/173/13 23/174/13 55/175/13 56/176/13
f 21/177/25 24/178/25 56/179/25 53/180/25
f 26/181/14 25/182/14 57/183/14 58/184/14
f 27/185/26 22/186/26 54/187/26 63/188/26
f 29/189/15 28/190/15 59/191/15 60/192/15
