# Blender 4.2.3 LTS
# www.blender.org
mtllib House_1lvl_U.mtl
o House1
v -0.500000 0.000000 0.000000
v -0.500000 0.000000 -0.500000
v 0.500000 0.113408 -0.160798
v 0.500000 0.113408 -0.339202
v 0.000000 0.000000 -0.500000
v 0.000000 0.000000 0.000000
v -0.339202 0.113408 0.500000
v -0.160798 0.113408 0.500000
v -0.500000 0.400000 -0.500000
v -0.500000 0.400000 0.000000
v 0.000000 0.400000 -0.500000
v 0.500000 0.326592 -0.160798
v 0.500000 0.326592 -0.339202
v 0.000000 0.400000 0.000000
v -0.339202 0.326592 0.500000
v -0.160798 0.326592 0.500000
v 0.000000 0.400000 -0.550000
v 0.550000 0.400000 -0.550000
v 0.050000 0.400000 0.050000
v 0.550000 0.400000 0.050000
v 0.050000 0.400000 0.550000
v -0.250000 0.600000 -0.250000
v 0.250000 0.600000 -0.250000
v -0.250000 0.600000 0.250000
v -0.550000 0.400000 -0.550000
v -0.550000 0.400000 0.000000
v -0.550000 0.400000 0.550000
v 0.000000 0.600000 -0.250000
v -0.250000 0.600000 0.000000
v 0.500000 0.000000 0.000000
v 0.500000 0.000000 -0.500000
v -0.500000 0.000000 0.500000
v 0.000000 0.000000 0.500000
v 0.500000 0.400000 0.000000
v 0.500000 0.400000 -0.500000
v -0.500000 0.400000 0.500000
v 0.000000 0.400000 0.500000
v 0.470000 0.113408 -0.160798
v 0.470000 0.113408 -0.339202
v -0.339202 0.113408 0.470000
v -0.160798 0.113408 0.470000
v 0.470000 0.326592 -0.160798
v 0.470000 0.326592 -0.339202
v -0.339202 0.326592 0.470000
v -0.160798 0.326592 0.470000
vn -0.0000 -1.0000 -0.0000
vn -1.0000 -0.0000 -0.0000
vn -0.0000 -0.0000 -1.0000
vn 1.0000 -0.0000 -0.0000
vn -0.0000 1.0000 -0.0000
vn -0.0000 -0.0000 1.0000
vn 0.5547 0.8321 -0.0000
vn -0.0000 0.8321 -0.5547
vn -0.5547 0.8321 -0.0000
vn -0.0000 0.8321 0.5547
vt 0.296044 0.906250
vt 0.133315 0.906250
vt 0.133315 0.743520
vt 0.296044 0.743520
vt 0.458773 0.906250
vt 0.458774 0.743520
vt 0.296044 0.580791
vt 0.458774 0.580791
vt 0.055806 0.296045
vt 0.072079 0.312318
vt 0.072079 0.475047
vt 0.055806 0.491320
vt 0.819710 0.903384
vt 0.689526 0.903384
vt 0.689526 0.740655
vt 0.819710 0.740655
vt 0.651606 0.740655
vt 0.521423 0.740655
vt 0.521423 0.577926
vt 0.651606 0.577926
vt 0.878065 0.128277
vt 0.960032 0.128277
vt 0.970258 0.117340
vt 0.867839 0.117340
vt 0.689526 0.577926
vt 0.819710 0.577926
vt 0.984140 0.475313
vt 0.853957 0.475313
vt 0.853957 0.312584
vt 0.984140 0.312584
vt 0.909037 0.583810
vt 0.909037 0.693555
vt 0.915962 0.704070
vt 0.915962 0.573295
vt 0.133315 0.671308
vt 0.296044 0.671308
vt 0.651606 0.903384
vt 0.521423 0.903384
vt 0.234808 0.475047
vt 0.234808 0.491320
vt 0.218535 0.296045
vt 0.234808 0.312318
vt 0.413810 0.491320
vt 0.397537 0.475047
vt 0.397537 0.312318
vt 0.397537 0.149588
vt 0.413810 0.133316
vt 0.413810 0.312318
vt 0.234808 0.149588
vt 0.218535 0.133315
vt 0.538463 0.380545
vt 0.655809 0.478182
vt 0.493330 0.478182
vt 0.013817 0.679685
vt 0.078909 0.582047
vt 0.078909 0.761049
vt 0.013817 0.761049
vt 0.078909 0.940051
vt 0.013817 0.842414
vt 0.606163 0.217816
vt 0.538463 0.217816
vt 0.493330 0.120178
vt 0.642269 0.120178
vt 0.673862 0.217816
vt 0.791208 0.120178
vt 0.791208 0.315453
vt 0.655809 0.315453
vt 0.538463 0.299180
vt 0.984328 0.104425
vt 0.960098 0.127438
vt 0.878251 0.127438
vt 0.854021 0.104425
vt 0.923261 0.718529
vt 0.849792 0.718529
vt 0.862532 0.694621
vt 0.910521 0.694621
vt 0.984328 0.265165
vt 0.960098 0.241173
vt 0.910521 0.582206
vt 0.923261 0.561165
vt 0.862532 0.582206
vt 0.849792 0.561165
vt 0.854021 0.265165
vt 0.878251 0.241174
vt 0.950228 0.230064
vt 0.887869 0.230064
vt 0.887869 0.140049
vt 0.950228 0.140049
vt 0.903904 0.684246
vt 0.868885 0.684246
vt 0.868885 0.593119
vt 0.903904 0.593119
vt 0.863752 0.583810
vt 0.856827 0.573295
vt 0.878065 0.241836
vt 0.867839 0.252773
vt 0.960032 0.241836
vt 0.970258 0.252773
vt 0.863752 0.693555
vt 0.856827 0.704070
s 0
usemtl Материал_дом_1
f 5/1/1 31/2/1 30/3/1 6/4/1
f 2/5/1 5/1/1 6/4/1 1/6/1
f 1/6/1 6/4/1 33/7/1 32/8/1
f 20/9/1 34/10/1 35/11/1 18/12/1
f 32/13/2 36/14/2 10/15/2 1/16/2
f 5/17/3 11/18/3 35/19/3 31/20/3
f 12/21/3 3/22/3 38/23/3 42/24/3
f 1/16/2 10/15/2 9/25/2 2/26/2
f 6/27/4 14/28/4 37/29/4 33/30/4
f 7/31/5 8/32/5 41/33/5 40/34/5
f 30/3/6 34/35/6 14/36/6 6/4/6
f 2/37/3 9/38/3 11/18/3 5/17/3
f 18/12/1 35/11/1 11/39/1 17/40/1
f 20/9/1 19/41/1 14/42/1 34/10/1
f 25/43/1 17/40/1 11/39/1 9/44/1
f 10/45/1 36/46/1 27/47/1 26/48/1
f 26/48/1 25/43/1 9/44/1 10/45/1
f 37/49/1 14/42/1 19/41/1 21/50/1
f 36/46/1 37/49/1 21/50/1 27/47/1
f 23/51/7 20/52/7 18/53/7
f 23/54/8 18/55/8 17/56/8 28/57/8
f 28/57/8 17/56/8 25/58/8 22/59/8
f 29/60/9 22/61/9 25/62/9 26/63/9
f 24/64/9 29/60/9 26/63/9 27/65/9
f 27/65/10 21/66/10 24/64/10
f 21/66/7 19/67/7 29/60/7 24/64/7
f 28/68/10 22/61/10 19/67/10
f 22/61/7 29/60/7 19/67/7
f 20/52/10 23/51/10 28/68/10 19/67/10
f 31/69/4 4/70/4 3/71/4 30/72/4
f 37/73/6 36/74/6 15/75/6 16/76/6
f 35/77/4 13/78/4 4/70/4 31/69/4
f 37/73/6 16/76/6 8/79/6 33/80/6
f 33/80/6 8/79/6 7/81/6 32/82/6
f 35/77/4 34/83/4 12/84/4 13/78/4
f 34/83/4 30/72/4 3/71/4 12/84/4
f 32/82/6 7/81/6 15/75/6 36/74/6
f 39/85/4 43/86/4 42/87/4 38/88/4
f 41/89/6 45/90/6 44/91/6 40/92/6
f 15/93/4 7/31/4 40/34/4 44/94/4
f 13/95/1 12/21/1 42/24/1 43/96/1
f 3/22/5 4/97/5 39/98/5 38/23/5
f 8/32/2 16/99/2 45/100/2 41/33/2
f 4/97/6 13/95/6 43/96/6 39/98/6
f 16/99/1 15/93/1 44/94/1 45/100/1
