# Blender 4.2.3 LTS
# www.blender.org
mtllib Laboratory_U.mtl
o Laboratory_updated
v 0.109355 0.000000 -0.524981
v -0.591770 0.000000 0.310587
v 0.482415 0.000000 0.499994
v -0.109355 0.000000 -0.524981
v -0.482415 0.000000 0.499994
v 0.591770 0.000000 0.310587
v 0.373147 0.000000 0.310587
v -0.373145 0.000000 0.310587
v 0.000014 0.000000 -0.335583
v -0.109355 0.300000 -0.524981
v 0.482415 0.300000 0.499994
v 0.554669 0.300000 0.310587
v -0.591770 0.300000 0.310587
v 0.090804 0.300000 -0.492851
v 0.000014 0.300000 -0.335583
v -0.463865 0.300000 0.467864
v -0.373145 0.300000 0.310587
v 0.373147 0.300000 0.310587
v 0.109355 0.300000 -0.524981
v 0.591770 0.300000 0.310587
v -0.554669 0.300000 0.310587
v -0.482415 0.300000 0.499994
v -0.090804 0.300000 -0.492851
v 0.463865 0.300000 0.467864
v -0.109355 0.330000 -0.524981
v 0.482415 0.330000 0.499994
v 0.554669 0.330000 0.310587
v -0.591770 0.330000 0.310587
v 0.090804 0.330000 -0.492851
v -0.463865 0.330000 0.467864
v 0.109355 0.330000 -0.524981
v 0.591770 0.330000 0.310587
v -0.554669 0.330000 0.310587
v -0.482415 0.330000 0.499994
v -0.090804 0.330000 -0.492851
v 0.463865 0.330000 0.467864
v 0.248769 0.000000 0.095197
v 0.124391 0.000000 -0.120193
v 0.270160 0.000000 -0.246458
v 0.430965 0.000000 0.032064
v 0.270160 0.300000 -0.246458
v 0.430965 0.300000 0.032064
v 0.248769 0.300000 0.095197
v 0.124391 0.300000 -0.120193
v 0.245426 0.300000 -0.225038
v 0.400048 0.300000 0.042774
v 0.270160 0.330000 -0.246458
v 0.430965 0.330000 0.032064
v 0.245426 0.330000 -0.225038
v 0.400048 0.330000 0.042774
v 0.124383 0.300000 0.310587
v -0.124381 0.300000 0.310587
v 0.124383 0.000000 0.310587
v -0.124381 0.000000 0.310587
v 0.160805 0.000000 0.499994
v -0.160805 0.000000 0.499994
v 0.160805 0.300000 0.499994
v -0.160805 0.300000 0.499994
v 0.154622 0.300000 0.467864
v -0.154622 0.300000 0.467864
v 0.160805 0.330000 0.499994
v -0.160805 0.330000 0.499994
v 0.154622 0.330000 0.467864
v -0.154622 0.330000 0.467864
v -0.248759 0.000000 0.095197
v -0.124373 0.000000 -0.120193
v -0.430965 0.000000 0.032064
v -0.270160 0.000000 -0.246458
v -0.430965 0.300000 0.032064
v -0.270160 0.300000 -0.246458
v -0.248759 0.300000 0.095197
v -0.124373 0.300000 -0.120193
v -0.400047 0.300000 0.042774
v -0.245426 0.300000 -0.225038
v -0.430965 0.330000 0.032064
v -0.270160 0.330000 -0.246458
v -0.400047 0.330000 0.042774
v -0.245426 0.330000 -0.225038
v -0.229140 0.067472 -0.317506
v -0.150374 0.067472 -0.453933
v -0.150374 0.272528 -0.453933
v -0.229140 0.272528 -0.317506
v 0.471984 0.067472 0.103112
v 0.550750 0.067472 0.239539
v 0.550750 0.272528 0.239539
v 0.471984 0.272528 0.103112
v -0.242844 0.067472 0.499994
v -0.400376 0.067472 0.499994
v -0.400376 0.272528 0.499994
v -0.242844 0.272528 0.499994
v 0.150374 0.067472 -0.453933
v 0.229140 0.067472 -0.317506
v 0.229140 0.272528 -0.317506
v 0.150374 0.272528 -0.453933
v 0.311179 0.067472 -0.175410
v 0.389945 0.067472 -0.038984
v 0.389945 0.272528 -0.038984
v 0.311179 0.272528 -0.175410
v 0.400376 0.067472 0.499994
v 0.242844 0.067472 0.499994
v 0.242844 0.272528 0.499994
v 0.400376 0.272528 0.499994
v 0.078766 0.067472 0.499994
v -0.078766 0.067472 0.499994
v -0.078766 0.272528 0.499994
v 0.078766 0.272528 0.499994
v -0.550750 0.067472 0.239539
v -0.471984 0.067472 0.103112
v -0.471984 0.272528 0.103112
v -0.550750 0.272528 0.239539
v -0.389945 0.067472 -0.038984
v -0.311179 0.067472 -0.175410
v -0.311179 0.272528 -0.175410
v -0.389945 0.272528 -0.038984
v -0.211820 0.067472 -0.307506
v -0.133054 0.067472 -0.443933
v -0.211820 0.272528 -0.307506
v -0.133054 0.272528 -0.443933
v 0.454664 0.067472 0.113112
v 0.533430 0.067472 0.249539
v 0.454664 0.272528 0.113112
v 0.533430 0.272528 0.249539
v -0.242844 0.067472 0.479994
v -0.400376 0.067472 0.479994
v -0.242844 0.272528 0.479994
v -0.400376 0.272528 0.479994
v 0.133054 0.067472 -0.443933
v 0.211820 0.067472 -0.307506
v 0.133054 0.272528 -0.443933
v 0.211820 0.272528 -0.307506
v 0.293859 0.067472 -0.165410
v 0.372625 0.067472 -0.028984
v 0.293859 0.272528 -0.165410
v 0.372625 0.272528 -0.028984
v 0.400376 0.067472 0.479994
v 0.242844 0.067472 0.479994
v 0.400376 0.272528 0.479994
v 0.242844 0.272528 0.479994
v 0.078766 0.067472 0.479994
v -0.078766 0.067472 0.479994
v 0.078766 0.272528 0.479994
v -0.078766 0.272528 0.479994
v -0.533430 0.067472 0.249539
v -0.454664 0.067472 0.113112
v -0.533430 0.272528 0.249539
v -0.454664 0.272528 0.113112
v -0.372624 0.067472 -0.028984
v -0.293859 0.067472 -0.165410
v -0.372624 0.272528 -0.028984
v -0.293859 0.272528 -0.165410
vn -0.8660 -0.0000 0.5000
vn -0.0000 1.0000 -0.0000
vn -0.0000 -1.0000 -0.0000
vn -0.0000 -0.0000 -1.0000
vn 0.8660 -0.0000 0.5000
vn -0.5000 -0.0000 -0.8660
vn 1.0000 -0.0000 -0.0000
vn 0.8660 -0.0000 -0.5000
vn -0.0000 -0.0000 1.0000
vn -0.8660 -0.0000 -0.5000
vn 0.5000 -0.0000 0.8660
vn -1.0000 -0.0000 -0.0000
vn 0.5000 -0.0000 -0.8660
vn -0.5000 -0.0000 0.8660
vt 0.904465 0.302056
vt 0.904465 0.186447
vt 0.833640 0.186447
vt 0.833640 0.302056
vt 0.095617 0.695250
vt 0.044709 0.665830
vt 0.044709 0.724641
vt 0.364019 0.272014
vt 0.364019 0.201188
vt 0.302686 0.236597
vt 0.093433 0.115763
vt 0.093433 0.044965
vt 0.032095 0.080378
vt 0.163184 0.156041
vt 0.093433 0.196321
vt 0.093432 0.357439
vt 0.032095 0.392824
vt 0.093432 0.428237
vt 0.183628 0.097039
vt 0.355823 0.845452
vt 0.304889 0.816051
vt 0.304891 0.874858
vt 0.032095 0.288675
vt 0.093432 0.276880
vt 0.273824 0.324088
vt 0.232935 0.276877
vt 0.131436 0.774713
vt 0.165374 0.735517
vt 0.232935 0.196319
vt 0.966429 0.382409
vt 0.959952 0.382409
vt 0.959952 0.433424
vt 0.966429 0.433424
vt 0.304914 0.574411
vt 0.355823 0.545019
vt 0.304891 0.515614
vt 0.355823 0.745308
vt 0.304897 0.735505
vt 0.904465 0.139390
vt 0.904465 0.023780
vt 0.833640 0.023780
vt 0.833640 0.139390
vt 0.956293 0.612592
vt 0.956293 0.496983
vt 0.885467 0.496983
vt 0.885467 0.612592
vt 0.218163 0.565686
vt 0.235149 0.614691
vt 0.948952 0.936089
vt 0.955429 0.936089
vt 0.955429 0.857068
vt 0.948952 0.857068
vt 0.764733 0.952178
vt 0.771210 0.952178
vt 0.771210 0.873156
vt 0.764733 0.873156
vt 0.933249 0.236449
vt 0.921688 0.236449
vt 0.921688 0.336594
vt 0.933249 0.336594
vt 0.412886 0.718938
vt 0.401325 0.718938
vt 0.401325 0.823087
vt 0.412886 0.823087
vt 0.575553 0.718938
vt 0.563992 0.718938
vt 0.563992 0.823087
vt 0.575553 0.823087
vt 0.738220 0.718938
vt 0.726659 0.718938
vt 0.726659 0.823087
vt 0.738220 0.823087
vt 0.933249 0.383238
vt 0.921688 0.383238
vt 0.921688 0.442049
vt 0.933249 0.442049
vt 0.955733 0.236449
vt 0.944172 0.236449
vt 0.944172 0.336594
vt 0.955733 0.336594
vt 0.677827 0.316079
vt 0.684763 0.324089
vt 0.774959 0.272014
vt 0.764554 0.266007
vt 0.504372 0.056979
vt 0.504372 0.044965
vt 0.443035 0.080378
vt 0.453440 0.086385
vt 0.774959 0.201188
vt 0.764554 0.207196
vt 0.591099 0.107051
vt 0.594568 0.097039
vt 0.453440 0.386817
vt 0.443035 0.392825
vt 0.504372 0.428238
vt 0.504372 0.416223
vt 0.453440 0.286673
vt 0.443035 0.288676
vt 0.978218 0.236449
vt 0.966657 0.236449
vt 0.966657 0.336594
vt 0.978218 0.336594
vt 0.904465 0.012219
vt 0.833640 0.012219
vt 0.754350 0.871009
vt 0.742789 0.871009
vt 0.742789 0.929820
vt 0.754350 0.929820
vt 0.956293 0.485422
vt 0.885467 0.485422
vt 0.909226 0.335817
vt 0.897665 0.335817
vt 0.897665 0.394628
vt 0.909226 0.394628
vt 0.904465 0.174886
vt 0.833640 0.174886
vt 0.978218 0.036161
vt 0.966657 0.036161
vt 0.966657 0.136305
vt 0.978218 0.136305
vt 0.594568 0.376163
vt 0.591099 0.366151
vt 0.412886 0.510640
vt 0.401325 0.510640
vt 0.401325 0.614789
vt 0.412886 0.614789
vt 0.787530 0.873156
vt 0.781053 0.873156
vt 0.781053 0.952178
vt 0.787530 0.952178
vt 0.803850 0.873156
vt 0.797373 0.873156
vt 0.797373 0.952178
vt 0.803850 0.952178
vt 0.235131 0.775784
vt 0.218163 0.824786
vt 0.273824 0.149114
vt 0.443035 0.184527
vt 0.453440 0.186529
vt 0.955733 0.036161
vt 0.944172 0.036161
vt 0.944172 0.136305
vt 0.955733 0.136305
vt 0.575553 0.510640
vt 0.563992 0.510640
vt 0.563992 0.614789
vt 0.575553 0.614789
vt 0.092998 0.926923
vt 0.086521 0.926923
vt 0.086521 0.977938
vt 0.092998 0.977938
vt 0.943632 0.433424
vt 0.950109 0.433424
vt 0.950109 0.382409
vt 0.943632 0.382409
vt 0.165383 0.654970
vt 0.131436 0.615758
vt 0.032095 0.184527
vt 0.684763 0.149114
vt 0.677827 0.157123
vt 0.738220 0.510640
vt 0.726659 0.510640
vt 0.726659 0.614789
vt 0.738220 0.614789
vt 0.933249 0.036161
vt 0.921688 0.036161
vt 0.921688 0.136305
vt 0.933249 0.136305
vt 0.304906 0.654958
vt 0.355823 0.645164
vt 0.217080 0.977938
vt 0.223557 0.977938
vt 0.223557 0.926923
vt 0.217080 0.926923
vt 0.988602 0.195936
vt 0.995078 0.195936
vt 0.995078 0.116915
vt 0.988602 0.116915
vt 0.183628 0.376163
vt 0.163184 0.317158
vt 0.853829 0.718938
vt 0.827828 0.745506
vt 0.827828 0.796520
vt 0.853829 0.823087
vt 0.748806 0.796520
vt 0.748806 0.745506
vt 0.528496 0.718938
vt 0.502495 0.745506
vt 0.502495 0.796520
vt 0.528496 0.823087
vt 0.423473 0.796520
vt 0.423473 0.745506
vt 0.691162 0.718938
vt 0.665161 0.745506
vt 0.665161 0.796520
vt 0.691162 0.823087
vt 0.586140 0.796520
vt 0.586140 0.745506
vt 0.528496 0.510640
vt 0.502495 0.537208
vt 0.502495 0.588222
vt 0.528496 0.614789
vt 0.423473 0.588222
vt 0.423473 0.537208
vt 0.502495 0.641357
vt 0.502495 0.692371
vt 0.423473 0.692371
vt 0.423473 0.641357
vt 0.691162 0.510640
vt 0.665161 0.537208
vt 0.665161 0.588222
vt 0.691162 0.614789
vt 0.586140 0.588222
vt 0.586140 0.537208
vt 0.665161 0.641357
vt 0.665161 0.692371
vt 0.586140 0.692371
vt 0.586140 0.641357
vt 0.853829 0.510640
vt 0.827828 0.537208
vt 0.827828 0.588222
vt 0.853829 0.614789
vt 0.748806 0.588222
vt 0.748806 0.537208
vt 0.827828 0.641357
vt 0.827828 0.692371
vt 0.748806 0.692371
vt 0.748806 0.641357
vt 0.882549 0.416986
vt 0.882549 0.337964
vt 0.831534 0.337964
vt 0.831534 0.416986
vt 0.934376 0.727522
vt 0.934376 0.648500
vt 0.883362 0.648500
vt 0.883362 0.727522
vt 0.657348 0.952178
vt 0.657348 0.873156
vt 0.606333 0.873156
vt 0.606333 0.952178
vt 0.934376 0.831805
vt 0.934376 0.752784
vt 0.883362 0.752784
vt 0.883362 0.831805
vt 0.934376 0.936089
vt 0.934376 0.857068
vt 0.883362 0.857068
vt 0.883362 0.936089
vt 0.727672 0.952178
vt 0.727672 0.873156
vt 0.676657 0.873156
vt 0.676657 0.952178
vt 0.516700 0.952178
vt 0.516700 0.873156
vt 0.465686 0.873156
vt 0.465686 0.952178
vt 0.446376 0.952178
vt 0.446376 0.873156
vt 0.395362 0.873156
vt 0.395362 0.952178
vt 0.587024 0.952178
vt 0.587024 0.873156
vt 0.536010 0.873156
vt 0.536010 0.952178
vt 0.102841 0.977938
vt 0.109318 0.977938
vt 0.109318 0.926923
vt 0.102841 0.926923
vt 0.233400 0.977938
vt 0.239877 0.977938
vt 0.239877 0.926923
vt 0.233400 0.926923
vt 0.011398 0.926923
vt 0.004922 0.926923
vt 0.004922 0.977938
vt 0.011398 0.977938
vt 0.820169 0.873156
vt 0.813693 0.873156
vt 0.813693 0.952178
vt 0.820169 0.952178
vt 0.836489 0.873156
vt 0.830013 0.873156
vt 0.830013 0.952178
vt 0.836489 0.952178
vt 0.948952 0.727522
vt 0.955429 0.727522
vt 0.955429 0.648500
vt 0.948952 0.648500
vt 0.846332 0.952178
vt 0.852809 0.952178
vt 0.852809 0.873156
vt 0.846332 0.873156
vt 0.021242 0.977938
vt 0.027718 0.977938
vt 0.027718 0.926923
vt 0.021242 0.926923
vt 0.249720 0.977938
vt 0.256197 0.977938
vt 0.256197 0.926923
vt 0.249720 0.926923
vt 0.125638 0.926923
vt 0.119161 0.926923
vt 0.119161 0.977938
vt 0.125638 0.977938
vt 0.141958 0.926923
vt 0.135481 0.926923
vt 0.135481 0.977938
vt 0.141958 0.977938
vt 0.971749 0.648500
vt 0.965272 0.648500
vt 0.965272 0.727522
vt 0.971749 0.727522
vt 0.971749 0.752784
vt 0.965272 0.752784
vt 0.965272 0.831805
vt 0.971749 0.831805
vt 0.965272 0.936089
vt 0.971749 0.936089
vt 0.971749 0.857068
vt 0.965272 0.857068
vt 0.948952 0.831805
vt 0.955429 0.831805
vt 0.955429 0.752784
vt 0.948952 0.752784
vt 0.158278 0.926923
vt 0.151801 0.926923
vt 0.151801 0.977938
vt 0.158278 0.977938
vt 0.037561 0.977938
vt 0.044038 0.977938
vt 0.044038 0.926923
vt 0.037561 0.926923
vt 0.053881 0.977938
vt 0.060358 0.977938
vt 0.060358 0.926923
vt 0.053881 0.926923
vt 0.168121 0.977938
vt 0.174597 0.977938
vt 0.174597 0.926923
vt 0.168121 0.926923
vt 0.979451 0.485834
vt 0.972975 0.485834
vt 0.972975 0.564855
vt 0.979451 0.564855
vt 0.988069 0.648500
vt 0.981592 0.648500
vt 0.981592 0.727522
vt 0.988069 0.727522
vt 0.988602 0.091653
vt 0.995078 0.091653
vt 0.995078 0.012631
vt 0.988602 0.012631
vt 0.981592 0.831805
vt 0.988069 0.831805
vt 0.988069 0.752784
vt 0.981592 0.752784
vt 0.184441 0.977938
vt 0.190917 0.977938
vt 0.190917 0.926923
vt 0.184441 0.926923
vt 0.200761 0.977938
vt 0.207237 0.977938
vt 0.207237 0.926923
vt 0.200761 0.926923
vt 0.070201 0.977938
vt 0.076678 0.977938
vt 0.076678 0.926923
vt 0.070201 0.926923
vt 0.988069 0.857068
vt 0.981592 0.857068
vt 0.981592 0.936089
vt 0.988069 0.936089
s 0
usemtl Материал_лаборатория
f 5/1/1 22/2/1 13/3/1 2/4/1
f 18/5/2 24/6/2 12/7/2
f 4/8/3 1/9/3 9/10/3
f 7/11/3 6/12/3 3/13/3
f 37/14/3 7/11/3 53/15/3
f 8/16/3 5/17/3 2/18/3
f 40/19/3 6/12/3 7/11/3 37/14/3
f 23/20/2 15/21/2 14/22/2
f 56/23/3 5/17/3 8/16/3 54/24/3
f 68/25/3 4/8/3 9/10/3 66/26/3
f 46/27/2 43/28/2 18/5/2 12/7/2
f 9/10/3 38/29/3 66/26/3
f 111/30/2 147/31/2 148/32/2 112/33/2
f 17/34/2 21/35/2 16/36/2
f 74/37/2 72/38/2 15/21/2 23/20/2
f 4/39/4 10/40/4 19/41/4 1/42/4
f 6/43/5 20/44/5 11/45/5 3/46/5
f 60/47/2 52/48/2 17/34/2 16/36/2
f 84/49/6 120/50/6 122/51/6 85/52/6
f 104/53/7 140/54/7 142/55/7 105/56/7
f 73/57/5 77/58/5 33/59/5 21/60/5
f 42/61/8 48/62/8 32/63/8 20/64/8
f 58/65/9 62/66/9 34/67/9 22/68/9
f 70/69/10 76/70/10 25/71/10 10/72/10
f 14/73/9 29/74/9 35/75/9 23/76/9
f 59/77/4 63/78/4 36/79/4 24/80/4
f 49/81/2 47/82/2 31/83/2 29/84/2
f 33/85/2 28/86/2 34/87/2 30/88/2
f 29/84/2 31/83/2 25/89/2 35/90/2
f 77/91/2 75/92/2 28/86/2 33/85/2
f 36/93/2 26/94/2 32/95/2 27/96/2
f 63/97/2 61/98/2 26/94/2 36/93/2
f 45/99/1 49/100/1 29/101/1 14/102/1
f 10/40/4 25/103/4 31/104/4 19/41/4
f 24/105/10 36/106/10 27/107/10 12/108/10
f 20/44/5 32/109/5 26/110/5 11/45/5
f 21/111/8 33/112/8 30/113/8 16/114/8
f 22/2/1 34/115/1 28/116/1 13/3/1
f 12/117/1 27/118/1 50/119/1 46/120/1
f 46/120/1 50/119/1 49/100/1 45/99/1
f 27/96/2 32/95/2 48/121/2 50/122/2
f 50/122/2 48/121/2 47/82/2 49/81/2
f 19/123/8 31/124/8 47/125/8 41/126/8
f 41/126/8 47/125/8 48/62/8 42/61/8
f 86/127/11 121/128/11 119/129/11 83/130/11
f 106/131/12 141/132/12 139/133/12 103/134/12
f 14/22/2 15/21/2 44/135/2 45/136/2
f 45/136/2 44/135/2 43/28/2 46/27/2
f 1/9/3 39/137/3 38/29/3 9/10/3
f 39/137/3 40/19/3 37/14/3 38/29/3
f 30/88/2 34/87/2 62/138/2 64/139/2
f 64/139/2 62/138/2 61/98/2 63/97/2
f 16/140/4 30/141/4 64/142/4 60/143/4
f 60/143/4 64/142/4 63/78/4 59/77/4
f 11/144/9 26/145/9 61/146/9 57/147/9
f 57/147/9 61/146/9 62/66/9 58/65/9
f 97/148/3 134/149/3 133/150/3 98/151/3
f 83/152/2 119/153/2 120/154/2 84/155/2
f 24/6/2 18/5/2 51/156/2 59/157/2
f 59/157/2 51/156/2 52/48/2 60/47/2
f 3/13/3 55/158/3 53/15/3 7/11/3
f 55/158/3 56/23/3 54/24/3 53/15/3
f 35/90/2 25/89/2 76/159/2 78/160/2
f 78/160/2 76/159/2 75/92/2 77/91/2
f 13/161/10 28/162/10 75/163/10 69/164/10
f 69/164/10 75/163/10 76/70/10 70/69/10
f 23/165/5 35/166/5 78/167/5 74/168/5
f 74/168/5 78/167/5 77/58/5 73/57/5
f 21/35/2 17/34/2 71/169/2 73/170/2
f 73/170/2 71/169/2 72/38/2 74/37/2
f 103/171/2 139/172/2 140/173/2 104/174/2
f 96/175/6 132/176/6 134/177/6 97/178/6
f 2/18/3 67/179/3 65/180/3 8/16/3
f 67/179/3 68/25/3 66/26/3 65/180/3
f 8/16/3 65/180/3 54/24/3
f 38/29/3 37/14/3 65/180/3 66/26/3
f 54/24/3 65/180/3 37/14/3 53/15/3
f 15/21/2 72/38/2 44/135/2
f 17/34/2 52/48/2 71/169/2
f 43/28/2 51/156/2 18/5/2
f 51/156/2 43/28/2 71/169/2 52/48/2
f 44/135/2 72/38/2 71/169/2 43/28/2
f 68/181/10 79/182/10 80/183/10 4/184/10
f 4/184/10 80/183/10 81/185/10 10/72/10
f 10/72/10 81/185/10 82/186/10 70/69/10
f 70/69/10 82/186/10 79/182/10 68/181/10
f 40/187/8 83/188/8 84/189/8 6/190/8
f 6/190/8 84/189/8 85/191/8 20/64/8
f 20/64/8 85/191/8 86/192/8 42/61/8
f 42/61/8 86/192/8 83/188/8 40/187/8
f 56/193/9 87/194/9 88/195/9 5/196/9
f 5/196/9 88/195/9 89/197/9 22/68/9
f 22/68/9 89/197/9 90/198/9 58/65/9
f 58/65/9 90/198/9 87/194/9 56/193/9
f 1/199/8 91/200/8 92/201/8 39/202/8
f 39/202/8 92/201/8 93/203/8 41/126/8
f 41/126/8 93/203/8 94/204/8 19/123/8
f 19/123/8 94/204/8 91/200/8 1/199/8
f 39/202/8 95/205/8 96/206/8 40/187/8
f 40/187/8 96/206/8 97/207/8 42/61/8
f 42/61/8 97/207/8 98/208/8 41/126/8
f 41/126/8 98/208/8 95/205/8 39/202/8
f 3/209/9 99/210/9 100/211/9 55/212/9
f 55/212/9 100/211/9 101/213/9 57/147/9
f 57/147/9 101/213/9 102/214/9 11/144/9
f 11/144/9 102/214/9 99/210/9 3/209/9
f 55/212/9 103/215/9 104/216/9 56/193/9
f 56/193/9 104/216/9 105/217/9 58/65/9
f 58/65/9 105/217/9 106/218/9 57/147/9
f 57/147/9 106/218/9 103/215/9 55/212/9
f 2/219/10 107/220/10 108/221/10 67/222/10
f 67/222/10 108/221/10 109/223/10 69/164/10
f 69/164/10 109/223/10 110/224/10 13/161/10
f 13/161/10 110/224/10 107/220/10 2/219/10
f 67/222/10 111/225/10 112/226/10 68/181/10
f 68/181/10 112/226/10 113/227/10 70/69/10
f 70/69/10 113/227/10 114/228/10 69/164/10
f 69/164/10 114/228/10 111/225/10 67/222/10
f 115/229/10 117/230/10 118/231/10 116/232/10
f 119/233/8 121/234/8 122/235/8 120/236/8
f 123/237/9 125/238/9 126/239/9 124/240/9
f 127/241/8 129/242/8 130/243/8 128/244/8
f 131/245/8 133/246/8 134/247/8 132/248/8
f 135/249/9 137/250/9 138/251/9 136/252/9
f 139/253/9 141/254/9 142/255/9 140/256/9
f 143/257/10 145/258/10 146/259/10 144/260/10
f 147/261/10 149/262/10 150/263/10 148/264/10
f 91/265/2 127/266/2 128/267/2 92/268/2
f 105/269/3 142/270/3 141/271/3 106/272/3
f 85/273/3 122/274/3 121/275/3 86/276/3
f 114/277/13 149/278/13 147/279/13 111/280/13
f 94/281/11 129/282/11 127/283/11 91/284/11
f 112/285/14 148/286/14 150/287/14 113/288/14
f 92/289/6 128/290/6 130/291/6 93/292/6
f 99/293/2 135/294/2 136/295/2 100/296/2
f 113/297/3 150/298/3 149/299/3 114/300/3
f 79/301/2 115/302/2 116/303/2 80/304/2
f 93/305/3 130/306/3 129/307/3 94/308/3
f 102/309/12 137/310/12 135/311/12 99/312/12
f 82/313/13 117/314/13 115/315/13 79/316/13
f 100/317/7 136/318/7 138/319/7 101/320/7
f 80/321/14 116/322/14 118/323/14 81/324/14
f 107/325/2 143/326/2 144/327/2 108/328/2
f 87/329/2 123/330/2 124/331/2 88/332/2
f 101/333/3 138/334/3 137/335/3 102/336/3
f 81/337/3 118/338/3 117/339/3 82/340/3
f 110/341/13 145/342/13 143/343/13 107/344/13
f 90/345/12 125/346/12 123/347/12 87/348/12
f 108/349/14 144/350/14 146/351/14 109/352/14
f 88/353/7 124/354/7 126/355/7 89/356/7
f 95/357/2 131/358/2 132/359/2 96/360/2
f 109/361/3 146/362/3 145/363/3 110/364/3
f 89/365/3 126/366/3 125/367/3 90/368/3
f 98/369/11 133/370/11 131/371/11 95/372/11
