# Blender 4.2.3 LTS
# www.blender.org
mtllib Coal_mine.mtl
o Coal_mine
v -0.400000 0.000000 0.400000
v 0.375000 0.300000 0.375000
v -0.400000 0.000000 -0.400000
v 0.375000 0.300000 -0.375000
v 0.400000 0.000000 0.400000
v -0.375000 0.300000 0.375000
v 0.400000 0.000000 -0.400000
v -0.375000 0.300000 -0.375000
v -0.400000 0.300000 0.400000
v 0.400000 0.300000 0.400000
v -0.400000 0.300000 -0.400000
v 0.400000 0.300000 -0.400000
v -0.400000 0.330000 0.400000
v 0.400000 0.330000 0.400000
v -0.400000 0.330000 -0.400000
v 0.400000 0.330000 -0.400000
v -0.375000 0.330000 0.375000
v 0.375000 0.330000 0.375000
v -0.375000 0.330000 -0.375000
v 0.375000 0.330000 -0.375000
v -0.140800 0.800000 0.140800
v -0.140800 0.800000 -0.140800
v 0.140800 0.800000 0.140800
v 0.140800 0.800000 -0.140800
v -0.211200 0.800000 0.211200
v -0.211200 0.800000 -0.211200
v 0.211200 0.800000 -0.211200
v 0.211200 0.800000 0.211200
v -0.211200 0.929254 0.211200
v -0.156881 1.078274 0.156881
v -0.211200 0.929254 -0.211200
v -0.156881 1.078274 -0.156881
v 0.211200 0.929254 -0.211200
v 0.156881 1.078274 -0.156881
v 0.211200 0.929254 0.211200
v 0.156881 1.078274 0.156881
v -0.200000 0.000000 0.200000
v -0.160000 0.800000 0.160000
v -0.200000 0.000000 -0.200000
v -0.160000 0.800000 -0.160000
v 0.200000 0.000000 0.200000
v 0.160000 0.800000 0.160000
v 0.200000 0.000000 -0.200000
v 0.160000 0.800000 -0.160000
v -0.180000 0.400000 0.180000
v -0.180000 0.400000 -0.180000
v 0.180000 0.400000 -0.180000
v 0.180000 0.400000 0.180000
v -0.178502 0.429963 0.148464
v -0.161498 0.770037 0.131461
v -0.161498 0.770037 -0.131461
v -0.178502 0.429963 -0.148465
v -0.148464 0.429963 -0.178502
v -0.131461 0.770037 -0.161498
v 0.131461 0.770037 -0.161498
v 0.148464 0.429963 -0.178502
v 0.178502 0.429963 -0.148465
v 0.161498 0.770037 -0.131461
v 0.161498 0.770037 0.131461
v 0.178502 0.429963 0.148464
v 0.148464 0.429963 0.178502
v 0.131461 0.770037 0.161498
v -0.131461 0.770037 0.161498
v -0.148464 0.429963 0.178502
v 0.168464 0.029963 0.198502
v 0.151461 0.370037 0.181498
v -0.151461 0.370037 0.181498
v -0.168464 0.029963 0.198502
v 0.198502 0.029963 -0.168464
v 0.181498 0.370037 -0.151461
v 0.181498 0.370037 0.151461
v 0.198502 0.029963 0.168465
v -0.168464 0.029963 -0.198502
v -0.151461 0.370037 -0.181498
v 0.151461 0.370037 -0.181498
v 0.168464 0.029963 -0.198502
v -0.198502 0.029963 0.168465
v -0.181498 0.370037 0.151461
v -0.181498 0.370037 -0.151461
v -0.198502 0.029963 -0.168464
v -0.175093 -0.000000 0.175093
v -0.135093 0.797509 0.135093
v -0.175093 0.000000 -0.175093
v -0.135093 0.797509 -0.135093
v 0.175093 -0.000000 0.175093
v 0.135093 0.797509 0.135093
v 0.175093 0.000000 -0.175093
v 0.135093 0.797509 -0.135093
v -0.155093 0.397509 0.155093
v -0.155093 0.397509 -0.155093
v 0.155093 0.397509 -0.155093
v 0.155093 0.397509 0.155093
v -0.153533 0.428714 0.148464
v -0.136529 0.768789 0.131461
v -0.136529 0.768789 -0.131461
v -0.153533 0.428714 -0.148465
v -0.148464 0.428714 -0.153533
v -0.131461 0.768789 -0.136529
v 0.131461 0.768789 -0.136529
v 0.148464 0.428714 -0.153533
v 0.153533 0.428714 -0.148465
v 0.136529 0.768789 -0.131461
v 0.136529 0.768789 0.131461
v 0.153533 0.428714 0.148464
v 0.148464 0.428714 0.153533
v 0.131461 0.768789 0.136529
v -0.131461 0.768789 0.136529
v -0.148464 0.428714 0.153533
v 0.168464 0.028714 0.173533
v 0.151461 0.368789 0.156529
v -0.151461 0.368789 0.156529
v -0.168464 0.028714 0.173533
v 0.173533 0.028714 -0.168464
v 0.156529 0.368789 -0.151461
v 0.156529 0.368789 0.151461
v 0.173533 0.028714 0.168465
v -0.168464 0.028714 -0.173533
v -0.151461 0.368789 -0.156529
v 0.151461 0.368789 -0.156529
v 0.168464 0.028714 -0.173533
v -0.173533 0.028714 0.168465
v -0.156529 0.368789 0.151461
v -0.156529 0.368789 -0.151461
v -0.173533 0.028714 -0.168464
vn -0.0000 -0.0000 1.0000
vn -1.0000 -0.0000 -0.0000
vn -0.0000 1.0000 -0.0000
vn -0.0000 -0.0000 -1.0000
vn -0.0000 -1.0000 -0.0000
vn 1.0000 -0.0000 -0.0000
vn -0.9395 0.3425 -0.0000
vn -0.0000 0.3425 -0.9395
vn 0.9395 0.3425 -0.0000
vn -0.0000 0.3425 0.9395
vn -0.9988 0.0499 -0.0000
vn -0.0000 0.0499 -0.9988
vn 0.9988 0.0499 -0.0000
vn -0.0000 0.0499 0.9988
vn 0.9988 -0.0499 -0.0000
vn -0.0000 -0.0499 0.9988
vn -0.9988 -0.0499 -0.0000
vn -0.0000 -0.0499 -0.9988
vn 0.0121 -0.0495 -0.9987
vn -0.0121 -0.0495 -0.9987
vn -0.0000 -0.0543 -0.9985
vn -0.9987 -0.0495 -0.0121
vn -0.9987 -0.0495 0.0121
vn -0.9985 -0.0543 -0.0000
vn -0.0121 -0.0495 0.9987
vn 0.0121 -0.0495 0.9987
vn -0.0000 -0.0543 0.9985
vn 0.9987 -0.0495 0.0121
vn 0.9987 -0.0495 -0.0121
vn 0.9985 -0.0543 -0.0000
vn 0.0499 0.9988 -0.0000
vn -0.0499 -0.9988 -0.0000
vn -0.0000 0.9988 0.0499
vn -0.0000 -0.9988 -0.0499
vn -0.0499 0.9988 -0.0000
vn 0.0499 -0.9988 -0.0000
vn -0.0000 0.9988 -0.0499
vn -0.0000 -0.9988 0.0499
vn -0.0025 -0.0498 -0.9988
vn -0.0025 -0.0498 0.9988
vn 0.0995 0.9950 -0.0000
vn 0.9988 -0.0498 -0.0025
vn -0.9988 -0.0498 -0.0025
vn -0.0000 0.9950 0.0995
vn 0.0025 -0.0498 0.9988
vn 0.0025 -0.0498 -0.9988
vn -0.0995 0.9950 -0.0000
vn -0.9988 -0.0498 0.0025
vn 0.9988 -0.0498 0.0025
vn -0.0000 0.9950 -0.0995
vt 0.534111 0.803286
vt 0.452076 0.803286
vt 0.452076 0.584528
vt 0.534111 0.584528
vt 0.657722 0.803286
vt 0.575688 0.803286
vt 0.575688 0.584528
vt 0.657722 0.584528
vt 0.520391 0.236129
vt 0.315305 0.236129
vt 0.315305 0.031043
vt 0.520391 0.031043
vt 0.781334 0.803286
vt 0.699300 0.803286
vt 0.699300 0.584528
vt 0.781334 0.584528
vt 0.251510 0.032752
vt 0.251510 0.251510
vt 0.032752 0.251510
vt 0.032752 0.032752
vt 0.829187 0.518682
vt 0.747153 0.518682
vt 0.747153 0.299924
vt 0.829187 0.299924
vt 0.738950 0.518682
vt 0.738950 0.299924
vt 0.947330 0.905966
vt 0.939127 0.905966
vt 0.939127 0.700880
vt 0.947330 0.700880
vt 0.958128 0.236129
vt 0.949924 0.236129
vt 0.949924 0.031043
vt 0.958128 0.031043
vt 0.443873 0.803286
vt 0.443873 0.584528
vt 0.039588 0.528936
vt 0.032752 0.535773
vt 0.032752 0.317014
vt 0.039588 0.323850
vt 0.244674 0.528936
vt 0.251510 0.535773
vt 0.251510 0.317014
vt 0.244674 0.323850
vt 0.567485 0.803286
vt 0.567485 0.584528
vt 0.968399 0.905966
vt 0.960195 0.905966
vt 0.960195 0.700880
vt 0.968399 0.700880
vt 0.131475 0.952192
vt 0.123272 0.952192
vt 0.123272 0.747106
vt 0.131475 0.747106
vt 0.691096 0.803286
vt 0.691096 0.584528
vt 0.590530 0.116099
vt 0.667533 0.116099
vt 0.686784 0.135350
vt 0.571279 0.135350
vt 0.933667 0.019845
vt 0.933667 0.135350
vt 0.898323 0.135350
vt 0.898323 0.019845
vt 0.590530 0.039096
vt 0.571279 0.019845
vt 0.667533 0.039096
vt 0.686784 0.019845
vt 0.960687 0.287017
vt 0.960687 0.402521
vt 0.925343 0.402521
vt 0.925343 0.287017
vt 0.965866 0.534487
vt 0.965866 0.649992
vt 0.930522 0.649992
vt 0.930522 0.534487
vt 0.847805 0.844877
vt 0.847805 0.960381
vt 0.812461 0.960381
vt 0.812461 0.844877
vt 0.813464 0.790333
vt 0.813464 0.704536
vt 0.856836 0.689682
vt 0.856836 0.805187
vt 0.834297 0.120496
vt 0.834297 0.034699
vt 0.877669 0.019845
vt 0.877669 0.135350
vt 0.861318 0.387668
vt 0.861318 0.301870
vt 0.904689 0.287017
vt 0.904689 0.402521
vt 0.878493 0.790333
vt 0.878493 0.704536
vt 0.921865 0.689682
vt 0.921865 0.805187
vt 0.818767 0.653705
vt 0.818767 0.567908
vt 0.904565 0.567908
vt 0.904565 0.653705
vt 0.456349 0.409474
vt 0.461818 0.299958
vt 0.469622 0.308161
vt 0.464972 0.401270
vt 0.549321 0.299958
vt 0.541517 0.308161
vt 0.554790 0.409474
vt 0.546167 0.401270
vt 0.603887 0.409474
vt 0.609356 0.299958
vt 0.617160 0.308161
vt 0.612511 0.401270
vt 0.696860 0.299958
vt 0.689056 0.308161
vt 0.702329 0.409474
vt 0.693705 0.401270
vt 0.308811 0.409474
vt 0.314280 0.299958
vt 0.322084 0.308161
vt 0.317434 0.401270
vt 0.401783 0.299958
vt 0.393979 0.308161
vt 0.407252 0.409474
vt 0.398629 0.401270
vt 0.308811 0.694078
vt 0.314280 0.584562
vt 0.322084 0.592765
vt 0.317434 0.685874
vt 0.401783 0.584562
vt 0.393979 0.592765
vt 0.407252 0.694078
vt 0.398629 0.685874
vt 0.303342 0.803593
vt 0.316615 0.702281
vt 0.311965 0.795390
vt 0.399448 0.702281
vt 0.412721 0.803593
vt 0.404098 0.795390
vt 0.303342 0.518990
vt 0.316615 0.417677
vt 0.311965 0.510786
vt 0.399448 0.417677
vt 0.412721 0.518990
vt 0.404098 0.510786
vt 0.598419 0.518990
vt 0.611691 0.417677
vt 0.607042 0.510786
vt 0.694525 0.417677
vt 0.707798 0.518990
vt 0.699174 0.510786
vt 0.450880 0.518990
vt 0.464153 0.417677
vt 0.459503 0.510786
vt 0.546986 0.417677
vt 0.560259 0.518990
vt 0.551636 0.510786
vt 0.100830 0.847576
vt 0.099017 0.839032
vt 0.094367 0.745923
vt 0.095361 0.738060
vt 0.022472 0.745923
vt 0.021479 0.738060
vt 0.017822 0.839032
vt 0.016010 0.847576
vt 0.248368 0.700037
vt 0.246555 0.691494
vt 0.241906 0.598385
vt 0.242899 0.590522
vt 0.170010 0.598385
vt 0.169017 0.590522
vt 0.165361 0.691494
vt 0.163548 0.700037
vt 0.248368 0.857576
vt 0.246555 0.849032
vt 0.241906 0.755923
vt 0.242899 0.748060
vt 0.170010 0.755923
vt 0.169017 0.748060
vt 0.165361 0.849032
vt 0.163548 0.857576
vt 0.807458 0.131513
vt 0.805646 0.122969
vt 0.800996 0.029860
vt 0.801989 0.021997
vt 0.729101 0.029860
vt 0.728108 0.021997
vt 0.724451 0.122969
vt 0.722639 0.131513
vt 0.984147 0.240300
vt 0.982731 0.232356
vt 0.982760 0.139131
vt 0.984147 0.131328
vt 0.806465 0.139376
vt 0.723632 0.139376
vt 0.980414 0.835888
vt 0.981800 0.843691
vt 0.981830 0.936916
vt 0.980414 0.944860
vt 0.902562 0.938166
vt 0.894698 0.936354
vt 0.894698 0.844221
vt 0.902562 0.842409
vt 0.981833 0.797830
vt 0.980417 0.789886
vt 0.980447 0.696661
vt 0.981833 0.688857
vt 0.247374 0.865439
vt 0.164541 0.865439
vt 0.988679 0.286192
vt 0.990066 0.293995
vt 0.990095 0.387220
vt 0.988679 0.395165
vt 0.446054 0.949173
vt 0.438191 0.947360
vt 0.438191 0.855227
vt 0.446054 0.853415
vt 0.982693 0.642635
vt 0.981277 0.634691
vt 0.981307 0.541466
vt 0.982693 0.533662
vt 0.247375 0.707901
vt 0.164541 0.707901
vt 0.970143 0.131328
vt 0.971529 0.139131
vt 0.971559 0.232356
vt 0.970143 0.240301
vt 0.881918 0.938166
vt 0.874055 0.936354
vt 0.874055 0.844221
vt 0.881918 0.842409
vt 0.994418 0.797830
vt 0.993002 0.789886
vt 0.993031 0.696661
vt 0.994418 0.688857
vt 0.099836 0.855439
vt 0.017003 0.855439
vt 0.976095 0.286192
vt 0.977482 0.293995
vt 0.977511 0.387220
vt 0.976095 0.395165
vt 0.915342 0.842409
vt 0.923205 0.844221
vt 0.923205 0.936354
vt 0.915342 0.938166
vt 0.678497 0.852962
vt 0.678497 0.945094
vt 0.671661 0.945094
vt 0.671661 0.852962
vt 0.577055 0.241484
vt 0.577055 0.169589
vt 0.583892 0.169589
vt 0.583892 0.241484
vt 0.710380 0.945094
vt 0.710380 0.852962
vt 0.717216 0.852962
vt 0.717216 0.945094
vt 0.615775 0.241484
vt 0.615775 0.169589
vt 0.622611 0.169589
vt 0.622611 0.241484
vt 0.691021 0.945094
vt 0.691021 0.852962
vt 0.697857 0.852962
vt 0.697857 0.945094
vt 0.596415 0.241484
vt 0.596415 0.169589
vt 0.603251 0.169589
vt 0.603251 0.241484
vt 0.652302 0.945094
vt 0.652302 0.852962
vt 0.659138 0.852962
vt 0.659138 0.945094
vt 0.557696 0.241484
vt 0.557696 0.169589
vt 0.564532 0.169589
vt 0.564532 0.241484
vt 0.497425 0.946323
vt 0.497425 0.853098
vt 0.504261 0.853098
vt 0.504261 0.946323
vt 0.406682 0.933131
vt 0.406682 0.851936
vt 0.413518 0.851936
vt 0.413518 0.933131
vt 0.465542 0.853098
vt 0.465542 0.946323
vt 0.458706 0.946323
vt 0.458706 0.853098
vt 0.768481 0.939886
vt 0.768481 0.852383
vt 0.775326 0.859194
vt 0.775326 0.933076
vt 0.895470 0.532652
vt 0.895470 0.439427
vt 0.902306 0.439427
vt 0.902306 0.532652
vt 0.387322 0.933131
vt 0.387322 0.851936
vt 0.394158 0.851936
vt 0.394158 0.933131
vt 0.277475 0.840276
vt 0.277475 0.933501
vt 0.270639 0.933501
vt 0.270639 0.840276
vt 0.749111 0.939886
vt 0.749111 0.852383
vt 0.755956 0.859194
vt 0.755956 0.933076
vt 0.516785 0.946323
vt 0.516785 0.853098
vt 0.523621 0.853098
vt 0.523621 0.946323
vt 0.970822 0.096751
vt 0.970822 0.015556
vt 0.977658 0.015556
vt 0.977658 0.096751
vt 0.484902 0.853098
vt 0.484902 0.946323
vt 0.478065 0.946323
vt 0.478065 0.853098
vt 0.787852 0.939886
vt 0.787852 0.852383
vt 0.794696 0.859194
vt 0.794696 0.933076
vt 0.270639 0.806155
vt 0.270639 0.712930
vt 0.277475 0.712930
vt 0.277475 0.806155
vt 0.367962 0.933131
vt 0.367962 0.851936
vt 0.374799 0.851936
vt 0.374799 0.933131
vt 0.277475 0.585585
vt 0.277475 0.678810
vt 0.270639 0.678810
vt 0.270639 0.585585
vt 0.729741 0.939886
vt 0.729741 0.852383
vt 0.736586 0.859194
vt 0.736586 0.933076
vt 0.856751 0.532652
vt 0.856751 0.439427
vt 0.863587 0.439427
vt 0.863587 0.532652
vt 0.290524 0.934974
vt 0.290524 0.852141
vt 0.297360 0.852141
vt 0.297360 0.934974
vt 0.882946 0.439427
vt 0.882946 0.532652
vt 0.876110 0.532652
vt 0.876110 0.439427
vt 0.019080 0.587604
vt 0.128459 0.587604
vt 0.121648 0.594415
vt 0.025890 0.594415
vt 0.594223 0.946323
vt 0.594223 0.853098
vt 0.601059 0.853098
vt 0.601059 0.946323
vt 0.309884 0.934974
vt 0.309884 0.852141
vt 0.316720 0.852141
vt 0.316720 0.934974
vt 0.620419 0.853098
vt 0.620419 0.946323
vt 0.613583 0.946323
vt 0.613583 0.853098
vt 0.019080 0.696983
vt 0.025890 0.690173
vt 0.574863 0.946323
vt 0.574863 0.853098
vt 0.581700 0.853098
vt 0.581700 0.946323
vt 0.348603 0.934974
vt 0.348603 0.852141
vt 0.355439 0.852141
vt 0.355439 0.934974
vt 0.542980 0.853098
vt 0.542980 0.946323
vt 0.536144 0.946323
vt 0.536144 0.853098
vt 0.128459 0.696983
vt 0.121648 0.690173
vt 0.555504 0.946323
vt 0.555504 0.853098
vt 0.562340 0.853098
vt 0.562340 0.946323
vt 0.329243 0.934974
vt 0.329243 0.852141
vt 0.336079 0.852141
vt 0.336079 0.934974
vt 0.639778 0.853098
vt 0.639778 0.946323
vt 0.632942 0.946323
vt 0.632942 0.853098
s 0
usemtl Материал_добычи_угля
f 5/1/1 10/2/1 9/3/1 1/4/1
f 1/5/2 9/6/2 11/7/2 3/8/2
f 8/9/3 6/10/3 2/11/3 4/12/3
f 3/13/4 11/14/4 12/15/4 7/16/4
f 3/17/5 7/18/5 5/19/5 1/20/5
f 7/21/6 12/22/6 10/23/6 5/24/6
f 12/22/6 16/25/6 14/26/6 10/23/6
f 6/27/4 17/28/4 18/29/4 2/30/4
f 2/31/2 18/32/2 20/33/2 4/34/2
f 10/2/1 14/35/1 13/36/1 9/3/1
f 17/37/3 13/38/3 14/39/3 18/40/3
f 19/41/3 15/42/3 13/38/3 17/37/3
f 18/40/3 14/39/3 16/43/3 20/44/3
f 20/44/3 16/43/3 15/42/3 19/41/3
f 9/6/2 13/45/2 15/46/2 11/7/2
f 4/47/1 20/48/1 19/49/1 8/50/1
f 8/51/6 19/52/6 17/53/6 6/54/6
f 11/14/4 15/55/4 16/56/4 12/15/4
f 24/57/5 22/58/5 26/59/5 27/60/5
f 27/61/4 26/62/4 31/63/4 33/64/4
f 23/65/5 24/57/5 27/60/5 28/66/5
f 22/58/5 21/67/5 25/68/5 26/59/5
f 21/67/5 23/65/5 28/66/5 25/68/5
f 25/69/1 28/70/1 35/71/1 29/72/1
f 26/73/2 25/74/2 29/75/2 31/76/2
f 28/77/6 27/78/6 33/79/6 35/80/6
f 30/81/7 32/82/7 31/83/7 29/84/7
f 32/85/8 34/86/8 33/87/8 31/88/8
f 34/89/9 36/90/9 35/91/9 33/92/9
f 36/93/10 30/94/10 29/95/10 35/96/10
f 32/97/3 30/98/3 36/99/3 34/100/3
f 45/101/11 38/102/11 50/103/11 49/104/11
f 38/102/11 40/105/11 51/106/11 50/103/11
f 40/105/11 46/107/11 52/108/11 51/106/11
f 46/107/11 45/101/11 49/104/11 52/108/11
f 46/109/12 40/110/12 54/111/12 53/112/12
f 40/110/12 44/113/12 55/114/12 54/111/12
f 44/113/12 47/115/12 56/116/12 55/114/12
f 47/115/12 46/109/12 53/112/12 56/116/12
f 47/117/13 44/118/13 58/119/13 57/120/13
f 44/118/13 42/121/13 59/122/13 58/119/13
f 42/121/13 48/123/13 60/124/13 59/122/13
f 48/123/13 47/117/13 57/120/13 60/124/13
f 48/125/14 42/126/14 62/127/14 61/128/14
f 42/126/14 38/129/14 63/130/14 62/127/14
f 38/129/14 45/131/14 64/132/14 63/130/14
f 45/131/14 48/125/14 61/128/14 64/132/14
f 41/133/14 48/125/14 66/134/14 65/135/14
f 48/125/14 45/131/14 67/136/14 66/134/14
f 45/131/14 37/137/14 68/138/14 67/136/14
f 37/137/14 41/133/14 65/135/14 68/138/14
f 43/139/13 47/117/13 70/140/13 69/141/13
f 47/117/13 48/123/13 71/142/13 70/140/13
f 48/123/13 41/143/13 72/144/13 71/142/13
f 41/143/13 43/139/13 69/141/13 72/144/13
f 39/145/12 46/109/12 74/146/12 73/147/12
f 46/109/12 47/115/12 75/148/12 74/146/12
f 47/115/12 43/149/12 76/150/12 75/148/12
f 43/149/12 39/145/12 73/147/12 76/150/12
f 37/151/11 45/101/11 78/152/11 77/153/11
f 45/101/11 46/107/11 79/154/11 78/152/11
f 46/107/11 39/155/11 80/156/11 79/154/11
f 39/155/11 37/151/11 77/153/11 80/156/11
f 89/157/15 93/158/15 94/159/15 82/160/15
f 82/160/15 94/159/15 95/161/15 84/162/15
f 84/162/15 95/161/15 96/163/15 90/164/15
f 90/164/15 96/163/15 93/158/15 89/157/15
f 90/165/16 97/166/16 98/167/16 84/168/16
f 84/168/16 98/167/16 99/169/16 88/170/16
f 88/170/16 99/169/16 100/171/16 91/172/16
f 91/172/16 100/171/16 97/166/16 90/165/16
f 91/173/17 101/174/17 102/175/17 88/176/17
f 88/176/17 102/175/17 103/177/17 86/178/17
f 86/178/17 103/177/17 104/179/17 92/180/17
f 92/180/17 104/179/17 101/174/17 91/173/17
f 92/181/18 105/182/18 106/183/18 86/184/18
f 86/184/18 106/183/18 107/185/18 82/186/18
f 82/186/18 107/185/18 108/187/18 89/188/18
f 89/188/18 108/187/18 105/182/18 92/181/18
f 85/189/19 109/190/19 110/191/19 92/192/19
f 92/181/18 110/193/18 111/194/18 89/188/18
f 89/195/20 111/196/20 112/197/20 81/198/20
f 81/199/21 112/200/21 109/201/21 85/202/21
f 87/203/22 113/204/22 114/205/22 91/206/22
f 91/173/17 114/207/17 115/208/17 92/180/17
f 92/209/23 115/210/23 116/211/23 85/212/23
f 85/213/24 116/214/24 113/215/24 87/216/24
f 83/217/25 117/218/25 118/219/25 90/220/25
f 90/165/16 118/221/16 119/222/16 91/172/16
f 91/223/26 119/224/26 120/225/26 87/226/26
f 87/227/27 120/228/27 117/229/27 83/230/27
f 81/231/28 121/232/28 122/233/28 89/234/28
f 89/157/15 122/235/15 123/236/15 90/164/15
f 90/237/29 123/238/29 124/239/29 83/240/29
f 83/241/30 124/242/30 121/243/30 81/244/30
f 80/245/31 77/246/31 121/247/31 124/248/31
f 50/249/32 51/250/32 95/251/32 94/252/32
f 76/253/33 73/254/33 117/255/33 120/256/33
f 54/257/34 55/258/34 99/259/34 98/260/34
f 72/261/35 69/262/35 113/263/35 116/264/35
f 58/265/36 59/266/36 103/267/36 102/268/36
f 68/269/37 65/270/37 109/271/37 112/272/37
f 62/273/38 63/274/38 107/275/38 106/276/38
f 49/277/39 50/278/39 94/279/39 93/280/39
f 52/281/31 49/282/31 93/283/31 96/284/31
f 51/285/40 52/286/40 96/287/40 95/288/40
f 40/289/41 38/290/41 82/291/41 84/292/41
f 53/293/42 54/294/42 98/295/42 97/296/42
f 56/297/33 53/298/33 97/299/33 100/300/33
f 55/301/43 56/302/43 100/303/43 99/304/43
f 44/305/44 40/306/44 84/307/44 88/308/44
f 57/309/45 58/310/45 102/311/45 101/312/45
f 60/313/35 57/314/35 101/315/35 104/316/35
f 59/317/46 60/318/46 104/319/46 103/320/46
f 42/321/47 44/322/47 88/323/47 86/324/47
f 61/325/48 62/326/48 106/327/48 105/328/48
f 64/329/37 61/330/37 105/331/37 108/332/37
f 63/333/49 64/334/49 108/335/49 107/336/49
f 38/337/50 42/338/50 86/339/50 82/340/50
f 65/341/48 66/342/48 110/343/48 109/344/48
f 66/345/38 67/346/38 111/347/38 110/348/38
f 67/349/49 68/350/49 112/351/49 111/352/49
f 41/353/5 37/354/5 81/355/5 85/356/5
f 69/357/45 70/358/45 114/359/45 113/360/45
f 70/361/36 71/362/36 115/363/36 114/364/36
f 71/365/46 72/366/46 116/367/46 115/368/46
f 43/369/5 41/353/5 85/356/5 87/370/5
f 73/371/42 74/372/42 118/373/42 117/374/42
f 74/375/34 75/376/34 119/377/34 118/378/34
f 75/379/43 76/380/43 120/381/43 119/382/43
f 39/383/5 43/369/5 87/370/5 83/384/5
f 77/385/39 78/386/39 122/387/39 121/388/39
f 78/389/32 79/390/32 123/391/32 122/392/32
f 79/393/40 80/394/40 124/395/40 123/396/40
f 37/354/5 39/383/5 83/384/5 81/355/5
