# Blender 4.2.3 LTS
# www.blender.org
mtllib Copper.mtl
o Copper
v 0.248288 0.000000 0.496576
v 0.248288 0.000000 -0.496576
v 0.248288 0.004897 0.496576
v 0.248288 0.004897 -0.496576
v -0.248288 0.000000 0.496576
v -0.248288 0.000000 -0.496576
v -0.248288 0.004897 0.496576
v -0.248288 0.004897 -0.496576
vn -0.0000 -1.0000 -0.0000
vn -0.0000 1.0000 -0.0000
vn -0.0000 -0.0000 -1.0000
vn 1.0000 -0.0000 -0.0000
vn -1.0000 -0.0000 -0.0000
vn -0.0000 -0.0000 1.0000
vt 0.492711 0.985422
vt 0.000000 0.985422
vt 0.000000 0.000000
vt 0.492711 0.000000
vt 0.492711 0.985422
vt 0.492711 0.000000
vt 0.985423 0.000000
vt 0.985423 0.985422
vt 1.000000 0.492711
vt 0.995141 0.492711
vt 0.995141 -0.000000
vt 1.000000 -0.000000
vt 0.990282 0.985422
vt 0.985423 0.985422
vt 0.985423 0.000000
vt 0.990282 0.000000
vt 0.990282 0.985422
vt 0.990282 0.000000
vt 0.995141 0.000000
vt 0.995141 0.985422
vt 1.000000 0.985423
vt 0.995141 0.985423
vt 0.995141 0.492711
vt 1.000000 0.492711
s 0
usemtl Текстура_домов
f 6/1/1 2/2/1 1/3/1 5/4/1
f 8/5/2 7/6/2 3/7/2 4/8/2
f 6/9/3 8/10/3 4/11/3 2/12/3
f 2/13/4 4/14/4 3/15/4 1/16/4
f 7/17/5 8/18/5 6/19/5 5/20/5
f 1/21/6 3/22/6 7/23/6 5/24/6
