# Blender 4.2.3 LTS
# www.blender.org
mtllib Gold.mtl
o Gold
v -0.000000 0.000000 0.554400
v 0.277200 0.000000 0.480125
v 0.480124 0.000000 0.277200
v 0.554400 0.000000 0.000000
v 0.480125 0.000000 -0.277200
v 0.277200 0.000000 -0.480124
v 0.000000 0.000000 -0.554400
v -0.277200 0.000000 -0.480125
v -0.480124 0.000000 -0.277200
v -0.554400 0.000000 -0.000000
v -0.480125 0.000000 0.277200
v -0.277200 0.000000 0.480124
v 0.236077 0.000100 0.408897
v -0.000000 0.000100 0.472154
v 0.408897 0.000100 0.236077
v 0.472154 0.000100 0.000000
v 0.408897 0.000100 -0.236077
v 0.236077 0.000100 -0.408897
v 0.000000 0.000100 -0.472154
v -0.236077 0.000100 -0.408897
v -0.408897 0.000100 -0.236077
v -0.472154 0.000100 -0.000000
v -0.408897 0.000100 0.236077
v -0.236077 0.000100 0.408897
v 0.000000 0.000100 0.000000
v -0.000000 0.004000 0.554400
v 0.277200 0.004000 0.480125
v 0.480124 0.004000 0.277200
v 0.554400 0.004000 0.000000
v 0.480125 0.004000 -0.277200
v 0.277200 0.004000 -0.480124
v 0.000000 0.004000 -0.554400
v -0.277200 0.004000 -0.480125
v -0.480124 0.004000 -0.277200
v -0.554400 0.004000 -0.000000
v -0.480125 0.004000 0.277200
v -0.277200 0.004000 0.480124
v 0.236077 0.003900 0.408897
v -0.000000 0.003900 0.472154
v 0.408897 0.003900 0.236077
v 0.472154 0.003900 0.000000
v 0.408897 0.003900 -0.236077
v 0.236077 0.003900 -0.408897
v 0.000000 0.003900 -0.472154
v -0.236077 0.003900 -0.408897
v -0.408897 0.003900 -0.236077
v -0.472154 0.003900 -0.000000
v -0.408897 0.003900 0.236077
v -0.236077 0.003900 0.408897
v 0.000000 0.003900 0.000000
vn -0.0000 -1.0000 -0.0000
vn -0.0003 -1.0000 -0.0012
vn -0.0009 -1.0000 -0.0009
vn -0.0012 -1.0000 -0.0003
vn -0.0012 -1.0000 0.0003
vn -0.0009 -1.0000 0.0009
vn -0.0003 -1.0000 0.0012
vn 0.0003 -1.0000 0.0012
vn 0.0009 -1.0000 0.0009
vn 0.0012 -1.0000 0.0003
vn 0.0012 -1.0000 -0.0003
vn 0.0009 -1.0000 -0.0009
vn 0.0003 -1.0000 -0.0012
vn -0.0000 1.0000 -0.0000
vn -0.0003 1.0000 -0.0012
vn -0.0009 1.0000 -0.0009
vn -0.0012 1.0000 -0.0003
vn -0.0012 1.0000 0.0003
vn -0.0009 1.0000 0.0009
vn -0.0003 1.0000 0.0012
vn 0.0003 1.0000 0.0012
vn 0.0009 1.0000 0.0009
vn 0.0012 1.0000 0.0003
vn 0.0012 1.0000 -0.0003
vn 0.0009 1.0000 -0.0009
vn 0.0003 1.0000 -0.0012
vn 0.2588 -0.0000 -0.9659
vn -0.0000 -0.0000 -1.0000
vn -0.9659 -0.0000 0.2588
vn -0.2588 -0.0000 -0.9659
vn -0.7071 -0.0000 0.7071
vn -0.7071 -0.0000 -0.7071
vn 0.2588 -0.0000 0.9659
vn -0.2588 -0.0000 0.9659
vn -0.9659 -0.0000 -0.2588
vn 0.7071 -0.0000 0.7071
vn 0.9659 -0.0000 0.2588
vn 0.9659 -0.0000 -0.2588
vn 0.7071 -0.0000 -0.7071
vt 0.323986 0.187054
vt 0.000000 0.374107
vt 0.187054 0.050121
vt 0.874107 0.892673
vt 0.811161 0.909540
vt 0.811161 0.682155
vt 0.874107 0.699021
vt -0.000000 0.765081
vt 0.062946 0.748214
vt 0.062946 0.975599
vt -0.000000 0.958733
vt 0.937054 0.665289
vt 0.874107 0.682155
vt 0.874107 0.454770
vt 0.937054 0.471636
vt 0.937054 0.892673
vt 0.874107 0.909540
vt 0.874107 0.682155
vt 0.937054 0.699021
vt 0.062946 0.765081
vt 0.125893 0.748214
vt 0.125893 0.975599
vt 0.062946 0.958733
vt 0.811161 0.210518
vt 0.748214 0.227385
vt 0.748214 -0.000000
vt 0.811161 0.016866
vt 0.811161 0.437903
vt 0.748214 0.454770
vt 0.748214 0.227385
vt 0.811161 0.244251
vt 0.748214 0.471636
vt 0.811161 0.454770
vt 0.811161 0.682155
vt 0.748214 0.665289
vt 0.811161 0.016866
vt 0.874107 0.000000
vt 0.874107 0.227385
vt 0.811161 0.210519
vt 0.811161 0.244251
vt 0.874107 0.227385
vt 0.811161 0.437904
vt 0.811161 0.471636
vt 0.874107 0.454770
vt 0.811161 0.665288
vt 0.811161 0.892673
vt 0.748214 0.909540
vt 0.748214 0.682155
vt 0.811161 0.699021
vt 0.187054 0.698093
vt 0.323986 0.561161
vt 0.000000 0.000000
vt 0.374107 0.374107
vt -0.000000 0.748214
vt 0.698094 0.561161
vt 0.561161 0.698093
vt 0.374107 0.374107
vt 0.188839 0.765081
vt 0.188839 0.958733
vt 0.125893 0.975599
vt 0.125893 0.748214
vt 0.503571 0.958733
vt 0.503571 0.765081
vt 0.566517 0.748214
vt 0.566518 0.975599
vt 0.692410 0.765081
vt 0.692410 0.958733
vt 0.629464 0.975599
vt 0.629464 0.748214
vt 1.000000 0.016866
vt 1.000000 0.210519
vt 0.937054 0.227385
vt 0.937054 -0.000000
vt 0.566518 0.958733
vt 0.566518 0.765081
vt 0.629464 0.748214
vt 0.629464 0.975599
vt 0.251786 0.765081
vt 0.251786 0.958733
vt 0.188839 0.975599
vt 0.188839 0.748214
vt 0.314732 0.765081
vt 0.314732 0.958733
vt 0.251786 0.975599
vt 0.251786 0.748214
vt 0.377678 0.765081
vt 0.377678 0.958733
vt 0.314732 0.975599
vt 0.314732 0.748214
vt 0.937054 0.016866
vt 0.937054 0.210519
vt 0.874107 0.227385
vt 0.874107 0.000000
vt 0.937054 0.244251
vt 0.937054 0.437904
vt 0.874107 0.454770
vt 0.440625 0.765081
vt 0.440625 0.958733
vt 0.377678 0.975599
vt 0.377678 0.748214
vt 0.503571 0.765081
vt 0.503571 0.958733
vt 0.440625 0.975599
vt 0.440625 0.748214
vt 0.561161 0.050121
vt 0.698094 0.187054
vt 0.374107 0.748214
vt 0.748214 0.374107
vt 0.374107 -0.000000
vt 0.943234 0.227385
vt 0.943234 0.454770
vt 0.940065 0.454770
vt 0.940065 0.227385
vt 0.940065 0.227385
vt 0.940065 0.601492
vt 0.937054 0.601492
vt 0.937054 0.227385
vt 0.707465 0.748214
vt 0.707465 0.941866
vt 0.704454 0.941866
vt 0.704454 0.748214
vt 0.943234 0.454770
vt 0.943234 0.682155
vt 0.940065 0.682155
vt 0.940065 0.454770
vt 0.695421 0.748214
vt 0.695421 0.941866
vt 0.692410 0.941866
vt 0.692410 0.748214
vt 0.946403 0.454770
vt 0.946403 0.682155
vt 0.946403 0.682155
vt 0.946403 0.909540
vt 0.943234 0.909540
vt 0.943234 0.682155
vt 0.940065 0.975599
vt 0.937054 0.975599
vt 0.704454 0.748214
vt 0.704454 0.941867
vt 0.701443 0.941867
vt 0.701443 0.748214
vt 0.943234 0.682155
vt 0.943234 0.909540
vt 0.940065 0.909540
vt 0.940065 0.682155
vt 0.949573 0.227385
vt 0.949573 0.454770
vt 0.946403 0.454770
vt 0.946403 0.227385
vt 0.701443 0.748214
vt 0.701443 0.941866
vt 0.698432 0.941866
vt 0.698432 0.748214
vt 0.952742 0.227385
vt 0.952742 0.454770
vt 0.949573 0.227385
vt 0.952742 0.454770
vt 0.952742 0.682155
vt 0.949573 0.682155
vt 0.949573 0.454770
vt 0.698432 0.748214
vt 0.698432 0.941867
vt 0.695421 0.941867
vt 0.949573 0.454770
vt 0.946403 0.454770
vt 0.943234 0.227385
vt 0.710476 0.748214
vt 0.710476 0.941866
vt 0.952742 0.682155
vt 0.952742 0.909540
vt 0.949573 0.909540
vt 0.949573 0.682155
vt 0.949573 0.909540
s 0
usemtl Текстура_домов
f 13/1/1 25/2/1 15/3/1
f 13/4/2 2/5/2 1/6/2 14/7/2
f 15/8/3 3/9/3 2/10/3 13/11/3
f 16/12/4 4/13/4 3/14/4 15/15/4
f 17/16/5 5/17/5 4/18/5 16/19/5
f 18/20/6 6/21/6 5/22/6 17/23/6
f 19/24/7 7/25/7 6/26/7 18/27/7
f 20/28/8 8/29/8 7/30/8 19/31/8
f 21/32/9 9/33/9 8/34/9 20/35/9
f 22/36/10 10/37/10 9/38/10 21/39/10
f 23/40/11 11/41/11 10/14/11 22/42/11
f 24/43/12 12/44/12 11/13/12 23/45/12
f 14/46/13 1/47/13 12/48/13 24/49/13
f 23/50/1 25/2/1 24/51/1
f 15/3/1 25/2/1 16/52/1
f 24/51/1 25/2/1 14/53/1
f 14/53/1 25/2/1 13/1/1
f 22/54/1 25/2/1 23/50/1
f 38/55/14 40/56/14 50/57/14
f 38/58/15 39/59/15 26/60/15 27/61/15
f 40/62/16 38/63/16 27/64/16 28/65/16
f 41/66/17 40/67/17 28/68/17 29/69/17
f 42/70/18 41/71/18 29/72/18 30/73/18
f 43/74/19 42/75/19 30/76/19 31/77/19
f 44/78/20 43/79/20 31/80/20 32/81/20
f 45/82/21 44/83/21 32/84/21 33/85/21
f 46/86/22 45/87/22 33/88/22 34/89/22
f 47/90/23 46/91/23 34/92/23 35/93/23
f 48/94/24 47/95/24 35/96/24 36/92/24
f 49/97/25 48/98/25 36/99/25 37/100/25
f 39/101/26 49/102/26 37/103/26 26/104/26
f 48/105/14 49/106/14 50/57/14
f 40/56/14 41/107/14 50/57/14
f 49/106/14 39/108/14 50/57/14
f 39/108/14 38/55/14 50/57/14
f 47/109/14 48/105/14 50/57/14
f 6/110/27 7/111/27 32/112/27 31/113/27
f 16/114/28 25/115/28 50/116/28 41/117/28
f 17/118/29 16/119/29 41/120/29 42/121/29
f 7/122/30 8/123/30 33/124/30 32/125/30
f 18/126/31 17/127/31 42/128/31 43/129/31
f 8/130/32 9/131/32 34/123/32 33/111/32
f 1/132/33 2/133/33 27/134/33 26/135/33
f 25/115/28 22/136/28 47/137/28 50/116/28
f 19/138/34 18/139/34 43/140/34 44/141/34
f 9/142/35 10/143/35 35/144/35 34/145/35
f 2/146/36 3/147/36 28/148/36 27/149/36
f 20/150/33 19/151/33 44/152/33 45/153/33
f 10/154/29 11/155/29 36/147/29 35/156/29
f 3/157/37 4/158/37 29/159/37 28/160/37
f 21/161/36 20/162/36 45/163/36 46/126/36
f 11/164/31 12/159/31 37/131/31 36/130/31
f 4/149/38 5/165/38 30/122/38 29/166/38
f 22/167/37 21/168/37 46/119/37 47/118/37
f 12/169/34 1/170/34 26/171/34 37/172/34
f 5/172/39 6/173/39 31/133/39 30/132/39
