# Blender 4.2.3 LTS
# www.blender.org
mtllib Iron.mtl
o Iron
v -0.554400 0.000000 -0.000000
v 0.277200 0.000000 0.480125
v 0.277200 0.000000 -0.480124
v 0.277200 0.004000 0.480125
v -0.554400 0.004000 -0.000000
v 0.277200 0.004000 -0.480124
vn -0.0000 -1.0000 -0.0000
vn -0.0000 1.0000 -0.0000
vn -0.5000 -0.0000 -0.8660
vn 1.0000 -0.0000 -0.0000
vn -0.5000 -0.0000 0.8660
vt 0.000000 0.000000
vt 0.496418 0.286607
vt -0.000000 0.573214
vt 0.496418 0.573214
vt 0.496418 -0.000000
vt 0.992837 0.286607
vt 0.995224 -0.000000
vt 0.995224 0.573214
vt 0.992837 0.573214
vt 0.992837 -0.000000
vt 0.997612 -0.000000
vt 0.997612 0.573214
vt 0.995224 -0.000000
vt 1.000000 -0.000000
vt 1.000000 0.573214
vt 0.997612 -0.000000
s 0
usemtl Текстура_домов
f 2/1/1 1/2/1 3/3/1
f 4/4/2 6/5/2 5/6/2
f 3/7/3 1/8/3 5/9/3 6/10/3
f 2/11/4 3/12/4 6/8/4 4/13/4
f 1/14/5 2/15/5 4/12/5 5/16/5
