# Blender 4.2.3 LTS
# www.blender.org
mtllib Sand.mtl
o Sand
v 0.174830 0.000000 0.423118
v 0.174830 0.000000 -0.423118
v 0.174830 0.004897 0.423118
v 0.174830 0.004897 -0.423118
v -0.174830 0.000000 0.423118
v -0.174830 0.000000 -0.423118
v -0.174830 0.004897 0.423118
v -0.174830 0.004897 -0.423118
v -0.248288 0.000000 0.496576
v 0.248288 0.000000 0.496576
v 0.248288 0.000000 -0.496576
v -0.248288 0.004897 0.496576
v 0.248288 0.004897 0.496576
v 0.248288 0.004897 -0.496576
v -0.248288 0.000000 -0.496576
v -0.248288 0.004897 -0.496576
vn 1.0000 -0.0000 -0.0000
vn -0.0000 -0.0000 1.0000
vn -0.0000 -0.0000 -1.0000
vn -1.0000 -0.0000 -0.0000
vn -0.0000 -1.0000 -0.0000
vn -0.0000 1.0000 -0.0000
vt 0.985632 0.827586
vt 0.980843 0.827586
vt 0.980843 -0.000000
vt 0.985632 -0.000000
vt 1.000000 0.341954
vt 0.995211 0.341954
vt 0.995211 0.000000
vt 1.000000 0.000000
vt 0.995211 0.485632
vt 0.990422 0.485632
vt 0.990422 -0.000000
vt 0.995211 -0.000000
vt 0.976053 0.971264
vt 0.971264 0.971264
vt 0.971264 0.000000
vt 0.976053 0.000000
vt 0.976053 0.971264
vt 0.976053 0.000000
vt 0.980843 0.000000
vt 0.980843 0.971264
vt 0.995211 0.971264
vt 0.990421 0.971264
vt 0.990422 0.485632
vt 0.995211 0.485632
vt 0.071839 0.071839
vt 0.000000 0.000000
vt 0.485632 0.000000
vt 0.413793 0.071839
vt 0.071839 0.899425
vt 0.000000 0.971264
vt 0.557471 0.071839
vt 0.485632 0.000000
vt 0.971264 0.000000
vt 0.899425 0.071839
vt 0.971264 0.971264
vt 0.899425 0.899425
vt 0.413793 0.899425
vt 0.485632 0.971264
vt 0.485632 0.971264
vt 0.557471 0.899425
vt 1.000000 0.683908
vt 0.995211 0.683908
vt 0.995211 0.341954
vt 1.000000 0.341954
vt 0.990421 0.827586
vt 0.985632 0.827586
vt 0.985632 -0.000000
vt 0.990421 -0.000000
s 0
usemtl Текстура_домов
f 6/1/1 8/2/1 7/3/1 5/4/1
f 2/5/2 4/6/2 8/7/2 6/8/2
f 15/9/3 16/10/3 14/11/3 11/12/3
f 11/13/1 14/14/1 13/15/1 10/16/1
f 12/17/4 16/18/4 15/19/4 9/20/4
f 10/21/2 13/22/2 12/23/2 9/24/2
f 1/25/5 10/26/5 9/27/5 5/28/5
f 2/29/5 11/30/5 10/26/5 1/25/5
f 7/31/6 12/32/6 13/33/6 3/34/6
f 3/34/6 13/33/6 14/35/6 4/36/6
f 6/37/5 15/38/5 11/30/5 2/29/5
f 4/36/6 14/35/6 16/39/6 8/40/6
f 8/40/6 16/39/6 12/32/6 7/31/6
f 5/28/5 9/27/5 15/38/5 6/37/5
f 5/41/3 7/42/3 3/43/3 1/44/3
f 1/45/4 3/46/4 4/47/4 2/48/4
