# Blender 4.2.3 LTS
# www.blender.org
mtllib Stone.mtl
o Stone
v -0.405600 0.000000 0.405600
v 0.405600 0.000000 0.405600
v -0.405600 0.000000 -0.405600
v 0.405600 0.000000 -0.405600
v 0.000000 0.000000 0.000000
v -0.405600 0.004000 -0.405600
v -0.405600 0.004000 0.405600
v 0.405600 0.004000 0.405600
v 0.405600 0.004000 -0.405600
v 0.000000 0.004000 0.000000
v -0.263172 0.000494 0.331841
v 0.000000 0.000494 0.068670
v 0.263172 0.000494 0.331841
v 0.331841 0.000494 0.263172
v 0.068670 0.000494 -0.000000
v 0.331841 0.000494 -0.263172
v 0.263172 0.000494 -0.331841
v 0.000000 0.000494 -0.068670
v -0.263172 0.000494 -0.331841
v -0.331841 0.000494 -0.263172
v -0.068669 0.000494 -0.000000
v -0.331841 0.000494 0.263172
v -0.263172 0.003506 0.331841
v 0.263172 0.003506 0.331841
v 0.000000 0.003506 0.068670
v 0.331841 0.003506 0.263172
v 0.331841 0.003506 -0.263172
v 0.068670 0.003506 -0.000000
v 0.263172 0.003506 -0.331841
v -0.263172 0.003506 -0.331841
v 0.000000 0.003506 -0.068670
v -0.331841 0.003506 -0.263172
v -0.331841 0.003506 0.263172
v -0.068669 0.003506 -0.000000
vn 1.0000 -0.0000 -0.0000
vn -1.0000 -0.0000 -0.0000
vn -0.0000 -0.0000 -1.0000
vn -0.0000 -0.0000 1.0000
vn 0.0072 -0.9999 0.0072
vn -0.0072 -0.9999 0.0072
vn -0.0000 -1.0000 -0.0067
vn 0.0072 -0.9999 -0.0072
vn -0.0067 -1.0000 -0.0000
vn -0.0072 -0.9999 -0.0072
vn -0.0000 -1.0000 0.0067
vn 0.0067 -1.0000 -0.0000
vn -0.0000 1.0000 -0.0067
vn -0.0072 0.9999 0.0072
vn 0.0072 0.9999 0.0072
vn -0.0067 1.0000 -0.0000
vn 0.0072 0.9999 -0.0072
vn -0.0000 1.0000 0.0067
vn -0.0072 0.9999 -0.0072
vn 0.0067 1.0000 -0.0000
vn -0.7071 -0.0000 -0.7071
vn -0.7071 -0.0000 0.7071
vn 0.7071 -0.0000 0.7071
vn 0.7071 -0.0000 -0.7071
vt 0.983460 -0.000000
vt 0.983460 0.707107
vt 0.979973 0.707107
vt 0.979973 -0.000000
vt 0.986946 -0.000000
vt 0.986946 0.707107
vt 0.983460 0.707107
vt 0.983460 -0.000000
vt 0.990433 -0.000000
vt 0.990433 0.707107
vt 0.986947 0.707107
vt 0.986947 -0.000000
vt 0.993920 -0.000000
vt 0.993920 0.707107
vt 0.990433 0.707107
vt 0.990433 -0.000000
vt 0.599020 0.500000
vt 0.599020 0.000000
vt 0.641348 0.042326
vt 0.641348 0.366749
vt 0.768332 0.500000
vt 0.768332 1.000000
vt 0.726004 0.866749
vt 0.726004 0.542326
vt 0.192886 -0.000000
vt 0.192886 0.707107
vt 0.128591 0.582955
vt 0.128591 0.124152
vt 0.768332 0.500000
vt 0.768332 0.000000
vt 0.810660 0.042326
vt 0.810660 0.366749
vt 0.683676 0.500000
vt 0.683676 -0.000000
vt 0.726004 0.133251
vt 0.726004 0.457674
vt 0.385773 -0.000000
vt 0.385773 0.707107
vt 0.321477 0.582955
vt 0.321477 0.124152
vt 0.895317 0.500000
vt 0.895317 0.000000
vt 0.937645 0.042326
vt 0.937645 0.366749
vt 0.514363 0.500000
vt 0.514363 0.000000
vt 0.556692 0.133251
vt 0.556692 0.457674
vt 0.450068 -0.000000
vt 0.450068 0.707107
vt 0.385773 0.582955
vt 0.385773 0.124152
vt 0.852989 0.500000
vt 0.852989 0.000000
vt 0.895317 0.042326
vt 0.895317 0.366749
vt 0.937645 0.500000
vt 0.937645 0.000000
vt 0.979973 0.133251
vt 0.979973 0.457674
vt 0.128591 -0.000000
vt 0.128591 0.707107
vt 0.064295 0.582955
vt 0.064296 0.124152
vt 0.192886 0.707107
vt 0.192886 0.000000
vt 0.257182 0.124152
vt 0.257182 0.582955
vt 0.556692 1.000000
vt 0.556692 0.500000
vt 0.599020 0.542326
vt 0.599020 0.866749
vt 0.641348 0.500000
vt 0.641348 0.000000
vt 0.683676 0.133251
vt 0.683676 0.457674
vt 0.257182 0.707107
vt 0.257182 0.000000
vt 0.321477 0.124152
vt 0.321477 0.582955
vt 0.726004 0.500000
vt 0.726004 -0.000000
vt 0.768332 0.042326
vt 0.768332 0.366749
vt 0.810660 0.500000
vt 0.810660 0.000000
vt 0.852989 0.133251
vt 0.852989 0.457674
vt 0.450068 0.707107
vt 0.450068 0.000000
vt 0.514363 0.124152
vt 0.514363 0.582955
vt 0.556692 0.500000
vt 0.556692 -0.000000
vt 0.599020 0.042326
vt 0.599020 0.366749
vt 0.514363 1.000000
vt 0.514363 0.500000
vt 0.556692 0.633251
vt 0.556692 0.957674
vt 0.000000 0.707107
vt 0.000000 0.000000
vt 0.064295 0.124152
vt 0.064295 0.582955
vt 0.599020 1.000000
vt 0.599020 0.500000
vt 0.641348 0.542326
vt 0.641348 0.866749
vt 0.683676 1.000000
vt 0.683676 0.500000
vt 0.726004 0.633251
vt 0.726004 0.957674
vt 0.664980 0.500000
vt 0.664980 0.824423
vt 0.662354 0.824423
vt 0.662354 0.500000
vt 0.643974 0.500000
vt 0.643974 0.958803
vt 0.641348 0.958803
vt 0.641348 0.500000
vt 0.678425 0.500000
vt 0.678425 0.824423
vt 0.675799 0.824423
vt 0.675799 0.500000
vt 0.649225 0.500000
vt 0.649225 0.824423
vt 0.646599 0.824423
vt 0.646599 0.500000
vt 0.683676 0.500000
vt 0.683676 0.958803
vt 0.681050 0.958803
vt 0.681050 0.500000
vt 0.651851 0.500000
vt 0.651851 0.824423
vt 0.649225 0.824423
vt 0.654477 0.500000
vt 0.654477 0.824423
vt 0.651851 0.824423
vt 0.681050 0.500000
vt 0.681050 0.958803
vt 0.678424 0.958803
vt 0.678424 0.500000
vt 0.662354 0.500000
vt 0.662354 0.824423
vt 0.659728 0.824423
vt 0.659728 0.500000
vt 0.657102 0.500000
vt 0.657102 0.824423
vt 0.654477 0.824423
vt 0.654477 0.500000
vt 0.646599 0.500000
vt 0.646599 0.958803
vt 0.643974 0.958803
vt 0.643974 0.500000
vt 0.659728 0.824423
vt 0.657102 0.824423
vt 0.657102 0.500000
s 0
usemtl Текстура_домов
f 2/1/1 4/2/1 9/3/1 8/4/1
f 3/5/2 1/6/2 7/7/2 6/8/2
f 4/9/3 3/10/3 6/11/3 9/12/3
f 1/13/4 2/14/4 8/15/4 7/16/4
f 1/17/5 5/18/5 12/19/5 11/20/5
f 5/21/6 2/22/6 13/23/6 12/24/6
f 2/25/7 1/26/7 11/27/7 13/28/7
f 2/29/8 5/30/8 15/31/8 14/32/8
f 5/33/5 4/34/5 16/35/5 15/36/5
f 4/37/9 2/38/9 14/39/9 16/40/9
f 4/41/10 5/42/10 18/43/10 17/44/10
f 5/45/8 3/46/8 19/47/8 18/48/8
f 3/49/11 4/50/11 17/51/11 19/52/11
f 3/53/6 5/54/6 21/55/6 20/56/6
f 5/57/10 1/58/10 22/59/10 21/60/10
f 1/61/12 3/62/12 20/63/12 22/64/12
f 7/65/13 8/66/13 24/67/13 23/68/13
f 8/69/14 10/70/14 25/71/14 24/72/14
f 10/73/15 7/74/15 23/75/15 25/76/15
f 8/77/16 9/78/16 27/79/16 26/80/16
f 9/81/15 10/82/15 28/83/15 27/84/15
f 10/85/17 8/86/17 26/87/17 28/88/17
f 9/89/18 6/90/18 30/91/18 29/92/18
f 6/93/17 10/94/17 31/95/17 30/96/17
f 10/97/19 9/98/19 29/99/19 31/100/19
f 6/101/20 7/102/20 33/103/20 32/104/20
f 7/105/19 10/106/19 34/107/19 33/108/19
f 10/109/14 6/110/14 32/111/14 34/112/14
f 21/113/21 22/114/21 33/115/21 34/116/21
f 22/117/1 20/118/1 32/119/1 33/120/1
f 20/121/22 21/122/22 34/123/22 32/124/22
f 12/125/22 13/126/22 24/127/22 25/128/22
f 13/129/3 11/130/3 23/131/3 24/132/3
f 11/133/23 12/134/23 25/135/23 23/125/23
f 15/136/23 16/137/23 27/138/23 28/133/23
f 16/139/2 14/140/2 26/141/2 27/142/2
f 14/143/24 15/144/24 28/145/24 26/146/24
f 18/147/24 19/148/24 30/149/24 31/150/24
f 19/151/4 17/152/4 29/153/4 30/154/4
f 17/146/21 18/155/21 31/156/21 29/157/21
