# Blender 4.2.3 LTS
# www.blender.org
mtllib Coal_U.mtl
o Coal
v 0.507000 0.000000 0.000000
v 0.475300 0.025000 0.000000
v 0.507000 0.025000 0.000000
v 0.475300 0.050000 0.000000
v 0.507000 0.000000 0.485000
v 0.485000 0.000000 0.507000
v 0.485000 0.000000 -0.507000
v 0.507000 0.000000 -0.485000
v -0.490115 0.000000 0.014103
v -0.490115 0.000000 -0.014103
v -0.484999 0.000000 0.000000
v 0.475300 0.025000 0.453300
v 0.453300 0.025000 0.475300
v 0.490856 0.025000 0.490856
v 0.453300 0.025000 -0.475300
v 0.475300 0.025000 -0.453300
v 0.490856 0.025000 -0.490856
v -0.435951 0.025000 0.014103
v -0.435951 0.025000 -0.014103
v -0.479550 0.025000 0.000000
v -0.490115 0.025000 -0.014103
v -0.490115 0.025000 0.014103
v -0.484999 0.025000 0.000000
v 0.485000 0.025000 0.507000
v 0.507000 0.025000 0.485000
v 0.491444 0.025000 0.491444
v 0.507000 0.025000 -0.485000
v 0.485000 0.025000 -0.507000
v 0.491444 0.025000 -0.491444
v 0.453300 0.050000 0.475300
v 0.475300 0.050000 0.453300
v 0.475300 0.050000 -0.453300
v 0.453300 0.050000 -0.475300
v -0.435951 0.050000 -0.014103
v -0.435951 0.050000 0.014103
v -0.411540 0.050000 0.000000
v 0.110752 0.000000 0.507000
v 0.082687 0.000000 0.495231
v 0.082687 0.000000 -0.495231
v 0.110752 0.000000 -0.507000
v 0.126963 0.025000 0.475300
v 0.098987 0.025000 0.463444
v 0.100123 0.025000 0.490811
v 0.098987 0.025000 -0.463444
v 0.126963 0.025000 -0.475300
v 0.100123 0.025000 -0.490811
v 0.082687 0.025000 0.495231
v 0.110752 0.025000 0.507000
v 0.099878 0.025000 0.491489
v 0.110752 0.025000 -0.507000
v 0.082687 0.025000 -0.495231
v 0.099878 0.025000 -0.491489
v 0.098987 0.050000 0.463444
v 0.126963 0.050000 0.475300
v 0.126963 0.050000 -0.475300
v 0.098987 0.050000 -0.463444
vn 1.0000 -0.0000 -0.0000
vn -0.0000 1.0000 -0.0000
vn -0.0000 -0.0000 1.0000
vn -0.0000 -0.0000 -1.0000
vn -0.0000 -1.0000 -0.0000
vn -0.6432 -0.0000 -0.7657
vn -0.6432 -0.0000 0.7657
vn -1.0000 -0.0000 -0.0000
vn 0.7071 -0.0000 -0.7071
vn 0.7071 -0.0000 0.7071
vn -0.3867 -0.0000 -0.9222
vn -0.3867 -0.0000 0.9222
vn -0.3902 -0.0000 -0.9207
vn -0.3902 -0.0000 0.9207
vt 0.710123 0.726795
vt 0.710123 0.821493
vt 0.705241 0.821493
vt 0.705241 0.726795
vt 0.287290 0.427230
vt 0.279957 0.430268
vt 0.216240 0.430268
vt 0.210999 0.427239
vt 0.210951 0.427107
vt 0.213074 0.424078
vt 0.286147 0.424078
vt 0.287405 0.427116
vt 0.096336 0.723716
vt 0.096336 0.787434
vt 0.091455 0.787434
vt 0.091455 0.723716
vt 0.863509 0.583732
vt 0.858046 0.581417
vt 0.753599 0.493682
vt 0.758365 0.490928
vt 0.931522 0.490928
vt 0.931522 0.579436
vt 0.927227 0.583732
vt 0.210777 0.432582
vt 0.106329 0.520317
vt 0.097817 0.523071
vt 0.096753 0.523071
vt 0.095754 0.520317
vt 0.207594 0.426376
vt 0.038554 0.727135
vt 0.038554 0.800208
vt 0.033673 0.800208
vt 0.033673 0.727135
vt 0.501476 0.619766
vt 0.495996 0.622064
vt 0.422923 0.622064
vt 0.418628 0.617768
vt 0.418628 0.523071
vt 0.612318 0.523071
vt 0.613317 0.525825
vt 0.710123 0.916190
vt 0.705241 0.916190
vt 0.782350 0.710956
vt 0.782350 0.857015
vt 0.777469 0.857015
vt 0.777469 0.710956
vt 0.796795 0.710956
vt 0.796795 0.857015
vt 0.791914 0.857015
vt 0.791914 0.710956
vt 0.106329 0.525825
vt 0.210777 0.613559
vt 0.210999 0.618903
vt 0.210951 0.619035
vt 0.207594 0.619766
vt 0.095754 0.525825
vt 0.739013 0.722271
vt 0.739013 0.810778
vt 0.734132 0.810778
vt 0.734132 0.722271
vt 0.753599 0.488175
vt 0.858046 0.400440
vt 0.863509 0.398125
vt 0.927227 0.398125
vt 0.931522 0.402421
vt 0.739013 0.899286
vt 0.734132 0.899286
vt 0.216240 0.615874
vt 0.279957 0.615874
vt 0.287290 0.618912
vt 0.287405 0.619026
vt 0.286147 0.622064
vt 0.213074 0.622064
vt 0.284253 0.611579
vt 0.284253 0.523071
vt 0.290442 0.523071
vt 0.290442 0.617768
vt 0.110781 0.723716
vt 0.110781 0.787434
vt 0.105900 0.787434
vt 0.105900 0.723716
vt 0.284253 0.434563
vt 0.290442 0.428374
vt 0.840131 0.707428
vt 0.840131 0.843834
vt 0.835250 0.843834
vt 0.835250 0.707428
vt 0.854577 0.707428
vt 0.854577 0.843834
vt 0.849696 0.843834
vt 0.849696 0.707428
vt 0.613317 0.520317
vt 0.391125 0.702439
vt 0.396007 0.702439
vt 0.396007 0.707946
vt 0.391125 0.707946
vt 0.410452 0.707946
vt 0.405571 0.707946
vt 0.405571 0.702439
vt 0.410452 0.702439
vt 0.154118 0.708721
vt 0.149236 0.708721
vt 0.149236 0.702646
vt 0.154118 0.702646
vt 0.163682 0.702646
vt 0.168563 0.702646
vt 0.168563 0.708721
vt 0.163682 0.708721
vt 0.211899 0.708721
vt 0.207018 0.708721
vt 0.207018 0.702646
vt 0.211899 0.702646
vt 0.221463 0.702646
vt 0.226345 0.702646
vt 0.226345 0.708721
vt 0.221463 0.708721
vt 0.418628 0.428374
vt 0.422923 0.424078
vt 0.495996 0.424078
vt 0.501476 0.426376
vt 0.264800 0.702598
vt 0.269681 0.702598
vt 0.269681 0.708540
vt 0.264800 0.708540
vt 0.284126 0.708540
vt 0.279245 0.708540
vt 0.279245 0.702598
vt 0.284126 0.702598
vt 0.322581 0.702594
vt 0.327463 0.702594
vt 0.327463 0.708527
vt 0.322581 0.708527
vt 0.352670 0.708527
vt 0.347789 0.708527
vt 0.347789 0.702594
vt 0.352670 0.702594
vt 0.053000 0.727135
vt 0.053000 0.800208
vt 0.048118 0.800208
vt 0.048118 0.727135
s 0
usemtl Материал_угля
f 5/1/1 1/2/1 3/3/1 25/4/1
f 14/5/2 13/6/2 41/7/2 43/8/2 49/9/2 48/10/2 24/11/2 26/12/2
f 41/13/3 13/14/3 30/15/3 54/16/3
f 55/17/2 56/18/2 34/19/2 36/20/2 4/21/2 32/22/2 33/23/2
f 43/8/2 42/24/2 18/25/2 20/26/2 23/27/2 22/28/2 47/29/2 49/9/2
f 7/30/4 40/31/4 50/32/4 28/33/4
f 39/34/5 40/35/5 7/36/5 8/37/5 1/38/5 11/39/5 10/40/5
f 1/2/1 8/41/1 27/42/1 3/3/1
f 39/43/6 10/44/6 21/45/6 51/46/6
f 9/47/7 38/48/7 47/49/7 22/50/7
f 20/26/2 19/51/2 44/52/2 46/53/2 52/54/2 51/55/2 21/56/2 23/27/2
f 12/57/1 2/58/1 4/59/1 31/60/1
f 36/20/2 35/61/2 53/62/2 54/63/2 30/64/2 31/65/2 4/21/2
f 2/58/1 16/66/1 32/67/1 4/59/1
f 46/53/2 45/68/2 15/69/2 17/70/2 29/71/2 28/72/2 50/73/2 52/54/2
f 17/70/2 16/74/2 2/75/2 3/76/2 27/77/2 29/71/2
f 15/78/4 45/79/4 55/80/4 33/81/4
f 2/75/2 12/82/2 14/5/2 26/12/2 25/83/2 3/76/2
f 44/84/6 19/85/6 34/86/6 56/87/6
f 18/88/7 42/89/7 53/90/7 35/91/7
f 9/92/5 10/40/5 11/39/5
f 12/82/2 13/6/2 14/5/2
f 15/69/2 16/74/2 17/70/2
f 18/25/2 19/51/2 20/26/2
f 21/56/2 22/28/2 23/27/2
f 24/11/2 25/83/2 26/12/2
f 27/77/2 28/72/2 29/71/2
f 34/19/2 35/61/2 36/20/2
f 18/93/8 35/94/8 34/95/8 19/96/8
f 9/97/8 22/98/8 21/99/8 10/100/8
f 7/101/9 28/102/9 27/103/9 8/104/9
f 24/105/10 6/106/10 5/107/10 25/108/10
f 15/109/9 33/110/9 32/111/9 16/112/9
f 30/113/10 13/114/10 12/115/10 31/116/10
f 9/92/5 11/39/5 1/38/5 5/117/5 6/118/5 37/119/5 38/120/5
f 41/7/2 42/24/2 43/8/2
f 44/52/2 45/68/2 46/53/2
f 47/29/2 48/10/2 49/9/2
f 50/73/2 51/55/2 52/54/2
f 50/121/11 40/122/11 39/123/11 51/124/11
f 37/125/12 48/126/12 47/127/12 38/128/12
f 55/129/13 45/130/13 44/131/13 56/132/13
f 41/133/14 54/134/14 53/135/14 42/136/14
f 37/137/3 6/138/3 24/139/3 48/140/3
