# Blender 4.2.3 LTS
# www.blender.org
mtllib Gold_U.mtl
o Gold
v -0.098879 0.000000 -0.243659
v -0.098873 0.000000 -0.263784
v 0.388000 0.000000 -0.022539
v 0.367879 0.000000 -0.010108
v 0.367872 0.000000 -0.496983
v 0.388000 0.000000 -0.484540
v -0.098873 0.000000 0.263704
v -0.098879 0.000000 0.243580
v 0.367879 0.000000 0.010028
v 0.388000 0.000000 0.022460
v 0.388000 0.000000 0.484461
v 0.367872 0.000000 0.496904
v -0.605872 0.000000 0.010142
v -0.605878 0.000000 -0.009983
v -0.139122 0.000000 -0.243534
v -0.119000 0.000000 -0.231102
v -0.119000 0.000000 0.230898
v -0.139128 0.000000 0.243342
v 0.367879 0.025000 -0.010108
v 0.388000 0.025000 -0.022539
v 0.376174 0.025000 -0.019181
v -0.098873 0.025000 -0.263784
v -0.098879 0.025000 -0.243659
v -0.096500 0.025000 -0.253721
v 0.388000 0.025000 -0.484540
v 0.367872 0.025000 -0.496983
v 0.376168 0.025000 -0.487902
v 0.388000 0.025000 0.022460
v 0.367879 0.025000 0.010028
v 0.376174 0.025000 0.019102
v -0.098879 0.025000 0.243580
v -0.098873 0.025000 0.263704
v -0.096500 0.025000 0.253641
v 0.367872 0.025000 0.496904
v 0.388000 0.025000 0.484461
v 0.376168 0.025000 0.487823
v -0.119000 0.025000 -0.231102
v -0.139122 0.025000 -0.243534
v -0.130827 0.025000 -0.234461
v -0.605878 0.025000 -0.009983
v -0.605872 0.025000 0.010142
v -0.603499 0.025000 0.000079
v -0.139128 0.025000 0.243342
v -0.119000 0.025000 0.230898
v -0.130832 0.025000 0.234260
v 0.342879 0.025000 0.050493
v 0.363000 0.025000 0.062924
v 0.374827 0.025000 0.021283
v 0.363000 0.025000 0.444023
v 0.342872 0.025000 0.456467
v 0.374831 0.025000 0.485661
v -0.042971 0.025000 0.263688
v -0.042977 0.025000 0.243563
v -0.085598 0.025000 0.253638
v 0.363000 0.025000 -0.063004
v 0.342879 0.025000 -0.050572
v 0.374827 0.025000 -0.021362
v 0.342872 0.025000 -0.456546
v 0.363000 0.025000 -0.444102
v 0.374831 0.025000 -0.485740
v -0.042977 0.025000 -0.243642
v -0.042971 0.025000 -0.263767
v -0.085598 0.025000 -0.253717
v -0.164122 0.025000 -0.203070
v -0.144000 0.025000 -0.190638
v -0.132174 0.025000 -0.232279
v -0.144000 0.025000 0.190461
v -0.164128 0.025000 0.202904
v -0.132169 0.025000 0.232098
v -0.549970 0.025000 0.010125
v -0.549976 0.025000 -0.009999
v -0.592598 0.025000 0.000076
v 0.342872 0.050000 0.456467
v 0.363000 0.050000 0.444023
v 0.363000 0.050000 0.062924
v 0.342879 0.050000 0.050493
v -0.042977 0.050000 0.243563
v -0.042971 0.050000 0.263688
v 0.363000 0.050000 -0.444102
v 0.342872 0.050000 -0.456546
v 0.342879 0.050000 -0.050572
v 0.363000 0.050000 -0.063004
v -0.042971 0.050000 -0.263767
v -0.042977 0.050000 -0.243642
v -0.164128 0.050000 0.202904
v -0.144000 0.050000 0.190461
v -0.144000 0.050000 -0.190638
v -0.164122 0.050000 -0.203070
v -0.549976 0.050000 -0.009999
v -0.549970 0.050000 0.010125
v -0.119000 0.000000 -0.231102
v -0.098876 0.000000 -0.243540
v -0.098876 0.000000 0.243336
v -0.119000 0.000000 0.230898
v 0.367876 0.000000 -0.010164
v 0.367876 0.000000 0.009960
v -0.098876 0.025000 -0.243540
v -0.119000 0.025000 -0.231102
v -0.107171 0.025000 -0.234463
v -0.119000 0.025000 0.230898
v -0.098876 0.025000 0.243336
v -0.107171 0.025000 0.234258
v 0.367876 0.025000 0.009960
v 0.367876 0.025000 -0.010164
v 0.365500 0.025000 -0.000102
v -0.073876 0.025000 0.202885
v -0.094000 0.025000 0.190447
v -0.105829 0.025000 0.232087
v -0.094000 0.025000 -0.190651
v -0.073876 0.025000 -0.203089
v -0.105829 0.025000 -0.232291
v 0.311974 0.025000 -0.010164
v 0.311974 0.025000 0.009960
v 0.354599 0.025000 -0.000102
v -0.094000 0.050000 0.190447
v -0.073876 0.050000 0.202885
v -0.073876 0.050000 -0.203089
v -0.094000 0.050000 -0.190651
v 0.311974 0.050000 0.009960
v 0.311974 0.050000 -0.010164
vn -0.4469 -0.0000 0.8946
vn -0.4469 -0.0000 -0.8946
vn -0.4475 -0.0000 -0.8943
vn 1.0000 -0.0000 -0.0000
vn -0.0000 -1.0000 -0.0000
vn -0.0000 1.0000 -0.0000
vn -1.0000 -0.0000 -0.0000
vn -0.4475 -0.0000 0.8943
vn 0.4472 -0.0000 -0.8944
vn 0.4472 -0.0000 0.8944
vn -1.0000 -0.0000 0.0003
vn 0.5259 -0.0000 0.8506
vn -1.0000 -0.0000 -0.0003
vn 0.5259 -0.0000 -0.8506
vn 0.5256 -0.0000 -0.8507
vn 0.5256 -0.0000 0.8507
vn -0.5257 -0.0000 0.8507
vn -0.5257 -0.0000 -0.8507
vt 0.897021 0.779033
vt 0.888395 0.779033
vt 0.888395 0.599004
vt 0.897021 0.599004
vt 0.903178 0.043516
vt 0.903178 0.223545
vt 0.894552 0.223545
vt 0.894552 0.043516
vt 0.911912 0.501270
vt 0.903286 0.501270
vt 0.903286 0.321241
vt 0.911912 0.321241
vt 0.959881 0.741087
vt 0.951255 0.741087
vt 0.951255 0.592214
vt 0.959881 0.592214
vt 0.666678 0.952867
vt 0.658052 0.952867
vt 0.658052 0.821372
vt 0.666678 0.821372
vt 0.980834 0.741028
vt 0.972208 0.741028
vt 0.972208 0.592204
vt 0.980834 0.592204
vt 0.924132 0.198433
vt 0.915506 0.198433
vt 0.915506 0.039023
vt 0.924132 0.039023
vt 0.938927 0.594510
vt 0.938927 0.753920
vt 0.930301 0.753920
vt 0.930301 0.594510
vt 0.251293 0.602338
vt 0.258236 0.598049
vt 0.400795 0.669382
vt 0.401527 0.677514
vt 0.257504 0.785531
vt 0.251293 0.782425
vt 0.027012 0.324576
vt 0.033955 0.320286
vt 0.176515 0.391619
vt 0.177247 0.399751
vt 0.033223 0.507768
vt 0.027012 0.504663
vt 0.190325 0.598049
vt 0.197268 0.602339
vt 0.197268 0.782426
vt 0.191057 0.785532
vt 0.047034 0.677514
vt 0.047766 0.669382
vt 0.861272 0.223616
vt 0.852646 0.223616
vt 0.852646 0.043529
vt 0.861272 0.043529
vt 0.840319 0.223616
vt 0.831693 0.223616
vt 0.831693 0.043529
vt 0.840319 0.043529
vt 0.932865 0.476157
vt 0.924239 0.476157
vt 0.924239 0.316747
vt 0.932865 0.316747
vt 0.271248 0.399619
vt 0.272769 0.395657
vt 0.273643 0.395735
vt 0.287586 0.401089
vt 0.406645 0.490384
vt 0.416328 0.501986
vt 0.418010 0.505350
vt 0.415271 0.507636
vt 0.870043 0.504530
vt 0.866571 0.505350
vt 0.864889 0.501985
vt 0.861417 0.487278
vt 0.861417 0.338405
vt 0.865498 0.324037
vt 0.865963 0.323284
vt 0.870043 0.324443
vt 0.414539 0.320154
vt 0.417402 0.323284
vt 0.416937 0.324037
vt 0.405913 0.334116
vt 0.288318 0.392957
vt 0.271980 0.391487
vt 0.624353 0.395657
vt 0.625874 0.399619
vt 0.481851 0.507636
vt 0.479112 0.505351
vt 0.480794 0.501986
vt 0.490477 0.490384
vt 0.609536 0.401089
vt 0.623479 0.395735
vt 0.421482 0.504531
vt 0.412856 0.487279
vt 0.412856 0.338405
vt 0.421482 0.324443
vt 0.479720 0.323285
vt 0.482583 0.320154
vt 0.625142 0.391487
vt 0.608804 0.392957
vt 0.491209 0.334116
vt 0.480185 0.324037
vt 0.719809 0.399619
vt 0.721331 0.395657
vt 0.722204 0.395735
vt 0.736147 0.401089
vt 0.855206 0.490384
vt 0.863833 0.507636
vt 0.687631 0.952867
vt 0.679005 0.952867
vt 0.679005 0.821372
vt 0.687631 0.821372
vt 0.863101 0.320154
vt 0.854474 0.334116
vt 0.736879 0.392957
vt 0.720541 0.391487
vt 0.660478 0.040501
vt 0.667421 0.036212
vt 0.785017 0.095054
vt 0.785749 0.103186
vt 0.666689 0.192480
vt 0.660478 0.189375
vt 0.642513 0.591699
vt 0.649456 0.595989
vt 0.649456 0.744862
vt 0.643245 0.747967
vt 0.524186 0.658673
vt 0.524918 0.650541
vt 0.917974 0.594510
vt 0.917974 0.753920
vt 0.909348 0.753920
vt 0.909348 0.594510
vt 0.645725 0.821372
vt 0.645725 0.952867
vt 0.637099 0.952867
vt 0.637099 0.821372
vt 0.945085 0.036727
vt 0.945085 0.185600
vt 0.936459 0.185600
vt 0.936459 0.036727
vt 0.980834 0.963284
vt 0.972208 0.963284
vt 0.972208 0.814460
vt 0.980834 0.814460
vt 0.953818 0.463325
vt 0.945192 0.463325
vt 0.945192 0.314451
vt 0.953818 0.314451
vt 0.986992 0.036716
vt 0.986992 0.185540
vt 0.978365 0.185540
vt 0.978365 0.036716
vt 0.830949 0.591700
vt 0.837892 0.595989
vt 0.837892 0.744863
vt 0.831682 0.747968
vt 0.712622 0.658673
vt 0.713354 0.650541
vt 0.475640 0.504531
vt 0.475640 0.324443
vt 0.484266 0.338405
vt 0.484266 0.487279
vt 0.876068 0.779069
vt 0.867441 0.779069
vt 0.867441 0.599010
vt 0.876068 0.599010
vt 0.966038 0.185571
vt 0.957412 0.185571
vt 0.957412 0.036721
vt 0.966038 0.036721
vt 0.047708 0.164015
vt 0.048496 0.159846
vt 0.049373 0.159767
vt 0.064049 0.162542
vt 0.181662 0.221348
vt 0.192688 0.231424
vt 0.193151 0.232173
vt 0.190288 0.235305
vt 0.882225 0.223581
vt 0.873599 0.223581
vt 0.873599 0.043523
vt 0.882225 0.043523
vt 0.197232 0.231014
vt 0.188606 0.217057
vt 0.188606 0.068207
vt 0.192078 0.053500
vt 0.193760 0.050136
vt 0.197232 0.050955
vt 0.191021 0.047850
vt 0.182395 0.065102
vt 0.063316 0.154412
vt 0.046975 0.155885
vt 0.959881 0.942249
vt 0.951255 0.942249
vt 0.951255 0.810753
vt 0.959881 0.810753
vt 0.974771 0.463295
vt 0.966145 0.463295
vt 0.966145 0.314446
vt 0.974772 0.314446
vt 0.489147 0.137902
vt 0.488414 0.129772
vt 0.607493 0.040463
vt 0.613704 0.043568
vt 0.613704 0.192417
vt 0.606760 0.196709
vt 0.401587 0.155753
vt 0.400854 0.163883
vt 0.258274 0.235173
vt 0.251330 0.230882
vt 0.251330 0.050823
vt 0.257541 0.047717
vt 0.635270 0.268656
vt 0.635270 0.260029
vt 0.642213 0.260029
vt 0.642213 0.268656
vt 0.462856 0.239076
vt 0.462856 0.247702
vt 0.454691 0.247702
vt 0.454691 0.239076
vt 0.653807 0.268656
vt 0.653807 0.260029
vt 0.660751 0.260029
vt 0.660751 0.268656
vt 0.462856 0.260029
vt 0.462856 0.268656
vt 0.454691 0.268656
vt 0.454691 0.260029
vt 0.495273 0.247702
vt 0.495273 0.239076
vt 0.503438 0.239076
vt 0.503438 0.247702
vt 0.556140 0.247702
vt 0.556140 0.239076
vt 0.564301 0.239076
vt 0.564301 0.247702
vt 0.623676 0.239076
vt 0.623676 0.247702
vt 0.616732 0.247702
vt 0.616732 0.239076
vt 0.576426 0.247702
vt 0.576426 0.239076
vt 0.584587 0.239076
vt 0.584587 0.247702
vt 0.576426 0.268656
vt 0.576426 0.260029
vt 0.584587 0.260029
vt 0.584587 0.268656
vt 0.596711 0.247702
vt 0.596711 0.239076
vt 0.604872 0.239076
vt 0.604872 0.247702
vt 0.679289 0.260029
vt 0.679289 0.268656
vt 0.672345 0.268656
vt 0.672345 0.260029
vt 0.690883 0.268656
vt 0.690883 0.260029
vt 0.697827 0.260029
vt 0.697827 0.268656
vt 0.483147 0.260029
vt 0.483147 0.268656
vt 0.474982 0.268656
vt 0.474982 0.260029
vt 0.495273 0.268656
vt 0.495273 0.260029
vt 0.503438 0.260029
vt 0.503438 0.268656
vt 0.564301 0.260029
vt 0.564301 0.268656
vt 0.556140 0.268656
vt 0.556140 0.260029
vt 0.483147 0.239076
vt 0.483147 0.247702
vt 0.474982 0.247702
vt 0.474982 0.239076
vt 0.604872 0.260029
vt 0.604872 0.268656
vt 0.596711 0.268656
vt 0.596711 0.260029
vt 0.623676 0.260029
vt 0.623676 0.268656
vt 0.616732 0.268656
vt 0.616732 0.260029
vt 0.515564 0.247702
vt 0.515564 0.239076
vt 0.523727 0.239076
vt 0.523727 0.247702
vt 0.716365 0.260029
vt 0.716365 0.268656
vt 0.709421 0.268656
vt 0.709421 0.260029
vt 0.515564 0.268656
vt 0.515564 0.260029
vt 0.523727 0.260029
vt 0.523727 0.268656
vt 0.535853 0.247702
vt 0.535853 0.239076
vt 0.544016 0.239076
vt 0.544016 0.247702
vt 0.544015 0.260029
vt 0.544015 0.268656
vt 0.535852 0.268656
vt 0.535852 0.260029
vt 0.734903 0.260029
vt 0.734903 0.268656
vt 0.727959 0.268656
vt 0.727959 0.260029
vt 0.478242 0.599016
vt 0.478242 0.779104
vt 0.469616 0.779104
vt 0.469616 0.599016
s 0
usemtl Материал_золота
f 12/1/1 34/2/1 32/3/1 7/4/1
f 5/5/2 2/6/2 22/7/2 26/8/2
f 18/9/1 43/10/1 41/11/1 13/12/1
f 71/13/3 89/14/3 88/15/3 64/16/3
f 65/17/4 87/18/4 86/19/4 67/20/4
f 50/21/1 73/22/1 78/23/1 52/24/1
f 10/25/4 28/26/4 35/27/4 11/28/4
f 3/29/4 6/30/4 25/31/4 20/32/4
f 15/33/5 16/34/5 17/35/5 18/36/5 13/37/5 14/38/5
f 9/39/5 10/40/5 11/41/5 12/42/5 7/43/5 8/44/5
f 3/45/5 4/46/5 1/47/5 2/48/5 5/49/5 6/50/5
f 14/51/3 40/52/3 38/53/3 15/54/3
f 8/55/3 31/56/3 29/57/3 9/58/3
f 16/59/4 37/60/4 44/61/4 17/62/4
f 34/63/6 36/64/6 51/65/6 50/66/6 52/67/6 54/68/6 33/69/6 32/70/6
f 40/71/6 42/72/6 72/73/6 71/74/6 64/75/6 66/76/6 39/77/6 38/78/6
f 28/79/6 30/80/6 48/81/6 47/82/6 49/83/6 51/65/6 36/64/6 35/84/6
f 27/85/6 26/86/6 22/87/6 24/88/6 63/89/6 62/90/6 58/91/6 60/92/6
f 31/93/6 33/69/6 54/68/6 53/94/6 46/95/6 48/81/6 30/80/6 29/96/6
f 21/97/6 20/98/6 25/99/6 27/85/6 60/92/6 59/100/6 55/101/6 57/102/6
f 43/103/6 45/104/6 69/105/6 68/106/6 70/107/6 72/73/6 42/72/6 41/108/6
f 47/109/4 75/110/4 74/111/4 49/112/4
f 37/113/6 39/77/6 66/76/6 65/114/6 67/115/6 69/105/6 45/104/6 44/116/6
f 81/117/6 82/118/6 79/119/6 80/120/6 83/121/6 84/122/6
f 87/123/6 88/124/6 89/125/6 90/126/6 85/127/6 86/128/6
f 91/129/7 94/130/7 100/131/7 98/132/7
f 55/133/4 59/134/4 79/135/4 82/136/4
f 61/137/8 56/138/8 81/139/8 84/140/8
f 68/141/1 85/142/1 90/143/1 70/144/1
f 53/145/3 77/146/3 76/147/3 46/148/3
f 58/149/2 62/150/2 83/151/2 80/152/2
f 75/153/6 76/154/6 77/155/6 78/156/6 73/157/6 74/158/6
f 24/88/6 23/159/6 19/160/6 21/97/6 57/102/6 56/161/6 61/162/6 63/89/6
f 92/163/9 97/164/9 104/165/9 95/166/9
f 113/167/10 119/168/10 116/169/10 106/170/10
f 100/171/6 102/172/6 108/173/6 107/174/6 109/175/6 111/176/6 99/177/6 98/178/6
f 96/179/10 103/180/10 101/181/10 93/182/10
f 97/183/6 99/177/6 111/176/6 110/184/6 112/185/6 114/186/6 105/187/6 104/188/6
f 103/189/6 105/187/6 114/186/6 113/190/6 106/191/6 108/173/6 102/172/6 101/192/6
f 107/193/7 115/194/7 118/195/7 109/196/7
f 110/197/9 117/198/9 120/199/9 112/200/9
f 115/201/6 116/202/6 119/203/6 120/204/6 117/205/6 118/206/6
f 93/207/5 94/208/5 91/209/5 92/210/5 95/211/5 96/212/5
f 19/160/6 20/98/6 21/97/6
f 22/87/6 23/159/6 24/88/6
f 25/99/6 26/86/6 27/85/6
f 28/79/6 29/96/6 30/80/6
f 31/93/6 32/70/6 33/69/6
f 34/63/6 35/84/6 36/64/6
f 37/113/6 38/78/6 39/77/6
f 40/71/6 41/108/6 42/72/6
f 43/103/6 44/116/6 45/104/6
f 46/95/6 47/82/6 48/81/6
f 49/83/6 50/66/6 51/65/6
f 52/67/6 53/94/6 54/68/6
f 55/101/6 56/161/6 57/102/6
f 58/91/6 59/100/6 60/92/6
f 61/162/6 62/90/6 63/89/6
f 64/75/6 65/114/6 66/76/6
f 67/115/6 68/106/6 69/105/6
f 70/107/6 71/74/6 72/73/6
f 97/183/6 98/178/6 99/177/6
f 100/171/6 101/192/6 102/172/6
f 103/189/6 104/188/6 105/187/6
f 106/191/6 107/174/6 108/173/6
f 109/175/6 110/184/6 111/176/6
f 112/185/6 113/190/6 114/186/6
f 7/213/11 32/214/11 31/215/11 8/216/11
f 34/217/12 12/218/12 11/219/12 35/220/12
f 1/221/13 23/222/13 22/223/13 2/224/13
f 25/225/14 6/226/14 5/227/14 26/228/14
f 17/229/12 44/230/12 43/231/12 18/232/12
f 15/233/15 38/234/15 37/235/15 16/236/15
f 40/237/11 14/238/11 13/239/11 41/240/11
f 9/241/15 29/242/15 28/243/15 10/244/15
f 3/245/16 20/246/16 19/247/16 4/248/16
f 46/249/15 76/250/15 75/251/15 47/252/15
f 77/253/11 53/254/11 52/255/11 78/256/11
f 61/257/13 84/258/13 83/259/13 62/260/13
f 79/261/14 59/262/14 58/263/14 80/264/14
f 67/265/12 86/266/12 85/267/12 68/268/12
f 87/269/15 65/270/15 64/271/15 88/272/15
f 73/273/12 50/274/12 49/275/12 74/276/12
f 81/277/16 56/278/16 55/279/16 82/280/16
f 89/281/11 71/282/11 70/283/11 90/284/11
f 93/285/17 101/286/17 100/287/17 94/288/17
f 103/289/4 96/290/4 95/291/4 104/292/4
f 91/293/18 98/294/18 97/295/18 92/296/18
f 109/297/18 118/298/18 117/299/18 110/300/18
f 115/301/17 107/302/17 106/303/17 116/304/17
f 119/305/4 113/306/4 112/307/4 120/308/4
f 1/309/8 4/310/8 19/311/8 23/312/8
