# Blender 4.2.3 LTS
# www.blender.org
mtllib Iron_U.mtl
o Iron
v -0.098879 0.000000 -0.243659
v -0.098873 0.000000 -0.263784
v 0.388000 0.000000 -0.022539
v 0.367879 0.000000 -0.010108
v 0.367872 0.000000 -0.496983
v 0.388000 0.000000 -0.484540
v -0.098873 0.000000 0.263704
v -0.098879 0.000000 0.243580
v 0.367879 0.000000 0.010028
v 0.388000 0.000000 0.022460
v 0.388000 0.000000 0.484461
v 0.367872 0.000000 0.496904
v -0.605872 0.000000 0.010142
v -0.605878 0.000000 -0.009983
v -0.139122 0.000000 -0.243534
v -0.119000 0.000000 -0.231102
v -0.119000 0.000000 0.230898
v -0.139128 0.000000 0.243342
v 0.367879 0.025000 -0.010108
v 0.388000 0.025000 -0.022539
v 0.376174 0.025000 -0.019181
v -0.098873 0.025000 -0.263784
v -0.098879 0.025000 -0.243659
v -0.096500 0.025000 -0.253721
v 0.388000 0.025000 -0.484540
v 0.367872 0.025000 -0.496983
v 0.376168 0.025000 -0.487902
v 0.388000 0.025000 0.022460
v 0.367879 0.025000 0.010028
v 0.376174 0.025000 0.019102
v -0.098879 0.025000 0.243580
v -0.098873 0.025000 0.263704
v -0.096500 0.025000 0.253641
v 0.367872 0.025000 0.496904
v 0.388000 0.025000 0.484461
v 0.376168 0.025000 0.487823
v -0.119000 0.025000 -0.231102
v -0.139122 0.025000 -0.243534
v -0.130827 0.025000 -0.234461
v -0.605878 0.025000 -0.009983
v -0.605872 0.025000 0.010142
v -0.603499 0.025000 0.000079
v -0.139128 0.025000 0.243342
v -0.119000 0.025000 0.230898
v -0.130832 0.025000 0.234260
v 0.342879 0.025000 0.050493
v 0.363000 0.025000 0.062924
v 0.374827 0.025000 0.021283
v 0.363000 0.025000 0.444023
v 0.342872 0.025000 0.456467
v 0.374831 0.025000 0.485661
v -0.042971 0.025000 0.263688
v -0.042977 0.025000 0.243563
v -0.085598 0.025000 0.253638
v 0.363000 0.025000 -0.063004
v 0.342879 0.025000 -0.050572
v 0.374827 0.025000 -0.021362
v 0.342872 0.025000 -0.456546
v 0.363000 0.025000 -0.444102
v 0.374831 0.025000 -0.485740
v -0.042977 0.025000 -0.243642
v -0.042971 0.025000 -0.263767
v -0.085598 0.025000 -0.253717
v -0.164122 0.025000 -0.203070
v -0.144000 0.025000 -0.190638
v -0.132174 0.025000 -0.232279
v -0.144000 0.025000 0.190461
v -0.164128 0.025000 0.202904
v -0.132169 0.025000 0.232098
v -0.549970 0.025000 0.010125
v -0.549976 0.025000 -0.009999
v -0.592598 0.025000 0.000076
v 0.342872 0.050000 0.456467
v 0.363000 0.050000 0.444023
v 0.363000 0.050000 0.062924
v 0.342879 0.050000 0.050493
v -0.042977 0.050000 0.243563
v -0.042971 0.050000 0.263688
v 0.363000 0.050000 -0.444102
v 0.342872 0.050000 -0.456546
v 0.342879 0.050000 -0.050572
v 0.363000 0.050000 -0.063004
v -0.042971 0.050000 -0.263767
v -0.042977 0.050000 -0.243642
v -0.164128 0.050000 0.202904
v -0.144000 0.050000 0.190461
v -0.144000 0.050000 -0.190638
v -0.164122 0.050000 -0.203070
v -0.549976 0.050000 -0.009999
v -0.549970 0.050000 0.010125
v -0.119000 0.000000 -0.231102
v -0.098876 0.000000 -0.243540
v -0.098876 0.000000 0.243336
v -0.119000 0.000000 0.230898
v 0.367876 0.000000 -0.010164
v 0.367876 0.000000 0.009960
v -0.098876 0.025000 -0.243540
v -0.119000 0.025000 -0.231102
v -0.107171 0.025000 -0.234463
v -0.119000 0.025000 0.230898
v -0.098876 0.025000 0.243336
v -0.107171 0.025000 0.234258
v 0.367876 0.025000 0.009960
v 0.367876 0.025000 -0.010164
v 0.365500 0.025000 -0.000102
v -0.073876 0.025000 0.202885
v -0.094000 0.025000 0.190447
v -0.105829 0.025000 0.232087
v -0.094000 0.025000 -0.190651
v -0.073876 0.025000 -0.203089
v -0.105829 0.025000 -0.232291
v 0.311974 0.025000 -0.010164
v 0.311974 0.025000 0.009960
v 0.354599 0.025000 -0.000102
v -0.094000 0.050000 0.190447
v -0.073876 0.050000 0.202885
v -0.073876 0.050000 -0.203089
v -0.094000 0.050000 -0.190651
v 0.311974 0.050000 0.009960
v 0.311974 0.050000 -0.010164
vn -0.4469 -0.0000 0.8946
vn -0.4469 -0.0000 -0.8946
vn -0.4475 -0.0000 -0.8943
vn 1.0000 -0.0000 -0.0000
vn -0.0000 -1.0000 -0.0000
vn -0.0000 1.0000 -0.0000
vn -1.0000 -0.0000 -0.0000
vn -0.4475 -0.0000 0.8943
vn 0.4472 -0.0000 -0.8944
vn 0.4472 -0.0000 0.8944
vn -1.0000 -0.0000 0.0003
vn 0.5259 -0.0000 0.8506
vn -1.0000 -0.0000 -0.0003
vn 0.5259 -0.0000 -0.8506
vn 0.5256 -0.0000 -0.8507
vn 0.5256 -0.0000 0.8507
vn -0.5257 -0.0000 0.8507
vn -0.5257 -0.0000 -0.8507
vt 0.971710 0.502167
vt 0.965658 0.502167
vt 0.965658 0.375856
vt 0.971710 0.375856
vt 0.971710 0.570840
vt 0.971710 0.697150
vt 0.965658 0.697150
vt 0.965658 0.570840
vt 0.992588 0.502166
vt 0.986535 0.502166
vt 0.986535 0.375856
vt 0.992588 0.375856
vt 0.895041 0.304666
vt 0.888988 0.304666
vt 0.888988 0.200215
vt 0.895041 0.200215
vt 0.551622 0.928920
vt 0.545570 0.928920
vt 0.545570 0.836662
vt 0.551622 0.836662
vt 0.282520 0.943743
vt 0.276468 0.943743
vt 0.276468 0.839326
vt 0.282520 0.839326
vt 0.055219 0.952832
vt 0.049167 0.952832
vt 0.049167 0.840988
vt 0.055219 0.840988
vt 0.117850 0.840988
vt 0.117850 0.952832
vt 0.111798 0.952832
vt 0.111798 0.840988
vt 0.516481 0.239122
vt 0.521352 0.236112
vt 0.621373 0.286160
vt 0.621887 0.291866
vt 0.520838 0.367652
vt 0.516481 0.365473
vt 0.351811 0.036629
vt 0.356682 0.033620
vt 0.456704 0.083668
vt 0.457217 0.089373
vt 0.356169 0.165159
vt 0.351811 0.162981
vt 0.631432 0.438605
vt 0.636303 0.441614
vt 0.636303 0.567966
vt 0.631945 0.570145
vt 0.530897 0.494358
vt 0.531411 0.488653
vt 0.672192 0.938942
vt 0.666139 0.938942
vt 0.666139 0.812591
vt 0.672192 0.812591
vt 0.950833 0.502217
vt 0.944781 0.502217
vt 0.944781 0.375865
vt 0.950833 0.375865
vt 0.076096 0.952832
vt 0.070044 0.952832
vt 0.070044 0.840988
vt 0.076096 0.840988
vt 0.366179 0.291771
vt 0.367247 0.288991
vt 0.367859 0.289046
vt 0.377642 0.292802
vt 0.461176 0.355453
vt 0.467969 0.363593
vt 0.469149 0.365953
vt 0.467228 0.367557
vt 0.306868 0.770309
vt 0.304432 0.770884
vt 0.303252 0.768523
vt 0.300816 0.758204
vt 0.300816 0.653753
vt 0.303679 0.643673
vt 0.304005 0.643144
vt 0.306868 0.643957
vt 0.466714 0.236017
vt 0.468722 0.238214
vt 0.468396 0.238742
vt 0.460662 0.245813
vt 0.378156 0.287097
vt 0.366693 0.286065
vt 0.126810 0.491429
vt 0.127878 0.494209
vt 0.026829 0.569995
vt 0.024908 0.568391
vt 0.026088 0.566031
vt 0.032881 0.557891
vt 0.116415 0.495241
vt 0.126198 0.491484
vt 0.471585 0.365378
vt 0.465533 0.353274
vt 0.465533 0.248823
vt 0.471585 0.239027
vt 0.025335 0.440652
vt 0.027343 0.438455
vt 0.127364 0.488503
vt 0.115901 0.489535
vt 0.033395 0.448251
vt 0.025661 0.441180
vt 0.201462 0.696701
vt 0.202529 0.693922
vt 0.203142 0.693977
vt 0.212925 0.697733
vt 0.296458 0.760383
vt 0.302510 0.772487
vt 0.468114 0.928920
vt 0.462062 0.928920
vt 0.462062 0.836662
vt 0.468114 0.836662
vt 0.301997 0.640948
vt 0.295945 0.650744
vt 0.213438 0.692028
vt 0.201975 0.690996
vt 0.817860 0.373606
vt 0.822732 0.370597
vt 0.905238 0.411881
vt 0.905752 0.417586
vt 0.822218 0.480236
vt 0.817860 0.478058
vt 0.912685 0.712191
vt 0.917556 0.715200
vt 0.917556 0.819651
vt 0.913199 0.821830
vt 0.829665 0.759180
vt 0.830179 0.753475
vt 0.013465 0.840988
vt 0.013465 0.952832
vt 0.007412 0.952832
vt 0.007412 0.840988
vt 0.509868 0.836662
vt 0.509868 0.928920
vt 0.503816 0.928920
vt 0.503816 0.836662
vt 0.811532 0.200215
vt 0.811532 0.304666
vt 0.805480 0.304666
vt 0.805480 0.200215
vt 0.384606 0.943797
vt 0.378554 0.943797
vt 0.378554 0.839381
vt 0.384606 0.839381
vt 0.853286 0.304666
vt 0.847234 0.304666
vt 0.847234 0.200215
vt 0.853286 0.200215
vt 0.342852 0.839381
vt 0.342852 0.943798
vt 0.336800 0.943798
vt 0.336800 0.839381
vt 0.773364 0.370597
vt 0.778235 0.373606
vt 0.778235 0.478058
vt 0.773878 0.480236
vt 0.690344 0.417586
vt 0.690858 0.411881
vt 0.022472 0.567816
vt 0.022472 0.441465
vt 0.028524 0.451261
vt 0.028524 0.555712
vt 0.713946 0.938918
vt 0.707893 0.938918
vt 0.707894 0.812587
vt 0.713946 0.812587
vt 0.240766 0.943764
vt 0.234714 0.943764
vt 0.234714 0.839330
vt 0.240766 0.839330
vt 0.037311 0.118930
vt 0.037865 0.116005
vt 0.038480 0.115950
vt 0.048777 0.117896
vt 0.131296 0.159156
vt 0.139031 0.166225
vt 0.139356 0.166751
vt 0.137348 0.168948
vt 0.755700 0.938918
vt 0.749648 0.938918
vt 0.749648 0.812587
vt 0.755700 0.812587
vt 0.142220 0.165937
vt 0.136167 0.156145
vt 0.136167 0.051710
vt 0.138603 0.041392
vt 0.139784 0.039031
vt 0.142220 0.039606
vt 0.137862 0.037427
vt 0.131810 0.049532
vt 0.048262 0.112192
vt 0.036797 0.113226
vt 0.426360 0.928920
vt 0.420308 0.928920
vt 0.420308 0.836662
vt 0.426360 0.836662
vt 0.199012 0.943764
vt 0.192959 0.943764
vt 0.192959 0.839330
vt 0.199012 0.839330
vt 0.690862 0.100473
vt 0.690348 0.094769
vt 0.773895 0.032109
vt 0.778253 0.034287
vt 0.778253 0.138722
vt 0.773381 0.141733
vt 0.292542 0.113131
vt 0.292028 0.118835
vt 0.191992 0.168853
vt 0.187120 0.165842
vt 0.187120 0.039511
vt 0.191478 0.037332
vt 0.862703 0.867404
vt 0.862703 0.861352
vt 0.867575 0.861352
vt 0.867575 0.867404
vt 0.671796 0.519759
vt 0.671796 0.525811
vt 0.666067 0.525811
vt 0.666067 0.519759
vt 0.587060 0.886066
vt 0.587060 0.880014
vt 0.591932 0.880014
vt 0.591932 0.886066
vt 0.671796 0.561513
vt 0.671796 0.567565
vt 0.666067 0.567565
vt 0.666067 0.561513
vt 0.706885 0.525811
vt 0.706885 0.519759
vt 0.712613 0.519759
vt 0.712613 0.525811
vt 0.768106 0.525811
vt 0.768106 0.519759
vt 0.773832 0.519759
vt 0.773832 0.525811
vt 0.632742 0.859137
vt 0.632742 0.865189
vt 0.627870 0.865189
vt 0.627870 0.859137
vt 0.607656 0.844312
vt 0.607656 0.838260
vt 0.613382 0.838260
vt 0.613382 0.844312
vt 0.587251 0.823435
vt 0.587251 0.817383
vt 0.592977 0.817383
vt 0.592977 0.823435
vt 0.628061 0.844312
vt 0.628061 0.838260
vt 0.633787 0.838260
vt 0.633787 0.844312
vt 0.611101 0.880014
vt 0.611101 0.886066
vt 0.606229 0.886066
vt 0.606229 0.880014
vt 0.824365 0.888281
vt 0.824365 0.882229
vt 0.829237 0.882229
vt 0.829237 0.888281
vt 0.692204 0.561513
vt 0.692204 0.567565
vt 0.686476 0.567565
vt 0.686476 0.561513
vt 0.706885 0.567565
vt 0.706885 0.561513
vt 0.712613 0.561513
vt 0.712613 0.567565
vt 0.773832 0.540636
vt 0.773832 0.546688
vt 0.768106 0.546688
vt 0.768106 0.540636
vt 0.692204 0.519759
vt 0.692204 0.525811
vt 0.686476 0.525811
vt 0.686476 0.519759
vt 0.613382 0.817383
vt 0.613382 0.823435
vt 0.607656 0.823435
vt 0.607656 0.817383
vt 0.810068 0.861352
vt 0.810068 0.867404
vt 0.805196 0.867404
vt 0.805196 0.861352
vt 0.727293 0.525811
vt 0.727293 0.519758
vt 0.733020 0.519758
vt 0.733020 0.525811
vt 0.867575 0.882229
vt 0.867575 0.888281
vt 0.862703 0.888281
vt 0.862703 0.882229
vt 0.727293 0.567565
vt 0.727293 0.561513
vt 0.733020 0.561513
vt 0.733020 0.567565
vt 0.727293 0.588442
vt 0.727293 0.582390
vt 0.733020 0.582390
vt 0.733020 0.588442
vt 0.753427 0.519759
vt 0.753427 0.525811
vt 0.747700 0.525811
vt 0.747700 0.519759
vt 0.886744 0.882229
vt 0.886744 0.888281
vt 0.881872 0.888281
vt 0.881872 0.882229
vt 0.950833 0.570849
vt 0.950833 0.697200
vt 0.944781 0.697200
vt 0.944781 0.570849
s 0
usemtl Материал_железа
f 12/1/1 34/2/1 32/3/1 7/4/1
f 5/5/2 2/6/2 22/7/2 26/8/2
f 18/9/1 43/10/1 41/11/1 13/12/1
f 71/13/3 89/14/3 88/15/3 64/16/3
f 65/17/4 87/18/4 86/19/4 67/20/4
f 50/21/1 73/22/1 78/23/1 52/24/1
f 10/25/4 28/26/4 35/27/4 11/28/4
f 3/29/4 6/30/4 25/31/4 20/32/4
f 15/33/5 16/34/5 17/35/5 18/36/5 13/37/5 14/38/5
f 9/39/5 10/40/5 11/41/5 12/42/5 7/43/5 8/44/5
f 3/45/5 4/46/5 1/47/5 2/48/5 5/49/5 6/50/5
f 14/51/3 40/52/3 38/53/3 15/54/3
f 8/55/3 31/56/3 29/57/3 9/58/3
f 16/59/4 37/60/4 44/61/4 17/62/4
f 34/63/6 36/64/6 51/65/6 50/66/6 52/67/6 54/68/6 33/69/6 32/70/6
f 40/71/6 42/72/6 72/73/6 71/74/6 64/75/6 66/76/6 39/77/6 38/78/6
f 28/79/6 30/80/6 48/81/6 47/82/6 49/83/6 51/65/6 36/64/6 35/84/6
f 27/85/6 26/86/6 22/87/6 24/88/6 63/89/6 62/90/6 58/91/6 60/92/6
f 31/93/6 33/69/6 54/68/6 53/94/6 46/95/6 48/81/6 30/80/6 29/96/6
f 21/97/6 20/98/6 25/99/6 27/85/6 60/92/6 59/100/6 55/101/6 57/102/6
f 43/103/6 45/104/6 69/105/6 68/106/6 70/107/6 72/73/6 42/72/6 41/108/6
f 47/109/4 75/110/4 74/111/4 49/112/4
f 37/113/6 39/77/6 66/76/6 65/114/6 67/115/6 69/105/6 45/104/6 44/116/6
f 81/117/6 82/118/6 79/119/6 80/120/6 83/121/6 84/122/6
f 87/123/6 88/124/6 89/125/6 90/126/6 85/127/6 86/128/6
f 91/129/7 94/130/7 100/131/7 98/132/7
f 55/133/4 59/134/4 79/135/4 82/136/4
f 61/137/8 56/138/8 81/139/8 84/140/8
f 68/141/1 85/142/1 90/143/1 70/144/1
f 53/145/3 77/146/3 76/147/3 46/148/3
f 58/149/2 62/150/2 83/151/2 80/152/2
f 75/153/6 76/154/6 77/155/6 78/156/6 73/157/6 74/158/6
f 24/88/6 23/159/6 19/160/6 21/97/6 57/102/6 56/161/6 61/162/6 63/89/6
f 92/163/9 97/164/9 104/165/9 95/166/9
f 113/167/10 119/168/10 116/169/10 106/170/10
f 100/171/6 102/172/6 108/173/6 107/174/6 109/175/6 111/176/6 99/177/6 98/178/6
f 96/179/10 103/180/10 101/181/10 93/182/10
f 97/183/6 99/177/6 111/176/6 110/184/6 112/185/6 114/186/6 105/187/6 104/188/6
f 103/189/6 105/187/6 114/186/6 113/190/6 106/191/6 108/173/6 102/172/6 101/192/6
f 107/193/7 115/194/7 118/195/7 109/196/7
f 110/197/9 117/198/9 120/199/9 112/200/9
f 115/201/6 116/202/6 119/203/6 120/204/6 117/205/6 118/206/6
f 93/207/5 94/208/5 91/209/5 92/210/5 95/211/5 96/212/5
f 19/160/6 20/98/6 21/97/6
f 22/87/6 23/159/6 24/88/6
f 25/99/6 26/86/6 27/85/6
f 28/79/6 29/96/6 30/80/6
f 31/93/6 32/70/6 33/69/6
f 34/63/6 35/84/6 36/64/6
f 37/113/6 38/78/6 39/77/6
f 40/71/6 41/108/6 42/72/6
f 43/103/6 44/116/6 45/104/6
f 46/95/6 47/82/6 48/81/6
f 49/83/6 50/66/6 51/65/6
f 52/67/6 53/94/6 54/68/6
f 55/101/6 56/161/6 57/102/6
f 58/91/6 59/100/6 60/92/6
f 61/162/6 62/90/6 63/89/6
f 64/75/6 65/114/6 66/76/6
f 67/115/6 68/106/6 69/105/6
f 70/107/6 71/74/6 72/73/6
f 97/183/6 98/178/6 99/177/6
f 100/171/6 101/192/6 102/172/6
f 103/189/6 104/188/6 105/187/6
f 106/191/6 107/174/6 108/173/6
f 109/175/6 110/184/6 111/176/6
f 112/185/6 113/190/6 114/186/6
f 7/213/11 32/214/11 31/215/11 8/216/11
f 34/217/12 12/218/12 11/219/12 35/220/12
f 1/221/13 23/222/13 22/223/13 2/224/13
f 25/225/14 6/226/14 5/227/14 26/228/14
f 17/229/12 44/230/12 43/231/12 18/232/12
f 15/233/15 38/234/15 37/235/15 16/236/15
f 40/237/11 14/238/11 13/239/11 41/240/11
f 9/241/15 29/242/15 28/243/15 10/244/15
f 3/245/16 20/246/16 19/247/16 4/248/16
f 46/249/15 76/250/15 75/251/15 47/252/15
f 77/253/11 53/254/11 52/255/11 78/256/11
f 61/257/13 84/258/13 83/259/13 62/260/13
f 79/261/14 59/262/14 58/263/14 80/264/14
f 67/265/12 86/266/12 85/267/12 68/268/12
f 87/269/15 65/270/15 64/271/15 88/272/15
f 73/273/12 50/274/12 49/275/12 74/276/12
f 81/277/16 56/278/16 55/279/16 82/280/16
f 89/281/11 71/282/11 70/283/11 90/284/11
f 93/285/17 101/286/17 100/287/17 94/288/17
f 103/289/4 96/290/4 95/291/4 104/292/4
f 91/293/18 98/294/18 97/295/18 92/296/18
f 109/297/18 118/298/18 117/299/18 110/300/18
f 115/301/17 107/302/17 106/303/17 116/304/17
f 119/305/4 113/306/4 112/307/4 120/308/4
f 1/309/8 4/310/8 19/311/8 23/312/8
