# Blender 4.2.3 LTS
# www.blender.org
mtllib Sand_U.mtl
o Sand
v 0.507000 0.000000 0.000000
v 0.475300 0.025000 0.000000
v 0.507000 0.025000 0.000000
v 0.475300 0.050000 0.000000
v 0.507000 0.000000 0.485000
v 0.485000 0.000000 0.507000
v 0.485000 0.000000 -0.507000
v 0.507000 0.000000 -0.485000
v -0.490115 0.000000 0.014103
v -0.490115 0.000000 -0.014103
v -0.484999 0.000000 0.000000
v 0.475300 0.025000 0.453300
v 0.453300 0.025000 0.475300
v 0.490856 0.025000 0.490856
v 0.453300 0.025000 -0.475300
v 0.475300 0.025000 -0.453300
v 0.490856 0.025000 -0.490856
v -0.435951 0.025000 0.014103
v -0.435951 0.025000 -0.014103
v -0.479550 0.025000 0.000000
v -0.490115 0.025000 -0.014103
v -0.490115 0.025000 0.014103
v -0.484999 0.025000 0.000000
v 0.485000 0.025000 0.507000
v 0.507000 0.025000 0.485000
v 0.491444 0.025000 0.491444
v 0.507000 0.025000 -0.485000
v 0.485000 0.025000 -0.507000
v 0.491444 0.025000 -0.491444
v 0.453300 0.050000 0.475300
v 0.475300 0.050000 0.453300
v 0.475300 0.050000 -0.453300
v 0.453300 0.050000 -0.475300
v -0.435951 0.050000 -0.014103
v -0.435951 0.050000 0.014103
v -0.411540 0.050000 0.000000
v 0.110752 0.000000 0.507000
v 0.082687 0.000000 0.495231
v 0.082687 0.000000 -0.495231
v 0.110752 0.000000 -0.507000
v 0.126963 0.025000 0.475300
v 0.098987 0.025000 0.463444
v 0.100123 0.025000 0.490811
v 0.098987 0.025000 -0.463444
v 0.126963 0.025000 -0.475300
v 0.100123 0.025000 -0.490811
v 0.082687 0.025000 0.495231
v 0.110752 0.025000 0.507000
v 0.099878 0.025000 0.491489
v 0.110752 0.025000 -0.507000
v 0.082687 0.025000 -0.495231
v 0.099878 0.025000 -0.491489
v 0.098987 0.050000 0.463444
v 0.126963 0.050000 0.475300
v 0.126963 0.050000 -0.475300
v 0.098987 0.050000 -0.463444
vn 1.0000 -0.0000 -0.0000
vn -0.0000 1.0000 -0.0000
vn -0.0000 -0.0000 1.0000
vn -0.0000 -0.0000 -1.0000
vn -0.0000 -1.0000 -0.0000
vn -0.6432 -0.0000 -0.7657
vn -0.6432 -0.0000 0.7657
vn -1.0000 -0.0000 -0.0000
vn 0.7071 -0.0000 -0.7071
vn 0.7071 -0.0000 0.7071
vn -0.3867 -0.0000 -0.9222
vn -0.3867 -0.0000 0.9222
vn -0.3902 -0.0000 -0.9207
vn -0.3902 -0.0000 0.9207
vt 0.469175 0.618397
vt 0.469175 0.751654
vt 0.462306 0.751654
vt 0.462306 0.618397
vt 0.416174 0.119330
vt 0.405856 0.123604
vt 0.316192 0.123604
vt 0.308818 0.119342
vt 0.308750 0.119156
vt 0.311738 0.114894
vt 0.414565 0.114894
vt 0.416336 0.119168
vt 0.603849 0.546864
vt 0.603849 0.636527
vt 0.596980 0.636527
vt 0.596980 0.546864
vt 0.257445 0.877425
vt 0.249758 0.874168
vt 0.102780 0.750708
vt 0.109487 0.746833
vt 0.353153 0.746833
vt 0.353153 0.871381
vt 0.347108 0.877425
vt 0.308506 0.126861
vt 0.161527 0.250321
vt 0.149548 0.254196
vt 0.148051 0.254196
vt 0.146645 0.250321
vt 0.304027 0.118128
vt 0.570180 0.552188
vt 0.570180 0.655016
vt 0.563311 0.655016
vt 0.563311 0.552188
vt 0.731877 0.390265
vt 0.724166 0.393498
vt 0.621339 0.393498
vt 0.615294 0.387454
vt 0.615294 0.254196
vt 0.887853 0.254196
vt 0.889259 0.258071
vt 0.469175 0.884912
vt 0.462306 0.884912
vt 0.502844 0.593731
vt 0.502844 0.799265
vt 0.495975 0.799265
vt 0.495975 0.593731
vt 0.519678 0.593731
vt 0.519678 0.799265
vt 0.512809 0.799265
vt 0.512809 0.593731
vt 0.161527 0.258071
vt 0.308506 0.381531
vt 0.308818 0.389050
vt 0.308750 0.389236
vt 0.304027 0.390265
vt 0.146645 0.258071
vt 0.486009 0.611351
vt 0.486009 0.735898
vt 0.479140 0.735898
vt 0.479140 0.611351
vt 0.102780 0.742958
vt 0.249758 0.619498
vt 0.257445 0.616241
vt 0.347108 0.616241
vt 0.353153 0.622285
vt 0.486009 0.860446
vt 0.479140 0.860446
vt 0.316192 0.384788
vt 0.405856 0.384788
vt 0.416174 0.389063
vt 0.416336 0.389224
vt 0.414565 0.393498
vt 0.311738 0.393498
vt 0.411900 0.378744
vt 0.411900 0.254196
vt 0.420610 0.254196
vt 0.420610 0.387454
vt 0.620683 0.546864
vt 0.620683 0.636527
vt 0.613814 0.636527
vt 0.613814 0.546864
vt 0.411900 0.129649
vt 0.420610 0.120939
vt 0.536512 0.588237
vt 0.536512 0.780187
vt 0.529643 0.780187
vt 0.529643 0.588237
vt 0.553346 0.588237
vt 0.553346 0.780187
vt 0.546477 0.780187
vt 0.546477 0.588237
vt 0.889259 0.250321
vt 0.765322 0.513731
vt 0.772191 0.513731
vt 0.772191 0.521481
vt 0.765322 0.521481
vt 0.789025 0.521481
vt 0.782156 0.521481
vt 0.782156 0.513731
vt 0.789025 0.513731
vt 0.637517 0.522603
vt 0.630648 0.522603
vt 0.630648 0.514054
vt 0.637517 0.514054
vt 0.647482 0.514054
vt 0.654351 0.514054
vt 0.654351 0.522603
vt 0.647482 0.522603
vt 0.671185 0.522603
vt 0.664316 0.522603
vt 0.664316 0.514054
vt 0.671185 0.514054
vt 0.681151 0.514054
vt 0.688020 0.514054
vt 0.688020 0.522603
vt 0.681151 0.522603
vt 0.615294 0.120939
vt 0.621339 0.114894
vt 0.724166 0.114894
vt 0.731877 0.118128
vt 0.697985 0.513979
vt 0.704854 0.513979
vt 0.704854 0.522340
vt 0.697985 0.522340
vt 0.721688 0.522340
vt 0.714819 0.522340
vt 0.714819 0.513979
vt 0.721688 0.513979
vt 0.748487 0.513973
vt 0.755356 0.513973
vt 0.755356 0.522322
vt 0.748487 0.522322
vt 0.738522 0.522322
vt 0.731653 0.522322
vt 0.731653 0.513973
vt 0.738522 0.513973
vt 0.587014 0.552188
vt 0.587014 0.655016
vt 0.580146 0.655016
vt 0.580146 0.552188
s 0
usemtl Материал_песка
f 5/1/1 1/2/1 3/3/1 25/4/1
f 14/5/2 13/6/2 41/7/2 43/8/2 49/9/2 48/10/2 24/11/2 26/12/2
f 41/13/3 13/14/3 30/15/3 54/16/3
f 55/17/2 56/18/2 34/19/2 36/20/2 4/21/2 32/22/2 33/23/2
f 43/8/2 42/24/2 18/25/2 20/26/2 23/27/2 22/28/2 47/29/2 49/9/2
f 7/30/4 40/31/4 50/32/4 28/33/4
f 39/34/5 40/35/5 7/36/5 8/37/5 1/38/5 11/39/5 10/40/5
f 1/2/1 8/41/1 27/42/1 3/3/1
f 39/43/6 10/44/6 21/45/6 51/46/6
f 9/47/7 38/48/7 47/49/7 22/50/7
f 20/26/2 19/51/2 44/52/2 46/53/2 52/54/2 51/55/2 21/56/2 23/27/2
f 12/57/1 2/58/1 4/59/1 31/60/1
f 36/20/2 35/61/2 53/62/2 54/63/2 30/64/2 31/65/2 4/21/2
f 2/58/1 16/66/1 32/67/1 4/59/1
f 46/53/2 45/68/2 15/69/2 17/70/2 29/71/2 28/72/2 50/73/2 52/54/2
f 17/70/2 16/74/2 2/75/2 3/76/2 27/77/2 29/71/2
f 15/78/4 45/79/4 55/80/4 33/81/4
f 2/75/2 12/82/2 14/5/2 26/12/2 25/83/2 3/76/2
f 44/84/6 19/85/6 34/86/6 56/87/6
f 18/88/7 42/89/7 53/90/7 35/91/7
f 9/92/5 10/40/5 11/39/5
f 12/82/2 13/6/2 14/5/2
f 15/69/2 16/74/2 17/70/2
f 18/25/2 19/51/2 20/26/2
f 21/56/2 22/28/2 23/27/2
f 24/11/2 25/83/2 26/12/2
f 27/77/2 28/72/2 29/71/2
f 34/19/2 35/61/2 36/20/2
f 18/93/8 35/94/8 34/95/8 19/96/8
f 9/97/8 22/98/8 21/99/8 10/100/8
f 7/101/9 28/102/9 27/103/9 8/104/9
f 24/105/10 6/106/10 5/107/10 25/108/10
f 15/109/9 33/110/9 32/111/9 16/112/9
f 30/113/10 13/114/10 12/115/10 31/116/10
f 9/92/5 11/39/5 1/38/5 5/117/5 6/118/5 37/119/5 38/120/5
f 41/7/2 42/24/2 43/8/2
f 44/52/2 45/68/2 46/53/2
f 47/29/2 48/10/2 49/9/2
f 50/73/2 51/55/2 52/54/2
f 50/121/11 40/122/11 39/123/11 51/124/11
f 37/125/12 48/126/12 47/127/12 38/128/12
f 55/129/13 45/130/13 44/131/13 56/132/13
f 41/133/14 54/134/14 53/135/14 42/136/14
f 37/137/3 6/138/3 24/139/3 48/140/3
