# Blender 4.2.3 LTS
# www.blender.org
mtllib Separation_barrier_U.mtl
o Separation_barrier
v 0.670320 -0.000729 0.422500
v 0.670320 0.209271 0.422500
v 0.670320 -0.000729 0.377500
v 0.670320 0.209271 0.377500
v 0.715320 -0.000729 0.422500
v 0.715320 0.209271 0.422500
v 0.715320 -0.000729 0.377500
v 0.715320 0.209271 0.377500
v -0.022500 -0.000721 0.822500
v -0.022500 0.209279 0.822500
v -0.022500 -0.000721 0.777500
v -0.022500 0.209279 0.777500
v 0.022500 -0.000721 0.822500
v 0.022500 0.209279 0.822500
v 0.022500 -0.000721 0.777500
v 0.022500 0.209279 0.777500
v -0.715321 -0.000721 0.422500
v -0.715321 0.209279 0.422500
v -0.715321 -0.000721 0.377500
v -0.715321 0.209279 0.377500
v -0.670321 -0.000721 0.422500
v -0.670321 0.209279 0.422500
v -0.670321 -0.000721 0.377500
v -0.670321 0.209279 0.377500
v 0.670320 -0.000721 -0.422500
v 0.670320 0.209279 -0.422500
v 0.670320 -0.000721 -0.377500
v 0.670320 0.209279 -0.377500
v 0.715320 -0.000721 -0.422500
v 0.715320 0.209279 -0.422500
v 0.715320 -0.000721 -0.377500
v 0.715320 0.209279 -0.377500
v -0.022500 -0.000721 -0.822500
v -0.022500 0.209279 -0.822500
v -0.022500 -0.000721 -0.777500
v -0.022500 0.209279 -0.777500
v 0.022500 -0.000721 -0.822500
v 0.022500 0.209279 -0.822500
v 0.022500 -0.000721 -0.777500
v 0.022500 0.209279 -0.777500
v -0.715321 -0.000721 -0.422500
v -0.715321 0.209279 -0.422500
v -0.715321 -0.000721 -0.377500
v -0.715321 0.209279 -0.377500
v -0.670321 -0.000721 -0.422500
v -0.670321 0.209279 -0.422500
v -0.670321 -0.000721 -0.377500
v -0.670321 0.209279 -0.377500
v -0.022500 0.131786 0.822500
v -0.022500 0.166786 0.822500
v -0.022500 0.166786 0.777500
v -0.022500 0.131786 0.777500
v 0.022500 0.166786 0.777500
v 0.022500 0.131786 0.777500
v 0.022500 0.166786 0.822500
v 0.022500 0.131786 0.822500
v -0.715321 0.131786 0.422500
v -0.715321 0.166786 0.422500
v -0.715321 0.166786 0.377500
v -0.715321 0.131786 0.377500
v -0.670321 0.166786 0.377500
v -0.670321 0.131786 0.377500
v -0.670321 0.166786 0.422500
v -0.670321 0.131786 0.422500
v -0.715321 0.131786 -0.422500
v -0.715321 0.166786 -0.422500
v -0.715321 0.166786 -0.377500
v -0.715321 0.131786 -0.377500
v -0.670321 0.166786 -0.377500
v -0.670321 0.131786 -0.377500
v -0.670321 0.166786 -0.422500
v -0.670321 0.131786 -0.422500
v -0.022500 0.131786 -0.822500
v -0.022500 0.166786 -0.822500
v -0.022500 0.166786 -0.777500
v -0.022500 0.131786 -0.777500
v 0.022500 0.166786 -0.777500
v 0.022500 0.131786 -0.777500
v 0.022500 0.166786 -0.822500
v 0.022500 0.131786 -0.822500
v 0.670320 0.131786 -0.422500
v 0.670320 0.166786 -0.422500
v 0.670320 0.166786 -0.377500
v 0.670320 0.131786 -0.377500
v 0.715320 0.166786 -0.377500
v 0.715320 0.131786 -0.377500
v 0.715320 0.166786 -0.422500
v 0.715320 0.131786 -0.422500
v 0.670320 0.131820 0.422500
v 0.670320 0.166820 0.422500
v 0.670320 0.166820 0.377500
v 0.670320 0.131820 0.377500
v 0.715320 0.166820 0.377500
v 0.715320 0.131820 0.377500
v 0.715320 0.166820 0.422500
v 0.715320 0.131820 0.422500
vn -1.0000 -0.0000 -0.0000
vn -0.0000 -0.0000 -1.0000
vn 1.0000 -0.0000 -0.0000
vn -0.0000 -0.0000 1.0000
vn -0.0000 -1.0000 -0.0000
vn -0.0000 1.0000 -0.0000
vt 0.932426 0.166667
vt 0.981460 0.166667
vt 0.981460 0.218644
vt 0.932426 0.218644
vt 0.981460 0.270622
vt 0.932426 0.270622
vt 0.932426 0.062712
vt 0.981460 0.062712
vt 0.981460 0.114689
vt 0.932426 0.114689
vt 0.324960 0.775685
vt 0.376937 0.775685
vt 0.376937 0.827663
vt 0.324960 0.827663
vt 0.414965 0.775685
vt 0.466942 0.775685
vt 0.466942 0.827663
vt 0.414965 0.827663
vt 0.761467 0.166667
vt 0.810549 0.166667
vt 0.810549 0.218644
vt 0.761467 0.218644
vt 0.810549 0.270622
vt 0.761467 0.270622
vt 0.761467 0.062712
vt 0.810549 0.062712
vt 0.810549 0.114689
vt 0.761467 0.114689
vt 0.286932 0.685680
vt 0.286932 0.737658
vt 0.234955 0.737658
vt 0.234955 0.685680
vt 0.286932 0.775685
vt 0.286932 0.827663
vt 0.234955 0.827663
vt 0.234955 0.775685
vt 0.932366 0.500000
vt 0.981448 0.500000
vt 0.981448 0.551977
vt 0.932366 0.551977
vt 0.981448 0.603955
vt 0.932366 0.603955
vt 0.932366 0.396045
vt 0.981448 0.396045
vt 0.981448 0.448023
vt 0.932366 0.448023
vt 0.414965 0.865690
vt 0.466942 0.865690
vt 0.466942 0.917668
vt 0.414965 0.917668
vt 0.847691 0.775686
vt 0.899668 0.775686
vt 0.899668 0.827663
vt 0.847691 0.827663
vt 0.810475 0.448023
vt 0.810475 0.500000
vt 0.761393 0.500000
vt 0.761393 0.448023
vt 0.810475 0.551978
vt 0.761393 0.551978
vt 0.810475 0.603955
vt 0.761393 0.603955
vt 0.810475 0.396045
vt 0.761393 0.396045
vt 0.324960 0.737658
vt 0.324960 0.685680
vt 0.376937 0.685680
vt 0.376937 0.737658
vt 0.414965 0.737658
vt 0.414965 0.685680
vt 0.466942 0.685680
vt 0.466942 0.737658
vt 0.895961 0.448023
vt 0.895961 0.500000
vt 0.846879 0.500000
vt 0.846879 0.448023
vt 0.895961 0.551978
vt 0.846879 0.551978
vt 0.895961 0.603955
vt 0.846879 0.603955
vt 0.895961 0.396045
vt 0.846879 0.396045
vt 0.234955 0.865690
vt 0.286932 0.865690
vt 0.286932 0.917668
vt 0.234955 0.917668
vt 0.376937 0.865690
vt 0.376937 0.917668
vt 0.324960 0.917668
vt 0.324960 0.865690
vt 0.896035 0.114689
vt 0.896035 0.166667
vt 0.846953 0.166667
vt 0.846953 0.114689
vt 0.896035 0.218644
vt 0.846953 0.218644
vt 0.896035 0.270621
vt 0.846953 0.270621
vt 0.896035 0.062712
vt 0.846953 0.062712
vt 0.847691 0.917668
vt 0.847691 0.865691
vt 0.899668 0.865691
vt 0.899668 0.917668
vt 0.847691 0.737659
vt 0.847691 0.685681
vt 0.899668 0.685681
vt 0.899668 0.737659
vt 0.200391 0.551978
vt 0.047339 0.551977
vt 0.047339 0.500000
vt 0.200391 0.500000
vt 0.015777 0.781356
vt 0.056204 0.781356
vt 0.056204 0.833333
vt 0.015777 0.833333
vt 0.200391 0.603955
vt 0.047339 0.603955
vt 0.015777 0.729378
vt 0.056204 0.729378
vt 0.200391 0.448023
vt 0.047339 0.448023
vt 0.047339 0.396045
vt 0.200391 0.396045
vt 0.015777 0.885311
vt 0.056204 0.885311
vt 0.056204 0.937288
vt 0.015777 0.937288
vt 0.695926 0.218644
vt 0.542874 0.218644
vt 0.542874 0.166666
vt 0.695926 0.166667
vt 0.087757 0.781356
vt 0.128184 0.781356
vt 0.128184 0.833333
vt 0.087757 0.833333
vt 0.695926 0.270621
vt 0.542874 0.270621
vt 0.087757 0.729378
vt 0.128184 0.729378
vt 0.695926 0.114689
vt 0.542874 0.114689
vt 0.542874 0.062712
vt 0.695926 0.062712
vt 0.087757 0.885311
vt 0.128184 0.885311
vt 0.128184 0.937288
vt 0.087757 0.937288
vt 0.542799 0.603955
vt 0.542799 0.551977
vt 0.695852 0.551977
vt 0.695852 0.603955
vt 0.159738 0.937288
vt 0.159738 0.885311
vt 0.200165 0.885311
vt 0.200165 0.937288
vt 0.542799 0.448023
vt 0.542799 0.396045
vt 0.695852 0.396045
vt 0.695852 0.448023
vt 0.159738 0.781356
vt 0.159738 0.729378
vt 0.200165 0.729378
vt 0.200165 0.781356
vt 0.542799 0.500000
vt 0.695852 0.500000
vt 0.159738 0.833333
vt 0.200165 0.833333
vt 0.448196 0.062712
vt 0.448196 0.114689
vt 0.295144 0.114689
vt 0.295144 0.062712
vt 0.583453 0.729378
vt 0.583453 0.781356
vt 0.543026 0.781356
vt 0.543026 0.729378
vt 0.448196 0.218644
vt 0.448196 0.270622
vt 0.295144 0.270621
vt 0.295144 0.218644
vt 0.583453 0.885310
vt 0.583453 0.937288
vt 0.543026 0.937288
vt 0.543026 0.885310
vt 0.448196 0.166667
vt 0.295144 0.166667
vt 0.583453 0.833333
vt 0.543026 0.833333
vt 0.295069 0.603955
vt 0.295069 0.551978
vt 0.448122 0.551978
vt 0.448122 0.603955
vt 0.615007 0.937288
vt 0.615006 0.885310
vt 0.655433 0.885310
vt 0.655433 0.937288
vt 0.295069 0.448023
vt 0.295069 0.396045
vt 0.448122 0.396045
vt 0.448122 0.448023
vt 0.615006 0.781356
vt 0.615006 0.729378
vt 0.655433 0.729378
vt 0.655433 0.781356
vt 0.295069 0.500000
vt 0.448122 0.500000
vt 0.615006 0.833333
vt 0.655433 0.833333
vt 0.047352 0.114689
vt 0.200453 0.114689
vt 0.200453 0.166667
vt 0.047352 0.166667
vt 0.727414 0.885311
vt 0.686987 0.885311
vt 0.686987 0.833333
vt 0.727414 0.833333
vt 0.047352 0.062712
vt 0.200453 0.062712
vt 0.727414 0.937288
vt 0.686987 0.937288
vt 0.047352 0.218644
vt 0.200453 0.218644
vt 0.200453 0.270622
vt 0.047352 0.270622
vt 0.727414 0.781356
vt 0.686987 0.781356
vt 0.686987 0.729378
vt 0.727414 0.729378
s 0
usemtl Материал_столбов
f 90/1/1 2/2/1 4/3/1 91/4/1
f 91/4/2 4/3/2 8/5/2 93/6/2
f 93/7/3 8/8/3 6/9/3 95/10/3
f 95/10/4 6/9/4 2/2/4 90/1/4
f 3/11/5 7/12/5 5/13/5 1/14/5
f 8/15/6 4/16/6 2/17/6 6/18/6
f 50/19/1 10/20/1 12/21/1 51/22/1
f 51/22/2 12/21/2 16/23/2 53/24/2
f 53/25/3 16/26/3 14/27/3 55/28/3
f 55/28/4 14/27/4 10/20/4 50/19/4
f 11/29/5 15/30/5 13/31/5 9/32/5
f 16/33/6 12/34/6 10/35/6 14/36/6
f 58/37/1 18/38/1 20/39/1 59/40/1
f 59/40/2 20/39/2 24/41/2 61/42/2
f 61/43/3 24/44/3 22/45/3 63/46/3
f 63/46/4 22/45/4 18/38/4 58/37/4
f 19/47/5 23/48/5 21/49/5 17/50/5
f 24/51/6 20/52/6 18/53/6 22/54/6
f 82/55/1 83/56/1 28/57/1 26/58/1
f 83/56/4 85/59/4 32/60/4 28/57/4
f 85/59/3 87/61/3 30/62/3 32/60/3
f 87/63/2 82/55/2 26/58/2 30/64/2
f 27/65/5 25/66/5 29/67/5 31/68/5
f 32/69/6 30/70/6 26/71/6 28/72/6
f 74/73/1 75/74/1 36/75/1 34/76/1
f 75/74/4 77/77/4 40/78/4 36/75/4
f 77/77/3 79/79/3 38/80/3 40/78/3
f 79/81/2 74/73/2 34/76/2 38/82/2
f 35/83/5 33/84/5 37/85/5 39/86/5
f 40/87/6 38/88/6 34/89/6 36/90/6
f 66/91/1 67/92/1 44/93/1 42/94/1
f 67/92/4 69/95/4 48/96/4 44/93/4
f 69/95/3 71/97/3 46/98/3 48/96/3
f 71/99/2 66/91/2 42/94/2 46/100/2
f 43/101/5 41/102/5 45/103/5 47/104/5
f 48/105/6 46/106/6 42/107/6 44/108/6
f 13/109/4 56/110/4 49/111/4 9/112/4
f 56/113/4 55/114/4 50/115/4 49/116/4
f 15/117/3 54/118/3 56/110/3 13/109/3
f 54/119/3 53/120/3 55/114/3 56/113/3
f 11/121/2 52/122/2 54/123/2 15/124/2
f 52/125/2 51/126/2 53/127/2 54/128/2
f 9/112/1 49/111/1 52/122/1 11/121/1
f 49/116/1 50/115/1 51/126/1 52/125/1
f 21/129/4 64/130/4 57/131/4 17/132/4
f 64/133/4 63/134/4 58/135/4 57/136/4
f 23/137/3 62/138/3 64/130/3 21/129/3
f 62/139/3 61/140/3 63/134/3 64/133/3
f 19/141/2 60/142/2 62/143/2 23/144/2
f 60/145/2 59/146/2 61/147/2 62/148/2
f 17/132/1 57/131/1 60/142/1 19/141/1
f 57/136/1 58/135/1 59/146/1 60/145/1
f 45/149/2 41/150/2 65/151/2 72/152/2
f 72/153/2 65/154/2 66/155/2 71/156/2
f 47/157/3 45/158/3 72/159/3 70/160/3
f 70/161/3 72/162/3 71/163/3 69/164/3
f 43/165/4 47/157/4 70/160/4 68/166/4
f 68/167/4 70/161/4 69/164/4 67/168/4
f 41/150/1 43/165/1 68/166/1 65/151/1
f 65/154/1 68/167/1 67/168/1 66/155/1
f 37/169/2 33/170/2 73/171/2 80/172/2
f 80/173/2 73/174/2 74/175/2 79/176/2
f 39/177/3 37/178/3 80/179/3 78/180/3
f 78/181/3 80/182/3 79/183/3 77/184/3
f 35/185/4 39/177/4 78/180/4 76/186/4
f 76/187/4 78/181/4 77/184/4 75/188/4
f 33/170/1 35/185/1 76/186/1 73/171/1
f 73/174/1 76/187/1 75/188/1 74/175/1
f 29/189/2 25/190/2 81/191/2 88/192/2
f 88/193/2 81/194/2 82/195/2 87/196/2
f 31/197/3 29/198/3 88/199/3 86/200/3
f 86/201/3 88/202/3 87/203/3 85/204/3
f 27/205/4 31/197/4 86/200/4 84/206/4
f 84/207/4 86/201/4 85/204/4 83/208/4
f 25/190/1 27/205/1 84/206/1 81/191/1
f 81/194/1 84/207/1 83/208/1 82/195/1
f 5/209/4 96/210/4 89/211/4 1/212/4
f 96/213/4 95/214/4 90/215/4 89/216/4
f 7/217/3 94/218/3 96/210/3 5/209/3
f 94/219/3 93/220/3 95/214/3 96/213/3
f 3/221/2 92/222/2 94/223/2 7/224/2
f 92/225/2 91/226/2 93/227/2 94/228/2
f 1/212/1 89/211/1 92/222/1 3/221/1
f 89/216/1 90/215/1 91/226/1 92/225/1
