# Blender 4.2.3 LTS
# www.blender.org
mtllib Diamond_mine.mtl
o Diamond_mine
v -0.420000 0.000000 0.500000
v 0.080000 0.000000 0.500000
v -0.420000 0.000000 -0.500000
v 0.080000 0.000000 -0.500000
v 0.080000 0.000000 -0.375000
v -0.244760 0.000000 -0.187500
v -0.244760 0.000000 0.187500
v 0.080000 0.000000 0.375000
v 0.404759 0.000000 0.187500
v 0.404759 0.000000 -0.187500
v 0.080000 0.000000 -0.225000
v -0.114856 0.000000 -0.112500
v -0.114856 0.000000 0.112500
v 0.080000 0.000000 0.225000
v 0.274856 0.000000 0.112500
v 0.274856 0.000000 -0.112500
v -0.420000 0.300000 0.500000
v -0.420000 0.300000 -0.500000
v 0.080000 0.600000 0.000000
v -0.395000 0.900000 -0.475000
v 0.080000 0.300000 -0.225000
v -0.114856 0.300000 -0.112500
v -0.114856 0.300000 0.112500
v 0.080000 0.300000 0.225000
v 0.274856 0.300000 0.112500
v 0.274856 0.300000 -0.112500
v -0.420000 0.600000 0.500000
v 0.080000 0.600000 0.500000
v -0.420000 0.600000 -0.500000
v 0.080000 0.600000 -0.500000
v 0.080000 0.600000 -0.375000
v 0.080000 0.600000 0.375000
v 0.404759 0.600000 0.187500
v 0.404759 0.600000 -0.187500
v 0.080000 0.600000 -0.225000
v -0.114856 0.600000 -0.112500
v -0.114856 0.600000 0.112500
v 0.080000 0.600000 0.225000
v 0.274856 0.600000 0.112500
v 0.274856 0.600000 -0.112500
v -0.395000 0.900000 0.475000
v 0.055000 0.900000 0.475000
v -0.244760 0.900000 0.187500
v 0.055000 0.900000 -0.475000
v -0.244760 0.900000 -0.187500
v 0.055000 0.900000 -0.375000
v 0.055000 0.900000 0.375000
v -0.114856 0.900000 -0.112500
v 0.055000 0.900000 -0.225000
v -0.114856 0.900000 0.112500
v 0.055000 0.900000 0.225000
v 0.055000 0.900000 0.000000
v 0.080000 0.295000 0.500000
v 0.080000 0.305000 0.500000
v 0.075000 0.300000 0.500000
v 0.080000 0.305000 -0.500000
v 0.080000 0.295000 -0.500000
v 0.075000 0.300000 -0.500000
v 0.080000 0.295000 -0.375000
v 0.080000 0.305000 -0.375000
v 0.080000 0.305000 0.375000
v 0.080000 0.295000 0.375000
v 0.404759 0.295000 0.187500
v 0.404759 0.305000 0.187500
v 0.404759 0.295000 -0.187500
v 0.404759 0.305000 -0.187500
v -0.420000 0.900000 -0.500000
v -0.420000 0.900000 0.500000
v 0.080000 0.900000 0.500000
v 0.080000 0.900000 -0.500000
v 0.080000 0.900000 0.375000
v 0.080000 0.900000 -0.375000
v 0.080000 0.900000 -0.225000
v 0.080000 0.900000 0.225000
v 0.080000 0.900000 0.000000
v -0.420000 0.930000 -0.500000
v -0.420000 0.930000 0.500000
v 0.080000 0.930000 0.500000
v 0.080000 0.930000 -0.500000
v 0.080000 0.930000 0.375000
v 0.080000 0.930000 -0.375000
v 0.080000 0.930000 -0.225000
v 0.080000 0.930000 0.225000
v 0.080000 0.930000 0.000000
v -0.395000 0.930000 -0.475000
v -0.395000 0.930000 0.475000
v 0.055000 0.930000 0.475000
v 0.055000 0.930000 -0.475000
v 0.055000 0.930000 0.375000
v 0.055000 0.930000 -0.375000
v 0.055000 0.930000 -0.225000
v 0.055000 0.930000 0.225000
v 0.055000 0.930000 0.000000
v 0.339808 0.650000 -0.150000
v 0.080000 0.650000 -0.300000
v 0.080000 0.650000 0.300000
v 0.339808 0.650000 0.150000
v 0.080000 0.900000 -0.300000
v 0.080000 0.900000 0.300000
v -0.179808 0.900000 0.150000
v -0.179808 0.900000 -0.150000
v 0.055000 0.900000 -0.300000
v 0.055000 0.900000 0.300000
v 0.080000 0.930000 -0.300000
v 0.080000 0.930000 0.300000
v 0.055000 0.930000 -0.300000
v 0.055000 0.930000 0.300000
v 0.418834 0.305000 0.194219
v 0.080000 0.305000 0.388437
v 0.080000 0.295000 0.388437
v 0.418834 0.295000 0.194219
v 0.418834 0.305000 -0.194219
v 0.418834 0.295000 -0.194219
v 0.080000 0.305000 -0.388437
v 0.080000 0.295000 -0.388437
v 0.180000 0.000000 -0.108000
v 0.086470 0.000000 -0.054000
v 0.086470 0.000000 0.054000
v 0.180000 0.000000 0.108000
v 0.273531 0.000000 0.054000
v 0.273531 0.000000 -0.054000
v 0.180000 1.178955 -0.087480
v 0.104240 1.178955 -0.043740
v 0.104240 1.178955 0.043740
v 0.180000 1.178955 0.087480
v 0.255760 1.178955 0.043740
v 0.255760 1.178955 -0.043740
v 0.180000 1.178955 -0.096228
v 0.096664 1.178955 -0.048114
v 0.096664 1.178955 0.048114
v 0.180000 1.178955 0.096228
v 0.263336 1.178955 0.048114
v 0.263336 1.178955 -0.048114
v 0.180000 1.208955 -0.096228
v 0.096664 1.208955 -0.048114
v 0.096664 1.208955 0.048114
v 0.180000 1.208955 0.096228
v 0.263336 1.208955 0.048114
v 0.263336 1.208955 -0.048114
v 0.180000 1.208955 -0.076983
v 0.113331 1.208955 -0.038491
v 0.113331 1.208955 0.038491
v 0.180000 1.208955 0.076982
v 0.246669 1.208955 0.038491
v 0.246669 1.208955 -0.038491
v 0.180000 1.349340 -0.076983
v 0.113331 1.349340 -0.038491
v 0.113331 1.349340 0.038491
v 0.180000 1.349340 0.076982
v 0.246669 1.349340 0.038491
v 0.246669 1.349340 -0.038491
v 0.180000 1.349340 -0.059157
v 0.128769 1.349340 -0.029578
v 0.128769 1.349340 0.029578
v 0.180000 1.349340 0.059156
v 0.231231 1.349340 0.029578
v 0.231231 1.349340 -0.029578
v 0.180000 0.839694 -0.059157
v 0.128769 0.839694 -0.029578
v 0.128769 0.839694 0.029578
v 0.180000 0.839694 0.059156
v 0.231231 0.839694 0.029578
v 0.231231 0.839694 -0.029578
vn -0.0000 -1.0000 -0.0000
vn 0.5000 -0.0000 0.8660
vn -0.5000 -0.0000 -0.8660
vn 1.0000 -0.0000 -0.0000
vn -0.0000 -0.0000 1.0000
vn 0.5000 -0.0000 -0.8660
vn -1.0000 -0.0000 -0.0000
vn -0.0000 -0.0000 -1.0000
vn -0.5000 -0.0000 0.8660
vn -0.3050 0.7924 0.5283
vn -0.3050 0.7924 -0.5283
vn -0.6100 0.7924 -0.0000
vn -0.0000 1.0000 -0.0000
vn 0.6100 0.7924 -0.0000
vn 0.3050 0.7924 0.5283
vn 0.3050 0.7924 -0.5283
vn 0.4973 -0.0000 -0.8676
vn 0.4973 -0.0000 0.8676
vn 0.9999 0.0151 -0.0000
vn -0.4999 0.0151 0.8659
vn -0.4999 0.0151 -0.8659
vn 0.4999 0.0151 -0.8659
vn 0.4999 0.0151 0.8659
vn -0.9999 0.0151 -0.0000
vt 0.102155 0.314556
vt 0.259433 0.314556
vt 0.204310 0.412854
vt 0.102155 0.353875
vt 0.102155 0.629111
vt 0.102155 0.589792
vt 0.204310 0.530812
vt 0.259433 0.629111
vt -0.000000 0.530812
vt 0.040862 0.507221
vt 0.102155 0.542608
vt -0.000000 0.412854
vt 0.102155 0.401058
vt 0.040862 0.436446
vt 0.163448 0.507221
vt 0.163448 0.436446
vt 0.197541 0.747069
vt 0.104747 0.747069
vt 0.104747 0.629111
vt 0.197541 0.629111
vt 0.487485 0.701459
vt 0.487485 0.607092
vt 0.558260 0.607092
vt 0.558260 0.701459
vt 0.196597 -0.000000
vt 0.196597 0.039319
vt 0.103803 0.039319
vt 0.103803 -0.000000
vt 0.416710 0.514298
vt 0.416710 0.511153
vt 0.418283 0.512726
vt 0.416710 0.701459
vt 0.416710 0.607092
vt 0.487485 0.607092
vt 0.490707 -0.000000
vt 0.490707 0.314556
vt 0.396340 0.314555
vt 0.396340 -0.000000
vt 0.197541 0.865028
vt 0.104747 0.865028
vt 0.104747 0.747069
vt 0.197541 0.747069
vt 0.629035 0.701459
vt 0.558260 0.607092
vt 0.629035 0.607092
vt 0.629035 0.701459
vt 0.629035 0.607092
vt 0.699810 0.607092
vt 0.699810 0.701459
vt 0.573988 0.512726
vt 0.416710 0.418359
vt 0.573988 0.418359
vt 0.487485 0.795825
vt 0.558260 0.795825
vt 0.290335 0.747069
vt 0.197541 0.629111
vt 0.290335 0.629111
vt 0.699810 0.795825
vt 0.699810 0.701459
vt 0.770585 0.701459
vt 0.770585 0.795825
vt 0.731266 0.418359
vt 0.731266 0.511153
vt 0.729693 0.512726
vt 0.196597 0.314556
vt 0.103803 0.314556
vt 0.103803 0.275236
vt 0.196597 0.275236
vt 0.000000 0.817844
vt 0.000000 0.723478
vt 0.070775 0.723478
vt 0.070775 0.817844
vt 0.573988 0.607092
vt 0.731266 0.514298
vt 0.731266 0.607092
vt 0.629035 0.795825
vt 0.699810 0.795825
vt 0.629035 0.795825
vt 0.383129 0.865028
vt 0.290335 0.865028
vt 0.290335 0.747069
vt 0.383129 0.747069
vt 0.585073 -0.000000
vt 0.585073 0.314556
vt 0.416710 0.795825
vt 0.290335 0.865028
vt 0.197541 0.865028
vt 0.197541 0.747069
vt 0.290335 0.747069
vt 0.301973 0.314555
vt 0.301973 -0.000000
vt 0.009437 0.039319
vt 0.009437 -0.000000
vt 0.088076 0.251644
vt 0.009437 0.251644
vt 0.009437 0.228053
vt 0.103803 0.228053
vt 0.383129 0.747069
vt 0.408912 0.758865
vt 0.408912 0.829640
vt 0.383129 0.841436
vt 0.837892 0.210542
vt 0.863676 0.222337
vt 0.863676 0.293112
vt 0.837892 0.304908
vt 0.573988 0.323992
vt 0.731266 0.323992
vt 0.469138 0.795826
vt 0.494921 0.807621
vt 0.494921 0.878396
vt 0.469138 0.890192
vt 0.009437 0.157278
vt 0.103803 0.157278
vt 0.103803 0.086503
vt 0.009437 0.086503
vt 0.699810 0.607092
vt 0.770585 0.607092
vt 0.292537 0.000000
vt 0.292537 0.039319
vt 0.199743 0.039319
vt 0.199743 -0.000000
vt 0.292537 0.314556
vt 0.199743 0.314556
vt 0.199743 0.275236
vt 0.292537 0.275236
vt 0.000000 0.629111
vt 0.070775 0.629111
vt 0.383129 0.747069
vt 0.383129 0.629111
vt 0.416710 0.323992
vt 0.009437 0.314555
vt 0.009437 0.275236
vt 0.088076 0.062911
vt 0.009437 0.062911
vt 0.726623 0.000000
vt 0.726623 0.031456
vt 0.632332 0.090435
vt 0.585073 0.000000
vt 0.726623 0.298828
vt 0.585073 0.298828
vt 0.632332 0.208393
vt 0.726623 0.267372
vt 0.652763 0.196597
vt 0.652763 0.102231
vt 0.673194 0.114026
vt 0.673194 0.184801
vt 0.726623 0.055047
vt 0.726623 0.078639
vt 0.726623 0.220189
vt 0.726623 0.243781
vt 0.726623 0.149414
vt 0.416710 0.607092
vt 0.833421 0.495720
vt 0.833421 0.377761
vt 0.837848 0.375648
vt 0.837848 0.497833
vt 0.588219 0.303055
vt 0.585073 0.303055
vt 0.585073 0.298828
vt 0.588219 0.298828
vt 0.731266 0.554699
vt 0.731266 0.558926
vt 0.882549 0.163358
vt 0.882549 0.304908
vt 0.873112 0.304908
vt 0.873112 0.163358
vt 0.000000 0.157278
vt 0.000000 0.086503
vt 0.573988 0.314556
vt 0.731266 0.314556
vt 0.873112 0.163358
vt 0.863676 0.304908
vt 0.863676 0.163358
vt 0.898466 0.078639
vt 0.898466 0.149414
vt 0.889029 0.149414
vt 0.889029 0.078639
vt 0.907903 -0.000000
vt 0.907903 0.298828
vt 0.898466 0.298828
vt 0.898466 -0.000000
vt 0.416710 0.314556
vt 0.898466 0.220189
vt 0.889029 0.220189
vt 0.000000 0.314555
vt 0.000000 0.275236
vt 0.267297 0.322419
vt 0.267297 0.621247
vt 0.408847 0.322419
vt 0.416710 0.314556
vt 0.408847 0.621247
vt 0.416710 0.629111
vt 0.408847 0.353875
vt 0.416710 0.353875
vt 0.408847 0.589792
vt 0.416710 0.589792
vt 0.408847 0.566200
vt 0.408847 0.542608
vt 0.416710 0.542608
vt 0.416710 0.566200
vt 0.408847 0.377467
vt 0.416710 0.377467
vt 0.408847 0.471833
vt 0.408847 0.401058
vt 0.416710 0.401058
vt 0.416710 0.471833
vt 0.898466 0.267372
vt 0.889029 0.298828
vt 0.889029 0.267372
vt 0.000000 0.228053
vt 0.898466 0.031456
vt 0.889029 0.031456
vt 0.889029 -0.000000
vt 0.000000 0.251644
vt 0.898466 0.055047
vt 0.889029 0.055047
vt 0.000000 0.062911
vt 0.000000 0.039319
vt 0.000000 -0.000000
vt 0.898466 0.243781
vt 0.889029 0.243781
vt 0.292537 0.314555
vt 0.292537 -0.000000
vt 0.408912 0.747069
vt 0.383129 0.735274
vt 0.383129 0.640907
vt 0.408912 0.629111
vt 0.770585 0.607092
vt 0.796369 0.618888
vt 0.796369 0.713255
vt 0.770585 0.725051
vt 0.770585 0.725051
vt 0.796369 0.736846
vt 0.796369 0.831213
vt 0.770585 0.843009
vt 0.413565 0.751961
vt 0.413565 0.629111
vt 0.416710 0.629111
vt 0.416710 0.751961
vt 0.796369 0.729277
vt 0.796369 0.607092
vt 0.799514 0.607092
vt 0.799514 0.729277
vt 0.408912 0.751961
vt 0.408912 0.629111
vt 0.412058 0.629111
vt 0.412058 0.751961
vt 0.731266 0.318782
vt 0.731266 0.314556
vt 0.585073 0.303054
vt 0.588219 0.303054
vt 0.588219 0.307281
vt 0.585073 0.307281
vt 0.731050 0.181164
vt 0.833205 0.240143
vt 0.833205 0.244370
vt 0.726623 0.183278
vt 0.731050 0.063206
vt 0.726623 0.061093
vt 0.833205 0.004227
vt 0.833205 -0.000000
vt 0.756044 0.312314
vt 0.726623 0.295328
vt 0.726623 0.261356
vt 0.756044 0.244370
vt 0.785465 0.261356
vt 0.785465 0.295328
vt 0.811678 0.247122
vt 0.787848 0.260881
vt 0.785465 0.259505
vt 0.811678 0.244370
vt 0.871820 0.685444
vt 0.837848 0.685444
vt 0.841075 0.314556
vt 0.868593 0.314556
vt 0.973736 0.685444
vt 0.939764 0.685444
vt 0.942991 0.314556
vt 0.970509 0.314556
vt 0.104747 1.000000
vt 0.070775 1.000000
vt 0.074002 0.629111
vt 0.101519 0.629111
vt 0.837848 0.929815
vt 0.803876 0.929815
vt 0.807103 0.558926
vt 0.834620 0.558926
vt 0.939764 0.685445
vt 0.905792 0.685445
vt 0.909019 0.314556
vt 0.936537 0.314556
vt 0.871820 0.685445
vt 0.875047 0.314556
vt 0.902565 0.314556
vt 0.695686 0.795826
vt 0.695686 0.826095
vt 0.686250 0.826095
vt 0.686250 0.795826
vt 0.835509 0.288398
vt 0.835509 0.260881
vt 0.837892 0.259505
vt 0.837892 0.289774
vt 0.811678 0.302157
vt 0.811678 0.304908
vt 0.787848 0.288398
vt 0.785465 0.289774
vt 0.442924 0.856364
vt 0.416710 0.841229
vt 0.421953 0.838202
vt 0.442924 0.850310
vt 0.709247 0.795826
vt 0.709247 0.826095
vt 0.699810 0.826095
vt 0.699810 0.795826
vt 0.676813 0.795826
vt 0.676813 0.826095
vt 0.667376 0.826095
vt 0.667376 0.795826
vt 0.686250 0.795826
vt 0.686250 0.826095
vt 0.676813 0.826095
vt 0.676813 0.795826
vt 0.667376 0.795826
vt 0.667376 0.826095
vt 0.657940 0.826095
vt 0.657940 0.795826
vt 0.797148 0.558926
vt 0.797148 0.589195
vt 0.787711 0.589195
vt 0.787711 0.558926
vt 0.561079 0.839984
vt 0.536863 0.839984
vt 0.536863 0.795826
vt 0.561079 0.795826
vt 0.469138 0.841229
vt 0.463895 0.838202
vt 0.442924 0.795826
vt 0.469138 0.810960
vt 0.463895 0.813987
vt 0.442924 0.801879
vt 0.416710 0.810960
vt 0.421953 0.813987
vt 0.515893 0.844256
vt 0.494922 0.832148
vt 0.499778 0.829345
vt 0.515893 0.838649
vt 0.657940 0.839984
vt 0.633724 0.839984
vt 0.633724 0.795826
vt 0.609509 0.839984
vt 0.585294 0.839984
vt 0.585294 0.795826
vt 0.609509 0.795826
vt 0.633724 0.839984
vt 0.609509 0.839984
vt 0.609509 0.795826
vt 0.633724 0.795826
vt 0.787711 0.603085
vt 0.763496 0.603085
vt 0.763496 0.558926
vt 0.787711 0.558926
vt 0.585294 0.795826
vt 0.856456 0.685445
vt 0.875064 0.685445
vt 0.875064 0.845756
vt 0.856456 0.845756
vt 0.536864 0.807933
vt 0.536864 0.832148
vt 0.532008 0.829345
vt 0.532008 0.810737
vt 0.494922 0.807933
vt 0.515893 0.795826
vt 0.515893 0.801433
vt 0.499778 0.810737
vt 0.731266 0.586838
vt 0.731266 0.568230
vt 0.747381 0.558926
vt 0.763496 0.568230
vt 0.763496 0.586838
vt 0.747381 0.596142
vt 0.875064 0.685445
vt 0.893672 0.685445
vt 0.893672 0.845756
vt 0.875064 0.845756
vt 0.851813 0.000000
vt 0.870421 0.000000
vt 0.870421 0.160312
vt 0.851813 0.160312
vt 0.833205 0.000000
vt 0.851813 0.000000
vt 0.851813 0.160312
vt 0.833205 0.160312
vt 0.837848 0.685445
vt 0.856456 0.685445
vt 0.856456 0.845756
vt 0.837848 0.845756
vt 0.870421 0.000000
vt 0.889029 0.000000
vt 0.889029 0.160312
vt 0.870421 0.160312
s 0
f 2/1/1 1/2/1 7/3/1 8/4/1
f 4/5/1 5/6/1 6/7/1 3/8/1
f 3/8/1 6/7/1 7/3/1 1/2/1
f 5/6/1 10/9/1 16/10/1 11/11/1
f 9/12/1 8/4/1 14/13/1 15/14/1
f 6/7/1 12/15/1 13/16/1 7/3/1
f 10/9/1 9/12/1 15/14/1 16/10/1
f 7/3/1 13/16/1 14/13/1 8/4/1
f 6/7/1 5/6/1 11/11/1 12/15/1
f 9/17/2 63/18/2 62/19/2 8/20/2
f 24/21/3 38/22/3 39/23/3 25/24/3
f 54/25/4 61/26/4 32/27/4 28/28/4
f 53/29/5 54/30/5 55/31/5
f 24/21/6 23/32/6 37/33/6 38/34/6
f 18/35/7 17/36/7 27/37/7 29/38/7
f 10/39/4 65/40/4 63/41/4 9/42/4
f 23/43/4 22/24/4 36/44/4 37/45/4
f 21/46/2 35/47/2 36/48/2 22/49/2
f 17/50/5 55/31/5 54/30/5 28/51/5 27/52/5
f 14/53/3 24/21/3 25/24/3 15/54/3
f 60/55/6 31/42/6 34/56/6 66/57/6
f 15/58/7 25/59/7 26/60/7 16/61/7
f 18/50/8 29/52/8 30/62/8 56/63/8 58/64/8
f 56/65/4 30/66/4 31/67/4 60/68/4
f 16/69/9 26/70/9 21/71/9 11/72/9
f 3/73/8 18/50/8 58/64/8 57/74/8 4/75/8
f 11/76/2 21/46/2 22/49/2 12/77/2
f 13/78/4 12/54/4 22/24/4 23/43/4
f 64/79/2 33/80/2 32/81/2 61/82/2
f 3/83/7 1/84/7 17/36/7 18/35/7
f 14/53/6 13/85/6 23/32/6 24/21/6
f 66/86/4 34/87/4 33/88/4 64/89/4
f 29/38/7 27/37/7 68/90/7 67/91/7
f 28/28/4 32/27/4 71/92/4 69/93/4
f 95/94/4 98/95/4 73/96/4 35/97/4
f 95/98/10 35/99/10 40/100/10 94/101/10
f 97/102/11 39/103/11 38/104/11 96/105/11
f 29/52/8 67/106/8 70/107/8 30/62/8
f 94/108/12 40/109/12 39/110/12 97/111/12
f 35/97/4 73/96/4 75/112/4 19/113/4
f 38/114/4 19/113/4 75/112/4 74/115/4
f 25/59/7 39/116/7 40/117/7 26/60/7
f 2/118/4 8/119/4 62/120/4 53/121/4
f 4/122/4 57/123/4 59/124/4 5/125/4
f 26/70/9 40/126/9 35/127/9 21/71/9
f 5/128/6 59/55/6 65/57/6 10/129/6
f 27/52/5 28/51/5 69/130/5 68/106/5
f 30/66/4 70/131/4 72/132/4 31/67/4
f 96/133/4 38/114/4 74/115/4 99/134/4
f 42/135/13 47/136/13 43/137/13 41/138/13
f 44/139/13 20/140/13 45/141/13 46/142/13
f 20/140/13 41/138/13 43/137/13 45/141/13
f 101/143/13 100/144/13 50/145/13 48/146/13
f 100/144/13 103/147/13 51/148/13 50/145/13
f 101/143/13 48/146/13 49/149/13 102/150/13
f 51/148/13 52/151/13 50/145/13
f 52/151/13 48/146/13 50/145/13
f 52/151/13 49/149/13 48/146/13
f 1/73/5 2/152/5 53/29/5 55/31/5 17/50/5
f 56/63/8 57/74/8 58/64/8
f 56/65/4 60/68/4 59/124/4 57/123/4
f 66/153/13 64/154/13 108/155/13 112/156/13
f 59/157/7 60/158/7 114/159/7 115/160/7
f 60/161/13 66/153/13 112/156/13 114/162/13
f 61/26/4 54/25/4 53/121/4 62/120/4
f 20/163/5 44/164/5 88/165/5 85/166/5
f 74/115/4 75/112/4 84/167/4 83/168/4
f 70/107/8 67/106/8 76/169/8 79/170/8
f 42/171/8 41/165/8 86/172/8 87/173/8
f 49/174/7 52/175/7 93/176/7 91/177/7
f 41/178/4 20/179/4 85/180/4 86/181/4
f 68/106/5 69/130/5 78/182/5 77/169/5
f 52/175/7 51/183/7 92/184/7 93/176/7
f 72/132/4 70/131/4 79/185/4 81/186/4
f 86/187/13 85/188/13 76/8/13 77/2/13
f 87/189/13 86/187/13 77/2/13 78/190/13
f 85/188/13 88/191/13 79/192/13 76/8/13
f 89/193/13 87/189/13 78/190/13 80/194/13
f 88/191/13 90/195/13 81/196/13 79/192/13
f 106/197/13 91/198/13 82/199/13 104/200/13
f 107/201/13 89/193/13 80/194/13 105/202/13
f 93/203/13 92/204/13 83/205/13 84/206/13
f 91/198/13 93/203/13 84/206/13 82/199/13
f 47/207/7 42/180/7 87/208/7 89/209/7
f 75/112/4 73/96/4 82/210/4 84/167/4
f 44/181/7 46/211/7 90/212/7 88/213/7
f 98/95/4 72/132/4 81/186/4 104/214/4
f 102/215/7 49/174/7 91/177/7 106/216/7
f 99/134/4 74/115/4 83/168/4 105/217/4
f 69/93/4 71/92/4 80/218/4 78/219/4
f 103/220/7 47/207/7 89/209/7 107/221/7
f 67/91/7 68/90/7 77/222/7 76/223/7
f 51/183/7 103/220/7 107/221/7 92/184/7
f 71/92/4 99/134/4 105/217/4 80/218/4
f 46/211/7 102/215/7 106/216/7 90/212/7
f 73/96/4 98/95/4 104/214/4 82/210/4
f 92/204/13 107/201/13 105/202/13 83/205/13
f 90/195/13 106/197/13 104/200/13 81/196/13
f 45/141/13 101/143/13 102/150/13 46/142/13
f 43/137/13 47/136/13 103/147/13 100/144/13
f 45/141/13 43/137/13 100/144/13 101/143/13
f 32/27/4 96/133/4 99/134/4 71/92/4
f 34/224/14 94/225/14 97/226/14 33/227/14
f 33/228/15 97/229/15 96/230/15 32/231/15
f 31/232/16 95/233/16 94/234/16 34/235/16
f 31/67/4 72/132/4 98/95/4 95/94/4
f 114/236/17 112/237/17 113/238/17 115/239/17
f 112/240/4 108/241/4 111/242/4 113/243/4
f 108/244/18 109/245/18 110/246/18 111/247/18
f 64/154/13 61/248/13 109/249/13 108/155/13
f 61/250/7 62/251/7 110/252/7 109/253/7
f 65/254/1 59/255/1 115/256/1 113/257/1
f 63/258/1 65/254/1 113/257/1 111/259/1
f 62/260/1 63/258/1 111/259/1 110/261/1
f 117/262/1 116/263/1 121/264/1 120/265/1 119/266/1 118/267/1
f 124/268/1 125/269/1 131/270/1 130/271/1
f 120/272/19 121/273/19 127/274/19 126/275/19
f 118/276/20 119/277/20 125/278/20 124/279/20
f 116/280/21 117/281/21 123/282/21 122/283/21
f 121/284/22 116/285/22 122/286/22 127/287/22
f 119/288/23 120/289/23 126/290/23 125/291/23
f 117/289/24 118/292/24 124/293/24 123/294/24
f 129/295/7 130/296/7 136/297/7 135/298/7
f 122/299/1 123/300/1 129/301/1 128/302/1
f 127/303/1 122/299/1 128/302/1 133/304/1
f 125/269/1 126/305/1 132/306/1 131/270/1
f 123/300/1 124/268/1 130/271/1 129/301/1
f 126/305/1 127/303/1 133/304/1 132/306/1
f 134/307/13 135/308/13 141/309/13 140/310/13
f 132/311/4 133/312/4 139/313/4 138/314/4
f 130/315/9 131/316/9 137/317/9 136/318/9
f 128/319/3 129/320/3 135/321/3 134/322/3
f 133/323/6 128/324/6 134/325/6 139/326/6
f 131/327/2 132/328/2 138/329/2 137/330/2
f 144/331/4 145/332/4 151/333/4 150/334/4
f 139/335/13 134/307/13 140/310/13 145/336/13
f 137/337/13 138/338/13 144/339/13 143/340/13
f 135/308/13 136/341/13 142/342/13 141/309/13
f 138/338/13 139/335/13 145/336/13 144/339/13
f 136/341/13 137/337/13 143/340/13 142/342/13
f 151/343/13 146/344/13 152/345/13 157/346/13
f 142/347/9 143/348/9 149/349/9 148/326/9
f 140/350/3 141/351/3 147/352/3 146/353/3
f 145/354/6 140/355/6 146/356/6 151/357/6
f 143/358/2 144/359/2 150/360/2 149/361/2
f 141/351/7 142/331/7 148/334/7 147/362/7
f 156/363/7 157/364/7 163/365/7 162/366/7
f 149/367/13 150/368/13 156/369/13 155/370/13
f 147/371/13 148/372/13 154/373/13 153/374/13
f 150/368/13 151/343/13 157/346/13 156/369/13
f 148/372/13 149/367/13 155/370/13 154/373/13
f 146/344/13 147/371/13 153/374/13 152/345/13
f 159/375/13 160/376/13 161/377/13 162/378/13 163/379/13 158/380/13
f 154/381/6 155/382/6 161/383/6 160/384/6
f 152/385/2 153/386/2 159/387/2 158/388/2
f 157/389/9 152/390/9 158/391/9 163/392/9
f 155/393/3 156/394/3 162/395/3 161/396/3
f 153/397/4 154/398/4 160/399/4 159/400/4
