# Blender 4.2.3 LTS
# www.blender.org
mtllib House_1.mtl
o House_1_U
v -0.400000 0.025000 0.500000
v -0.500000 0.325000 0.000000
v -0.500000 0.025000 -0.500000
v 0.500000 0.025000 -0.500000
v 0.100000 0.025000 0.500000
v 0.100000 0.025000 -0.500000
v -0.500000 0.025000 0.000000
v 0.500000 0.025000 0.000000
v 0.100000 0.025000 0.000000
v -0.400000 0.325000 0.500000
v 0.500000 0.325000 0.000000
v 0.500000 0.325000 -0.500000
v 0.100000 0.325000 -0.500000
v -0.500000 0.325000 -0.500000
v 0.100000 0.325000 0.500000
v 0.100000 0.325000 -0.000000
v -0.500000 0.525000 -0.250000
v 0.500000 0.525000 -0.250000
v 0.500000 0.325000 0.000000
v -0.150000 0.475000 0.500000
v -0.400000 0.025000 -0.500000
v -0.400000 0.025000 0.000000
v -0.400000 0.325000 -0.500000
v -0.400000 0.325000 0.000000
v -0.400000 0.325000 0.525000
v 0.100000 0.325000 0.525000
v -0.150000 0.475000 0.525000
v -0.525000 0.325000 0.000000
v -0.525000 0.325000 -0.500000
v -0.525000 0.525000 -0.250000
v 0.525000 0.325000 0.000000
v 0.525000 0.325000 -0.500000
v 0.525000 0.525000 -0.250000
v 0.121651 0.312500 0.500000
v 0.121651 0.312500 0.000000
v 0.121651 0.312500 0.525000
v -0.421651 0.312500 0.500000
v -0.421651 0.312500 0.000000
v -0.421651 0.312500 0.525000
v -0.500000 0.310661 0.020479
v 0.500000 0.310661 0.020479
v 0.100000 0.310661 0.020479
v -0.400000 0.310661 0.020479
v -0.525000 0.310661 0.020479
v 0.525000 0.310661 0.020479
v 0.500000 0.310661 -0.520479
v 0.100000 0.310661 -0.520479
v -0.500000 0.310661 -0.520479
v -0.400000 0.310661 -0.520479
v -0.525000 0.310661 -0.520479
v 0.525000 0.310661 -0.520479
v -0.412500 0.346651 0.525000
v 0.112500 0.346651 0.525000
v -0.150000 0.500000 0.525000
v -0.525000 0.345479 0.014339
v -0.525000 0.345479 -0.514339
v -0.525000 0.550000 -0.250000
v 0.525000 0.345479 0.014339
v 0.525000 0.345479 -0.514339
v 0.525000 0.550000 -0.250000
v 0.134151 0.334151 0.500000
v 0.134151 0.334151 0.000000
v 0.134151 0.334151 0.525000
v -0.434151 0.334151 0.500000
v -0.434151 0.334151 0.000000
v -0.434151 0.334151 0.525000
v -0.500000 0.331139 0.034818
v 0.500000 0.331139 0.034818
v 0.100000 0.331139 0.034818
v -0.400000 0.331139 0.034818
v -0.525000 0.331139 0.034818
v 0.525000 0.331139 0.034818
v 0.500000 0.331139 -0.534818
v 0.100000 0.331139 -0.534818
v -0.500000 0.331139 -0.534818
v -0.400000 0.331139 -0.534818
v -0.525000 0.331139 -0.534818
v 0.525000 0.331139 -0.534818
v -0.412500 0.346651 0.500000
v 0.112500 0.346651 0.500000
v -0.150000 0.500000 0.500000
v 0.500000 0.345479 0.014339
v 0.500000 0.345479 -0.514339
v 0.500000 0.550000 -0.250000
v -0.500000 0.345479 0.014339
v -0.500000 0.345479 -0.514339
v -0.500000 0.550000 -0.250000
v -0.400000 0.550000 -0.250000
v 0.100000 0.550000 -0.250000
v 0.100000 0.345479 0.014339
v -0.400000 0.345479 0.014339
v 0.100000 0.345479 -0.514339
v -0.400000 0.345479 -0.514339
v 0.112500 0.346651 0.000000
v -0.412500 0.346651 0.000000
v -0.150000 0.500000 -0.200000
v 0.500000 0.130638 -0.178398
v 0.500000 0.130638 -0.321602
v 0.500000 0.279362 -0.321602
v 0.500000 0.279362 -0.178398
v 0.100000 0.130638 0.319515
v 0.100000 0.130638 0.180485
v 0.100000 0.279362 0.180485
v 0.100000 0.279362 0.319515
v -0.222445 0.130638 0.500000
v -0.077555 0.130638 0.500000
v -0.077555 0.279362 0.500000
v -0.222445 0.279362 0.500000
v 0.480000 0.130638 -0.178398
v 0.480000 0.130638 -0.321602
v 0.480000 0.279362 -0.178398
v 0.480000 0.279362 -0.321602
v 0.080000 0.130638 0.319515
v 0.080000 0.130638 0.180485
v 0.080000 0.279362 0.319515
v 0.080000 0.279362 0.180485
v -0.222445 0.130638 0.480000
v -0.077555 0.130638 0.480000
v -0.222445 0.279362 0.480000
v -0.077555 0.279362 0.480000
v 0.284088 0.433001 -0.401219
v 0.284088 0.515521 -0.401219
v 0.284088 0.371104 -0.481219
v 0.284088 0.515521 -0.481219
v 0.364088 0.433001 -0.401219
v 0.364088 0.515521 -0.401219
v 0.364088 0.371104 -0.481219
v 0.364088 0.515521 -0.481219
v 0.300088 0.515521 -0.417219
v 0.300088 0.515521 -0.465219
v 0.348088 0.515521 -0.465219
v 0.348088 0.515521 -0.417219
v 0.308642 0.595521 -0.425774
v 0.308642 0.595521 -0.456665
v 0.339533 0.595521 -0.456665
v 0.339533 0.595521 -0.425774
v 0.300088 0.595521 -0.417219
v 0.300088 0.595521 -0.465219
v 0.348088 0.595521 -0.465219
v 0.348088 0.595521 -0.417219
v 0.308642 0.437575 -0.425774
v 0.308642 0.437575 -0.456665
v 0.339533 0.437575 -0.456665
v 0.339533 0.437575 -0.425774
vn -0.0000 -1.0000 -0.0000
vn -1.0000 -0.0000 -0.0000
vn 1.0000 -0.0000 -0.0000
vn -0.0000 -0.0000 -1.0000
vn -0.0000 -0.0000 1.0000
vn -0.5145 -0.8575 -0.0000
vn 0.5145 -0.8575 -0.0000
vn -0.0000 -0.7809 0.6247
vn -0.0000 -0.7809 -0.6247
vn -0.5000 -0.8660 -0.0000
vn 0.5000 -0.8660 -0.0000
vn -0.0000 -0.8192 -0.5736
vn -0.0000 -0.8192 0.5736
vn -0.0000 -0.5736 0.8192
vn -0.8660 -0.5000 -0.0000
vn -0.0000 -0.5736 -0.8192
vn 0.8660 -0.5000 -0.0000
vn 0.5044 0.8635 -0.0000
vn -0.5044 0.8635 -0.0000
vn -0.5000 0.8660 -0.0000
vn 0.5000 0.8660 -0.0000
vn -0.0000 0.7909 -0.6119
vn -0.0000 0.7909 0.6119
vn -0.0000 0.8192 0.5736
vn -0.0000 0.8192 -0.5736
vn -0.0000 1.0000 -0.0000
vt 0.208601 0.248511
vt 0.408152 0.248511
vt 0.408152 0.408152
vt 0.208601 0.408152
vt 0.208601 0.048960
vt 0.408152 0.048960
vt 0.146881 0.625803
vt 0.146881 0.506073
vt 0.346432 0.506073
vt 0.346432 0.625803
vt 0.625803 0.526028
vt 0.426252 0.526028
vt 0.526028 0.446207
vt 0.246656 0.426252
vt 0.825389 0.908769
vt 0.825389 0.968125
vt 0.817407 0.968125
vt 0.817407 0.908769
vt 0.088870 0.408152
vt 0.088870 0.248511
vt 0.128781 0.585893
vt 0.128781 0.785444
vt 0.009050 0.785444
vt 0.009050 0.585893
vt 0.869677 0.583020
vt 0.869677 0.523664
vt 0.877659 0.523664
vt 0.877659 0.583020
vt 0.208601 0.009050
vt 0.408152 0.009050
vt 0.128781 0.426252
vt 0.009050 0.426252
vt 0.128781 0.825354
vt 0.009050 0.825354
vt 0.564083 0.967127
vt 0.564083 0.909302
vt 0.572065 0.909302
vt 0.572065 0.967127
vt 0.763634 0.645758
vt 0.763634 0.446207
vt 0.823499 0.545983
vt 0.009050 0.048960
vt 0.009050 0.248511
vt 0.088870 0.009050
vt 0.088870 0.048960
vt 0.406043 0.643903
vt 0.406043 0.843454
vt 0.286312 0.843454
vt 0.286312 0.643903
vt 0.122359 0.843454
vt 0.122359 0.959812
vt 0.112381 0.959812
vt 0.112381 0.843454
vt 0.980972 0.125407
vt 0.980972 0.009050
vt 0.990950 0.009050
vt 0.990950 0.125407
vt 0.952895 0.592083
vt 0.952895 0.464308
vt 0.962872 0.464308
vt 0.962872 0.592083
vt 0.962872 0.610183
vt 0.962872 0.737958
vt 0.952895 0.737958
vt 0.952895 0.610183
vt 0.962872 0.756058
vt 0.962872 0.883833
vt 0.952895 0.883833
vt 0.952895 0.756058
vt 0.084304 0.971229
vt 0.084304 0.843454
vt 0.094281 0.843454
vt 0.094281 0.971229
vt 0.934794 0.236679
vt 0.934794 0.246656
vt 0.924817 0.246656
vt 0.924817 0.236679
vt 0.934794 0.446207
vt 0.924817 0.446207
vt 0.934794 0.663858
vt 0.934794 0.673836
vt 0.924817 0.673836
vt 0.924817 0.663858
vt 0.934794 0.464308
vt 0.924817 0.464308
vt 0.720577 0.949212
vt 0.720577 0.909302
vt 0.730554 0.909302
vt 0.730554 0.949212
vt 0.720577 0.959189
vt 0.730554 0.959189
vt 0.364532 0.436230
vt 0.364532 0.426252
vt 0.374510 0.426252
vt 0.374510 0.436230
vt 0.364532 0.595871
vt 0.374510 0.595870
vt 0.896739 0.258489
vt 0.896739 0.058938
vt 0.906717 0.058938
vt 0.906717 0.258489
vt 0.896739 0.428107
vt 0.896739 0.418130
vt 0.906717 0.418130
vt 0.906717 0.428107
vt 0.896739 0.019028
vt 0.896739 0.009050
vt 0.906717 0.009050
vt 0.906717 0.019028
vt 0.659604 0.669581
vt 0.653881 0.677754
vt 0.645708 0.672032
vt 0.651431 0.663858
vt 0.574061 0.777530
vt 0.653881 0.877305
vt 0.645708 0.883028
vt 0.564083 0.777530
vt 0.934794 0.929542
vt 0.934794 0.969453
vt 0.924817 0.969453
vt 0.924817 0.929542
vt 0.934794 0.919565
vt 0.924817 0.919565
vt 0.659604 0.885479
vt 0.651431 0.891201
vt 0.687682 0.777530
vt 0.767502 0.877305
vt 0.759329 0.883028
vt 0.677704 0.777530
vt 0.934794 0.009050
vt 0.934794 0.208601
vt 0.924817 0.208601
vt 0.924817 0.009050
vt 0.878639 0.378219
vt 0.878639 0.418130
vt 0.868661 0.418130
vt 0.868661 0.378219
vt 0.851577 0.605848
vt 0.851577 0.615826
vt 0.841600 0.615826
vt 0.841600 0.605848
vt 0.767502 0.677754
vt 0.759329 0.672032
vt 0.934794 0.218579
vt 0.924817 0.218579
vt 0.878639 0.019028
vt 0.878639 0.178668
vt 0.868661 0.178668
vt 0.868661 0.019028
vt 0.861168 0.677488
vt 0.801303 0.777264
vt 0.791325 0.777264
vt 0.852527 0.672499
vt 0.934794 0.701914
vt 0.934794 0.901465
vt 0.924817 0.901465
vt 0.924817 0.701914
vt 0.773225 0.669581
vt 0.765052 0.663858
vt 0.866157 0.668847
vt 0.857516 0.663858
vt 0.878639 0.428107
vt 0.868661 0.428107
vt 0.861168 0.877039
vt 0.852527 0.882028
vt 0.934794 0.691936
vt 0.924817 0.691936
vt 0.773225 0.885479
vt 0.765052 0.891201
vt 0.878639 0.009050
vt 0.868661 0.009050
vt 0.866157 0.885680
vt 0.857516 0.890669
vt 0.851577 0.446207
vt 0.841600 0.446207
vt 0.729230 0.009050
vt 0.850561 0.009050
vt 0.850561 0.019028
vt 0.729230 0.019028
vt 0.268212 0.933252
vt 0.146881 0.933252
vt 0.146881 0.923275
vt 0.268212 0.923275
vt 0.952895 0.236679
vt 0.962872 0.236679
vt 0.962872 0.246656
vt 0.952895 0.246656
vt 0.962872 0.019028
vt 0.952895 0.019028
vt 0.952895 0.009050
vt 0.962872 0.009050
vt 0.559641 0.428107
vt 0.426252 0.428107
vt 0.426252 0.418130
vt 0.559641 0.418130
vt 0.711130 0.428107
vt 0.577741 0.428107
vt 0.577741 0.418130
vt 0.711130 0.418130
vt 0.402587 0.595871
vt 0.392610 0.595871
vt 0.392610 0.585893
vt 0.402587 0.585893
vt 0.906717 0.456185
vt 0.896739 0.456185
vt 0.896739 0.446207
vt 0.906717 0.446207
vt 0.426252 0.009050
vt 0.559641 0.009050
vt 0.559641 0.019028
vt 0.426252 0.019028
vt 0.577741 0.009050
vt 0.711130 0.009050
vt 0.711130 0.019028
vt 0.577741 0.019028
vt 0.906717 0.865264
vt 0.896739 0.865264
vt 0.896739 0.855287
vt 0.906717 0.855287
vt 0.758632 0.919279
vt 0.748654 0.919279
vt 0.748654 0.909302
vt 0.758632 0.909302
vt 0.402587 0.426252
vt 0.392610 0.426252
vt 0.758632 0.959189
vt 0.748654 0.959189
vt 0.906717 0.615826
vt 0.906717 0.815377
vt 0.896739 0.815377
vt 0.896739 0.615826
vt 0.962872 0.218579
vt 0.952895 0.218579
vt 0.952895 0.446207
vt 0.962872 0.446207
vt 0.850561 0.218579
vt 0.729230 0.298399
vt 0.146881 0.643903
vt 0.268212 0.723724
vt 0.559641 0.058938
vt 0.426252 0.058938
vt 0.711130 0.058938
vt 0.577741 0.058938
vt 0.711130 0.258489
vt 0.577741 0.258489
vt 0.559641 0.258489
vt 0.426252 0.258489
vt 0.442965 0.363887
vt 0.483334 0.363887
vt 0.625803 0.645758
vt 0.426252 0.645758
vt 0.497451 0.603598
vt 0.554604 0.603598
vt 0.497451 0.544242
vt 0.554604 0.544242
vt 0.545983 0.663859
vt 0.545983 0.863409
vt 0.503823 0.791378
vt 0.503823 0.735890
vt 0.426252 0.863409
vt 0.444466 0.791378
vt 0.426252 0.663859
vt 0.444466 0.735890
vt 0.643903 0.645758
vt 0.643903 0.446207
vt 0.686064 0.517070
vt 0.686064 0.574896
vt 0.745420 0.517070
vt 0.745420 0.574896
vt 0.066203 0.902810
vt 0.009050 0.902810
vt 0.009050 0.843454
vt 0.066203 0.843454
vt 0.341800 0.920911
vt 0.286312 0.920911
vt 0.286312 0.861555
vt 0.341800 0.861555
vt 0.787055 0.375855
vt 0.729230 0.375855
vt 0.729230 0.316499
vt 0.787055 0.316499
vt 0.590165 0.967127
vt 0.590165 0.909302
vt 0.598147 0.909302
vt 0.598147 0.967127
vt 0.616248 0.966455
vt 0.616248 0.909302
vt 0.624230 0.909302
vt 0.624230 0.966455
vt 0.843490 0.968125
vt 0.843490 0.908769
vt 0.851472 0.908769
vt 0.851472 0.968125
vt 0.877659 0.446207
vt 0.877659 0.505563
vt 0.869677 0.505563
vt 0.869677 0.446207
vt 0.650312 0.909302
vt 0.650312 0.966455
vt 0.642330 0.966455
vt 0.642330 0.909302
vt 0.668412 0.964789
vt 0.668412 0.909302
vt 0.676394 0.909302
vt 0.676394 0.964789
vt 0.791325 0.968125
vt 0.791325 0.908769
vt 0.799307 0.908769
vt 0.799307 0.968125
vt 0.545120 0.881510
vt 0.545120 0.940866
vt 0.537138 0.940866
vt 0.537138 0.881510
vt 0.702476 0.909302
vt 0.702476 0.964789
vt 0.694494 0.964789
vt 0.694494 0.909302
vt 0.805156 0.349433
vt 0.805156 0.316499
vt 0.837084 0.316499
vt 0.837084 0.374136
vt 0.359900 0.919192
vt 0.359900 0.861555
vt 0.391828 0.861555
vt 0.391828 0.919192
vt 0.426252 0.939147
vt 0.426252 0.881510
vt 0.458180 0.881510
vt 0.458180 0.914444
vt 0.729230 0.426890
vt 0.729230 0.393956
vt 0.761158 0.393956
vt 0.761158 0.426890
vt 0.483334 0.331959
vt 0.442965 0.331959
vt 0.779258 0.425884
vt 0.779258 0.393956
vt 0.785644 0.400341
vt 0.785644 0.419498
vt 0.848444 0.425884
vt 0.829287 0.425884
vt 0.829287 0.393956
vt 0.848444 0.393956
vt 0.811186 0.393956
vt 0.804801 0.400341
vt 0.811186 0.425884
vt 0.804801 0.419498
vt 0.476281 0.881510
vt 0.488609 0.881510
vt 0.488609 0.944546
vt 0.476281 0.944546
vt 0.028207 0.952839
vt 0.009050 0.952839
vt 0.009050 0.920911
vt 0.028207 0.920911
vt 0.065464 0.952839
vt 0.046307 0.952839
vt 0.046307 0.920911
vt 0.065464 0.920911
vt 0.379057 0.969220
vt 0.359900 0.969220
vt 0.359900 0.937292
vt 0.379057 0.937292
vt 0.289726 0.942425
vt 0.289726 0.954754
vt 0.286312 0.958168
vt 0.286312 0.939011
vt 0.302055 0.954754
vt 0.305469 0.958168
vt 0.302055 0.942425
vt 0.305469 0.939011
vt 0.335898 0.939011
vt 0.335898 0.951339
vt 0.323569 0.951339
vt 0.323569 0.939011
vt 0.506709 0.881510
vt 0.519038 0.881510
vt 0.519038 0.944546
vt 0.506709 0.944546
vt 0.894388 0.883364
vt 0.906717 0.883364
vt 0.906717 0.946401
vt 0.894388 0.946401
vt 0.952895 0.901933
vt 0.965223 0.901933
vt 0.965223 0.964970
vt 0.952895 0.964970
s 0
f 9/1/1 6/2/1 4/3/1 8/4/1
f 22/5/1 21/6/1 6/2/1 9/1/1
f 7/7/2 2/8/2 14/9/2 3/10/2
f 11/11/3 12/12/3 18/13/3
f 14/9/2 2/8/2 17/14/2
f 104/15/4 101/16/4 113/17/4 115/18/4
f 9/1/5 8/4/5 11/19/5 16/20/5
f 6/21/4 21/22/4 23/23/4 13/24/4
f 98/25/5 99/26/5 112/27/5 110/28/5
f 7/29/1 3/30/1 21/6/1 22/5/1
f 4/31/4 6/21/4 13/24/4 12/32/4
f 21/22/4 3/33/4 14/34/4 23/23/4
f 107/35/1 108/36/1 119/37/1 120/38/1
f 10/39/5 15/40/5 20/41/5
f 1/42/1 22/5/1 9/1/1 5/43/1
f 2/44/5 7/29/5 22/5/5 24/45/5
f 10/46/2 24/47/2 22/48/2 1/49/2
f 20/50/6 15/51/6 26/52/6 27/53/6
f 10/54/7 20/55/7 27/56/7 25/57/7
f 14/58/8 17/59/8 30/60/8 29/61/8
f 17/62/9 2/63/9 28/64/9 30/65/9
f 18/66/8 12/67/8 32/68/8 33/69/8
f 11/70/9 18/71/9 33/72/9 31/73/9
f 26/74/10 15/75/10 34/76/10 36/77/10
f 15/75/10 16/78/10 35/79/10 34/76/10
f 10/80/11 25/81/11 39/82/11 37/83/11
f 24/84/11 10/80/11 37/83/11 38/85/11
f 2/86/12 24/87/12 43/88/12 40/89/12
f 28/90/12 2/86/12 40/89/12 44/91/12
f 11/92/12 31/93/12 45/94/12 41/95/12
f 16/96/12 11/92/12 41/95/12 42/97/12
f 13/98/13 23/99/13 49/100/13 47/101/13
f 32/102/13 12/103/13 46/104/13 51/105/13
f 12/103/13 13/98/13 47/101/13 46/104/13
f 14/106/13 29/107/13 50/108/13 48/109/13
f 23/99/13 14/106/13 48/109/13 49/100/13
f 45/110/3 31/111/3 58/112/3 72/113/3
f 33/114/3 32/115/3 59/116/3 60/117/3
f 40/118/14 43/119/14 70/120/14 67/121/14
f 44/122/14 40/118/14 67/121/14 71/123/14
f 32/115/3 51/124/3 78/125/3 59/116/3
f 30/126/2 28/127/2 55/128/2 57/129/2
f 38/130/15 37/131/15 64/132/15 65/133/15
f 49/134/16 48/135/16 75/136/16 76/137/16
f 41/138/14 45/139/14 72/140/14 68/141/14
f 29/142/2 30/126/2 57/129/2 56/143/2
f 37/131/15 39/144/15 66/145/15 64/132/15
f 46/146/16 47/147/16 74/148/16 73/149/16
f 47/147/16 49/134/16 76/137/16 74/148/16
f 25/150/5 27/151/5 54/152/5 52/153/5
f 34/154/17 35/155/17 62/156/17 61/157/17
f 50/158/2 29/142/2 56/143/2 77/159/2
f 39/160/5 25/150/5 52/153/5 66/161/5
f 48/135/16 50/162/16 77/163/16 75/136/16
f 27/151/5 26/164/5 53/165/5 54/152/5
f 36/166/17 34/154/17 61/157/17 63/167/17
f 28/127/2 44/168/2 71/169/2 55/128/2
f 51/170/16 46/146/16 73/149/16 78/171/16
f 26/164/5 36/172/5 63/173/5 53/165/5
f 31/111/3 33/114/3 60/117/3 58/112/3
f 42/174/14 41/138/14 68/141/14 69/175/14
f 54/176/18 53/177/18 80/178/18 81/179/18
f 52/180/19 54/181/19 81/182/19 79/183/19
f 66/184/20 52/185/20 79/186/20 64/187/20
f 61/188/21 80/189/21 53/190/21 63/191/21
f 60/192/22 59/193/22 83/194/22 84/195/22
f 58/196/23 60/197/23 84/198/23 82/199/23
f 72/200/24 58/201/24 82/202/24 68/203/24
f 73/204/25 83/205/25 59/206/25 78/207/25
f 56/208/22 57/209/22 87/210/22 86/211/22
f 57/212/23 55/213/23 85/214/23 87/215/23
f 77/216/25 56/217/25 86/218/25 75/219/25
f 67/220/24 85/221/24 55/222/24 71/223/24
f 69/224/24 68/203/24 82/202/24 90/225/24
f 70/226/24 91/227/24 85/221/24 67/220/24
f 74/228/25 76/229/25 93/230/25 92/231/25
f 76/229/25 75/219/25 86/218/25 93/230/25
f 74/228/25 92/231/25 83/205/25 73/204/25
f 62/232/21 94/233/21 80/189/21 61/188/21
f 65/234/20 64/187/20 79/186/20 95/235/20
f 81/179/18 80/178/18 94/236/18 96/237/18
f 81/182/19 96/238/19 95/239/19 79/183/19
f 86/211/22 87/210/22 88/240/22 93/241/22
f 85/214/23 91/242/23 88/243/23 87/215/23
f 88/243/23 91/242/23 90/244/23 89/245/23
f 88/240/22 89/246/22 92/247/22 93/241/22
f 83/194/22 127/248/22 125/249/22 84/195/22
f 84/198/23 89/245/23 90/244/23 82/199/23
f 8/250/3 4/251/3 98/252/3 97/253/3
f 4/251/3 12/12/3 99/254/3 98/252/3
f 12/12/3 11/11/3 100/255/3 99/254/3
f 11/11/3 8/250/3 97/253/3 100/255/3
f 5/256/3 9/257/3 102/258/3 101/259/3
f 9/257/3 16/260/3 103/261/3 102/258/3
f 16/260/3 15/262/3 104/263/3 103/261/3
f 15/262/3 5/256/3 101/259/3 104/263/3
f 1/264/5 5/265/5 106/266/5 105/267/5
f 5/265/5 15/40/5 107/268/5 106/266/5
f 15/40/5 10/39/5 108/269/5 107/268/5
f 10/39/5 1/264/5 105/267/5 108/269/5
f 109/270/3 110/271/3 112/272/3 111/273/3
f 113/274/3 114/275/3 116/276/3 115/277/3
f 117/278/5 118/279/5 120/280/5 119/281/5
f 105/282/26 106/283/26 118/284/26 117/285/26
f 99/286/1 100/287/1 111/288/1 112/289/1
f 102/290/5 103/291/5 116/292/5 114/293/5
f 108/294/3 105/295/3 117/296/3 119/297/3
f 97/298/26 98/299/26 110/300/26 109/301/26
f 103/302/1 104/303/1 115/304/1 116/305/1
f 106/306/2 107/307/2 120/308/2 118/309/2
f 100/310/4 97/311/4 109/312/4 111/313/4
f 101/314/26 102/315/26 114/316/26 113/317/26
f 121/318/2 122/319/2 124/320/2 123/321/2
f 123/322/4 124/323/4 128/324/4 127/325/4
f 127/326/3 128/327/3 126/328/3 125/329/3
f 125/330/5 126/331/5 122/332/5 121/333/5
f 89/246/22 121/334/22 123/335/22 92/247/22
f 124/336/26 122/337/26 129/338/26 130/339/26
f 131/340/4 130/341/4 138/342/4 139/343/4
f 122/337/26 126/344/26 132/345/26 129/338/26
f 128/346/26 124/336/26 130/339/26 131/347/26
f 126/344/26 128/346/26 131/347/26 132/345/26
f 136/348/2 135/349/2 143/350/2 144/351/2
f 132/352/3 131/353/3 139/354/3 140/355/3
f 130/356/2 129/357/2 137/358/2 138/359/2
f 129/360/5 132/361/5 140/362/5 137/363/5
f 133/364/26 134/365/26 138/366/26 137/367/26
f 134/365/26 135/368/26 139/369/26 138/366/26
f 135/368/26 136/370/26 140/371/26 139/369/26
f 136/370/26 133/364/26 137/367/26 140/371/26
f 143/372/26 142/373/26 141/374/26 144/375/26
f 134/376/3 133/377/3 141/378/3 142/379/3
f 133/380/4 136/381/4 144/382/4 141/383/4
f 135/384/5 134/385/5 142/386/5 143/387/5
f 83/194/22 92/247/22 123/335/22 127/248/22
f 84/195/22 125/249/22 121/334/22 89/246/22
l 11 19
