# Blender 4.2.3 LTS
# www.blender.org
mtllib Hexagon.mtl
o Окружность
v 0.000000 0.000000 -1.000000
v -0.866025 0.000000 -0.500000
v -0.866025 0.000000 0.500000
v 0.000000 0.000000 1.000000
v 0.866025 0.000000 0.500000
v 0.866025 0.000000 -0.500000
v 0.000000 -0.500000 -1.000000
v -0.866025 -0.500000 -0.500000
v -0.866025 -0.500000 0.500000
v 0.000000 -0.500000 1.000000
v 0.866025 -0.500000 0.500000
v 0.866025 -0.500000 -0.500000
vn -0.0000 1.0000 -0.0000
vn -0.0000 -1.0000 -0.0000
vn 1.0000 -0.0000 -0.0000
vn -0.5000 -0.0000 0.8660
vn -0.5000 -0.0000 -0.8660
vn 0.5000 -0.0000 -0.8660
vn 0.5000 -0.0000 0.8660
vn -1.0000 -0.0000 -0.0000
vt 0.000000 0.000000
s 0
f 1/1/1 2/1/1 5/1/1 6/1/1
f 3/1/1 4/1/1 5/1/1 2/1/1
f 7/1/2 12/1/2 11/1/2 8/1/2
f 9/1/2 8/1/2 11/1/2 10/1/2
f 6/1/3 5/1/3 11/1/3 12/1/3
f 4/1/4 3/1/4 9/1/4 10/1/4
f 2/1/5 1/1/5 7/1/5 8/1/5
f 1/1/6 6/1/6 12/1/6 7/1/6
f 5/1/7 4/1/7 10/1/7 11/1/7
f 3/1/8 2/1/8 8/1/8 9/1/8
