# Blender 4.2.3 LTS
# www.blender.org
mtllib Coal_mine.mtl
o Coal_mine
v -0.400000 0.000000 0.400000
v 0.375000 0.300000 0.375000
v -0.400000 0.000000 -0.400000
v 0.375000 0.300000 -0.375000
v 0.400000 0.000000 0.400000
v -0.375000 0.300000 0.375000
v 0.400000 0.000000 -0.400000
v -0.375000 0.300000 -0.375000
v -0.400000 0.300000 0.400000
v 0.400000 0.300000 0.400000
v -0.400000 0.300000 -0.400000
v 0.400000 0.300000 -0.400000
v -0.400000 0.330000 0.400000
v 0.400000 0.330000 0.400000
v -0.400000 0.330000 -0.400000
v 0.400000 0.330000 -0.400000
v -0.375000 0.330000 0.375000
v 0.375000 0.330000 0.375000
v -0.375000 0.330000 -0.375000
v 0.375000 0.330000 -0.375000
v -0.140800 0.800000 0.140800
v -0.140800 0.800000 -0.140800
v 0.140800 0.800000 0.140800
v 0.140800 0.800000 -0.140800
v -0.211200 0.800000 0.211200
v -0.211200 0.800000 -0.211200
v 0.211200 0.800000 -0.211200
v 0.211200 0.800000 0.211200
v -0.211200 0.929254 0.211200
v -0.156881 1.078274 0.156881
v -0.211200 0.929254 -0.211200
v -0.156881 1.078274 -0.156881
v 0.211200 0.929254 -0.211200
v 0.156881 1.078274 -0.156881
v 0.211200 0.929254 0.211200
v 0.156881 1.078274 0.156881
v -0.200000 0.000000 0.200000
v -0.160000 0.800000 0.160000
v -0.200000 0.000000 -0.200000
v -0.160000 0.800000 -0.160000
v 0.200000 0.000000 0.200000
v 0.160000 0.800000 0.160000
v 0.200000 0.000000 -0.200000
v 0.160000 0.800000 -0.160000
v -0.180000 0.400000 0.180000
v -0.180000 0.400000 -0.180000
v 0.180000 0.400000 -0.180000
v 0.180000 0.400000 0.180000
v -0.178502 0.429963 0.148464
v -0.161498 0.770037 0.131461
v -0.161498 0.770037 -0.131461
v -0.178502 0.429963 -0.148465
v -0.148464 0.429963 -0.178502
v -0.131461 0.770037 -0.161498
v 0.131461 0.770037 -0.161498
v 0.148464 0.429963 -0.178502
v 0.178502 0.429963 -0.148465
v 0.161498 0.770037 -0.131461
v 0.161498 0.770037 0.131461
v 0.178502 0.429963 0.148464
v 0.148464 0.429963 0.178502
v 0.131461 0.770037 0.161498
v -0.131461 0.770037 0.161498
v -0.148464 0.429963 0.178502
v 0.168464 0.029963 0.198502
v 0.151461 0.370037 0.181498
v -0.151461 0.370037 0.181498
v -0.168464 0.029963 0.198502
v 0.198502 0.029963 -0.168464
v 0.181498 0.370037 -0.151461
v 0.181498 0.370037 0.151461
v 0.198502 0.029963 0.168465
v -0.168464 0.029963 -0.198502
v -0.151461 0.370037 -0.181498
v 0.151461 0.370037 -0.181498
v 0.168464 0.029963 -0.198502
v -0.198502 0.029963 0.168465
v -0.181498 0.370037 0.151461
v -0.181498 0.370037 -0.151461
v -0.198502 0.029963 -0.168464
v -0.175093 -0.000000 0.175093
v -0.135093 0.797509 0.135093
v -0.175093 0.000000 -0.175093
v -0.135093 0.797509 -0.135093
v 0.175093 -0.000000 0.175093
v 0.135093 0.797509 0.135093
v 0.175093 0.000000 -0.175093
v 0.135093 0.797509 -0.135093
v -0.155093 0.397509 0.155093
v -0.155093 0.397509 -0.155093
v 0.155093 0.397509 -0.155093
v 0.155093 0.397509 0.155093
v -0.153533 0.428714 0.148464
v -0.136529 0.768789 0.131461
v -0.136529 0.768789 -0.131461
v -0.153533 0.428714 -0.148465
v -0.148464 0.428714 -0.153533
v -0.131461 0.768789 -0.136529
v 0.131461 0.768789 -0.136529
v 0.148464 0.428714 -0.153533
v 0.153533 0.428714 -0.148465
v 0.136529 0.768789 -0.131461
v 0.136529 0.768789 0.131461
v 0.153533 0.428714 0.148464
v 0.148464 0.428714 0.153533
v 0.131461 0.768789 0.136529
v -0.131461 0.768789 0.136529
v -0.148464 0.428714 0.153533
v 0.168464 0.028714 0.173533
v 0.151461 0.368789 0.156529
v -0.151461 0.368789 0.156529
v -0.168464 0.028714 0.173533
v 0.173533 0.028714 -0.168464
v 0.156529 0.368789 -0.151461
v 0.156529 0.368789 0.151461
v 0.173533 0.028714 0.168465
v -0.168464 0.028714 -0.173533
v -0.151461 0.368789 -0.156529
v 0.151461 0.368789 -0.156529
v 0.168464 0.028714 -0.173533
v -0.173533 0.028714 0.168465
v -0.156529 0.368789 0.151461
v -0.156529 0.368789 -0.151461
v -0.173533 0.028714 -0.168464
vn -0.0000 -0.0000 1.0000
vn -1.0000 -0.0000 -0.0000
vn -0.0000 1.0000 -0.0000
vn -0.0000 -0.0000 -1.0000
vn -0.0000 -1.0000 -0.0000
vn 1.0000 -0.0000 -0.0000
vn -0.9395 0.3425 -0.0000
vn -0.0000 0.3425 -0.9395
vn 0.9395 0.3425 -0.0000
vn -0.0000 0.3425 0.9395
vn -0.9988 0.0499 -0.0000
vn -0.0000 0.0499 -0.9988
vn 0.9988 0.0499 -0.0000
vn -0.0000 0.0499 0.9988
vn 0.9988 -0.0499 -0.0000
vn -0.0000 -0.0499 0.9988
vn -0.9988 -0.0499 -0.0000
vn -0.0000 -0.0499 -0.9988
vn 0.0121 -0.0495 -0.9987
vn -0.0121 -0.0495 -0.9987
vn -0.0000 -0.0543 -0.9985
vn -0.9987 -0.0495 -0.0121
vn -0.9987 -0.0495 0.0121
vn -0.9985 -0.0543 -0.0000
vn -0.0121 -0.0495 0.9987
vn 0.0121 -0.0495 0.9987
vn -0.0000 -0.0543 0.9985
vn 0.9987 -0.0495 0.0121
vn 0.9987 -0.0495 -0.0121
vn 0.9985 -0.0543 -0.0000
vn 0.0499 0.9988 -0.0000
vn -0.0499 -0.9988 -0.0000
vn -0.0000 0.9988 0.0499
vn -0.0000 -0.9988 -0.0499
vn -0.0499 0.9988 -0.0000
vn 0.0499 -0.9988 -0.0000
vn -0.0000 0.9988 -0.0499
vn -0.0000 -0.9988 0.0499
vn -0.0025 -0.0498 -0.9988
vn -0.0025 -0.0498 0.9988
vn 0.0995 0.9950 -0.0000
vn 0.9988 -0.0498 -0.0025
vn -0.9988 -0.0498 -0.0025
vn -0.0000 0.9950 0.0995
vn 0.0025 -0.0498 0.9988
vn 0.0025 -0.0498 -0.9988
vn -0.0995 0.9950 -0.0000
vn -0.9988 -0.0498 0.0025
vn 0.9988 -0.0498 0.0025
vn -0.0000 0.9950 -0.0995
vt 0.896571 0.596431
vt 0.781133 0.596431
vt 0.781133 0.288596
vt 0.896571 0.288596
vt 0.896571 0.904267
vt 0.781133 0.904267
vt 0.781133 0.596432
vt 0.896571 0.596432
vt 0.596431 0.288596
vt 0.307836 0.288596
vt 0.307836 0.000000
vt 0.596431 0.000000
vt 0.588736 0.904652
vt 0.473297 0.904652
vt 0.473297 0.596816
vt 0.588736 0.596816
vt 0.307836 0.000000
vt 0.307836 0.307836
vt -0.000000 0.307836
vt 0.000000 0.000000
vt 0.715718 0.904652
vt 0.600279 0.904652
vt 0.600279 0.596816
vt 0.715718 0.596816
vt 0.284820 0.904267
vt 0.273276 0.904267
vt 0.273276 0.615671
vt 0.284820 0.615671
vt 0.296364 0.904267
vt 0.284820 0.904267
vt 0.284820 0.615671
vt 0.296364 0.615671
vt 0.769589 0.596431
vt 0.769589 0.288596
vt 0.009620 0.606051
vt -0.000000 0.615671
vt 0.000000 0.307836
vt 0.009620 0.317455
vt 0.298216 0.606051
vt 0.307836 0.615671
vt 0.307836 0.307836
vt 0.298216 0.317455
vt 0.769589 0.904267
vt 0.769589 0.596432
vt 0.969148 0.577192
vt 0.957604 0.577192
vt 0.957604 0.288596
vt 0.969148 0.288596
vt 0.969148 0.865788
vt 0.957604 0.865788
vt 0.957604 0.577192
vt 0.969148 0.577192
vt 0.461753 0.904652
vt 0.461753 0.596816
vt 0.623521 0.135448
vt 0.731879 0.135448
vt 0.758969 0.162537
vt 0.596431 0.162537
vt 0.765454 0.596816
vt 0.765454 0.759353
vt 0.715718 0.759353
vt 0.715718 0.596816
vt 0.623521 0.027090
vt 0.596431 0.000000
vt 0.731879 0.027090
vt 0.758969 0.000000
vt 0.765454 0.759353
vt 0.765454 0.921890
vt 0.715718 0.921890
vt 0.715718 0.759353
vt 0.946307 0.776207
vt 0.946307 0.938745
vt 0.896571 0.938745
vt 0.896571 0.776207
vt 0.989096 0.000000
vt 0.989096 0.162537
vt 0.939360 0.162537
vt 0.939360 -0.000000
vt 0.878327 0.141636
vt 0.878327 0.020902
vt 0.939360 0.000000
vt 0.939360 0.162537
vt 0.896571 0.430231
vt 0.896571 0.309498
vt 0.957604 0.288596
vt 0.957604 0.451133
vt 0.896571 0.592769
vt 0.896571 0.472035
vt 0.957604 0.451133
vt 0.957604 0.613670
vt 0.896571 0.755306
vt 0.896571 0.634572
vt 0.957604 0.613670
vt 0.957604 0.776208
vt 0.596432 0.283271
vt 0.596432 0.162537
vt 0.717165 0.162537
vt 0.717165 0.283271
vt 0.469449 0.442706
vt 0.477145 0.288596
vt 0.488127 0.300140
vt 0.481584 0.431162
vt 0.600279 0.288596
vt 0.589298 0.300140
vt 0.607975 0.442706
vt 0.595841 0.431162
vt 0.623367 0.442706
vt 0.631063 0.288596
vt 0.642045 0.300140
vt 0.635502 0.431162
vt 0.754197 0.288596
vt 0.743216 0.300140
vt 0.761893 0.442706
vt 0.749758 0.431162
vt 0.315532 0.442706
vt 0.323227 0.288596
vt 0.334209 0.300140
vt 0.327666 0.431162
vt 0.446362 0.288596
vt 0.435380 0.300140
vt 0.454058 0.442706
vt 0.441923 0.431162
vt 0.315531 0.750926
vt 0.323227 0.596816
vt 0.334209 0.608360
vt 0.327666 0.739382
vt 0.446362 0.596816
vt 0.435380 0.608360
vt 0.454057 0.750926
vt 0.441923 0.739382
vt 0.307836 0.905036
vt 0.326513 0.762470
vt 0.319970 0.893492
vt 0.443076 0.762470
vt 0.461753 0.905036
vt 0.449619 0.893492
vt 0.307836 0.596816
vt 0.326513 0.454250
vt 0.319970 0.585272
vt 0.443076 0.454250
vt 0.461753 0.596816
vt 0.449619 0.585272
vt 0.615671 0.596816
vt 0.634349 0.454250
vt 0.627806 0.585272
vt 0.750911 0.454250
vt 0.769589 0.596816
vt 0.757454 0.585272
vt 0.461753 0.596816
vt 0.480431 0.454250
vt 0.473888 0.585272
vt 0.596994 0.454250
vt 0.615671 0.596816
vt 0.603536 0.585272
vt 0.119358 0.923699
vt 0.116807 0.911677
vt 0.110264 0.780654
vt 0.111662 0.769589
vt 0.009094 0.780654
vt 0.007696 0.769589
vt 0.002551 0.911677
vt 0.000000 0.923699
vt 0.273276 0.769781
vt 0.270725 0.757759
vt 0.264182 0.626736
vt 0.265580 0.615671
vt 0.163011 0.626736
vt 0.161614 0.615671
vt 0.156469 0.757759
vt 0.153918 0.769781
vt 0.273276 0.934957
vt 0.270725 0.922934
vt 0.264182 0.791912
vt 0.265580 0.780846
vt 0.163011 0.791912
vt 0.161614 0.780846
vt 0.156468 0.922934
vt 0.153918 0.934957
vt 0.878327 0.154110
vt 0.875776 0.142088
vt 0.869233 0.011065
vt 0.870631 0.000000
vt 0.768062 0.011065
vt 0.766665 0.000000
vt 0.761519 0.142088
vt 0.758969 0.154110
vt 1.000000 0.441942
vt 0.998008 0.430763
vt 0.998049 0.299577
vt 1.000000 0.288596
vt 0.876929 0.165175
vt 0.760366 0.165175
vt 0.765454 0.750162
vt 0.767405 0.761143
vt 0.767446 0.892329
vt 0.765454 0.903508
vt 0.307429 0.750421
vt 0.296364 0.747870
vt 0.296364 0.618222
vt 0.307429 0.615671
vt 0.769439 0.903508
vt 0.767447 0.892329
vt 0.767488 0.761143
vt 0.769439 0.750162
vt 0.271878 0.946022
vt 0.155316 0.946022
vt 0.998007 0.441942
vt 0.999959 0.452923
vt 1.000000 0.584109
vt 0.998007 0.595288
vt 0.141489 0.904339
vt 0.130423 0.901788
vt 0.130423 0.772140
vt 0.141489 0.769589
vt 0.153101 0.922935
vt 0.151109 0.911756
vt 0.151150 0.780570
vt 0.153101 0.769589
vt 0.271878 0.780847
vt 0.155316 0.780847
vt 0.765454 0.596816
vt 0.767405 0.607797
vt 0.767447 0.738983
vt 0.765454 0.750162
vt 0.307429 0.885171
vt 0.296364 0.882620
vt 0.296364 0.752972
vt 0.307429 0.750421
vt 1.000000 0.748634
vt 0.998008 0.737455
vt 0.998049 0.606269
vt 1.000000 0.595288
vt 0.117960 0.934764
vt 0.001398 0.934764
vt 0.767447 0.596816
vt 0.769398 0.607797
vt 0.769439 0.738983
vt 0.767447 0.750162
vt 0.119358 0.769589
vt 0.130423 0.772140
vt 0.130423 0.901788
vt 0.119358 0.904339
vt 0.998007 0.811801
vt 0.998007 0.941450
vt 0.988388 0.941450
vt 0.988388 0.811801
vt 0.842272 0.270280
vt 0.842272 0.169109
vt 0.851891 0.169109
vt 0.851891 0.270280
vt 0.989096 0.259297
vt 0.989096 0.129648
vt 0.998716 0.129648
vt 0.998716 0.259297
vt 0.861511 0.270280
vt 0.861511 0.169109
vt 0.871131 0.169109
vt 0.871131 0.270280
vt 0.989096 0.129648
vt 0.989096 0.000000
vt 0.998716 0.000000
vt 0.998716 0.129648
vt 0.851892 0.270280
vt 0.851892 0.169109
vt 0.861511 0.169109
vt 0.861511 0.270280
vt 0.988388 0.811801
vt 0.988388 0.682153
vt 0.998007 0.682153
vt 0.998007 0.811801
vt 0.832652 0.270280
vt 0.832652 0.169109
vt 0.842272 0.169109
vt 0.978768 0.944524
vt 0.978768 0.813339
vt 0.988388 0.813339
vt 0.988388 0.944524
vt 0.813412 0.283365
vt 0.813412 0.169109
vt 0.823032 0.169109
vt 0.823032 0.283366
vt 0.969148 0.944524
vt 0.969148 0.813339
vt 0.736429 0.285671
vt 0.736429 0.162537
vt 0.746061 0.172121
vt 0.746061 0.276087
vt 0.969148 0.682153
vt 0.969148 0.550967
vt 0.978768 0.550967
vt 0.978768 0.682153
vt 0.803792 0.283366
vt 0.803792 0.169109
vt 0.813412 0.169109
vt 0.813412 0.283366
vt 0.978768 0.682153
vt 0.978768 0.813339
vt 0.969148 0.813339
vt 0.969148 0.682153
vt 0.726797 0.285671
vt 0.726797 0.162537
vt 0.736429 0.172121
vt 0.736429 0.276087
vt 0.957604 0.996973
vt 0.957604 0.865788
vt 0.967224 0.865788
vt 0.967224 0.996973
vt 0.823032 0.283366
vt 0.823032 0.169109
vt 0.832652 0.169109
vt 0.832652 0.283366
vt 0.988388 0.288596
vt 0.988388 0.419782
vt 0.978768 0.419782
vt 0.978768 0.288596
vt 0.746061 0.285671
vt 0.746061 0.162537
vt 0.755692 0.172121
vt 0.755692 0.276087
vt 0.969148 0.550967
vt 0.969148 0.419782
vt 0.978768 0.419782
vt 0.978768 0.550967
vt 0.794172 0.283366
vt 0.794172 0.169109
vt 0.151109 0.769589
vt 0.151109 0.900775
vt 0.141489 0.900775
vt 0.141489 0.769589
vt 0.717165 0.285671
vt 0.726797 0.172121
vt 0.726797 0.276087
vt 0.946307 0.907393
vt 0.946307 0.776207
vt 0.955927 0.776207
vt 0.955927 0.907393
vt 0.755693 0.285671
vt 0.755693 0.169109
vt 0.765312 0.169109
vt 0.765312 0.285671
vt 0.978768 0.288596
vt 0.978768 0.419782
vt 0.969148 0.419782
vt 0.969148 0.288596
vt 0.000000 0.615671
vt 0.153918 0.615671
vt 0.144334 0.625255
vt 0.009584 0.625255
vt 0.988388 0.419782
vt 0.988388 0.288596
vt 0.998007 0.288596
vt 0.998007 0.419782
vt 0.765312 0.285671
vt 0.765312 0.169109
vt 0.774932 0.169109
vt 0.774932 0.285671
vt 0.998008 0.419782
vt 0.998008 0.550967
vt 0.988388 0.550967
vt 0.988388 0.419782
vt 0.000000 0.769589
vt 0.009584 0.760005
vt 0.978768 0.813339
vt 0.978768 0.682153
vt 0.988388 0.682153
vt 0.988388 0.813339
vt 0.784552 0.285671
vt 0.784552 0.169109
vt 0.794172 0.169109
vt 0.794172 0.285671
vt 0.988388 0.419782
vt 0.988388 0.550967
vt 0.978768 0.550967
vt 0.978768 0.419782
vt 0.153918 0.769589
vt 0.144334 0.760005
vt 0.978768 0.682153
vt 0.978768 0.550967
vt 0.988388 0.550967
vt 0.988388 0.682153
vt 0.784552 0.169109
vt 0.784552 0.285671
vt 0.998007 0.550967
vt 0.998007 0.682153
vt 0.988388 0.682153
vt 0.988388 0.550967
s 0
f 5/1/1 10/2/1 9/3/1 1/4/1
f 1/5/2 9/6/2 11/7/2 3/8/2
f 8/9/3 6/10/3 2/11/3 4/12/3
f 3/13/4 11/14/4 12/15/4 7/16/4
f 3/17/5 7/18/5 5/19/5 1/20/5
f 7/21/6 12/22/6 10/23/6 5/24/6
f 12/22/6 16/13/6 14/16/6 10/23/6
f 6/25/4 17/26/4 18/27/4 2/28/4
f 2/29/2 18/30/2 20/31/2 4/32/2
f 10/2/1 14/33/1 13/34/1 9/3/1
f 17/35/3 13/36/3 14/37/3 18/38/3
f 19/39/3 15/40/3 13/36/3 17/35/3
f 18/38/3 14/37/3 16/41/3 20/42/3
f 20/42/3 16/41/3 15/40/3 19/39/3
f 9/6/2 13/43/2 15/44/2 11/7/2
f 4/45/1 20/46/1 19/47/1 8/48/1
f 8/49/6 19/50/6 17/51/6 6/52/6
f 11/14/4 15/53/4 16/54/4 12/15/4
f 24/55/5 22/56/5 26/57/5 27/58/5
f 27/59/4 26/60/4 31/61/4 33/62/4
f 23/63/5 24/55/5 27/58/5 28/64/5
f 22/56/5 21/65/5 25/66/5 26/57/5
f 21/65/5 23/63/5 28/64/5 25/66/5
f 25/67/1 28/68/1 35/69/1 29/70/1
f 26/71/2 25/72/2 29/73/2 31/74/2
f 28/75/6 27/76/6 33/77/6 35/78/6
f 30/79/7 32/80/7 31/81/7 29/82/7
f 32/83/8 34/84/8 33/85/8 31/86/8
f 34/87/9 36/88/9 35/89/9 33/90/9
f 36/91/10 30/92/10 29/93/10 35/94/10
f 32/95/3 30/96/3 36/97/3 34/98/3
f 45/99/11 38/100/11 50/101/11 49/102/11
f 38/100/11 40/103/11 51/104/11 50/101/11
f 40/103/11 46/105/11 52/106/11 51/104/11
f 46/105/11 45/99/11 49/102/11 52/106/11
f 46/107/12 40/108/12 54/109/12 53/110/12
f 40/108/12 44/111/12 55/112/12 54/109/12
f 44/111/12 47/113/12 56/114/12 55/112/12
f 47/113/12 46/107/12 53/110/12 56/114/12
f 47/115/13 44/116/13 58/117/13 57/118/13
f 44/116/13 42/119/13 59/120/13 58/117/13
f 42/119/13 48/121/13 60/122/13 59/120/13
f 48/121/13 47/115/13 57/118/13 60/122/13
f 48/123/14 42/124/14 62/125/14 61/126/14
f 42/124/14 38/127/14 63/128/14 62/125/14
f 38/127/14 45/129/14 64/130/14 63/128/14
f 45/129/14 48/123/14 61/126/14 64/130/14
f 41/131/14 48/123/14 66/132/14 65/133/14
f 48/123/14 45/129/14 67/134/14 66/132/14
f 45/129/14 37/135/14 68/136/14 67/134/14
f 37/135/14 41/131/14 65/133/14 68/136/14
f 43/137/13 47/115/13 70/138/13 69/139/13
f 47/115/13 48/121/13 71/140/13 70/138/13
f 48/121/13 41/141/13 72/142/13 71/140/13
f 41/141/13 43/137/13 69/139/13 72/142/13
f 39/143/12 46/107/12 74/144/12 73/145/12
f 46/107/12 47/113/12 75/146/12 74/144/12
f 47/113/12 43/147/12 76/148/12 75/146/12
f 43/147/12 39/143/12 73/145/12 76/148/12
f 37/149/11 45/99/11 78/150/11 77/151/11
f 45/99/11 46/105/11 79/152/11 78/150/11
f 46/105/11 39/153/11 80/154/11 79/152/11
f 39/153/11 37/149/11 77/151/11 80/154/11
f 89/155/15 93/156/15 94/157/15 82/158/15
f 82/158/15 94/157/15 95/159/15 84/160/15
f 84/160/15 95/159/15 96/161/15 90/162/15
f 90/162/15 96/161/15 93/156/15 89/155/15
f 90/163/16 97/164/16 98/165/16 84/166/16
f 84/166/16 98/165/16 99/167/16 88/168/16
f 88/168/16 99/167/16 100/169/16 91/170/16
f 91/170/16 100/169/16 97/164/16 90/163/16
f 91/171/17 101/172/17 102/173/17 88/174/17
f 88/174/17 102/173/17 103/175/17 86/176/17
f 86/176/17 103/175/17 104/177/17 92/178/17
f 92/178/17 104/177/17 101/172/17 91/171/17
f 92/179/18 105/180/18 106/181/18 86/182/18
f 86/182/18 106/181/18 107/183/18 82/184/18
f 82/184/18 107/183/18 108/185/18 89/186/18
f 89/186/18 108/185/18 105/180/18 92/179/18
f 85/187/19 109/188/19 110/189/19 92/190/19
f 92/179/18 110/191/18 111/192/18 89/186/18
f 89/193/20 111/194/20 112/195/20 81/196/20
f 81/197/21 112/198/21 109/199/21 85/200/21
f 87/201/22 113/202/22 114/203/22 91/204/22
f 91/171/17 114/205/17 115/206/17 92/178/17
f 92/207/23 115/208/23 116/209/23 85/210/23
f 85/211/24 116/212/24 113/213/24 87/214/24
f 83/215/25 117/216/25 118/217/25 90/218/25
f 90/163/16 118/219/16 119/220/16 91/170/16
f 91/221/26 119/222/26 120/223/26 87/224/26
f 87/225/27 120/226/27 117/227/27 83/228/27
f 81/229/28 121/230/28 122/231/28 89/232/28
f 89/155/15 122/233/15 123/234/15 90/162/15
f 90/235/29 123/236/29 124/237/29 83/238/29
f 83/239/30 124/240/30 121/241/30 81/242/30
f 80/243/31 77/244/31 121/245/31 124/246/31
f 50/247/32 51/248/32 95/249/32 94/250/32
f 76/251/33 73/252/33 117/253/33 120/254/33
f 54/255/34 55/256/34 99/257/34 98/258/34
f 72/259/35 69/260/35 113/261/35 116/262/35
f 58/263/36 59/264/36 103/265/36 102/266/36
f 68/267/37 65/268/37 109/269/37 112/270/37
f 62/271/38 63/272/38 107/273/38 106/247/38
f 49/274/39 50/275/39 94/276/39 93/277/39
f 52/278/31 49/279/31 93/280/31 96/281/31
f 51/275/40 52/274/40 96/282/40 95/283/40
f 40/284/41 38/285/41 82/286/41 84/287/41
f 53/288/42 54/289/42 98/290/42 97/291/42
f 56/292/33 53/293/33 97/294/33 100/295/33
f 55/296/43 56/297/43 100/298/43 99/299/43
f 44/300/44 40/301/44 84/302/44 88/303/44
f 57/304/45 58/305/45 102/306/45 101/307/45
f 60/308/35 57/309/35 101/310/35 104/311/35
f 59/312/46 60/313/46 104/314/46 103/315/46
f 42/316/47 44/317/47 88/318/47 86/319/47
f 61/320/48 62/321/48 106/322/48 105/323/48
f 64/324/37 61/325/37 105/293/37 108/292/37
f 63/326/49 64/327/49 108/328/49 107/329/49
f 38/330/50 42/97/50 86/331/50 82/332/50
f 65/333/48 66/334/48 110/335/48 109/336/48
f 66/337/38 67/338/38 111/339/38 110/340/38
f 67/341/49 68/342/49 112/343/49 111/344/49
f 41/345/5 37/346/5 81/347/5 85/348/5
f 69/349/45 70/350/45 114/351/45 113/352/45
f 70/353/36 71/354/36 115/355/36 114/356/36
f 71/357/46 72/358/46 116/359/46 115/360/46
f 43/361/5 41/345/5 85/348/5 87/362/5
f 73/363/42 74/364/42 118/365/42 117/366/42
f 74/367/34 75/368/34 119/369/34 118/370/34
f 75/371/43 76/372/43 120/373/43 119/374/43
f 39/375/5 43/361/5 87/362/5 83/376/5
f 77/377/39 78/378/39 122/379/39 121/380/39
f 78/356/32 79/355/32 123/381/32 122/382/32
f 79/383/40 80/384/40 124/385/40 123/386/40
f 37/346/5 39/375/5 83/376/5 81/347/5
