# Blender 4.2.3 LTS
# www.blender.org
mtllib Cooper_mine.mtl
o Cooper_mine
v -0.240000 0.000000 0.500000
v 0.240000 0.000000 0.500000
v -0.240000 0.000000 -0.500000
v 0.240000 0.000000 -0.500000
v -0.240000 0.000000 0.050000
v 0.240000 0.000000 0.050000
v -0.240000 0.300000 0.050000
v -0.240000 0.300000 0.500000
v 0.240000 0.300000 0.500000
v 0.240000 0.300000 0.050000
v 0.240000 0.300000 -0.500000
v -0.240000 0.300000 -0.500000
v -0.168000 0.600000 0.117500
v -0.168000 0.600000 0.432500
v 0.168000 0.600000 0.432500
v 0.168000 0.600000 0.117500
v 0.000000 0.350000 0.050000
v 0.000000 0.350000 -0.500000
v -0.105000 0.316272 -0.285000
v -0.073500 0.700000 -0.316500
v -0.105000 0.316272 -0.495000
v -0.073500 0.700000 -0.463500
v 0.105000 0.316272 -0.285000
v 0.073500 0.700000 -0.316500
v 0.105000 0.316272 -0.495000
v 0.073500 0.700000 -0.463500
v 0.000000 0.316272 -0.495000
v 0.000000 0.700000 -0.463500
v 0.000000 0.316272 -0.285000
v 0.000000 0.700000 -0.316500
v -0.105000 0.700000 -0.285000
v -0.105000 0.700000 -0.495000
v 0.000000 0.700000 -0.495000
v 0.105000 0.700000 -0.495000
v 0.105000 0.700000 -0.285000
v 0.000000 0.700000 -0.285000
v 0.000000 0.367193 -0.463500
v 0.000000 0.367193 -0.316500
v -0.073500 0.367193 -0.316500
v -0.073500 0.367193 -0.463500
v 0.073500 0.367193 -0.463500
v 0.073500 0.367193 -0.316500
v 0.010000 0.800000 -0.410000
v 0.010000 0.884853 -0.374853
v 0.010000 0.920000 -0.290000
v 0.010000 0.884853 -0.205147
v 0.010000 0.800000 -0.170000
v 0.010000 0.715147 -0.205147
v 0.010000 0.680000 -0.290000
v 0.010000 0.715147 -0.374853
v -0.010000 0.884853 -0.374853
v -0.010000 0.800000 -0.410000
v -0.010000 0.920000 -0.290000
v -0.010000 0.884853 -0.205147
v -0.010000 0.800000 -0.170000
v -0.010000 0.715147 -0.205147
v -0.010000 0.680000 -0.290000
v -0.010000 0.715147 -0.374853
v -0.020000 0.772145 -0.294911
v -0.020000 0.795089 -0.262145
v -0.020000 0.804911 -0.317854
v -0.020000 0.827855 -0.285088
v 0.020000 0.772145 -0.294911
v 0.020000 0.795089 -0.262145
v 0.020000 0.804911 -0.317854
v 0.020000 0.827855 -0.285088
v -0.020000 0.808820 -0.340022
v -0.020000 0.749978 -0.298820
v -0.020000 0.791180 -0.239978
v -0.020000 0.850022 -0.281180
v 0.020000 0.850022 -0.281180
v 0.020000 0.808820 -0.340022
v 0.020000 0.749978 -0.298820
v 0.020000 0.791180 -0.239978
v -0.030000 0.808820 -0.340022
v -0.048035 0.749978 -0.298820
v -0.048035 0.791180 -0.239978
v -0.030000 0.850022 -0.281180
v 0.030000 0.850022 -0.281180
v 0.030000 0.808820 -0.340022
v 0.048035 0.749978 -0.298820
v 0.048035 0.791180 -0.239978
v -0.150905 0.210400 0.066924
v -0.150905 0.262946 0.141968
v 0.150905 0.262946 0.141968
v 0.150905 0.210400 0.066924
v -0.226358 0.210400 0.066924
v -0.226358 0.262946 0.141968
v 0.226358 0.262946 0.141968
v 0.226358 0.210400 0.066924
v 0.006000 0.882028 -0.207258
v -0.006000 0.882028 -0.207258
v 0.006000 0.575437 0.203134
v -0.006000 0.575437 0.203134
v 0.006000 0.878022 -0.210250
v -0.006000 0.878022 -0.210250
v 0.006000 0.571431 0.200141
v -0.006000 0.571431 0.200141
vn -0.0000 -1.0000 -0.0000
vn -0.0000 -0.0000 1.0000
vn -0.0000 0.2195 0.9756
vn -1.0000 -0.0000 -0.0000
vn 1.0000 -0.0000 -0.0000
vn -0.0000 -0.0000 -1.0000
vn -0.0000 0.2195 -0.9756
vn -0.9724 0.2334 -0.0000
vn 0.9724 0.2334 -0.0000
vn -0.2040 0.9790 -0.0000
vn 0.2040 0.9790 -0.0000
vn -0.0000 1.0000 -0.0000
vn -0.0000 0.9239 -0.3827
vn -0.0000 -0.9239 -0.3827
vn -0.0000 -0.3827 0.9239
vn -0.0000 0.9239 0.3827
vn -0.0000 0.3827 -0.9239
vn -0.0000 -0.3827 -0.9239
vn -0.0000 -0.9239 0.3827
vn -0.0000 0.3827 0.9239
vn -0.0000 0.8192 -0.5736
vn -0.0000 -0.8192 0.5736
vn -0.0000 -0.5736 -0.8192
vn -0.0000 0.5736 0.8192
vn -0.9804 -0.1613 0.1129
vn -0.9699 0.1995 -0.1397
vn 0.9699 0.1995 -0.1397
vn -0.0000 0.5859 0.8104
vn 0.9804 -0.1613 0.1129
vn 0.9646 0.2162 -0.1514
vn -0.0000 -0.5611 -0.8278
vn -0.9646 0.2162 -0.1514
vn -0.0000 0.8011 0.5985
vn -0.0000 -0.8011 -0.5985
vn -0.0000 0.5985 -0.8011
vn -0.0000 -0.5985 0.8011
vt 0.342799 0.192825
vt 0.342799 0.428499
vt 0.000000 0.428499
vt 0.000000 0.192825
vt 0.342799 0.000000
vt 0.000000 0.000000
vt 0.578474 0.771298
vt 0.578474 0.428499
vt 0.599899 0.599899
vt 0.731662 0.342799
vt 0.731662 0.685598
vt 0.599899 0.634178
vt 0.599899 0.394219
vt 0.471349 -0.000000
vt 0.471349 0.235674
vt 0.342799 0.235674
vt 0.342799 -0.000000
vt 0.599899 0.192825
vt 0.599899 0.428499
vt 0.471349 0.428499
vt 0.471349 0.192824
vt 0.471349 0.428499
vt 0.342799 0.428499
vt 0.599899 -0.000000
vt 0.471349 -0.000000
vt 0.599899 0.342799
vt 0.599899 0.000000
vt 0.728448 0.000000
vt 0.728448 0.342799
vt 0.260313 0.428499
vt 0.260313 0.771298
vt 0.131763 0.771298
vt 0.131763 0.428499
vt 0.131763 0.428499
vt 0.131763 0.771298
vt -0.000000 0.719878
vt 0.000000 0.479919
vt 0.571499 0.668458
vt 0.571499 0.861283
vt 0.433047 0.832359
vt 0.433047 0.697382
vt 0.870114 0.342799
vt 0.870114 0.535624
vt 0.731662 0.506700
vt 0.731662 0.371723
vt 0.433047 0.428499
vt 0.433047 0.664173
vt 0.260313 0.664173
vt 0.260313 0.428499
vt 0.433047 0.664173
vt 0.433047 0.899848
vt 0.260313 0.899848
vt 0.260313 0.664173
vt 0.749873 0.171400
vt 0.568024 0.668458
vt 0.433047 0.668458
vt 0.433047 0.428499
vt 0.568024 0.428499
vt 0.170328 0.935725
vt 0.170328 0.771298
vt 0.260313 0.935725
vt 0.674886 0.850025
vt 0.674886 0.685598
vt 0.749873 0.685598
vt 0.749873 0.850025
vt 0.870114 0.822513
vt 0.870114 0.658086
vt 0.960099 0.658086
vt 0.960099 0.822513
vt 0.824861 0.164427
vt 0.824861 0.000000
vt 0.899848 0.000000
vt 0.899848 0.164427
vt 0.960099 0.897501
vt 0.960099 0.972488
vt 0.870114 0.972488
vt 0.870114 0.897501
vt 0.107339 0.771298
vt 0.170328 0.771298
vt 0.170328 0.913905
vt 0.107339 0.913905
vt 0.689883 0.850025
vt 0.752873 0.850025
vt 0.752873 0.992633
vt 0.689883 0.992633
vt 0.749873 0.164427
vt 0.749873 0.000000
vt 0.599899 0.850025
vt 0.599899 0.685598
vt 0.613396 0.977504
vt 0.676386 0.977504
vt 0.689883 1.000000
vt 0.599899 1.000000
vt 0.676386 0.925013
vt 0.676386 0.872522
vt 0.689883 0.850025
vt 0.689883 0.925013
vt 0.613396 0.872522
vt 0.613396 0.925013
vt 0.599899 0.925013
vt 0.591047 0.913774
vt 0.591047 0.966265
vt 0.528058 0.966265
vt 0.528058 0.913774
vt 0.591047 0.861283
vt 0.528058 0.861283
vt 0.802364 0.164427
vt 0.854855 0.164427
vt 0.854855 0.307034
vt 0.802364 0.307034
vt 0.749873 0.164427
vt 0.749873 0.307034
vt 0.000000 0.771298
vt 0.052491 0.771298
vt 0.052491 0.913905
vt 0.000000 0.913905
vt 0.104982 0.771298
vt 0.104982 0.913905
vt 0.772054 0.918094
vt 0.772054 0.878739
vt 0.799883 0.850911
vt 0.839238 0.850911
vt 0.867066 0.878739
vt 0.867066 0.918094
vt 0.839238 0.945922
vt 0.799883 0.945922
vt 0.528058 0.928466
vt 0.500230 0.956294
vt 0.460875 0.956294
vt 0.433047 0.928466
vt 0.433047 0.889111
vt 0.460875 0.861283
vt 0.500230 0.861283
vt 0.528058 0.889111
vt 0.869139 0.273918
vt 0.854855 0.273918
vt 0.854855 0.234563
vt 0.869139 0.234563
vt 0.883422 0.273918
vt 0.883422 0.234563
vt 0.854855 0.195207
vt 0.869139 0.195207
vt 0.869139 0.234563
vt 0.854855 0.234563
vt 0.872995 0.298460
vt 0.887278 0.298460
vt 0.887278 0.337815
vt 0.872995 0.337815
vt 0.770918 0.902257
vt 0.756634 0.902257
vt 0.756634 0.862902
vt 0.770918 0.862902
vt 0.897705 0.234562
vt 0.883422 0.234562
vt 0.883422 0.195207
vt 0.897705 0.195207
vt 0.869139 0.195207
vt 0.883422 0.195207
vt 0.883422 0.234562
vt 0.869139 0.234562
vt 0.883422 0.234563
vt 0.897705 0.234563
vt 0.897705 0.273918
vt 0.883422 0.273918
vt 0.835394 0.330994
vt 0.835394 0.313855
vt 0.842215 0.307034
vt 0.842214 0.337815
vt 0.871995 0.302484
vt 0.854856 0.302484
vt 0.854856 0.273918
vt 0.871995 0.273918
vt 0.818254 0.313855
vt 0.811434 0.307034
vt 0.892017 0.192994
vt 0.874877 0.192994
vt 0.874877 0.164427
vt 0.892017 0.164427
vt 0.277453 0.928414
vt 0.277453 0.899848
vt 0.294593 0.899848
vt 0.294593 0.928414
vt 0.260313 0.928414
vt 0.731662 0.674176
vt 0.731662 0.643395
vt 0.738804 0.643395
vt 0.751684 0.674176
vt 0.964337 0.658086
vt 0.995117 0.658086
vt 0.999355 0.952605
vt 0.960099 0.952605
vt 0.866175 0.313855
vt 0.849035 0.313855
vt 0.842214 0.307034
vt 0.872995 0.307034
vt 0.849035 0.330994
vt 0.866175 0.330994
vt 0.872995 0.337815
vt 0.842214 0.337815
vt 0.818254 0.330994
vt 0.811434 0.337815
vt 0.780654 0.340401
vt 0.749873 0.340401
vt 0.749873 0.307034
vt 0.780654 0.307034
vt 0.811434 0.307034
vt 0.811434 0.340401
vt 0.780654 0.340401
vt 0.757015 0.685598
vt 0.757015 0.716379
vt 0.749873 0.716379
vt 0.802867 0.535624
vt 0.821084 0.543930
vt 0.821084 0.850911
vt 0.772054 0.828556
vt 0.598495 0.771298
vt 0.598495 0.802078
vt 0.578474 0.802078
vt 0.591353 0.771298
vt 0.749873 0.747159
vt 0.749873 0.716379
vt 0.757015 0.716379
vt 0.757015 0.747159
vt 0.854855 0.195207
vt 0.854855 0.164427
vt 0.861997 0.164427
vt 0.874877 0.195207
vt 0.598495 0.802078
vt 0.598495 0.832859
vt 0.578474 0.832859
vt 0.591353 0.802078
vt 0.731662 0.535624
vt 0.770918 0.535624
vt 0.770918 0.589509
vt 0.731662 0.589509
vt 0.770918 0.643395
vt 0.731662 0.589509
vt 0.770918 0.589509
vt 0.870114 0.351105
vt 0.888332 0.342799
vt 0.919144 0.635732
vt 0.870114 0.658086
vt 0.962637 0.342799
vt 0.993418 0.342799
vt 0.997655 0.637317
vt 0.958400 0.637317
vt 0.953115 -0.000000
vt 0.983896 -0.000000
vt 0.988133 0.306952
vt 0.948878 0.306952
vt 0.899848 0.008306
vt 0.918065 0.000000
vt 0.948878 0.292933
vt 0.899848 0.315287
vt 0.923382 0.342799
vt 0.954162 0.342799
vt 0.958400 0.649751
vt 0.919144 0.649751
vt 0.851897 0.535624
vt 0.870114 0.543930
vt 0.870114 0.850911
vt 0.821084 0.828556
vt 0.568024 0.428499
vt 0.576594 0.428499
vt 0.576594 0.648006
vt 0.568024 0.648006
vt 0.770918 0.643395
vt 0.762348 0.862902
vt 0.762348 0.643395
vt 0.760205 0.643395
vt 0.762348 0.643395
vt 0.762348 0.862902
vt 0.760205 0.862902
vt 0.568024 0.648006
vt 0.570166 0.648006
vt 0.570166 0.656576
vt 0.568024 0.656576
vt 0.760205 0.862902
vt 0.758063 0.862902
vt 0.758063 0.643395
vt 0.760205 0.643395
vt 0.570166 0.648006
vt 0.572309 0.648006
vt 0.572309 0.656576
vt 0.570166 0.656576
s 0
f 5/1/1 3/2/1 4/3/1 6/4/1
f 1/5/1 5/1/1 6/4/1 2/6/1
f 7/7/2 10/8/2 17/9/2
f 8/10/3 9/11/3 15/12/3 14/13/3
f 3/14/4 5/15/4 7/16/4 12/17/4
f 6/18/5 4/19/5 11/20/5 10/21/5
f 5/15/4 1/22/4 8/23/4 7/16/4
f 2/24/5 6/18/5 10/21/5 9/25/5
f 4/26/6 3/27/6 12/28/6 11/29/6
f 1/30/2 2/31/2 9/32/2 8/33/2
f 10/34/7 7/35/7 13/36/7 16/37/7
f 7/38/8 8/39/8 14/40/8 13/41/8
f 9/42/9 10/43/9 16/44/9 15/45/9
f 12/46/10 7/47/10 17/48/10 18/49/10
f 10/50/11 11/51/11 18/52/11 17/53/11
f 11/29/6 12/28/6 18/54/6
f 13/55/12 14/56/12 15/57/12 16/58/12
f 19/59/4 31/60/4 32/31/4 21/61/4
f 27/62/6 33/63/6 34/64/6 25/65/6
f 25/66/5 34/67/5 35/68/5 23/69/5
f 29/70/2 36/71/2 31/72/2 19/73/2
f 27/74/1 25/75/1 23/76/1 29/77/1
f 22/78/5 20/79/5 39/80/5 40/81/5
f 24/82/4 26/83/4 41/84/4 42/85/4
f 21/69/1 27/74/1 29/77/1 19/66/1
f 23/86/2 35/87/2 36/71/2 29/70/2
f 21/88/6 32/89/6 33/63/6 27/62/6
f 20/90/12 22/91/12 32/92/12 31/93/12
f 28/94/12 26/95/12 34/96/12 33/97/12
f 26/95/12 24/98/12 35/88/12 34/96/12
f 30/99/12 20/90/12 31/93/12 36/100/12
f 22/91/12 28/94/12 33/97/12 32/92/12
f 24/98/12 30/99/12 36/100/12 35/88/12
f 37/101/12 40/102/12 39/103/12 38/104/12
f 41/105/12 37/101/12 38/104/12 42/106/12
f 30/107/6 24/108/6 42/109/6 38/110/6
f 20/111/6 30/107/6 38/110/6 39/112/6
f 26/113/2 28/114/2 37/115/2 41/116/2
f 28/114/2 22/117/2 40/118/2 37/115/2
f 44/119/5 45/120/5 46/121/5 47/122/5 48/123/5 49/124/5 50/125/5 43/126/5
f 51/127/4 52/128/4 58/129/4 57/130/4 56/131/4 55/132/4 54/133/4 53/134/4
f 44/135/13 51/136/13 53/137/13 45/138/13
f 49/139/14 57/135/14 58/138/14 50/140/14
f 47/141/15 55/142/15 56/143/15 48/144/15
f 45/145/16 53/146/16 54/147/16 46/148/16
f 43/149/17 52/150/17 51/151/17 44/152/17
f 50/153/18 58/154/18 52/155/18 43/156/18
f 48/157/19 56/158/19 57/159/19 49/160/19
f 46/161/20 54/162/20 55/163/20 47/164/20
f 65/165/4 66/166/4 71/167/4 72/168/4
f 61/169/21 62/170/21 66/171/21 65/172/21
f 66/166/4 64/173/4 74/174/4 71/167/4
f 63/175/22 64/176/22 60/177/22 59/178/22
f 61/179/23 65/180/23 63/181/23 59/182/23
f 66/183/24 62/52/24 60/180/24 64/179/24
f 73/184/23 72/185/23 80/186/23 81/187/23
f 74/188/25 73/189/25 86/190/25 85/191/25
f 60/192/5 62/193/5 70/194/5 69/195/5
f 61/196/5 59/197/5 68/198/5 67/199/5
f 64/173/4 63/200/4 73/201/4 74/174/4
f 63/200/4 65/165/4 72/168/4 73/201/4
f 62/193/5 61/196/5 67/199/5 70/194/5
f 59/197/5 60/192/5 69/195/5 68/198/5
f 76/202/26 77/203/26 78/204/26 75/205/26
f 80/205/27 79/206/27 82/207/27 81/208/27
f 70/209/21 67/210/21 75/211/21 78/64/21
f 69/212/28 77/213/28 88/214/28 84/215/28
f 71/216/24 74/217/24 82/218/24 79/219/24
f 72/220/21 71/221/21 79/222/21 80/223/21
f 69/224/24 70/225/24 78/226/24 77/227/24
f 67/228/23 68/229/23 76/230/23 75/231/23
f 85/232/22 86/233/22 90/234/22 89/235/22
f 83/236/22 84/185/22 88/237/22 87/238/22
f 82/239/28 74/240/28 85/241/28 89/242/28
f 68/243/29 69/244/29 84/245/29 83/246/29
f 81/247/30 82/248/30 89/249/30 90/250/30
f 76/251/31 68/252/31 83/253/31 87/254/31
f 77/255/32 76/256/32 87/257/32 88/258/32
f 73/259/31 81/260/31 90/261/31 86/262/31
f 91/263/33 92/264/33 94/265/33 93/266/33
f 95/267/34 97/152/34 98/268/34 96/269/34
f 92/270/4 96/271/4 98/272/4 94/273/4
f 91/274/35 95/275/35 96/276/35 92/277/35
f 93/278/5 97/279/5 95/280/5 91/281/5
f 94/282/36 98/283/36 97/284/36 93/285/36
