# Blender 4.2.3 LTS
# www.blender.org
mtllib Iron_mine.mtl
o Iron_mine
v -0.400000 0.000000 0.425000
v 0.375000 0.300000 -0.050000
v -0.400000 0.000000 -0.075000
v 0.375000 0.300000 0.400000
v 0.400000 0.000000 0.425000
v -0.375000 0.300000 -0.050000
v 0.400000 0.000000 -0.075000
v -0.375000 0.300000 0.400000
v -0.400000 0.300000 0.425000
v 0.400000 0.300000 0.425000
v -0.400000 0.300000 -0.075000
v 0.400000 0.300000 -0.075000
v 0.375000 0.330000 -0.050000
v 0.375000 0.330000 0.400000
v -0.375000 0.330000 -0.050000
v -0.375000 0.330000 0.400000
v -0.400000 0.330000 0.425000
v 0.400000 0.330000 0.425000
v -0.400000 0.330000 -0.075000
v 0.400000 0.330000 -0.075000
v -0.120000 0.000000 0.185000
v 0.120000 0.000000 0.185000
v -0.120000 0.000000 -0.435000
v 0.120000 0.000000 -0.435000
v -0.120000 0.700000 0.185000
v 0.120000 0.700000 0.185000
v -0.120000 0.700000 -0.035000
v 0.120000 0.700000 -0.035000
v 0.120000 0.350000 -0.235000
v 0.120000 0.350000 0.185000
v -0.120000 0.350000 0.185000
v -0.120000 0.350000 -0.235000
v 0.120000 0.372000 0.145400
v 0.120000 0.372000 -0.180881
v 0.120000 0.678000 -0.006024
v 0.120000 0.678000 0.145400
v -0.120000 0.372000 -0.180881
v -0.120000 0.372000 0.145400
v -0.120000 0.678000 0.145400
v -0.120000 0.678000 -0.006024
v -0.120000 0.022000 -0.380881
v -0.120000 0.022000 0.145400
v -0.120000 0.328000 0.145400
v -0.120000 0.328000 -0.206024
v 0.120000 0.022000 0.145400
v 0.120000 0.022000 -0.380881
v 0.120000 0.328000 -0.206024
v 0.120000 0.328000 0.145400
v 0.089948 0.370969 -0.223018
v -0.089948 0.370969 -0.223018
v -0.089948 0.679031 -0.046982
v 0.089948 0.679031 -0.046982
v -0.089948 0.372000 0.185000
v 0.089948 0.372000 0.185000
v 0.089948 0.678000 0.185000
v -0.089948 0.678000 0.185000
v -0.089948 0.022000 0.185000
v 0.089948 0.022000 0.185000
v 0.089948 0.328000 0.185000
v -0.089948 0.328000 0.185000
v 0.089948 0.020969 -0.423018
v -0.089948 0.020969 -0.423018
v -0.089948 0.329031 -0.246982
v 0.089948 0.329031 -0.246982
v -0.114000 0.010000 0.167001
v 0.114000 0.010000 0.167001
v -0.113488 0.009410 -0.411853
v 0.113488 0.009410 -0.411853
v -0.114000 0.700000 0.167001
v 0.114000 0.700000 0.167001
v -0.113393 0.697214 -0.019200
v 0.113393 0.697214 -0.019200
v 0.114000 0.346974 -0.217844
v 0.114000 0.350000 0.167001
v -0.114000 0.350000 0.167001
v -0.114000 0.346974 -0.217844
v 0.114000 0.372000 0.145400
v 0.114000 0.372000 -0.180881
v 0.114000 0.678000 -0.006024
v 0.114000 0.678000 0.145400
v -0.114000 0.372000 -0.180881
v -0.114000 0.372000 0.145400
v -0.114000 0.678000 0.145400
v -0.114000 0.678000 -0.006024
v -0.114000 0.022000 -0.380881
v -0.114000 0.022000 0.145400
v -0.114000 0.328000 0.145400
v -0.114000 0.328000 -0.206024
v 0.114000 0.022000 0.145400
v 0.114000 0.022000 -0.380881
v 0.114000 0.328000 -0.206024
v 0.114000 0.328000 0.145400
v 0.089948 0.367943 -0.205861
v -0.089948 0.367943 -0.205861
v -0.089948 0.676006 -0.029826
v 0.089948 0.676006 -0.029826
v -0.089948 0.372000 0.167000
v 0.089948 0.372000 0.167000
v 0.089948 0.678000 0.167000
v -0.089948 0.678000 0.167000
v -0.089948 0.022000 0.167000
v 0.089948 0.022000 0.167000
v 0.089948 0.328000 0.167000
v -0.089948 0.328000 0.167000
v 0.089948 0.017943 -0.405861
v -0.089948 0.017943 -0.405861
v -0.089948 0.326005 -0.229826
v 0.089948 0.326005 -0.229826
v -0.120000 0.700000 0.185000
v 0.120000 0.700000 0.185000
v -0.120000 0.700000 -0.035000
v 0.120000 0.700000 -0.035000
v -0.156000 0.700000 -0.153800
v -0.156000 0.700000 0.303800
v 0.156000 0.700000 0.303800
v 0.156000 0.700000 -0.153800
v -0.156000 1.000000 0.075000
v -0.156000 0.872889 -0.153800
v -0.156000 0.962770 -0.086786
v -0.156000 0.872889 0.303800
v -0.156000 0.962770 0.236786
v 0.156000 1.000000 0.075000
v 0.156000 0.872889 0.303800
v 0.156000 0.962770 0.236786
v 0.156000 0.872889 -0.153800
v 0.156000 0.962770 -0.086786
vn -0.0000 -0.0000 1.0000
vn -1.0000 -0.0000 -0.0000
vn -0.0000 1.0000 -0.0000
vn -0.0000 -0.0000 -1.0000
vn -0.0000 -1.0000 -0.0000
vn 1.0000 -0.0000 -0.0000
vn -0.0000 0.4961 -0.8682
vn -0.0000 1.0000 -0.0010
vn -0.9999 -0.0084 0.0131
vn -0.9999 -0.0151 0.0019
vn 0.9999 -0.0151 0.0019
vn 0.9999 -0.0084 0.0131
vn 0.9998 0.0206 0.0005
vn 0.9999 -0.0056 0.0111
vn -0.9998 0.0206 0.0005
vn -0.9999 -0.0056 0.0111
vn -0.0000 -0.4962 0.8682
vn -0.0273 -0.4944 0.8688
vn -0.0000 -0.4479 0.8941
vn 0.0273 -0.4944 0.8688
vn -0.0000 -0.0001 -1.0000
vn -0.0000 -0.5747 0.8184
vn -0.0207 -0.4972 0.8674
vn -0.0000 -0.4961 0.8683
vn 0.0207 -0.4972 0.8674
vn 0.2147 0.9767 -0.0064
vn -0.2147 0.9767 -0.0064
vn -0.0000 0.9848 0.1737
vn -0.0000 -0.4961 0.8682
vn -0.0000 -0.9848 -0.1737
vn -0.0000 0.9745 -0.2243
vn -0.0000 0.5977 0.8017
vn -0.0000 0.5977 -0.8017
vn -0.0000 0.9745 0.2243
vt 0.896342 0.621067
vt 0.772129 0.621067
vt 0.772129 0.289831
vt 0.896342 0.289831
vt 0.136635 0.828089
vt 0.012421 0.828089
vt 0.012421 0.621067
vt 0.136635 0.621067
vt 0.600365 0.600364
vt 0.414044 0.600364
vt 0.414045 0.289831
vt 0.600365 0.289831
vt 0.736999 0.906757
vt 0.612786 0.906757
vt 0.612786 0.575522
vt 0.736999 0.575522
vt 0.207022 0.289831
vt 0.207022 0.621067
vt 0.000000 0.621067
vt 0.000000 0.289831
vt 0.273269 0.828089
vt 0.149056 0.828089
vt 0.149056 0.621067
vt 0.273269 0.621067
vt 0.600365 0.906757
vt 0.600365 0.575522
vt 0.385061 0.807387
vt 0.372640 0.807387
vt 0.372640 0.621067
vt 0.385061 0.621067
vt 0.749421 0.886055
vt 0.736999 0.886055
vt 0.749421 0.575522
vt -0.000000 0.828089
vt 0.000000 0.621067
vt 0.217373 0.610716
vt 0.207022 0.621067
vt 0.207022 0.289831
vt 0.217373 0.300182
vt 0.403693 0.610716
vt 0.414044 0.621067
vt 0.414044 0.289831
vt 0.403693 0.300182
vt 0.759708 0.621067
vt 0.759708 0.289831
vt 0.397483 0.807387
vt 0.385061 0.807387
vt 0.385061 0.621067
vt 0.397483 0.621067
vt 0.597420 0.910898
vt 0.584999 0.910898
vt 0.584999 0.600364
vt 0.597420 0.600364
vt 0.136635 0.828089
vt 0.372640 0.621067
vt 0.372640 0.877774
vt 0.273269 0.877774
vt 0.273269 0.621067
vt 0.256708 0.144916
vt 0.082809 0.144916
vt 0.105217 0.135807
vt 0.240311 0.135807
vt 0.165618 0.000000
vt 0.177615 0.009109
vt 0.256708 0.000000
vt 0.240311 0.009109
vt 0.430606 0.144916
vt 0.256708 0.144916
vt 0.273104 0.135807
vt 0.408199 0.135807
vt 0.256708 0.000000
vt 0.273104 0.009109
vt 0.347797 0.000000
vt 0.335800 0.009109
vt 0.513415 0.289831
vt 0.256708 0.289831
vt 0.273104 0.280722
vt 0.491007 0.280722
vt 0.273104 0.154025
vt 0.418609 0.154025
vt 0.256708 0.289831
vt 0.000000 0.289831
vt 0.022408 0.280722
vt 0.240311 0.280722
vt 0.094806 0.154025
vt 0.240311 0.154025
vt 0.513415 0.767271
vt 0.414044 0.767271
vt 0.426488 0.757272
vt 0.500972 0.757272
vt 0.426488 0.610364
vt 0.513415 0.600364
vt 0.500972 0.610364
vt 0.772129 0.144916
vt 0.672758 0.144916
vt 0.685201 0.135807
vt 0.759686 0.135807
vt 0.672758 0.000000
vt 0.685201 0.009109
vt 0.772129 0.000000
vt 0.759686 0.009109
vt 0.772129 0.289831
vt 0.672758 0.289831
vt 0.685201 0.280722
vt 0.759686 0.280722
vt 0.685201 0.154025
vt 0.759686 0.154025
vt 0.513415 0.934178
vt 0.414044 0.934178
vt 0.426488 0.924178
vt 0.500972 0.924178
vt 0.426488 0.777271
vt 0.500972 0.777271
vt 0.888889 0.621067
vt 0.983291 0.621067
vt 0.983080 0.860738
vt 0.889101 0.860738
vt 0.513415 0.144916
vt 0.522359 0.135807
vt 0.657454 0.135807
vt 0.672758 0.146168
vt 0.960109 0.456546
vt 0.951909 0.439983
vt 0.951435 0.294060
vt 0.960109 0.289831
vt 0.176259 0.905193
vt 0.168221 0.899857
vt 0.167286 0.837168
vt 0.176259 0.828089
vt 0.513415 -0.000000
vt 0.522359 0.009109
vt 0.600365 0.435999
vt 0.615669 0.425638
vt 0.750764 0.425638
vt 0.759708 0.434747
vt 0.750764 0.298940
vt 0.759708 0.289831
vt 0.176259 0.828089
vt 0.185233 0.837168
vt 0.184298 0.899857
vt 0.176259 0.905194
vt 0.942762 0.289831
vt 0.951435 0.294060
vt 0.950962 0.439983
vt 0.942762 0.456546
vt 0.965311 0.529503
vt 0.960109 0.516673
vt 0.960334 0.298770
vt 0.965311 0.289831
vt 0.759708 0.575522
vt 0.750764 0.570553
vt 0.750764 0.443856
vt 0.605259 0.443856
vt 0.942762 0.456546
vt 0.950920 0.460919
vt 0.951285 0.606842
vt 0.942762 0.617752
vt 0.408842 0.621067
vt 0.413818 0.630005
vt 0.414044 0.847909
vt 0.408842 0.860738
vt 0.959808 0.617752
vt 0.951285 0.606842
vt 0.951650 0.460919
vt 0.959808 0.456546
vt 0.667864 0.154025
vt 0.522359 0.154024
vt 0.522359 0.280722
vt 0.513415 0.285691
vt 0.876530 0.189467
vt 0.886530 0.199425
vt 0.886530 0.273910
vt 0.876530 0.283869
vt 0.407423 0.787782
vt 0.397483 0.777767
vt 0.397691 0.630860
vt 0.407423 0.621067
vt 0.886530 0.189467
vt 0.896351 0.199174
vt 0.896351 0.273659
vt 0.886530 0.283366
vt 0.749421 0.575522
vt 0.759153 0.585315
vt 0.759361 0.732222
vt 0.749421 0.742237
vt 0.782087 0.135807
vt 0.856572 0.135807
vt 0.866531 0.144916
vt 0.856572 0.009109
vt 0.866531 0.000000
vt 0.782087 0.009109
vt 0.772129 0.285691
vt 0.782087 0.280722
vt 0.856572 0.280722
vt 0.866531 0.285691
vt 0.856572 0.154025
vt 0.782087 0.154025
vt 0.376957 0.901365
vt 0.372640 0.891618
vt 0.372640 0.817134
vt 0.376957 0.807387
vt 0.759364 0.903443
vt 0.749606 0.899156
vt 0.749421 0.752249
vt 0.759364 0.742237
vt 0.866531 0.273910
vt 0.866531 0.199425
vt 0.397483 0.787782
vt 0.407427 0.797794
vt 0.407241 0.944701
vt 0.397483 0.948988
vt 0.910446 0.280555
vt 0.910446 0.189467
vt 0.912873 0.196916
vt 0.913366 0.274017
vt 0.896351 0.288837
vt 0.896351 0.189467
vt 0.903804 0.191951
vt 0.903804 0.286353
vt 0.916285 0.189467
vt 0.916285 0.280555
vt 0.913366 0.274017
vt 0.913859 0.196916
vt 0.910446 0.189467
vt 0.910446 0.288837
vt 0.903804 0.286102
vt 0.903804 0.192202
vt 0.251349 0.828089
vt 0.251349 0.963184
vt 0.248865 0.963184
vt 0.248865 0.828089
vt 0.256318 0.828089
vt 0.256318 0.954787
vt 0.253834 0.954787
vt 0.253834 0.828089
vt 0.886405 0.956457
vt 0.886405 0.810533
vt 0.888889 0.810533
vt 0.888889 0.956457
vt 0.268301 0.890785
vt 0.268301 0.828089
vt 0.270785 0.828089
vt 0.270785 0.890785
vt 0.251349 0.963184
vt 0.251349 0.828089
vt 0.253834 0.828089
vt 0.253834 0.963184
vt 0.599904 0.818268
vt 0.599904 0.964192
vt 0.597420 0.964192
vt 0.597420 0.818268
vt 0.256318 0.954787
vt 0.256318 0.828089
vt 0.258802 0.828089
vt 0.258802 0.954787
vt 0.265817 0.890785
vt 0.265817 0.828089
vt 0.597420 0.818268
vt 0.597420 0.600364
vt 0.599904 0.600364
vt 0.599904 0.818268
vt 0.394335 0.807387
vt 0.394335 0.953311
vt 0.391850 0.953311
vt 0.391850 0.807387
vt 0.258802 0.954786
vt 0.258802 0.828089
vt 0.261286 0.828089
vt 0.261286 0.954786
vt 0.246381 0.828089
vt 0.246381 0.973594
vt 0.243897 0.973594
vt 0.243897 0.828089
vt 0.974584 0.289831
vt 0.974584 0.507735
vt 0.972100 0.507735
vt 0.972100 0.289831
vt 0.273269 0.828089
vt 0.273269 0.954786
vt 0.270785 0.954786
vt 0.394335 0.953311
vt 0.394335 0.807387
vt 0.396819 0.807387
vt 0.396819 0.953311
vt 0.246381 0.973594
vt 0.246381 0.828089
vt 0.248865 0.973594
vt 0.236683 0.828089
vt 0.236683 0.902573
vt 0.229470 0.902573
vt 0.229470 0.828089
vt 0.391850 0.809823
vt 0.391850 0.956731
vt 0.385061 0.954294
vt 0.385061 0.807387
vt 0.378272 0.956731
vt 0.378272 0.809823
vt 0.385061 0.807387
vt 0.385061 0.954294
vt 0.222257 0.902574
vt 0.222257 0.828089
vt 0.229470 0.828089
vt 0.229470 0.902574
vt 0.185233 0.902574
vt 0.185233 0.828089
vt 0.192686 0.828089
vt 0.192686 0.902574
vt 0.144928 0.828089
vt 0.144928 0.954787
vt 0.137475 0.954787
vt 0.137475 0.828089
vt 0.152380 0.828089
vt 0.152380 0.954787
vt 0.200139 0.828089
vt 0.200139 0.902574
vt 0.207591 0.828089
vt 0.207591 0.902574
vt 0.159833 0.828089
vt 0.159833 0.954786
vt 0.152380 0.954786
vt 0.152380 0.828089
vt 0.167286 0.828089
vt 0.167286 0.954786
vt 0.215044 0.828089
vt 0.215044 0.902574
vt 0.243896 0.828089
vt 0.243896 0.902574
vt 0.236683 0.902574
vt 0.972100 0.292268
vt 0.972100 0.439175
vt 0.965311 0.436739
vt 0.965311 0.289831
vt 0.965311 0.588520
vt 0.965311 0.441612
vt 0.972100 0.439175
vt 0.972100 0.586083
vt 0.215044 0.902574
vt 0.215044 0.828089
vt 0.222257 0.828089
vt 0.222257 0.902574
vt 0.774613 0.670255
vt 0.774613 0.761345
vt 0.759708 0.810533
vt 0.759708 0.621067
vt 0.584999 0.600365
vt 0.584999 0.729546
vt 0.513415 0.729546
vt 0.513415 0.600365
vt 0.873984 0.761345
vt 0.873984 0.670255
vt 0.888889 0.621067
vt 0.888889 0.810533
vt 0.584999 0.858728
vt 0.513415 0.858728
vt 0.068737 0.957271
vt 0.068737 0.828089
vt 0.137475 0.828089
vt 0.137475 0.957271
vt 0.942762 0.289831
vt 0.942762 0.419013
vt 0.896342 0.419013
vt 0.896342 0.289831
vt 0.866531 0.000000
vt 0.938114 0.000000
vt 0.975329 0.027747
vt 0.990744 0.094733
vt 0.975329 0.161720
vt 0.938114 0.189467
vt 0.866531 0.189467
vt 0.942762 0.548195
vt 0.896342 0.548195
vt 0.896342 0.419013
vt 0.759708 0.810533
vt 0.831291 0.810533
vt 0.868506 0.838280
vt 0.883921 0.905267
vt 0.868506 0.972253
vt 0.831291 1.000000
vt 0.759708 1.000000
vt 0.000000 0.957271
vt 0.000000 0.828089
s 0
f 5/1/1 10/2/1 9/3/1 1/4/1
f 1/5/2 9/6/2 11/7/2 3/8/2
f 6/9/3 8/10/3 4/11/3 2/12/3
f 3/13/4 11/14/4 12/15/4 7/16/4
f 3/17/5 7/18/5 5/19/5 1/20/5
f 7/21/6 12/22/6 10/23/6 5/24/6
f 11/14/4 19/25/4 20/26/4 12/15/4
f 6/27/6 15/28/6 16/29/6 8/30/6
f 2/31/1 13/32/1 15/16/1 6/33/1
f 9/6/2 17/34/2 19/35/2 11/7/2
f 16/36/3 17/37/3 18/38/3 14/39/3
f 15/40/3 19/41/3 17/37/3 16/36/3
f 14/39/3 18/38/3 20/42/3 13/43/3
f 13/43/3 20/42/3 19/41/3 15/40/3
f 10/2/1 18/44/1 17/45/1 9/3/1
f 4/46/2 14/47/2 13/48/2 2/49/2
f 8/50/4 16/51/4 14/52/4 4/53/4
f 12/22/6 20/54/6 18/8/6 10/23/6
f 21/55/5 23/56/5 24/57/5 22/58/5
f 30/59/6 29/60/6 34/61/6 33/62/6
f 29/60/6 28/63/6 35/64/6 34/61/6
f 28/63/6 26/65/6 36/66/6 35/64/6
f 26/65/6 30/59/6 33/62/6 36/66/6
f 32/67/2 31/68/2 38/69/2 37/70/2
f 31/68/2 25/71/2 39/72/2 38/69/2
f 25/71/2 27/73/2 40/74/2 39/72/2
f 27/73/2 32/67/2 37/70/2 40/74/2
f 23/75/2 21/76/2 42/77/2 41/78/2
f 21/76/2 31/68/2 43/79/2 42/77/2
f 31/68/2 32/67/2 44/80/2 43/79/2
f 32/67/2 23/75/2 41/78/2 44/80/2
f 22/81/6 24/82/6 46/83/6 45/84/6
f 24/82/6 29/60/6 47/85/6 46/83/6
f 29/60/6 30/59/6 48/86/6 47/85/6
f 30/59/6 22/81/6 45/84/6 48/86/6
f 29/87/7 32/88/7 50/89/7 49/90/7
f 32/88/7 27/10/7 51/91/7 50/89/7
f 27/10/7 28/92/7 52/93/7 51/91/7
f 28/92/7 29/87/7 49/90/7 52/93/7
f 31/94/1 30/95/1 54/96/1 53/97/1
f 30/95/1 26/98/1 55/99/1 54/96/1
f 26/98/1 25/100/1 56/101/1 55/99/1
f 25/100/1 31/94/1 53/97/1 56/101/1
f 21/102/1 22/103/1 58/104/1 57/105/1
f 22/103/1 30/95/1 59/106/1 58/104/1
f 30/95/1 31/94/1 60/107/1 59/106/1
f 31/94/1 21/102/1 57/105/1 60/107/1
f 24/108/7 23/109/7 62/110/7 61/111/7
f 23/109/7 32/88/7 63/112/7 62/110/7
f 32/88/7 29/87/7 64/113/7 63/112/7
f 29/87/7 24/108/7 61/111/7 64/113/7
f 65/114/8 66/115/8 68/116/8 67/117/8
f 74/118/2 77/119/2 78/120/2 73/121/2
f 73/122/9 78/123/9 79/124/9 72/125/9
f 72/126/10 79/127/10 80/128/10 70/129/10
f 70/130/2 80/131/2 77/119/2 74/118/2
f 76/132/6 81/133/6 82/134/6 75/135/6
f 75/135/6 82/134/6 83/136/6 69/137/6
f 69/138/11 83/139/11 84/140/11 71/141/11
f 71/142/12 84/143/12 81/144/12 76/145/12
f 67/146/13 85/147/13 86/148/13 65/149/13
f 65/150/6 86/151/6 87/152/6 75/135/6
f 75/135/6 87/152/6 88/153/6 76/132/6
f 76/154/14 88/155/14 85/156/14 67/157/14
f 66/158/15 89/159/15 90/160/15 68/161/15
f 68/162/16 90/163/16 91/164/16 73/165/16
f 73/121/2 91/166/2 92/167/2 74/118/2
f 74/118/2 92/167/2 89/168/2 66/169/2
f 73/170/17 93/171/17 94/172/17 76/173/17
f 76/174/18 94/175/18 95/176/18 71/177/18
f 71/178/19 95/179/19 96/180/19 72/181/19
f 72/182/20 96/183/20 93/184/20 73/185/20
f 75/94/4 97/186/4 98/187/4 74/188/4
f 74/188/4 98/187/4 99/189/4 70/190/4
f 70/190/4 99/189/4 100/191/4 69/100/4
f 69/100/4 100/191/4 97/186/4 75/94/4
f 65/192/21 101/193/21 102/194/21 66/195/21
f 66/195/4 102/194/4 103/196/4 74/188/4
f 74/188/4 103/196/4 104/197/4 75/94/4
f 75/94/4 104/197/4 101/193/4 65/192/4
f 68/198/22 105/199/22 106/200/22 67/201/22
f 67/202/23 106/203/23 107/204/23 76/205/23
f 76/173/24 107/206/24 108/207/24 73/170/24
f 73/208/25 108/209/25 105/210/25 68/211/25
f 27/212/26 25/213/26 69/214/26 71/215/26
f 25/216/3 26/217/3 70/218/3 69/219/3
f 26/220/27 28/221/27 72/222/27 70/223/27
f 28/224/28 27/225/28 71/226/28 72/227/28
f 33/228/3 34/229/3 78/230/3 77/231/3
f 36/232/4 33/233/4 77/234/4 80/235/4
f 34/236/29 35/237/29 79/238/29 78/239/29
f 35/240/5 36/241/5 80/242/5 79/243/5
f 37/244/3 38/245/3 82/246/3 81/247/3
f 40/248/29 37/249/29 81/250/29 84/251/29
f 38/252/4 39/253/4 83/254/4 82/255/4
f 39/241/5 40/240/5 84/256/5 83/257/5
f 41/258/3 42/259/3 86/260/3 85/261/3
f 44/262/29 41/263/29 85/264/29 88/265/29
f 42/266/4 43/267/4 87/268/4 86/269/4
f 43/270/5 44/271/5 88/272/5 87/273/5
f 45/274/3 46/275/3 90/276/3 89/277/3
f 48/278/4 45/279/4 89/280/4 92/242/4
f 46/281/29 47/282/29 91/283/29 90/284/29
f 47/285/5 48/286/5 92/231/5 91/287/5
f 49/288/28 50/289/28 94/290/28 93/291/28
f 52/292/2 49/293/2 93/294/2 96/295/2
f 50/296/6 51/297/6 95/298/6 94/299/6
f 51/300/30 52/301/30 96/302/30 95/303/30
f 53/304/3 54/305/3 98/306/3 97/307/3
f 56/308/6 53/309/6 97/310/6 100/311/6
f 54/309/2 55/308/2 99/312/2 98/313/2
f 55/307/5 56/306/5 100/314/5 99/315/5
f 57/315/3 58/314/3 102/316/3 101/317/3
f 60/318/6 57/319/6 101/320/6 104/321/6
f 58/319/2 59/318/2 103/322/2 102/323/2
f 59/317/5 60/316/5 104/324/5 103/325/5
f 61/326/28 62/327/28 106/328/28 105/288/28
f 64/329/2 61/330/2 105/331/2 108/332/2
f 62/333/6 63/334/6 107/335/6 106/336/6
f 63/337/30 64/338/30 108/339/30 107/340/30
f 110/341/5 112/342/5 116/343/5 115/344/5
f 114/345/1 115/346/1 123/347/1 120/348/1
f 111/349/5 109/350/5 114/351/5 113/352/5
f 112/342/5 111/349/5 113/352/5 116/343/5
f 109/350/5 110/341/5 115/344/5 114/351/5
f 116/346/4 113/353/4 118/354/4 125/347/4
f 117/355/31 122/356/31 126/357/31 119/358/31
f 120/359/32 123/360/32 124/361/32 121/362/32
f 116/363/6 125/364/6 126/365/6 122/366/6 124/367/6 123/368/6 115/369/6
f 125/360/33 118/370/33 119/371/33 126/372/33
f 114/373/2 120/374/2 121/375/2 117/376/2 119/377/2 118/378/2 113/379/2
f 121/356/34 124/355/34 122/380/34 117/381/34
