# Blender 4.2.3 LTS
# www.blender.org
mtllib Separation_barrier.mtl
o Separation_barrier
v 0.677820 -0.000000 0.415000
v 0.677820 0.140000 0.415000
v 0.677820 -0.000000 0.385000
v 0.677820 0.140000 0.385000
v 0.707820 -0.000000 0.415000
v 0.707820 0.140000 0.415000
v 0.707820 -0.000000 0.385000
v 0.707820 0.140000 0.385000
v -0.015000 -0.000000 0.815000
v -0.015000 0.140000 0.815000
v -0.015000 -0.000000 0.785000
v -0.015000 0.140000 0.785000
v 0.015000 -0.000000 0.815000
v 0.015000 0.140000 0.815000
v 0.015000 -0.000000 0.785000
v 0.015000 0.140000 0.785000
v -0.707821 -0.000000 0.415000
v -0.707821 0.140000 0.415000
v -0.707821 -0.000000 0.385000
v -0.707821 0.140000 0.385000
v -0.677821 -0.000000 0.415000
v -0.677821 0.140000 0.415000
v -0.677821 -0.000000 0.385000
v -0.677821 0.140000 0.385000
v 0.677820 -0.000000 -0.415000
v 0.677820 0.140000 -0.415000
v 0.677820 -0.000000 -0.385000
v 0.677820 0.140000 -0.385000
v 0.707820 -0.000000 -0.415000
v 0.707820 0.140000 -0.415000
v 0.707820 -0.000000 -0.385000
v 0.707820 0.140000 -0.385000
v -0.015000 -0.000000 -0.815000
v -0.015000 0.140000 -0.815000
v -0.015000 -0.000000 -0.785000
v -0.015000 0.140000 -0.785000
v 0.015000 -0.000000 -0.815000
v 0.015000 0.140000 -0.815000
v 0.015000 -0.000000 -0.785000
v 0.015000 0.140000 -0.785000
v -0.707821 -0.000000 -0.415000
v -0.707821 0.140000 -0.415000
v -0.707821 -0.000000 -0.385000
v -0.707821 0.140000 -0.385000
v -0.677821 -0.000000 -0.415000
v -0.677821 0.140000 -0.415000
v -0.677821 -0.000000 -0.385000
v -0.677821 0.140000 -0.385000
vn -1.0000 -0.0000 -0.0000
vn -0.0000 -0.0000 -1.0000
vn 1.0000 -0.0000 -0.0000
vn -0.0000 -0.0000 1.0000
vn -0.0000 -1.0000 -0.0000
vn -0.0000 1.0000 -0.0000
vt 0.000000 0.388889
vt 0.000000 0.000000
vt 0.083333 0.000000
vt 0.083333 0.388889
vt 0.666667 0.388889
vt 0.666667 0.000000
vt 0.750001 0.000000
vt 0.750001 0.388889
vt 0.166667 0.000000
vt 0.166667 0.388889
vt 0.083333 0.777777
vt 0.083333 0.388889
vt 0.166667 0.388889
vt 0.166667 0.777777
vt 0.166667 0.861111
vt 0.083333 0.861111
vt 0.083333 0.777778
vt 0.166667 0.777778
vt 0.083333 0.777778
vt 0.083333 0.861111
vt 0.000000 0.861111
vt 0.000000 0.777778
vt -0.000000 0.777777
vt -0.000000 0.388889
vt 0.083333 0.388889
vt 0.083333 0.777777
vt 0.250000 0.388889
vt 0.250000 0.777777
vt 0.250000 0.777777
vt 0.250000 0.388889
vt 0.333334 0.388889
vt 0.333334 0.777777
vt 0.416667 0.388889
vt 0.416667 0.777777
vt 0.416667 0.777778
vt 0.416667 0.861111
vt 0.333334 0.861111
vt 0.333334 0.777778
vt 0.500000 0.777778
vt 0.500000 0.861111
vt 0.416667 0.861111
vt 0.416667 0.777778
vt 0.250000 0.000000
vt 0.250000 0.388889
vt 0.833334 0.388889
vt 0.833334 0.000000
vt 0.916667 0.000000
vt 0.916667 0.388889
vt 0.333334 0.000000
vt 0.333334 0.388889
vt 0.833334 0.777777
vt 0.833334 0.388889
vt 0.916667 0.388889
vt 0.916667 0.777777
vt 0.833334 0.861111
vt 0.750001 0.861111
vt 0.750001 0.777778
vt 0.833334 0.777778
vt 0.750000 0.861111
vt 0.666667 0.861111
vt 0.666667 0.777778
vt 0.750000 0.777778
vt 0.416667 0.388889
vt 0.333334 0.388889
vt 0.333334 0.000000
vt 0.416667 0.000000
vt 0.500000 0.777777
vt 0.416667 0.777777
vt 0.416667 0.388889
vt 0.500000 0.388889
vt 0.500001 0.388889
vt 0.416667 0.388889
vt 0.416667 0.000000
vt 0.500001 0.000000
vt 0.583334 0.777777
vt 0.583334 0.388889
vt 0.166667 0.777778
vt 0.250000 0.777778
vt 0.250000 0.861111
vt 0.166667 0.861111
vt 0.333334 0.777777
vt 0.333334 0.861111
vt 0.250000 0.861111
vt 0.666667 0.777777
vt 0.583334 0.777777
vt 0.583334 0.388889
vt 0.666667 0.388889
vt 0.750001 0.777777
vt 0.666667 0.777777
vt 0.666667 0.388889
vt 0.750001 0.388889
vt 0.833334 0.777777
vt 0.750000 0.777777
vt 0.750000 0.388889
vt 0.833334 0.388889
vt 0.833334 0.388889
vt 0.750001 0.388889
vt 0.750001 0.000000
vt 0.833334 0.000000
vt 0.583334 0.777778
vt 0.666667 0.777778
vt 0.666667 0.861111
vt 0.583334 0.861111
vt 0.500001 0.777778
vt 0.500001 0.861111
vt 0.583334 0.388889
vt 0.500000 0.388889
vt 0.500000 0.000000
vt 0.583334 0.000000
vt 1.000000 0.388889
vt 0.916667 0.388889
vt 0.916667 0.000000
vt 1.000000 0.000000
vt 0.666667 0.388889
vt 0.583334 0.388889
vt 0.583334 0.000000
vt 0.666667 0.000000
vt 1.000000 0.777777
vt 0.916667 0.777777
vt 0.916667 0.388889
vt 1.000000 0.388889
vt 0.916667 0.777777
vt 0.916667 0.861111
vt 0.833334 0.861111
vt 0.833334 0.777777
vt 0.083333 0.861111
vt 0.083333 0.944444
vt 0.000000 0.944444
vt 0.000000 0.861111
s 0
usemtl Текстура_домов
f 1/1/1 2/2/1 4/3/1 3/4/1
f 3/5/2 4/6/2 8/7/2 7/8/2
f 7/4/3 8/3/3 6/9/3 5/10/3
f 5/11/4 6/12/4 2/13/4 1/14/4
f 3/15/5 7/16/5 5/17/5 1/18/5
f 8/19/6 4/20/6 2/21/6 6/22/6
f 9/23/1 10/24/1 12/25/1 11/26/1
f 11/14/2 12/13/2 16/27/2 15/28/2
f 15/29/3 16/30/3 14/31/3 13/32/3
f 13/32/4 14/31/4 10/33/4 9/34/4
f 11/35/5 15/36/5 13/37/5 9/38/5
f 16/39/6 12/40/6 10/41/6 14/42/6
f 17/10/1 18/9/1 20/43/1 19/44/1
f 19/45/2 20/46/2 24/47/2 23/48/2
f 23/44/3 24/43/3 22/49/3 21/50/3
f 21/51/4 22/52/4 18/53/4 17/54/4
f 19/55/5 23/56/5 21/57/5 17/58/5
f 24/59/6 20/60/6 18/61/6 22/62/6
f 25/63/1 27/64/1 28/65/1 26/66/1
f 27/67/4 31/68/4 32/69/4 28/70/4
f 31/71/3 29/72/3 30/73/3 32/74/3
f 29/75/2 25/67/2 26/70/2 30/76/2
f 27/77/5 25/78/5 29/79/5 31/80/5
f 32/81/6 30/82/6 26/83/6 28/28/6
f 33/84/1 35/85/1 36/86/1 34/87/1
f 35/88/4 39/89/4 40/90/4 36/91/4
f 39/92/3 37/93/3 38/94/3 40/95/3
f 37/96/2 33/97/2 34/98/2 38/99/2
f 35/100/5 33/101/5 37/102/5 39/103/5
f 40/104/6 38/100/6 34/103/6 36/105/6
f 41/106/1 43/107/1 44/108/1 42/109/1
f 43/110/4 47/111/4 48/112/4 44/113/4
f 47/114/3 45/115/3 46/116/3 48/117/3
f 45/118/2 41/119/2 42/120/2 46/121/2
f 43/122/5 41/123/5 45/124/5 47/125/5
f 48/126/6 46/127/6 42/128/6 44/129/6
