# Blender 4.2.3 LTS
# www.blender.org
mtllib electricity_indicator.mtl
o electricity_indicator
v 1.086328 1.193521 1.069205
v 0.401476 2.042049 0.554058
v 0.698460 2.042049 0.257073
v 0.615373 1.644033 0.903040
v 0.836328 1.547075 0.819205
v 1.018460 1.589501 0.577073
v 0.798081 1.684390 0.663258
v 1.116328 1.235948 1.099205
v 0.431476 2.084476 0.584058
v 0.728460 2.084476 0.287073
v 0.645373 1.686460 0.933040
v 0.866328 1.589501 0.849205
v 1.048460 1.631928 0.607073
v 0.828081 1.726817 0.693258
vn -0.5000 -0.7071 -0.5000
vn 0.5000 0.7071 0.5000
vn 0.8594 -0.3339 -0.3872
vn 0.0423 -0.5966 0.8014
vn -0.5000 0.7071 -0.5000
vn -0.7071 -0.0000 0.7071
vn -0.0529 0.6012 -0.7973
vn -0.7808 0.1183 0.6135
vn 0.8469 -0.2785 -0.4530
vt 0.000000 0.700667
vt 0.000000 1.000000
vt 1.000000 1.000000
vt 1.000000 0.698925
vt 1.000000 0.000000
vt 0.000000 0.333333
vt 1.000000 0.333333
s 0
f 4/1/1 2/2/1 3/3/1 7/4/1
f 1/5/1 5/6/1 6/7/1
f 5/6/1 4/1/1 7/4/1 6/7/1
f 11/1/2 14/4/2 10/3/2 9/2/2
f 8/5/2 13/7/2 12/6/2
f 12/6/2 13/7/2 14/4/2 11/1/2
f 1/5/3 6/7/3 13/7/3 8/5/3
f 4/1/4 5/6/4 12/6/4 11/1/4
f 3/3/5 2/2/5 9/2/5 10/3/5
f 5/6/6 1/5/6 8/5/6 12/6/6
f 6/7/7 7/4/7 14/4/7 13/7/7
f 2/2/8 4/1/8 11/1/8 9/2/8
f 7/4/9 3/3/9 10/3/9 14/4/9
