# Blender 4.2.3 LTS
# www.blender.org
mtllib resource_indicator.mtl
o resource_indicator
v 0.896103 1.933604 0.219490
v 0.693430 2.025572 0.292099
v 0.508235 2.057868 0.431622
v 0.368712 2.025572 0.616817
v 0.296103 1.933604 0.819490
v 0.301461 1.795962 1.008785
v 0.383971 1.633603 1.155886
v 0.531071 1.471245 1.238396
v 0.720367 1.333603 1.243754
v 0.923040 1.241634 1.171144
v 1.108235 1.209339 1.031622
v 1.247758 1.241635 0.846427
v 1.320367 1.333604 0.643754
v 1.315009 1.471245 0.454458
v 1.232499 1.633604 0.307358
v 1.085399 1.795962 0.224848
v 0.878529 1.873604 0.321916
v 0.716391 1.947179 0.380004
v 0.568235 1.973015 0.491622
v 0.456617 1.947178 0.639778
v 0.398529 1.873604 0.801916
v 0.402816 1.763490 0.953353
v 0.468824 1.633604 1.071033
v 0.586504 1.503716 1.137041
v 0.737940 1.393604 1.141327
v 0.900079 1.320028 1.083240
v 1.048235 1.294192 0.971622
v 1.159853 1.320028 0.823466
v 1.217940 1.393604 0.661327
v 1.213654 1.503716 0.509891
v 1.147646 1.633604 0.392211
v 1.029966 1.763491 0.326203
v 0.933962 1.906075 0.220561
v 1.047539 1.823491 0.223776
v 0.908816 1.851581 0.322773
v 0.999679 1.785513 0.325345
v 0.682508 1.361132 1.242682
v 0.568930 1.443716 1.239467
v 0.707653 1.415626 1.140470
v 0.616791 1.481694 1.137898
v 0.926591 1.974579 0.248987
v 0.723918 2.066548 0.321596
v 0.538723 2.098843 0.461119
v 0.399200 2.066548 0.646314
v 0.326591 1.974579 0.848987
v 0.331949 1.836938 1.038283
v 0.414459 1.674579 1.185383
v 0.561559 1.512220 1.267893
v 0.750855 1.374579 1.273251
v 0.953528 1.282610 1.200642
v 1.138723 1.250315 1.061119
v 1.278246 1.282610 0.875924
v 1.350855 1.374579 0.673251
v 1.345497 1.512220 0.483955
v 1.262987 1.674579 0.336855
v 1.115887 1.836938 0.254345
v 0.909018 1.914579 0.351413
v 0.746879 1.988154 0.409501
v 0.598723 2.013990 0.521119
v 0.487105 1.988154 0.669275
v 0.429017 1.914579 0.831413
v 0.433304 1.804466 0.982850
v 0.499312 1.674579 1.100530
v 0.616992 1.544692 1.166538
v 0.768429 1.434579 1.170825
v 0.930567 1.361004 1.112737
v 1.078723 1.335168 1.001119
v 1.190341 1.361004 0.852963
v 1.248429 1.434579 0.690825
v 1.244142 1.544692 0.539388
v 1.178134 1.674579 0.421708
v 1.060454 1.804466 0.355700
v 0.964450 1.947051 0.250059
v 1.078028 1.864466 0.253274
v 0.939305 1.892556 0.352271
v 1.030167 1.826488 0.354843
v 0.712996 1.402107 1.272180
v 0.599419 1.484692 1.268965
v 0.738141 1.456602 1.169967
v 0.647279 1.522669 1.167395
v 0.443410 1.841857 0.791061
v 0.745346 1.420307 1.092938
v 0.871123 1.846900 0.370305
v 1.173060 1.425350 0.672182
v 0.649230 1.554500 0.996841
v 0.754312 1.440744 1.100914
v 0.979728 1.728226 0.477900
v 0.874646 1.841982 0.373827
v 0.901197 1.888036 0.399985
v 0.473483 1.882993 0.820741
v 0.771897 1.466360 1.119096
v 0.775419 1.461442 1.122618
v 1.203133 1.466485 0.701862
v 0.904719 1.883117 0.403507
v 0.679303 1.595636 1.026520
v 0.997313 1.753842 0.496082
vn -0.5000 -0.7071 -0.5000
vn 0.5000 0.7071 0.5000
vn -0.7979 0.6026 -0.0124
vn -0.5918 -0.1321 0.7952
vn 0.3451 -0.7038 0.6210
vn -0.8558 0.4065 0.3198
vn -0.3100 -0.3926 0.8659
vn 0.6186 -0.7070 0.3427
vn -0.7835 0.1486 0.6034
vn 0.7979 -0.6026 0.0124
vn 0.8558 -0.4065 -0.3198
vn 0.7835 -0.1486 -0.6034
vn 0.3100 0.3926 -0.8659
vn 0.0190 -0.5934 0.8047
vn 0.5918 0.1321 -0.7952
vn -0.0190 0.5934 -0.8047
vn -0.3451 0.7038 -0.6210
vn -0.6186 0.7070 -0.3427
vn -0.5670 -0.6295 -0.5312
vn -0.4885 -0.7116 -0.5051
vn 0.4885 0.7116 0.5051
vn -0.7047 0.0033 0.7095
vn 0.4935 -0.7165 0.4930
vn -0.4935 0.7165 -0.4930
vn -0.8149 0.5790 -0.0277
vn 0.7047 -0.0033 -0.7095
vn -0.7346 0.0387 0.6774
vn 0.8021 -0.5970 0.0147
vn 0.7083 0.0005 -0.7059
vt 0.000000 0.000000
vt 0.666667 0.000000
vt 0.666667 1.000000
vt 1.000000 1.000000
vt 1.000000 0.000000
vt 0.000000 1.000000
vt 0.333333 1.000000
vt 0.333333 0.000000
s 0
f 5/1/1 4/1/1 20/1/1 21/1/1
f 13/1/1 12/1/1 28/1/1 29/1/1
f 6/1/1 5/1/1 21/1/1 22/1/1
f 14/1/1 13/1/1 29/1/1 30/1/1
f 7/1/1 6/1/1 22/1/1 23/1/1
f 15/1/1 14/1/1 30/1/1 31/1/1
f 8/1/1 7/1/1 23/1/1 24/1/1
f 16/1/1 15/1/1 31/1/1 32/1/1
f 38/1/1 8/1/1 24/1/1 40/1/1
f 2/1/1 1/1/1 17/1/1 18/1/1
f 34/1/1 16/1/1 32/1/1 36/1/1
f 10/1/1 9/1/1 25/1/1 26/1/1
f 3/1/1 2/1/1 18/1/1 19/1/1
f 11/1/1 10/1/1 26/1/1 27/1/1
f 4/1/1 3/1/1 19/1/1 20/1/1
f 12/1/1 11/1/1 27/1/1 28/1/1
f 1/1/1 33/1/1 35/1/1 17/1/1
f 33/1/1 34/1/1 36/1/1 35/1/1
f 9/1/1 37/1/1 39/1/1 25/1/1
f 37/1/1 38/1/1 40/1/1 39/1/1
f 35/1/1 36/1/1 39/1/1 40/1/1
f 45/1/2 61/1/2 60/1/2 44/1/2
f 53/1/2 69/1/2 68/1/2 52/1/2
f 46/1/2 62/1/2 61/1/2 45/1/2
f 54/1/2 70/1/2 69/1/2 53/1/2
f 47/1/2 63/1/2 62/1/2 46/1/2
f 55/1/2 71/1/2 70/1/2 54/1/2
f 48/1/2 64/1/2 63/1/2 47/1/2
f 56/1/2 72/1/2 71/1/2 55/1/2
f 78/1/2 80/1/2 64/1/2 48/1/2
f 42/1/2 58/1/2 57/1/2 41/1/2
f 74/1/2 76/1/2 72/1/2 56/1/2
f 50/1/2 66/1/2 65/1/2 49/1/2
f 43/1/2 59/1/2 58/1/2 42/1/2
f 51/1/2 67/1/2 66/1/2 50/1/2
f 44/1/2 60/1/2 59/1/2 43/1/2
f 52/1/2 68/1/2 67/1/2 51/1/2
f 41/1/2 57/1/2 75/1/2 73/1/2
f 73/1/2 75/1/2 76/1/2 74/1/2
f 49/1/2 65/1/2 79/1/2 77/1/2
f 77/1/2 79/1/2 80/1/2 78/1/2
f 75/1/2 80/1/2 79/1/2 76/1/2
f 5/1/3 45/1/3 44/1/3 4/1/3
f 31/1/4 71/1/4 72/1/4 32/1/4
f 18/1/5 58/1/5 59/1/5 19/1/5
f 6/1/6 46/1/6 45/1/6 5/1/6
f 32/1/7 72/1/7 76/1/7 36/1/7
f 19/1/8 59/1/8 60/1/8 20/1/8
f 7/1/9 47/1/9 46/1/9 6/1/9
f 20/1/10 60/1/10 61/1/10 21/1/10
f 8/1/4 48/1/4 47/1/4 7/1/4
f 40/1/3 80/1/3 75/1/3 35/1/3
f 21/1/11 61/1/11 62/1/11 22/1/11
f 38/1/7 78/1/7 48/1/7 8/1/7
f 36/1/10 76/1/10 79/1/10 39/1/10
f 22/1/12 62/1/12 63/1/12 23/1/12
f 1/1/13 41/1/13 73/1/13 33/1/13
f 10/1/14 50/1/14 49/1/14 9/1/14
f 23/1/15 63/1/15 64/1/15 24/1/15
f 33/1/13 73/1/13 74/1/13 34/1/13
f 11/1/5 51/1/5 50/1/5 10/1/5
f 24/1/13 64/1/13 80/1/13 40/1/13
f 35/1/7 75/1/7 57/1/7 17/1/7
f 12/1/8 52/1/8 51/1/8 11/1/8
f 25/1/16 65/1/16 66/1/16 26/1/16
f 13/1/10 53/1/10 52/1/10 12/1/10
f 26/1/17 66/1/17 67/1/17 27/1/17
f 14/1/11 54/1/11 53/1/11 13/1/11
f 27/1/18 67/1/18 68/1/18 28/1/18
f 15/1/12 55/1/12 54/1/12 14/1/12
f 2/1/16 42/1/16 41/1/16 1/1/16
f 28/1/3 68/1/3 69/1/3 29/1/3
f 9/1/7 49/1/7 77/1/7 37/1/7
f 16/1/15 56/1/15 55/1/15 15/1/15
f 3/1/17 43/1/17 42/1/17 2/1/17
f 29/1/6 69/1/6 70/1/6 30/1/6
f 37/1/7 77/1/7 78/1/7 38/1/7
f 34/1/13 74/1/13 56/1/13 16/1/13
f 4/1/18 44/1/18 43/1/18 3/1/18
f 30/1/9 70/1/9 71/1/9 31/1/9
f 39/1/13 79/1/13 65/1/13 25/1/13
f 17/1/14 57/1/14 58/1/14 18/1/14
f 86/2/19 87/3/19 84/4/19 82/5/19
f 81/1/20 83/6/20 88/7/20 85/8/20
f 91/2/21 92/5/21 93/4/21 96/3/21
f 90/1/21 95/8/21 94/7/21 89/6/21
f 81/1/22 85/8/22 95/8/22 90/1/22
f 82/5/23 84/4/23 93/4/23 92/5/23
f 83/6/24 81/1/24 90/1/24 89/6/24
f 87/3/25 86/2/25 91/2/25 96/3/25
f 88/7/26 83/6/26 89/6/26 94/7/26
f 86/2/27 82/5/27 92/5/27 91/2/27
f 85/8/28 88/7/28 94/7/28 95/8/28
f 84/4/29 87/3/29 96/3/29 93/4/29
