# Blender 4.2.3 LTS
# www.blender.org
mtllib House_1lvl.mtl
o House1
v -0.500000 0.000000 0.000000
v -0.500000 0.000000 -0.500000
v 0.500000 0.000000 0.000000
v 0.500000 0.000000 -0.500000
v 0.000000 0.000000 -0.500000
v 0.000000 0.000000 0.000000
v -0.500000 0.000000 0.500000
v 0.000000 0.000000 0.500000
v -0.500000 0.400000 -0.500000
v -0.500000 0.400000 0.000000
v 0.000000 0.400000 -0.500000
v 0.500000 0.400000 0.000000
v 0.500000 0.400000 -0.500000
v 0.000000 0.400000 0.000000
v -0.500000 0.400000 0.500000
v 0.000000 0.400000 0.500000
v 0.000000 0.400000 -0.550000
v 0.550000 0.400000 -0.550000
v 0.050000 0.400000 0.050000
v 0.550000 0.400000 0.050000
v 0.050000 0.400000 0.550000
v -0.250000 0.600000 -0.250000
v 0.250000 0.600000 -0.250000
v -0.250000 0.600000 0.250000
v -0.550000 0.400000 -0.550000
v -0.550000 0.400000 0.000000
v -0.550000 0.400000 0.550000
v 0.000000 0.600000 -0.250000
v -0.250000 0.600000 0.000000
vn -0.0000 -1.0000 -0.0000
vn -1.0000 -0.0000 -0.0000
vn -0.0000 -0.0000 -1.0000
vn 1.0000 -0.0000 -0.0000
vn -0.0000 -0.0000 1.0000
vn 0.5547 0.8321 -0.0000
vn -0.0000 0.8321 -0.5547
vn -0.5547 0.8321 -0.0000
vn -0.0000 0.8321 0.5547
vt 0.416667 0.666667
vt 0.416667 0.875000
vt 0.208333 0.875000
vt 0.208333 0.666667
vt 0.416667 0.458333
vt 0.208333 0.458333
vt -0.000000 0.666667
vt 0.000000 0.458333
vt 0.208333 0.458333
vt 0.229167 0.437500
vt 0.437500 0.437500
vt 0.458333 0.458333
vt 0.583333 0.875000
vt 0.416667 0.875000
vt 0.416667 0.666667
vt 0.583333 0.666667
vt 0.750000 0.666667
vt 0.583333 0.666667
vt 0.583333 0.458333
vt 0.750000 0.458333
vt 1.000000 0.666667
vt 0.833333 0.666667
vt 0.833333 0.458333
vt 1.000000 0.458333
vt 0.416667 0.458333
vt 1.000000 0.875000
vt 0.833333 0.875000
vt 0.833333 0.666667
vt 1.000000 0.666667
vt 0.932140 0.208333
vt 0.839690 0.208333
vt 0.839690 0.000000
vt 0.932140 0.000000
vt 0.115883 0.875000
vt 0.115883 0.666667
vt 0.750000 0.875000
vt 0.583333 0.875000
vt 0.437500 0.229167
vt 0.458333 0.229167
vt 0.208333 0.250000
vt 0.229167 0.229167
vt 0.458333 0.000000
vt 0.437500 0.020833
vt 0.229167 0.020833
vt 0.020833 0.020833
vt 0.000000 0.000000
vt 0.229167 0.000000
vt 0.020833 0.229167
vt 0.000000 0.250000
vt 0.516115 0.333333
vt 0.666346 0.458333
vt 0.458333 0.458333
vt 0.750000 0.583333
vt 0.833333 0.458333
vt 0.833333 0.687500
vt 0.750000 0.687500
vt 0.833333 0.916667
vt 0.750000 0.791667
vt 0.602787 0.125000
vt 0.516115 0.125000
vt 0.458333 0.000000
vt 0.649012 0.000000
vt 0.689458 0.125000
vt 0.839690 0.000000
vt 0.839690 0.250000
vt 0.666346 0.250000
vt 0.516115 0.229167
s 0
f 5/1/1 4/2/1 3/3/1 6/4/1
f 2/5/1 5/1/1 6/4/1 1/6/1
f 1/6/1 6/4/1 8/7/1 7/8/1
f 20/9/1 12/10/1 13/11/1 18/12/1
f 7/13/2 15/14/2 10/15/2 1/16/2
f 5/17/3 11/18/3 13/19/3 4/20/3
f 4/21/4 13/22/4 12/23/4 3/24/4
f 1/16/2 10/15/2 9/25/2 2/19/2
f 6/26/4 14/27/4 16/28/4 8/29/4
f 8/30/5 16/31/5 15/32/5 7/33/5
f 3/3/5 12/34/5 14/35/5 6/4/5
f 2/36/3 9/37/3 11/18/3 5/17/3
f 18/12/1 13/11/1 11/38/1 17/39/1
f 20/9/1 19/40/1 14/41/1 12/10/1
f 25/42/1 17/39/1 11/38/1 9/43/1
f 10/44/1 15/45/1 27/46/1 26/47/1
f 26/47/1 25/42/1 9/43/1 10/44/1
f 16/48/1 14/41/1 19/40/1 21/49/1
f 15/45/1 16/48/1 21/49/1 27/46/1
f 23/50/6 20/51/6 18/52/6
f 23/53/7 18/54/7 17/55/7 28/56/7
f 28/56/7 17/55/7 25/57/7 22/58/7
f 29/59/8 22/60/8 25/61/8 26/62/8
f 24/63/8 29/59/8 26/62/8 27/64/8
f 27/64/9 21/65/9 24/63/9
f 21/65/6 19/66/6 29/59/6 24/63/6
f 28/67/9 22/60/9 19/66/9
f 22/60/6 29/59/6 19/66/6
f 20/51/9 23/50/9 28/67/9 19/66/9
