# Blender 4.2.3 LTS
# www.blender.org
mtllib House_2lvl.mtl
o House2
v -0.500000 0.000000 0.500000
v -0.500000 0.000000 -0.500000
v 0.500000 0.200000 -0.500000
v 0.500000 0.000000 -0.500000
v -0.500000 0.000000 -0.300000
v -0.300000 0.000000 -0.500000
v 0.500000 0.000000 -0.300000
v -0.300000 0.000000 0.500000
v -0.300000 0.000000 -0.300000
v -0.500000 0.200000 -0.500000
v 0.400000 0.000000 -0.500000
v 0.400000 0.000000 -0.300000
v -0.500000 0.000000 0.400000
v -0.500000 0.200000 0.500000
v -0.300000 0.000000 0.400000
v 0.400000 0.000000 0.400000
v -0.500000 0.200000 -0.300000
v -0.300000 0.200000 -0.500000
v 0.500000 0.200000 -0.300000
v -0.300000 0.200000 0.500000
v -0.500000 0.600000 0.500000
v 0.400000 0.200000 -0.500000
v 0.400000 0.200000 -0.300000
v -0.500000 0.200000 0.400000
v -0.300000 0.200000 0.400000
v 0.400000 0.200000 0.400000
v 0.500000 0.200000 0.500000
v -0.500000 0.400000 0.500000
v -0.250000 0.360000 0.500000
v -0.300000 0.400000 -0.500000
v -0.500000 0.400000 -0.500000
v -0.500000 0.400000 -0.300000
v 0.500000 0.360000 -0.250000
v 0.500000 0.400000 -0.500000
v 0.400000 0.400000 -0.500000
v -0.500000 0.400000 0.400000
v -0.500000 0.800000 -0.500000
v -0.300000 0.800000 -0.500000
v -0.250000 0.760000 0.500000
v -0.500000 0.800000 0.500000
v 0.500000 0.400000 0.500000
v -0.250000 0.560000 0.500000
v -0.300000 0.600000 -0.500000
v -0.500000 0.600000 -0.500000
v -0.500000 0.600000 -0.300000
v 0.500000 0.560000 -0.250000
v 0.500000 0.600000 -0.500000
v 0.400000 0.600000 -0.500000
v -0.500000 0.600000 0.400000
v 0.500000 0.600000 0.500000
v -0.500000 0.800000 -0.300000
v 0.500000 0.760000 -0.250000
v 0.500000 0.800000 -0.500000
v 0.400000 0.800000 -0.500000
v -0.500000 0.800000 0.400000
v 0.450000 0.800000 -0.450000
v 0.400000 0.800000 -0.450000
v 0.450000 0.800000 -0.300000
v 0.500000 0.800000 0.500000
v -0.250000 0.460000 0.500000
v 0.500000 0.260000 0.500000
v -0.250000 0.260000 0.500000
v 0.500000 0.260000 -0.250000
v 0.500000 0.460000 -0.250000
v 0.500000 0.360000 0.500000
v -0.250000 0.660000 0.500000
v -0.300000 0.400000 0.500000
v 0.500000 0.400000 -0.300000
v 0.500000 0.660000 -0.250000
v 0.500000 0.460000 0.500000
v 0.500000 0.560000 0.500000
v -0.300000 0.800000 0.500000
v -0.300000 0.600000 0.500000
v 0.500000 0.600000 -0.300000
v 0.500000 0.800000 -0.300000
v 0.500000 0.660000 0.500000
v 0.500000 0.760000 0.500000
v -0.250000 0.660000 0.470000
v -0.250000 0.260000 0.470000
v -0.250000 0.460000 0.470000
v -0.250000 0.560000 0.470000
v -0.250000 0.760000 0.470000
v -0.250000 0.360000 0.470000
v 0.470000 0.660000 -0.250000
v 0.470000 0.460000 -0.250000
v 0.470000 0.260000 -0.250000
v 0.470000 0.760000 -0.250000
v 0.470000 0.560000 -0.250000
v 0.470000 0.360000 -0.250000
v 0.470000 0.760000 0.470000
v 0.470000 0.660000 0.470000
v 0.470000 0.560000 0.470000
v 0.470000 0.460000 0.470000
v 0.470000 0.360000 0.470000
v 0.470000 0.260000 0.470000
v -0.300000 0.800000 -0.450000
v -0.450000 0.800000 -0.300000
v -0.450000 0.800000 -0.450000
v -0.300000 0.800000 0.450000
v -0.450000 0.800000 0.400000
v -0.450000 0.800000 0.450000
v 0.450000 0.800000 0.450000
v 0.400000 0.800000 -0.300000
v -0.300000 0.800000 -0.300000
v -0.300000 0.800000 0.400000
v 0.400000 0.800000 0.400000
v -0.500000 0.850000 0.500000
v -0.300000 0.850000 0.500000
v -0.300000 0.850000 -0.500000
v -0.500000 0.850000 -0.500000
v -0.500000 0.850000 -0.300000
v 0.500000 0.850000 -0.300000
v 0.500000 0.850000 -0.500000
v 0.400000 0.850000 -0.500000
v -0.500000 0.850000 0.400000
v 0.400000 0.850000 -0.450000
v 0.450000 0.850000 -0.450000
v 0.500000 0.850000 0.500000
v 0.450000 0.850000 -0.300000
v -0.300000 0.850000 -0.450000
v -0.450000 0.850000 -0.300000
v -0.450000 0.850000 -0.450000
v -0.300000 0.850000 0.450000
v -0.450000 0.850000 0.400000
v -0.450000 0.850000 0.450000
v 0.450000 0.850000 0.450000
vn -0.0000 -0.0000 1.0000
vn -0.0000 -1.0000 -0.0000
vn -1.0000 -0.0000 -0.0000
vn -0.0000 -0.0000 -1.0000
vn 1.0000 -0.0000 -0.0000
vn -0.0000 1.0000 -0.0000
vt 0.183099 0.338028
vt 0.126761 0.338028
vt 0.126761 0.281690
vt 0.183099 0.281690
vt 0.309859 0.000000
vt 0.309859 0.056338
vt 0.281690 0.056338
vt 0.281690 0.000000
vt 0.563380 0.000000
vt 0.563380 0.056338
vt 0.507042 0.056338
vt 0.507042 0.000000
vt 0.563380 0.253521
vt 0.563380 0.281690
vt 0.507042 0.281690
vt 0.507042 0.253521
vt 0.422535 0.563380
vt 0.366197 0.563380
vt 0.366197 0.535211
vt 0.422535 0.535211
vt 0.309859 0.253521
vt 0.661972 0.563380
vt 0.605634 0.563380
vt 0.605634 0.507042
vt 0.661972 0.507042
vt 0.746479 0.281690
vt 0.690141 0.281690
vt 0.690141 0.225352
vt 0.746479 0.225352
vt 0.422535 0.338028
vt 0.366197 0.338028
vt 0.366197 0.281690
vt 0.422535 0.281690
vt 0.478873 0.535211
vt 0.478873 0.338028
vt 0.478873 0.563380
vt 0.239437 0.338028
vt 0.239437 0.281690
vt 0.718310 0.549296
vt 0.718310 0.492958
vt 0.746479 0.492958
vt 0.746479 0.549296
vt 0.859155 0.197183
vt 0.802817 0.197183
vt 0.802817 0.000000
vt 0.859155 0.000000
vt 0.478873 0.281690
vt 0.718310 0.563380
vt 0.718310 0.507042
vt 0.774648 0.492958
vt 0.774648 0.549296
vt 0.661972 0.309859
vt 0.718310 0.309859
vt 0.802817 0.281690
vt 0.802817 0.225352
vt 0.661972 0.281690
vt 0.718310 0.281690
vt 0.915493 0.197183
vt 0.859155 0.197183
vt 0.859155 0.000000
vt 0.915493 0.000000
vt 0.605634 0.309859
vt 0.605634 0.281690
vt 0.633803 0.281690
vt 0.633803 0.225352
vt 0.309859 0.535211
vt 0.309859 0.338028
vt 0.309859 0.281690
vt 0.309859 0.563380
vt 0.549296 0.563380
vt 0.549296 0.507042
vt 0.549296 0.309859
vt 0.577465 0.281690
vt 0.577465 0.225352
vt 0.253521 0.535211
vt 0.253521 0.338028
vt 0.253521 0.281690
vt 0.253521 0.563380
vt 0.492958 0.563380
vt 0.492958 0.507042
vt 0.492958 0.309859
vt 0.549296 0.281690
vt 0.070423 0.338028
vt 0.070423 0.281690
vt 0.492958 0.281690
vt 0.014085 0.338028
vt 0.014085 0.281690
vt 0.166197 0.352113
vt 0.138028 0.352113
vt 0.729577 0.211268
vt 0.729577 -0.000000
vt 0.746479 -0.000000
vt 0.166197 0.563380
vt 0.183099 0.563380
vt 0.701408 -0.000000
vt 0.701408 0.211268
vt 0.690141 -0.000000
vt 0.138028 0.563380
vt 0.126761 0.563380
vt 0.109859 0.352113
vt 0.081690 0.352113
vt 0.645070 0.211268
vt 0.673239 0.211268
vt 0.673239 -0.000000
vt 0.109859 0.563380
vt 0.645070 -0.000000
vt 0.633803 -0.000000
vt 0.081690 0.563380
vt 0.070423 0.563380
vt 0.053521 0.352113
vt 0.025352 0.352113
vt 0.588732 0.211268
vt 0.616901 0.211268
vt 0.616901 -0.000000
vt 0.053521 0.563380
vt 0.588732 -0.000000
vt 0.577465 -0.000000
vt 0.025352 0.563380
vt 0.014085 0.563380
vt 0.929578 0.492958
vt 0.957747 0.492958
vt 0.957747 0.695775
vt 0.929578 0.695775
vt 0.929577 0.766197
vt 0.901408 0.766197
vt 0.901408 0.563380
vt 0.929577 0.563380
vt 0.478873 0.774648
vt 0.478873 0.563380
vt 0.487324 0.563380
vt 0.487324 0.766197
vt 0.690141 0.766197
vt 0.690141 0.774648
vt 0.690141 0.563380
vt 0.901408 0.563380
vt 0.901408 0.571831
vt 0.698592 0.571831
vt 0.698592 0.774648
vt 0.943662 0.000000
vt 0.943662 0.202817
vt 0.915493 0.202817
vt 0.915493 0.000000
vt 0.718310 0.492958
vt 0.726761 0.281690
vt 0.726761 0.484507
vt 0.957747 0.484507
vt 0.929578 0.484507
vt 0.929578 0.281690
vt 0.957747 0.281690
vt 0.929577 0.484507
vt 0.929577 0.492958
vt 0.690141 0.783099
vt 0.487324 0.783099
vt 0.487324 0.985915
vt 0.478873 0.985915
vt 0.783099 0.492958
vt 0.783099 0.521127
vt 0.774648 0.521127
vt 0.774648 0.492958
vt 0.783099 0.549296
vt 0.800000 0.492958
vt 0.800000 0.521127
vt 0.791549 0.521127
vt 0.791549 0.492958
vt 0.791549 0.492958
vt 0.791549 0.521127
vt 0.791549 0.549296
vt 0.791549 0.549296
vt 0.791549 0.521127
vt 0.800000 0.521127
vt 0.800000 0.549296
vt 0.253521 0.563380
vt 0.281690 0.563380
vt 0.281690 0.760563
vt 0.253521 0.788732
vt 0.478873 0.788732
vt 0.478873 0.760563
vt 0.239437 0.338028
vt 0.239437 0.281690
vt 0.971831 0.253521
vt 0.957747 0.253521
vt 0.957747 0.211268
vt 0.971831 0.211268
vt 0.957747 0.253521
vt 0.943662 0.253521
vt 0.943662 0.211268
vt 0.957747 0.211268
vt 0.478873 0.563380
vt 0.478873 0.507042
vt 0.971831 0.507042
vt 0.957747 0.507042
vt 0.957747 0.492958
vt 0.971831 0.492958
vt 0.000000 0.338028
vt 0.000000 0.281690
vt 0.957747 0.014085
vt 0.943662 0.014085
vt 0.943662 -0.000000
vt 0.957747 -0.000000
vt 0.239437 0.535211
vt 0.478873 0.309859
vt 0.478873 0.281690
vt 0.971831 0.549296
vt 0.957747 0.549296
vt 0.239437 0.774648
vt 0.253521 0.774648
vt 0.253521 0.816901
vt 0.239437 0.816901
vt 0.042254 0.774648
vt 0.042254 0.816901
vt 0.000000 0.816901
vt 0.000000 0.774648
vt 0.042254 0.577465
vt 0.000000 0.577465
vt 0.000000 0.563380
vt 0.042254 0.563380
vt 0.253521 0.563380
vt 0.239437 0.577465
vt 0.267606 0.014085
vt 0.281690 0.000000
vt 0.281690 0.028169
vt 0.267606 0.028169
vt 0.225352 0.014085
vt 0.225352 0.000000
vt 0.267606 0.267606
vt 0.281690 0.281690
vt 0.225352 0.281690
vt 0.225352 0.267606
vt 0.267606 0.225352
vt 0.281690 0.225352
vt 0.000000 0.281690
vt 0.014085 0.267606
vt 0.028169 0.267606
vt 0.028169 0.281690
vt 0.014085 0.225352
vt 0.000000 0.225352
vt 0.000000 0.000000
vt 0.014085 0.014085
vt 0.563380 0.225352
vt 0.563380 -0.000000
vt 0.563380 0.281690
vt 0.971831 0.295775
vt 0.957747 0.295775
vt 0.971831 0.760563
vt 0.957747 0.760563
vt 0.000000 0.563380
vt 0.957747 -0.000000
vt 0.971831 -0.000000
vt 0.239437 0.563380
vt 0.698592 0.783099
vt 0.698592 0.985915
vt 0.690141 0.985915
vt 0.901408 0.774648
vt 0.901408 0.783099
vt 0.253521 1.000000
vt 0.261972 0.991549
vt 0.464789 0.991549
vt 0.464789 1.000000
vt 0.261972 0.788732
vt 0.929577 0.695775
vt 0.957746 0.695775
vt 0.957746 0.898592
vt 0.929577 0.898592
vt 0.901408 0.969014
vt 0.901408 0.766197
vt 0.929577 0.766197
vt 0.929577 0.969014
s 0
f 20/1/1 67/2/1 28/3/1 14/4/1
f 13/5/2 15/6/2 8/7/2 1/8/2
f 2/9/2 6/10/2 9/11/2 5/12/2
f 11/13/2 4/14/2 7/15/2 12/16/2
f 6/10/2 11/13/2 12/16/2 9/11/2
f 14/17/3 28/18/3 36/19/3 24/20/3
f 16/21/2 15/6/2 9/11/2 12/16/2
f 5/12/2 9/11/2 15/6/2 13/5/2
f 10/22/4 31/23/4 30/24/4 18/25/4
f 3/26/5 34/27/5 68/28/5 19/29/5
f 17/30/3 32/31/3 31/32/3 10/33/3
f 13/34/3 24/20/3 17/30/3 5/35/3
f 1/36/3 14/17/3 24/20/3 13/34/3
f 8/37/1 20/1/1 14/4/1 1/38/1
f 7/39/1 19/40/1 23/41/1 12/42/1
f 12/43/5 23/44/5 26/45/5 16/46/5
f 5/35/3 17/30/3 10/33/3 2/47/3
f 2/48/4 10/22/4 18/25/4 6/49/4
f 15/42/5 25/41/5 20/50/5 8/51/5
f 6/49/4 18/25/4 22/52/4 11/53/4
f 4/54/5 3/26/5 19/29/5 7/55/5
f 11/53/4 22/52/4 3/56/4 4/57/4
f 16/58/1 26/59/1 25/60/1 15/61/1
f 18/25/4 30/24/4 35/62/4 22/52/4
f 22/52/4 35/62/4 34/63/4 3/56/4
f 34/27/5 47/64/5 74/65/5 68/28/5
f 36/19/3 49/66/3 45/67/3 32/31/3
f 32/31/3 45/67/3 44/68/3 31/32/3
f 28/18/3 21/69/3 49/66/3 36/19/3
f 31/23/4 44/70/4 43/71/4 30/24/4
f 30/24/4 43/71/4 48/72/4 35/62/4
f 24/20/3 36/19/3 32/31/3 17/30/3
f 47/64/5 53/73/5 75/74/5 74/65/5
f 49/66/3 55/75/3 51/76/3 45/67/3
f 45/67/3 51/76/3 37/77/3 44/68/3
f 21/69/3 40/78/3 55/75/3 49/66/3
f 44/70/4 37/79/4 38/80/4 43/71/4
f 43/71/4 38/80/4 54/81/4 48/72/4
f 35/62/4 48/72/4 47/82/4 34/63/4
f 67/2/1 73/83/1 21/84/1 28/3/1
f 48/72/4 54/81/4 53/85/4 47/82/4
f 73/83/1 72/86/1 40/87/1 21/84/1
f 62/88/1 29/89/1 67/2/1 20/1/1
f 63/90/5 61/91/5 27/92/5 19/29/5
f 61/93/1 62/88/1 20/1/1 27/94/1
f 65/95/5 33/96/5 68/28/5 41/97/5
f 29/89/1 65/98/1 41/99/1 67/2/1
f 33/96/5 63/90/5 19/29/5 68/28/5
f 60/100/1 42/101/1 73/83/1 67/2/1
f 46/102/5 64/103/5 68/28/5 74/65/5
f 64/103/5 70/104/5 41/97/5 68/28/5
f 70/105/1 60/100/1 67/2/1 41/99/1
f 71/106/5 46/102/5 74/65/5 50/107/5
f 42/101/1 71/108/1 50/109/1 73/83/1
f 66/110/1 39/111/1 72/86/1 73/83/1
f 52/112/5 69/113/5 74/65/5 75/74/5
f 69/113/5 76/114/5 50/107/5 74/65/5
f 76/115/1 66/110/1 73/83/1 50/109/1
f 77/116/5 52/112/5 75/74/5 59/117/5
f 39/111/1 77/118/1 59/119/1 72/86/1
f 92/120/5 93/121/5 85/122/5 88/123/5
f 93/124/1 92/125/1 81/126/1 80/127/1
f 71/128/2 42/129/2 81/130/2 92/131/2
f 71/128/2 92/131/2 88/132/2 46/133/2
f 70/134/6 64/135/6 85/136/6 93/137/6
f 70/134/6 93/137/6 80/138/6 60/133/6
f 94/139/1 83/140/1 79/141/1 95/142/1
f 65/143/2 29/57/2 83/144/2 94/145/2
f 94/146/5 95/147/5 86/148/5 89/149/5
f 65/143/2 94/145/2 89/150/2 33/151/2
f 61/128/6 63/133/6 86/152/6 95/153/6
f 61/128/6 95/153/6 79/154/6 62/155/6
f 29/156/5 62/157/5 79/158/5 83/159/5
f 42/157/5 60/160/5 80/51/5 81/158/5
f 39/161/5 66/162/5 78/163/5 82/164/5
f 63/157/1 33/156/1 89/165/1 86/166/1
f 64/160/1 46/157/1 88/166/1 85/167/1
f 69/168/1 52/169/1 87/170/1 84/171/1
f 20/172/2 25/173/2 26/174/2 27/175/2
f 19/176/2 27/175/2 26/174/2 23/177/2
f 51/76/3 111/178/3 110/179/3 37/77/3
f 101/180/4 125/181/4 123/182/4 99/183/4
f 98/184/5 122/185/5 121/186/5 97/187/5
f 37/79/4 110/188/4 109/189/4 38/80/4
f 56/190/1 117/191/1 116/192/1 57/193/1
f 72/86/1 108/194/1 107/195/1 40/87/1
f 100/196/5 124/197/5 125/198/5 101/199/5
f 55/75/3 115/200/3 111/178/3 51/76/3
f 54/81/4 114/201/4 113/202/4 53/85/4
f 58/203/3 119/204/3 117/191/3 56/190/3
f 103/205/6 58/206/6 56/207/6 57/208/6
f 104/209/6 96/210/6 98/211/6 97/212/6
f 105/213/6 100/214/6 101/215/6 99/216/6
f 100/214/6 105/213/6 104/209/6 97/212/6
f 57/208/6 96/210/6 104/209/6 103/205/6
f 102/217/6 106/218/6 105/213/6 99/216/6
f 102/217/6 58/206/6 103/205/6 106/218/6
f 103/205/6 104/209/6 105/213/6 106/218/6
f 117/219/6 113/220/6 114/221/6 116/222/6
f 117/219/6 119/223/6 112/224/6 113/220/6
f 122/225/6 110/226/6 111/227/6 121/228/6
f 122/225/6 120/229/6 109/230/6 110/226/6
f 109/230/6 120/229/6 116/222/6 114/221/6
f 107/231/6 125/232/6 124/233/6 115/234/6
f 123/235/6 125/232/6 107/231/6 108/236/6
f 115/234/6 124/233/6 121/228/6 111/227/6
f 118/237/6 126/238/6 123/235/6 108/236/6
f 118/237/6 112/224/6 119/223/6 126/238/6
f 59/117/5 75/74/5 112/239/5 118/240/5
f 97/187/5 121/186/5 124/197/5 100/196/5
f 53/73/5 113/241/5 112/239/5 75/74/5
f 96/242/1 120/243/1 122/184/1 98/180/1
f 58/203/3 102/244/3 126/245/3 119/204/3
f 38/80/4 109/189/4 114/201/4 54/81/4
f 57/193/1 116/192/1 120/243/1 96/242/1
f 59/119/1 118/246/1 108/194/1 72/86/1
f 99/183/4 123/182/4 126/247/4 102/248/4
f 40/78/3 107/249/3 115/200/3 55/75/3
f 76/133/6 91/250/6 78/251/6 66/252/6
f 76/133/6 69/253/6 84/254/6 91/250/6
f 77/255/2 90/256/2 87/257/2 52/258/2
f 77/255/2 39/175/2 82/259/2 90/256/2
f 82/260/1 78/261/1 91/262/1 90/263/1
f 87/264/5 90/265/5 91/266/5 84/267/5
